<?xml version="1.0" encoding="utf-8" standalone="no"?>
<!DOCTYPE svg PUBLIC "-//W3C//DTD SVG 1.1//EN"
  "http://www.w3.org/Graphics/SVG/1.1/DTD/svg11.dtd">
<svg xmlns:xlink="http://www.w3.org/1999/xlink" width="530.64pt" height="261.216pt" viewBox="0 0 530.64 261.216" xmlns="http://www.w3.org/2000/svg" version="1.1">
 <metadata>
  <rdf:RDF xmlns:dc="http://purl.org/dc/elements/1.1/" xmlns:cc="http://creativecommons.org/ns#" xmlns:rdf="http://www.w3.org/1999/02/22-rdf-syntax-ns#">
   <cc:Work>
    <dc:type rdf:resource="http://purl.org/dc/dcmitype/StillImage"/>
    <dc:date>2026-07-18T04:24:15.009059</dc:date>
    <dc:format>image/svg+xml</dc:format>
    <dc:creator>
     <cc:Agent>
      <dc:title>Matplotlib v3.11.0, https://matplotlib.org/</dc:title>
     </cc:Agent>
    </dc:creator>
   </cc:Work>
  </rdf:RDF>
 </metadata>
 <defs>
  <style type="text/css">*{stroke-linejoin: round; stroke-linecap: butt}</style>
 </defs>
 <g id="figure_1">
  <g id="patch_1">
   <path d="M 0 261.216 
L 530.64 261.216 
L 530.64 0 
L 0 0 
z
" style="fill: #ffffff"/>
  </g>
  <g id="axes_1">
   <g id="patch_2">
    <path d="M 269.053527 197.221292 
L 387.593018 197.221292 
Q 392.259927 197.221292 392.259927 192.530215 
L 392.259927 80.413477 
Q 392.259927 75.7224 387.593018 75.7224 
L 269.053527 75.7224 
Q 264.386618 75.7224 264.386618 80.413477 
L 264.386618 192.530215 
Q 264.386618 197.221292 269.053527 197.221292 
z
" clip-path="url(#p72fd8fda18)" style="fill: #f5f7ff; stroke: #c5cae9; stroke-width: 1.2; stroke-linejoin: miter"/>
   </g>
   <g id="patch_3">
    <path d="M 404.393891 197.221292 
L 522.933382 197.221292 
Q 527.600291 197.221292 527.600291 192.530215 
L 527.600291 80.413477 
Q 527.600291 75.7224 522.933382 75.7224 
L 404.393891 75.7224 
Q 399.726982 75.7224 399.726982 80.413477 
L 399.726982 192.530215 
Q 399.726982 197.221292 404.393891 197.221292 
z
" clip-path="url(#p72fd8fda18)" style="fill: #f5f7ff; stroke: #c5cae9; stroke-width: 1.2; stroke-linejoin: miter"/>
   </g>
   <g id="text_1">
    <!-- Two feasible plans · same margins -->
    <g style="fill: #1a237e" transform="translate(139.394688 20.367692) scale(0.13 -0.13)">
     <defs>
      <path id="DejaVuSans-Bold-37" d="M 31 4666 
L 4331 4666 
L 4331 3756 
L 2784 3756 
L 2784 0 
L 1581 0 
L 1581 3756 
L 31 3756 
L 31 4666 
z
" transform="scale(0.015625)"/>
      <path id="DejaVuSans-Bold-5a" d="M 225 3500 
L 1313 3500 
L 1900 1088 
L 2491 3500 
L 3425 3500 
L 4013 1113 
L 4603 3500 
L 5691 3500 
L 4769 0 
L 3547 0 
L 2956 2406 
L 2369 0 
L 1147 0 
L 225 3500 
z
" transform="scale(0.015625)"/>
      <path id="DejaVuSans-Bold-52" d="M 2203 2784 
Q 1831 2784 1636 2517 
Q 1441 2250 1441 1747 
Q 1441 1244 1636 976 
Q 1831 709 2203 709 
Q 2569 709 2762 976 
Q 2956 1244 2956 1747 
Q 2956 2250 2762 2517 
Q 2569 2784 2203 2784 
z
M 2203 3584 
Q 3106 3584 3614 3096 
Q 4122 2609 4122 1747 
Q 4122 884 3614 396 
Q 3106 -91 2203 -91 
Q 1297 -91 786 396 
Q 275 884 275 1747 
Q 275 2609 786 3096 
Q 1297 3584 2203 3584 
z
" transform="scale(0.015625)"/>
      <path id="DejaVuSans-Bold-3" transform="scale(0.015625)"/>
      <path id="DejaVuSans-Bold-49" d="M 2841 4863 
L 2841 4128 
L 2222 4128 
Q 1984 4128 1890 4042 
Q 1797 3956 1797 3744 
L 1797 3500 
L 2753 3500 
L 2753 2700 
L 1797 2700 
L 1797 0 
L 678 0 
L 678 2700 
L 122 2700 
L 122 3500 
L 678 3500 
L 678 3744 
Q 678 4316 997 4589 
Q 1316 4863 1984 4863 
L 2841 4863 
z
" transform="scale(0.015625)"/>
      <path id="DejaVuSans-Bold-48" d="M 4031 1759 
L 4031 1441 
L 1416 1441 
Q 1456 1047 1700 850 
Q 1944 653 2381 653 
Q 2734 653 3104 758 
Q 3475 863 3866 1075 
L 3866 213 
Q 3469 63 3072 -14 
Q 2675 -91 2278 -91 
Q 1328 -91 801 392 
Q 275 875 275 1747 
Q 275 2603 792 3093 
Q 1309 3584 2216 3584 
Q 3041 3584 3536 3087 
Q 4031 2591 4031 1759 
z
M 2881 2131 
Q 2881 2450 2695 2645 
Q 2509 2841 2209 2841 
Q 1884 2841 1681 2658 
Q 1478 2475 1428 2131 
L 2881 2131 
z
" transform="scale(0.015625)"/>
      <path id="DejaVuSans-Bold-44" d="M 2106 1575 
Q 1756 1575 1579 1456 
Q 1403 1338 1403 1106 
Q 1403 894 1545 773 
Q 1688 653 1941 653 
Q 2256 653 2472 879 
Q 2688 1106 2688 1447 
L 2688 1575 
L 2106 1575 
z
M 3816 1997 
L 3816 0 
L 2688 0 
L 2688 519 
Q 2463 200 2181 54 
Q 1900 -91 1497 -91 
Q 953 -91 614 226 
Q 275 544 275 1050 
Q 275 1666 698 1953 
Q 1122 2241 2028 2241 
L 2688 2241 
L 2688 2328 
Q 2688 2594 2478 2717 
Q 2269 2841 1825 2841 
Q 1466 2841 1156 2769 
Q 847 2697 581 2553 
L 581 3406 
Q 941 3494 1303 3539 
Q 1666 3584 2028 3584 
Q 2975 3584 3395 3211 
Q 3816 2838 3816 1997 
z
" transform="scale(0.015625)"/>
      <path id="DejaVuSans-Bold-56" d="M 3272 3391 
L 3272 2541 
Q 2913 2691 2578 2766 
Q 2244 2841 1947 2841 
Q 1628 2841 1473 2761 
Q 1319 2681 1319 2516 
Q 1319 2381 1436 2309 
Q 1553 2238 1856 2203 
L 2053 2175 
Q 2913 2066 3209 1816 
Q 3506 1566 3506 1031 
Q 3506 472 3093 190 
Q 2681 -91 1863 -91 
Q 1516 -91 1145 -36 
Q 775 19 384 128 
L 384 978 
Q 719 816 1070 734 
Q 1422 653 1784 653 
Q 2113 653 2278 743 
Q 2444 834 2444 1013 
Q 2444 1163 2330 1236 
Q 2216 1309 1875 1350 
L 1678 1375 
Q 931 1469 631 1722 
Q 331 1975 331 2491 
Q 331 3047 712 3315 
Q 1094 3584 1881 3584 
Q 2191 3584 2531 3537 
Q 2872 3491 3272 3391 
z
" transform="scale(0.015625)"/>
      <path id="DejaVuSans-Bold-4c" d="M 538 3500 
L 1656 3500 
L 1656 0 
L 538 0 
L 538 3500 
z
M 538 4863 
L 1656 4863 
L 1656 3950 
L 538 3950 
L 538 4863 
z
" transform="scale(0.015625)"/>
      <path id="DejaVuSans-Bold-45" d="M 2400 722 
Q 2759 722 2948 984 
Q 3138 1247 3138 1747 
Q 3138 2247 2948 2509 
Q 2759 2772 2400 2772 
Q 2041 2772 1848 2508 
Q 1656 2244 1656 1747 
Q 1656 1250 1848 986 
Q 2041 722 2400 722 
z
M 1656 2988 
Q 1888 3294 2169 3439 
Q 2450 3584 2816 3584 
Q 3463 3584 3878 3070 
Q 4294 2556 4294 1747 
Q 4294 938 3878 423 
Q 3463 -91 2816 -91 
Q 2450 -91 2169 54 
Q 1888 200 1656 506 
L 1656 0 
L 538 0 
L 538 4863 
L 1656 4863 
L 1656 2988 
z
" transform="scale(0.015625)"/>
      <path id="DejaVuSans-Bold-4f" d="M 538 4863 
L 1656 4863 
L 1656 0 
L 538 0 
L 538 4863 
z
" transform="scale(0.015625)"/>
      <path id="DejaVuSans-Bold-53" d="M 1656 506 
L 1656 -1331 
L 538 -1331 
L 538 3500 
L 1656 3500 
L 1656 2988 
Q 1888 3294 2169 3439 
Q 2450 3584 2816 3584 
Q 3463 3584 3878 3070 
Q 4294 2556 4294 1747 
Q 4294 938 3878 423 
Q 3463 -91 2816 -91 
Q 2450 -91 2169 54 
Q 1888 200 1656 506 
z
M 2400 2772 
Q 2041 2772 1848 2508 
Q 1656 2244 1656 1747 
Q 1656 1250 1848 986 
Q 2041 722 2400 722 
Q 2759 722 2948 984 
Q 3138 1247 3138 1747 
Q 3138 2247 2948 2509 
Q 2759 2772 2400 2772 
z
" transform="scale(0.015625)"/>
      <path id="DejaVuSans-Bold-51" d="M 4056 2131 
L 4056 0 
L 2931 0 
L 2931 347 
L 2931 1631 
Q 2931 2084 2911 2256 
Q 2891 2428 2841 2509 
Q 2775 2619 2662 2680 
Q 2550 2741 2406 2741 
Q 2056 2741 1856 2470 
Q 1656 2200 1656 1722 
L 1656 0 
L 538 0 
L 538 3500 
L 1656 3500 
L 1656 2988 
Q 1909 3294 2193 3439 
Q 2478 3584 2822 3584 
Q 3428 3584 3742 3212 
Q 4056 2841 4056 2131 
z
" transform="scale(0.015625)"/>
      <path id="DejaVuSans-Bold-79" d="M 653 2828 
L 1778 2828 
L 1778 1619 
L 653 1619 
L 653 2828 
z
" transform="scale(0.015625)"/>
      <path id="DejaVuSans-Bold-50" d="M 3781 2919 
Q 3994 3244 4286 3414 
Q 4578 3584 4928 3584 
Q 5531 3584 5847 3212 
Q 6163 2841 6163 2131 
L 6163 0 
L 5038 0 
L 5038 1825 
Q 5041 1866 5042 1909 
Q 5044 1953 5044 2034 
Q 5044 2406 4934 2573 
Q 4825 2741 4581 2741 
Q 4263 2741 4089 2478 
Q 3916 2216 3909 1719 
L 3909 0 
L 2784 0 
L 2784 1825 
Q 2784 2406 2684 2573 
Q 2584 2741 2328 2741 
Q 2006 2741 1831 2477 
Q 1656 2213 1656 1722 
L 1656 0 
L 531 0 
L 531 3500 
L 1656 3500 
L 1656 2988 
Q 1863 3284 2130 3434 
Q 2397 3584 2719 3584 
Q 3081 3584 3359 3409 
Q 3638 3234 3781 2919 
z
" transform="scale(0.015625)"/>
      <path id="DejaVuSans-Bold-55" d="M 3138 2547 
Q 2991 2616 2845 2648 
Q 2700 2681 2553 2681 
Q 2122 2681 1889 2404 
Q 1656 2128 1656 1613 
L 1656 0 
L 538 0 
L 538 3500 
L 1656 3500 
L 1656 2925 
Q 1872 3269 2151 3426 
Q 2431 3584 2822 3584 
Q 2878 3584 2943 3579 
Q 3009 3575 3134 3559 
L 3138 2547 
z
" transform="scale(0.015625)"/>
      <path id="DejaVuSans-Bold-4a" d="M 2919 594 
Q 2688 288 2409 144 
Q 2131 0 1766 0 
Q 1125 0 706 504 
Q 288 1009 288 1791 
Q 288 2575 706 3076 
Q 1125 3578 1766 3578 
Q 2131 3578 2409 3434 
Q 2688 3291 2919 2981 
L 2919 3500 
L 4044 3500 
L 4044 353 
Q 4044 -491 3511 -936 
Q 2978 -1381 1966 -1381 
Q 1638 -1381 1331 -1331 
Q 1025 -1281 716 -1178 
L 716 -306 
Q 1009 -475 1290 -558 
Q 1572 -641 1856 -641 
Q 2406 -641 2662 -400 
Q 2919 -159 2919 353 
L 2919 594 
z
M 2181 2772 
Q 1834 2772 1640 2515 
Q 1447 2259 1447 1791 
Q 1447 1309 1634 1061 
Q 1822 813 2181 813 
Q 2531 813 2725 1069 
Q 2919 1325 2919 1791 
Q 2919 2259 2725 2515 
Q 2531 2772 2181 2772 
z
" transform="scale(0.015625)"/>
     </defs>
     <use xlink:href="#DejaVuSans-Bold-37"/>
     <use xlink:href="#DejaVuSans-Bold-5a" transform="translate(57.234375 0)"/>
     <use xlink:href="#DejaVuSans-Bold-52" transform="translate(149.625 0)"/>
     <use xlink:href="#DejaVuSans-Bold-3" transform="translate(218.328125 0)"/>
     <use xlink:href="#DejaVuSans-Bold-49" transform="translate(253.140625 0)"/>
     <use xlink:href="#DejaVuSans-Bold-48" transform="translate(296.640625 0)"/>
     <use xlink:href="#DejaVuSans-Bold-44" transform="translate(364.46875 0)"/>
     <use xlink:href="#DejaVuSans-Bold-56" transform="translate(431.953125 0)"/>
     <use xlink:href="#DejaVuSans-Bold-4c" transform="translate(491.46875 0)"/>
     <use xlink:href="#DejaVuSans-Bold-45" transform="translate(525.75 0)"/>
     <use xlink:href="#DejaVuSans-Bold-4f" transform="translate(597.328125 0)"/>
     <use xlink:href="#DejaVuSans-Bold-48" transform="translate(631.609375 0)"/>
     <use xlink:href="#DejaVuSans-Bold-3" transform="translate(699.4375 0)"/>
     <use xlink:href="#DejaVuSans-Bold-53" transform="translate(734.25 0)"/>
     <use xlink:href="#DejaVuSans-Bold-4f" transform="translate(805.828125 0)"/>
     <use xlink:href="#DejaVuSans-Bold-44" transform="translate(840.109375 0)"/>
     <use xlink:href="#DejaVuSans-Bold-51" transform="translate(907.59375 0)"/>
     <use xlink:href="#DejaVuSans-Bold-56" transform="translate(978.78125 0)"/>
     <use xlink:href="#DejaVuSans-Bold-3" transform="translate(1038.296875 0)"/>
     <use xlink:href="#DejaVuSans-Bold-79" transform="translate(1073.109375 0)"/>
     <use xlink:href="#DejaVuSans-Bold-3" transform="translate(1111.09375 0)"/>
     <use xlink:href="#DejaVuSans-Bold-56" transform="translate(1145.90625 0)"/>
     <use xlink:href="#DejaVuSans-Bold-44" transform="translate(1205.421875 0)"/>
     <use xlink:href="#DejaVuSans-Bold-50" transform="translate(1272.90625 0)"/>
     <use xlink:href="#DejaVuSans-Bold-48" transform="translate(1377.109375 0)"/>
     <use xlink:href="#DejaVuSans-Bold-3" transform="translate(1444.9375 0)"/>
     <use xlink:href="#DejaVuSans-Bold-50" transform="translate(1479.75 0)"/>
     <use xlink:href="#DejaVuSans-Bold-44" transform="translate(1583.953125 0)"/>
     <use xlink:href="#DejaVuSans-Bold-55" transform="translate(1651.4375 0)"/>
     <use xlink:href="#DejaVuSans-Bold-4a" transform="translate(1700.75 0)"/>
     <use xlink:href="#DejaVuSans-Bold-4c" transform="translate(1772.328125 0)"/>
     <use xlink:href="#DejaVuSans-Bold-51" transform="translate(1806.609375 0)"/>
     <use xlink:href="#DejaVuSans-Bold-56" transform="translate(1877.796875 0)"/>
    </g>
   </g>
   <g id="text_2">
    <!-- a = [0.4, 0.6]   ·   b = [0.2, 0.8] -->
    <g style="fill: #607d8b" transform="translate(191.159883 36.786462) scale(0.095 -0.095)">
     <defs>
      <path id="DejaVuSans-44" d="M 2194 1759 
Q 1497 1759 1228 1600 
Q 959 1441 959 1056 
Q 959 750 1161 570 
Q 1363 391 1709 391 
Q 2188 391 2477 730 
Q 2766 1069 2766 1631 
L 2766 1759 
L 2194 1759 
z
M 3341 1997 
L 3341 0 
L 2766 0 
L 2766 531 
Q 2569 213 2275 61 
Q 1981 -91 1556 -91 
Q 1019 -91 701 211 
Q 384 513 384 1019 
Q 384 1609 779 1909 
Q 1175 2209 1959 2209 
L 2766 2209 
L 2766 2266 
Q 2766 2663 2505 2880 
Q 2244 3097 1772 3097 
Q 1472 3097 1187 3025 
Q 903 2953 641 2809 
L 641 3341 
Q 956 3463 1253 3523 
Q 1550 3584 1831 3584 
Q 2591 3584 2966 3190 
Q 3341 2797 3341 1997 
z
" transform="scale(0.015625)"/>
      <path id="DejaVuSans-3" transform="scale(0.015625)"/>
      <path id="DejaVuSans-20" d="M 678 2906 
L 4684 2906 
L 4684 2381 
L 678 2381 
L 678 2906 
z
M 678 1631 
L 4684 1631 
L 4684 1100 
L 678 1100 
L 678 1631 
z
" transform="scale(0.015625)"/>
      <path id="DejaVuSans-3e" d="M 550 4863 
L 1875 4863 
L 1875 4416 
L 1125 4416 
L 1125 -397 
L 1875 -397 
L 1875 -844 
L 550 -844 
L 550 4863 
z
" transform="scale(0.015625)"/>
      <path id="DejaVuSans-13" d="M 2034 4250 
Q 1547 4250 1301 3770 
Q 1056 3291 1056 2328 
Q 1056 1369 1301 889 
Q 1547 409 2034 409 
Q 2525 409 2770 889 
Q 3016 1369 3016 2328 
Q 3016 3291 2770 3770 
Q 2525 4250 2034 4250 
z
M 2034 4750 
Q 2819 4750 3233 4129 
Q 3647 3509 3647 2328 
Q 3647 1150 3233 529 
Q 2819 -91 2034 -91 
Q 1250 -91 836 529 
Q 422 1150 422 2328 
Q 422 3509 836 4129 
Q 1250 4750 2034 4750 
z
" transform="scale(0.015625)"/>
      <path id="DejaVuSans-11" d="M 684 794 
L 1344 794 
L 1344 0 
L 684 0 
L 684 794 
z
" transform="scale(0.015625)"/>
      <path id="DejaVuSans-17" d="M 2419 4116 
L 825 1625 
L 2419 1625 
L 2419 4116 
z
M 2253 4666 
L 3047 4666 
L 3047 1625 
L 3713 1625 
L 3713 1100 
L 3047 1100 
L 3047 0 
L 2419 0 
L 2419 1100 
L 313 1100 
L 313 1709 
L 2253 4666 
z
" transform="scale(0.015625)"/>
      <path id="DejaVuSans-f" d="M 750 794 
L 1409 794 
L 1409 256 
L 897 -744 
L 494 -744 
L 750 256 
L 750 794 
z
" transform="scale(0.015625)"/>
      <path id="DejaVuSans-19" d="M 2113 2584 
Q 1688 2584 1439 2293 
Q 1191 2003 1191 1497 
Q 1191 994 1439 701 
Q 1688 409 2113 409 
Q 2538 409 2786 701 
Q 3034 994 3034 1497 
Q 3034 2003 2786 2293 
Q 2538 2584 2113 2584 
z
M 3366 4563 
L 3366 3988 
Q 3128 4100 2886 4159 
Q 2644 4219 2406 4219 
Q 1781 4219 1451 3797 
Q 1122 3375 1075 2522 
Q 1259 2794 1537 2939 
Q 1816 3084 2150 3084 
Q 2853 3084 3261 2657 
Q 3669 2231 3669 1497 
Q 3669 778 3244 343 
Q 2819 -91 2113 -91 
Q 1303 -91 875 529 
Q 447 1150 447 2328 
Q 447 3434 972 4092 
Q 1497 4750 2381 4750 
Q 2619 4750 2861 4703 
Q 3103 4656 3366 4563 
z
" transform="scale(0.015625)"/>
      <path id="DejaVuSans-40" d="M 1947 4863 
L 1947 -844 
L 622 -844 
L 622 -397 
L 1369 -397 
L 1369 4416 
L 622 4416 
L 622 4863 
L 1947 4863 
z
" transform="scale(0.015625)"/>
      <path id="DejaVuSans-79" d="M 684 2619 
L 1344 2619 
L 1344 1825 
L 684 1825 
L 684 2619 
z
" transform="scale(0.015625)"/>
      <path id="DejaVuSans-45" d="M 3116 1747 
Q 3116 2381 2855 2742 
Q 2594 3103 2138 3103 
Q 1681 3103 1420 2742 
Q 1159 2381 1159 1747 
Q 1159 1113 1420 752 
Q 1681 391 2138 391 
Q 2594 391 2855 752 
Q 3116 1113 3116 1747 
z
M 1159 2969 
Q 1341 3281 1617 3432 
Q 1894 3584 2278 3584 
Q 2916 3584 3314 3078 
Q 3713 2572 3713 1747 
Q 3713 922 3314 415 
Q 2916 -91 2278 -91 
Q 1894 -91 1617 61 
Q 1341 213 1159 525 
L 1159 0 
L 581 0 
L 581 4863 
L 1159 4863 
L 1159 2969 
z
" transform="scale(0.015625)"/>
      <path id="DejaVuSans-15" d="M 1228 531 
L 3431 531 
L 3431 0 
L 469 0 
L 469 531 
Q 828 903 1448 1529 
Q 2069 2156 2228 2338 
Q 2531 2678 2651 2914 
Q 2772 3150 2772 3378 
Q 2772 3750 2511 3984 
Q 2250 4219 1831 4219 
Q 1534 4219 1204 4116 
Q 875 4013 500 3803 
L 500 4441 
Q 881 4594 1212 4672 
Q 1544 4750 1819 4750 
Q 2544 4750 2975 4387 
Q 3406 4025 3406 3419 
Q 3406 3131 3298 2873 
Q 3191 2616 2906 2266 
Q 2828 2175 2409 1742 
Q 1991 1309 1228 531 
z
" transform="scale(0.015625)"/>
      <path id="DejaVuSans-1b" d="M 2034 2216 
Q 1584 2216 1326 1975 
Q 1069 1734 1069 1313 
Q 1069 891 1326 650 
Q 1584 409 2034 409 
Q 2484 409 2743 651 
Q 3003 894 3003 1313 
Q 3003 1734 2745 1975 
Q 2488 2216 2034 2216 
z
M 1403 2484 
Q 997 2584 770 2862 
Q 544 3141 544 3541 
Q 544 4100 942 4425 
Q 1341 4750 2034 4750 
Q 2731 4750 3128 4425 
Q 3525 4100 3525 3541 
Q 3525 3141 3298 2862 
Q 3072 2584 2669 2484 
Q 3125 2378 3379 2068 
Q 3634 1759 3634 1313 
Q 3634 634 3220 271 
Q 2806 -91 2034 -91 
Q 1263 -91 848 271 
Q 434 634 434 1313 
Q 434 1759 690 2068 
Q 947 2378 1403 2484 
z
M 1172 3481 
Q 1172 3119 1398 2916 
Q 1625 2713 2034 2713 
Q 2441 2713 2670 2916 
Q 2900 3119 2900 3481 
Q 2900 3844 2670 4047 
Q 2441 4250 2034 4250 
Q 1625 4250 1398 4047 
Q 1172 3844 1172 3481 
z
" transform="scale(0.015625)"/>
     </defs>
     <use xlink:href="#DejaVuSans-44"/>
     <use xlink:href="#DejaVuSans-3" transform="translate(61.28125 0)"/>
     <use xlink:href="#DejaVuSans-20" transform="translate(93.0625 0)"/>
     <use xlink:href="#DejaVuSans-3" transform="translate(176.859375 0)"/>
     <use xlink:href="#DejaVuSans-3e" transform="translate(208.640625 0)"/>
     <use xlink:href="#DejaVuSans-13" transform="translate(247.65625 0)"/>
     <use xlink:href="#DejaVuSans-11" transform="translate(311.28125 0)"/>
     <use xlink:href="#DejaVuSans-17" transform="translate(343.0625 0)"/>
     <use xlink:href="#DejaVuSans-f" transform="translate(406.6875 0)"/>
     <use xlink:href="#DejaVuSans-3" transform="translate(438.46875 0)"/>
     <use xlink:href="#DejaVuSans-13" transform="translate(470.25 0)"/>
     <use xlink:href="#DejaVuSans-11" transform="translate(533.875 0)"/>
     <use xlink:href="#DejaVuSans-19" transform="translate(565.65625 0)"/>
     <use xlink:href="#DejaVuSans-40" transform="translate(629.28125 0)"/>
     <use xlink:href="#DejaVuSans-3" transform="translate(668.296875 0)"/>
     <use xlink:href="#DejaVuSans-3" transform="translate(700.078125 0)"/>
     <use xlink:href="#DejaVuSans-3" transform="translate(731.859375 0)"/>
     <use xlink:href="#DejaVuSans-79" transform="translate(763.640625 0)"/>
     <use xlink:href="#DejaVuSans-3" transform="translate(795.421875 0)"/>
     <use xlink:href="#DejaVuSans-3" transform="translate(827.203125 0)"/>
     <use xlink:href="#DejaVuSans-3" transform="translate(858.984375 0)"/>
     <use xlink:href="#DejaVuSans-45" transform="translate(890.765625 0)"/>
     <use xlink:href="#DejaVuSans-3" transform="translate(954.25 0)"/>
     <use xlink:href="#DejaVuSans-20" transform="translate(986.03125 0)"/>
     <use xlink:href="#DejaVuSans-3" transform="translate(1069.828125 0)"/>
     <use xlink:href="#DejaVuSans-3e" transform="translate(1101.609375 0)"/>
     <use xlink:href="#DejaVuSans-13" transform="translate(1140.625 0)"/>
     <use xlink:href="#DejaVuSans-11" transform="translate(1204.25 0)"/>
     <use xlink:href="#DejaVuSans-15" transform="translate(1236.03125 0)"/>
     <use xlink:href="#DejaVuSans-f" transform="translate(1299.65625 0)"/>
     <use xlink:href="#DejaVuSans-3" transform="translate(1331.4375 0)"/>
     <use xlink:href="#DejaVuSans-13" transform="translate(1363.21875 0)"/>
     <use xlink:href="#DejaVuSans-11" transform="translate(1426.84375 0)"/>
     <use xlink:href="#DejaVuSans-1b" transform="translate(1458.625 0)"/>
     <use xlink:href="#DejaVuSans-40" transform="translate(1522.25 0)"/>
    </g>
   </g>
   <g id="patch_4">
    <path d="M 69.309818 110.905477 
C 74.012997 110.905477 78.52418 109.027207 81.84983 105.684335 
C 85.17548 102.341463 87.044073 97.80692 87.044073 93.079385 
C 87.044073 88.35185 85.17548 83.817306 81.84983 80.474434 
C 78.52418 77.131562 74.012997 75.253292 69.309818 75.253292 
C 64.606639 75.253292 60.095456 77.131562 56.769807 80.474434 
C 53.444157 83.817306 51.575564 88.35185 51.575564 93.079385 
C 51.575564 97.80692 53.444157 102.341463 56.769807 105.684335 
C 60.095456 109.027207 64.606639 110.905477 69.309818 110.905477 
z
" clip-path="url(#p72fd8fda18)" style="fill: #ffffff; stroke: #2e7d32; stroke-width: 2; stroke-linejoin: miter"/>
   </g>
   <g id="text_3">
    <!-- a=0.4 -->
    <g style="fill: #607d8b" transform="translate(56.38517 122.164062) scale(0.085 -0.085)">
     <use xlink:href="#DejaVuSans-44"/>
     <use xlink:href="#DejaVuSans-20" transform="translate(61.28125 0)"/>
     <use xlink:href="#DejaVuSans-13" transform="translate(145.078125 0)"/>
     <use xlink:href="#DejaVuSans-11" transform="translate(208.703125 0)"/>
     <use xlink:href="#DejaVuSans-17" transform="translate(240.484375 0)"/>
    </g>
   </g>
   <g id="patch_5">
    <path d="M 69.309818 200.035938 
C 74.012997 200.035938 78.52418 198.157669 81.84983 194.814797 
C 85.17548 191.471925 87.044073 186.937381 87.044073 182.209846 
C 87.044073 177.482311 85.17548 172.947767 81.84983 169.604895 
C 78.52418 166.262023 74.012997 164.383754 69.309818 164.383754 
C 64.606639 164.383754 60.095456 166.262023 56.769807 169.604895 
C 53.444157 172.947767 51.575564 177.482311 51.575564 182.209846 
C 51.575564 186.937381 53.444157 191.471925 56.769807 194.814797 
C 60.095456 198.157669 64.606639 200.035938 69.309818 200.035938 
z
" clip-path="url(#p72fd8fda18)" style="fill: #ffffff; stroke: #2e7d32; stroke-width: 2; stroke-linejoin: miter"/>
   </g>
   <g id="text_4">
    <!-- a=0.6 -->
    <g style="fill: #607d8b" transform="translate(56.38517 211.294523) scale(0.085 -0.085)">
     <use xlink:href="#DejaVuSans-44"/>
     <use xlink:href="#DejaVuSans-20" transform="translate(61.28125 0)"/>
     <use xlink:href="#DejaVuSans-13" transform="translate(145.078125 0)"/>
     <use xlink:href="#DejaVuSans-11" transform="translate(208.703125 0)"/>
     <use xlink:href="#DejaVuSans-19" transform="translate(240.484375 0)"/>
    </g>
   </g>
   <g id="patch_6">
    <path d="M 195.316364 110.905477 
C 200.019543 110.905477 204.530725 109.027207 207.856375 105.684335 
C 211.182025 102.341463 213.050618 97.80692 213.050618 93.079385 
C 213.050618 88.35185 211.182025 83.817306 207.856375 80.474434 
C 204.530725 77.131562 200.019543 75.253292 195.316364 75.253292 
C 190.613184 75.253292 186.102002 77.131562 182.776352 80.474434 
C 179.450702 83.817306 177.582109 88.35185 177.582109 93.079385 
C 177.582109 97.80692 179.450702 102.341463 182.776352 105.684335 
C 186.102002 109.027207 190.613184 110.905477 195.316364 110.905477 
z
" clip-path="url(#p72fd8fda18)" style="fill: #ffffff; stroke: #c62828; stroke-width: 2; stroke-linejoin: miter"/>
   </g>
   <g id="text_5">
    <!-- b=0.2 -->
    <g style="fill: #607d8b" transform="translate(182.298082 122.164062) scale(0.085 -0.085)">
     <use xlink:href="#DejaVuSans-45"/>
     <use xlink:href="#DejaVuSans-20" transform="translate(63.484375 0)"/>
     <use xlink:href="#DejaVuSans-13" transform="translate(147.28125 0)"/>
     <use xlink:href="#DejaVuSans-11" transform="translate(210.90625 0)"/>
     <use xlink:href="#DejaVuSans-15" transform="translate(242.6875 0)"/>
    </g>
   </g>
   <g id="patch_7">
    <path d="M 195.316364 200.035938 
C 200.019543 200.035938 204.530725 198.157669 207.856375 194.814797 
C 211.182025 191.471925 213.050618 186.937381 213.050618 182.209846 
C 213.050618 177.482311 211.182025 172.947767 207.856375 169.604895 
C 204.530725 166.262023 200.019543 164.383754 195.316364 164.383754 
C 190.613184 164.383754 186.102002 166.262023 182.776352 169.604895 
C 179.450702 172.947767 177.582109 177.482311 177.582109 182.209846 
C 177.582109 186.937381 179.450702 191.471925 182.776352 194.814797 
C 186.102002 198.157669 190.613184 200.035938 195.316364 200.035938 
z
" clip-path="url(#p72fd8fda18)" style="fill: #ffffff; stroke: #c62828; stroke-width: 2; stroke-linejoin: miter"/>
   </g>
   <g id="text_6">
    <!-- b=0.8 -->
    <g style="fill: #607d8b" transform="translate(182.298082 211.294523) scale(0.085 -0.085)">
     <use xlink:href="#DejaVuSans-45"/>
     <use xlink:href="#DejaVuSans-20" transform="translate(63.484375 0)"/>
     <use xlink:href="#DejaVuSans-13" transform="translate(147.28125 0)"/>
     <use xlink:href="#DejaVuSans-11" transform="translate(210.90625 0)"/>
     <use xlink:href="#DejaVuSans-1b" transform="translate(242.6875 0)"/>
    </g>
   </g>
   <g id="text_7">
    <!-- sources -->
    <g style="fill: #2e7d32" transform="translate(50.807709 57.896308) scale(0.085 -0.085)">
     <defs>
      <path id="DejaVuSans-Bold-58" d="M 500 1363 
L 500 3500 
L 1625 3500 
L 1625 3150 
Q 1625 2866 1622 2436 
Q 1619 2006 1619 1863 
Q 1619 1441 1641 1255 
Q 1663 1069 1716 984 
Q 1784 875 1895 815 
Q 2006 756 2150 756 
Q 2500 756 2700 1025 
Q 2900 1294 2900 1772 
L 2900 3500 
L 4019 3500 
L 4019 0 
L 2900 0 
L 2900 506 
Q 2647 200 2364 54 
Q 2081 -91 1741 -91 
Q 1134 -91 817 281 
Q 500 653 500 1363 
z
" transform="scale(0.015625)"/>
      <path id="DejaVuSans-Bold-46" d="M 3366 3391 
L 3366 2478 
Q 3138 2634 2908 2709 
Q 2678 2784 2431 2784 
Q 1963 2784 1702 2511 
Q 1441 2238 1441 1747 
Q 1441 1256 1702 982 
Q 1963 709 2431 709 
Q 2694 709 2930 787 
Q 3166 866 3366 1019 
L 3366 103 
Q 3103 6 2833 -42 
Q 2563 -91 2291 -91 
Q 1344 -91 809 395 
Q 275 881 275 1747 
Q 275 2613 809 3098 
Q 1344 3584 2291 3584 
Q 2566 3584 2833 3536 
Q 3100 3488 3366 3391 
z
" transform="scale(0.015625)"/>
     </defs>
     <use xlink:href="#DejaVuSans-Bold-56"/>
     <use xlink:href="#DejaVuSans-Bold-52" transform="translate(59.515625 0)"/>
     <use xlink:href="#DejaVuSans-Bold-58" transform="translate(128.21875 0)"/>
     <use xlink:href="#DejaVuSans-Bold-55" transform="translate(199.40625 0)"/>
     <use xlink:href="#DejaVuSans-Bold-46" transform="translate(248.71875 0)"/>
     <use xlink:href="#DejaVuSans-Bold-48" transform="translate(308 0)"/>
     <use xlink:href="#DejaVuSans-Bold-56" transform="translate(375.828125 0)"/>
    </g>
   </g>
   <g id="text_8">
    <!-- targets -->
    <g style="fill: #c62828" transform="translate(177.835582 57.896308) scale(0.085 -0.085)">
     <defs>
      <path id="DejaVuSans-Bold-57" d="M 1759 4494 
L 1759 3500 
L 2913 3500 
L 2913 2700 
L 1759 2700 
L 1759 1216 
Q 1759 972 1856 886 
Q 1953 800 2241 800 
L 2816 800 
L 2816 0 
L 1856 0 
Q 1194 0 917 276 
Q 641 553 641 1216 
L 641 2700 
L 84 2700 
L 84 3500 
L 641 3500 
L 641 4494 
L 1759 4494 
z
" transform="scale(0.015625)"/>
     </defs>
     <use xlink:href="#DejaVuSans-Bold-57"/>
     <use xlink:href="#DejaVuSans-Bold-44" transform="translate(47.796875 0)"/>
     <use xlink:href="#DejaVuSans-Bold-55" transform="translate(115.28125 0)"/>
     <use xlink:href="#DejaVuSans-Bold-4a" transform="translate(164.59375 0)"/>
     <use xlink:href="#DejaVuSans-Bold-48" transform="translate(236.171875 0)"/>
     <use xlink:href="#DejaVuSans-Bold-57" transform="translate(304 0)"/>
     <use xlink:href="#DejaVuSans-Bold-56" transform="translate(351.796875 0)"/>
    </g>
   </g>
   <g id="patch_8">
    <path d="M 92.313088 93.079385 
Q 132.314429 93.079385 170.034979 93.079385 
" style="fill: none; stroke: #455a64; stroke-width: 2.04; stroke-linecap: round"/>
    <path d="M 166.034979 91.079385 
L 170.034979 93.079385 
L 166.034979 95.079385 
z
" style="fill: #455a64; stroke: #455a64; stroke-width: 2.04; stroke-linecap: round"/>
   </g>
   <g id="text_9">
    <g id="patch_9">
     <path d="M 124.784614 89.905446 
L 139.841567 89.905446 
Q 140.861567 89.905446 140.861567 88.885446 
L 140.861567 80.385446 
Q 140.861567 79.365446 139.841567 79.365446 
L 124.784614 79.365446 
Q 123.764614 79.365446 123.764614 80.385446 
L 123.764614 88.885446 
Q 123.764614 89.905446 124.784614 89.905446 
z
" style="fill: #ffffff; stroke: #e8eaf6; stroke-width: 0.8; stroke-linejoin: miter"/>
    </g>
    <!-- 0.2 -->
    <g style="fill: #303f9f" transform="translate(124.784614 86.843454) scale(0.085 -0.085)">
     <defs>
      <path id="DejaVuSans-Bold-13" d="M 2944 2338 
Q 2944 3213 2780 3570 
Q 2616 3928 2228 3928 
Q 1841 3928 1675 3570 
Q 1509 3213 1509 2338 
Q 1509 1453 1675 1090 
Q 1841 728 2228 728 
Q 2613 728 2778 1090 
Q 2944 1453 2944 2338 
z
M 4147 2328 
Q 4147 1169 3647 539 
Q 3147 -91 2228 -91 
Q 1306 -91 806 539 
Q 306 1169 306 2328 
Q 306 3491 806 4120 
Q 1306 4750 2228 4750 
Q 3147 4750 3647 4120 
Q 4147 3491 4147 2328 
z
" transform="scale(0.015625)"/>
      <path id="DejaVuSans-Bold-11" d="M 653 1209 
L 1778 1209 
L 1778 0 
L 653 0 
L 653 1209 
z
" transform="scale(0.015625)"/>
      <path id="DejaVuSans-Bold-15" d="M 1844 884 
L 3897 884 
L 3897 0 
L 506 0 
L 506 884 
L 2209 2388 
Q 2438 2594 2547 2791 
Q 2656 2988 2656 3200 
Q 2656 3528 2436 3728 
Q 2216 3928 1850 3928 
Q 1569 3928 1234 3808 
Q 900 3688 519 3450 
L 519 4475 
Q 925 4609 1322 4679 
Q 1719 4750 2100 4750 
Q 2938 4750 3402 4381 
Q 3866 4013 3866 3353 
Q 3866 2972 3669 2642 
Q 3472 2313 2841 1759 
L 1844 884 
z
" transform="scale(0.015625)"/>
     </defs>
     <use xlink:href="#DejaVuSans-Bold-13"/>
     <use xlink:href="#DejaVuSans-Bold-11" transform="translate(69.578125 0)"/>
     <use xlink:href="#DejaVuSans-Bold-15" transform="translate(107.5625 0)"/>
    </g>
   </g>
   <g id="patch_10">
    <path d="M 88.115381 106.38146 
Q 132.311113 137.643217 174.6448 167.58786 
" style="fill: none; stroke: #455a64; stroke-width: 2.04; stroke-linecap: round"/>
    <path d="M 172.534148 163.645126 
L 174.6448 167.58786 
L 170.224222 166.910742 
z
" style="fill: #455a64; stroke: #455a64; stroke-width: 2.04; stroke-linecap: round"/>
   </g>
   <g id="text_10">
    <g id="patch_11">
     <path d="M 129.61901 136.009108 
L 144.675963 136.009108 
Q 145.695963 136.009108 145.695963 134.989108 
L 145.695963 126.489108 
Q 145.695963 125.469108 144.675963 125.469108 
L 129.61901 125.469108 
Q 128.59901 125.469108 128.59901 126.489108 
L 128.59901 134.989108 
Q 128.59901 136.009108 129.61901 136.009108 
z
" style="fill: #ffffff; stroke: #e8eaf6; stroke-width: 0.8; stroke-linejoin: miter"/>
    </g>
    <!-- 0.2 -->
    <g style="fill: #303f9f" transform="translate(129.61901 132.947116) scale(0.085 -0.085)">
     <use xlink:href="#DejaVuSans-Bold-13"/>
     <use xlink:href="#DejaVuSans-Bold-11" transform="translate(69.578125 0)"/>
     <use xlink:href="#DejaVuSans-Bold-15" transform="translate(107.5625 0)"/>
    </g>
   </g>
   <g id="patch_12">
    <path d="M 88.115381 168.907771 
Q 132.311113 137.646014 175.594078 107.029901 
" style="fill: none; stroke-dasharray: 3,2; stroke-dashoffset: 0; stroke: #90a4ae; stroke-linecap: round"/>
    <path d="M 171.1735 107.70702 
L 175.594078 107.029901 
L 173.483426 110.972635 
z
" style="fill: #90a4ae; stroke-dasharray: 3,2; stroke-dashoffset: 0; stroke: #90a4ae; stroke-linecap: round"/>
   </g>
   <g id="patch_13">
    <path d="M 92.313088 182.209846 
Q 132.314429 182.209846 169.498323 182.209846 
" style="fill: none; stroke: #455a64; stroke-width: 2.52; stroke-linecap: round"/>
    <path d="M 165.498323 180.209846 
L 169.498323 182.209846 
L 165.498323 184.209846 
z
" style="fill: #455a64; stroke: #455a64; stroke-width: 2.52; stroke-linecap: round"/>
   </g>
   <g id="text_11">
    <g id="patch_14">
     <path d="M 124.784614 179.035908 
L 139.841567 179.035908 
Q 140.861567 179.035908 140.861567 178.015908 
L 140.861567 169.515908 
Q 140.861567 168.495908 139.841567 168.495908 
L 124.784614 168.495908 
Q 123.764614 168.495908 123.764614 169.515908 
L 123.764614 178.015908 
Q 123.764614 179.035908 124.784614 179.035908 
z
" style="fill: #ffffff; stroke: #e8eaf6; stroke-width: 0.8; stroke-linejoin: miter"/>
    </g>
    <!-- 0.6 -->
    <g style="fill: #303f9f" transform="translate(124.784614 175.973916) scale(0.085 -0.085)">
     <defs>
      <path id="DejaVuSans-Bold-19" d="M 2316 2303 
Q 2000 2303 1842 2098 
Q 1684 1894 1684 1484 
Q 1684 1075 1842 870 
Q 2000 666 2316 666 
Q 2634 666 2792 870 
Q 2950 1075 2950 1484 
Q 2950 1894 2792 2098 
Q 2634 2303 2316 2303 
z
M 3803 4544 
L 3803 3681 
Q 3506 3822 3243 3889 
Q 2981 3956 2731 3956 
Q 2194 3956 1894 3657 
Q 1594 3359 1544 2772 
Q 1750 2925 1990 3001 
Q 2231 3078 2516 3078 
Q 3231 3078 3670 2659 
Q 4109 2241 4109 1563 
Q 4109 813 3618 361 
Q 3128 -91 2303 -91 
Q 1394 -91 895 523 
Q 397 1138 397 2266 
Q 397 3422 980 4083 
Q 1563 4744 2578 4744 
Q 2900 4744 3203 4694 
Q 3506 4644 3803 4544 
z
" transform="scale(0.015625)"/>
     </defs>
     <use xlink:href="#DejaVuSans-Bold-13"/>
     <use xlink:href="#DejaVuSans-Bold-11" transform="translate(69.578125 0)"/>
     <use xlink:href="#DejaVuSans-Bold-19" transform="translate(107.5625 0)"/>
    </g>
   </g>
   <g id="text_12">
    <!-- P1 (sharper) -->
    <g style="fill: #303f9f" transform="translate(293.057648 90.733846) scale(0.1 -0.1)">
     <defs>
      <path id="DejaVuSans-Bold-33" d="M 588 4666 
L 2584 4666 
Q 3475 4666 3951 4270 
Q 4428 3875 4428 3144 
Q 4428 2409 3951 2014 
Q 3475 1619 2584 1619 
L 1791 1619 
L 1791 0 
L 588 0 
L 588 4666 
z
M 1791 3794 
L 1791 2491 
L 2456 2491 
Q 2806 2491 2997 2661 
Q 3188 2831 3188 3144 
Q 3188 3456 2997 3625 
Q 2806 3794 2456 3794 
L 1791 3794 
z
" transform="scale(0.015625)"/>
      <path id="DejaVuSans-Bold-14" d="M 750 831 
L 1813 831 
L 1813 3847 
L 722 3622 
L 722 4441 
L 1806 4666 
L 2950 4666 
L 2950 831 
L 4013 831 
L 4013 0 
L 750 0 
L 750 831 
z
" transform="scale(0.015625)"/>
      <path id="DejaVuSans-Bold-b" d="M 2413 -844 
L 1484 -844 
Q 1006 -72 778 623 
Q 550 1319 550 2003 
Q 550 2688 779 3389 
Q 1009 4091 1484 4856 
L 2413 4856 
Q 2013 4116 1813 3408 
Q 1613 2700 1613 2009 
Q 1613 1319 1811 609 
Q 2009 -100 2413 -844 
z
" transform="scale(0.015625)"/>
      <path id="DejaVuSans-Bold-4b" d="M 4056 2131 
L 4056 0 
L 2931 0 
L 2931 347 
L 2931 1625 
Q 2931 2084 2911 2256 
Q 2891 2428 2841 2509 
Q 2775 2619 2662 2680 
Q 2550 2741 2406 2741 
Q 2056 2741 1856 2470 
Q 1656 2200 1656 1722 
L 1656 0 
L 538 0 
L 538 4863 
L 1656 4863 
L 1656 2988 
Q 1909 3294 2193 3439 
Q 2478 3584 2822 3584 
Q 3428 3584 3742 3212 
Q 4056 2841 4056 2131 
z
" transform="scale(0.015625)"/>
      <path id="DejaVuSans-Bold-c" d="M 513 -844 
Q 913 -100 1113 609 
Q 1313 1319 1313 2009 
Q 1313 2700 1113 3408 
Q 913 4116 513 4856 
L 1441 4856 
Q 1916 4091 2145 3389 
Q 2375 2688 2375 2003 
Q 2375 1319 2147 623 
Q 1919 -72 1441 -844 
L 513 -844 
z
" transform="scale(0.015625)"/>
     </defs>
     <use xlink:href="#DejaVuSans-Bold-33"/>
     <use xlink:href="#DejaVuSans-Bold-14" transform="translate(73.296875 0)"/>
     <use xlink:href="#DejaVuSans-Bold-3" transform="translate(142.875 0)"/>
     <use xlink:href="#DejaVuSans-Bold-b" transform="translate(177.6875 0)"/>
     <use xlink:href="#DejaVuSans-Bold-56" transform="translate(223.390625 0)"/>
     <use xlink:href="#DejaVuSans-Bold-4b" transform="translate(282.90625 0)"/>
     <use xlink:href="#DejaVuSans-Bold-44" transform="translate(354.09375 0)"/>
     <use xlink:href="#DejaVuSans-Bold-55" transform="translate(421.578125 0)"/>
     <use xlink:href="#DejaVuSans-Bold-53" transform="translate(470.890625 0)"/>
     <use xlink:href="#DejaVuSans-Bold-48" transform="translate(542.46875 0)"/>
     <use xlink:href="#DejaVuSans-Bold-55" transform="translate(610.296875 0)"/>
     <use xlink:href="#DejaVuSans-Bold-c" transform="translate(659.609375 0)"/>
    </g>
   </g>
   <g id="text_13">
    <!-- H ~ 1.95 -->
    <g style="fill: #607d8b" transform="translate(309.401476 107.152615) scale(0.085 -0.085)">
     <defs>
      <path id="DejaVuSans-2b" d="M 628 4666 
L 1259 4666 
L 1259 2753 
L 3553 2753 
L 3553 4666 
L 4184 4666 
L 4184 0 
L 3553 0 
L 3553 2222 
L 1259 2222 
L 1259 0 
L 628 0 
L 628 4666 
z
" transform="scale(0.015625)"/>
      <path id="DejaVuSans-61" d="M 4684 2553 
L 4684 1997 
Q 4356 1750 4076 1644 
Q 3797 1538 3494 1538 
Q 3150 1538 2694 1722 
Q 2659 1734 2644 1741 
Q 2622 1750 2575 1766 
Q 2091 1959 1797 1959 
Q 1522 1959 1253 1839 
Q 984 1719 678 1459 
L 678 2016 
Q 1006 2263 1286 2370 
Q 1566 2478 1869 2478 
Q 2213 2478 2672 2291 
Q 2703 2278 2719 2272 
Q 2744 2263 2788 2247 
Q 3272 2053 3566 2053 
Q 3834 2053 4098 2172 
Q 4363 2291 4684 2553 
z
" transform="scale(0.015625)"/>
      <path id="DejaVuSans-14" d="M 794 531 
L 1825 531 
L 1825 4091 
L 703 3866 
L 703 4441 
L 1819 4666 
L 2450 4666 
L 2450 531 
L 3481 531 
L 3481 0 
L 794 0 
L 794 531 
z
" transform="scale(0.015625)"/>
      <path id="DejaVuSans-1c" d="M 703 97 
L 703 672 
Q 941 559 1184 500 
Q 1428 441 1663 441 
Q 2288 441 2617 861 
Q 2947 1281 2994 2138 
Q 2813 1869 2534 1725 
Q 2256 1581 1919 1581 
Q 1219 1581 811 2004 
Q 403 2428 403 3163 
Q 403 3881 828 4315 
Q 1253 4750 1959 4750 
Q 2769 4750 3195 4129 
Q 3622 3509 3622 2328 
Q 3622 1225 3098 567 
Q 2575 -91 1691 -91 
Q 1453 -91 1209 -44 
Q 966 3 703 97 
z
M 1959 2075 
Q 2384 2075 2632 2365 
Q 2881 2656 2881 3163 
Q 2881 3666 2632 3958 
Q 2384 4250 1959 4250 
Q 1534 4250 1286 3958 
Q 1038 3666 1038 3163 
Q 1038 2656 1286 2365 
Q 1534 2075 1959 2075 
z
" transform="scale(0.015625)"/>
      <path id="DejaVuSans-18" d="M 691 4666 
L 3169 4666 
L 3169 4134 
L 1269 4134 
L 1269 2991 
Q 1406 3038 1543 3061 
Q 1681 3084 1819 3084 
Q 2600 3084 3056 2656 
Q 3513 2228 3513 1497 
Q 3513 744 3044 326 
Q 2575 -91 1722 -91 
Q 1428 -91 1123 -41 
Q 819 9 494 109 
L 494 744 
Q 775 591 1075 516 
Q 1375 441 1709 441 
Q 2250 441 2565 725 
Q 2881 1009 2881 1497 
Q 2881 1984 2565 2268 
Q 2250 2553 1709 2553 
Q 1456 2553 1204 2497 
Q 953 2441 691 2322 
L 691 4666 
z
" transform="scale(0.015625)"/>
     </defs>
     <use xlink:href="#DejaVuSans-2b"/>
     <use xlink:href="#DejaVuSans-3" transform="translate(75.203125 0)"/>
     <use xlink:href="#DejaVuSans-61" transform="translate(106.984375 0)"/>
     <use xlink:href="#DejaVuSans-3" transform="translate(190.78125 0)"/>
     <use xlink:href="#DejaVuSans-14" transform="translate(222.5625 0)"/>
     <use xlink:href="#DejaVuSans-11" transform="translate(286.1875 0)"/>
     <use xlink:href="#DejaVuSans-1c" transform="translate(317.96875 0)"/>
     <use xlink:href="#DejaVuSans-18" transform="translate(381.59375 0)"/>
    </g>
   </g>
   <g id="text_14">
    <!-- [ 0.2  0.2 ] -->
    <g transform="translate(288.58921 128.262462) scale(0.11 -0.11)">
     <defs>
      <path id="DejaVuSansMono-3e" d="M 1447 4863 
L 2772 4863 
L 2772 4416 
L 2022 4416 
L 2022 -397 
L 2772 -397 
L 2772 -844 
L 1447 -844 
L 1447 4863 
z
" transform="scale(0.015625)"/>
      <path id="DejaVuSansMono-3" transform="scale(0.015625)"/>
      <path id="DejaVuSansMono-13" d="M 1509 2344 
Q 1509 2516 1629 2641 
Q 1750 2766 1919 2766 
Q 2094 2766 2219 2641 
Q 2344 2516 2344 2344 
Q 2344 2169 2220 2047 
Q 2097 1925 1919 1925 
Q 1744 1925 1626 2044 
Q 1509 2163 1509 2344 
z
M 1925 4250 
Q 1484 4250 1267 3775 
Q 1050 3300 1050 2328 
Q 1050 1359 1267 884 
Q 1484 409 1925 409 
Q 2369 409 2586 884 
Q 2803 1359 2803 2328 
Q 2803 3300 2586 3775 
Q 2369 4250 1925 4250 
z
M 1925 4750 
Q 2672 4750 3055 4137 
Q 3438 3525 3438 2328 
Q 3438 1134 3055 521 
Q 2672 -91 1925 -91 
Q 1178 -91 797 521 
Q 416 1134 416 2328 
Q 416 3525 797 4137 
Q 1178 4750 1925 4750 
z
" transform="scale(0.015625)"/>
      <path id="DejaVuSansMono-11" d="M 1528 953 
L 2316 953 
L 2316 0 
L 1528 0 
L 1528 953 
z
" transform="scale(0.015625)"/>
      <path id="DejaVuSansMono-15" d="M 1166 531 
L 3309 531 
L 3309 0 
L 475 0 
L 475 531 
Q 1059 1147 1496 1619 
Q 1934 2091 2100 2284 
Q 2413 2666 2522 2902 
Q 2631 3138 2631 3384 
Q 2631 3775 2401 3997 
Q 2172 4219 1772 4219 
Q 1488 4219 1175 4116 
Q 863 4013 513 3803 
L 513 4441 
Q 834 4594 1145 4672 
Q 1456 4750 1759 4750 
Q 2444 4750 2861 4386 
Q 3278 4022 3278 3431 
Q 3278 3131 3139 2831 
Q 3000 2531 2688 2169 
Q 2513 1966 2180 1606 
Q 1847 1247 1166 531 
z
" transform="scale(0.015625)"/>
      <path id="DejaVuSansMono-40" d="M 2406 4863 
L 2406 -844 
L 1081 -844 
L 1081 -397 
L 1831 -397 
L 1831 4416 
L 1081 4416 
L 1081 4863 
L 2406 4863 
z
" transform="scale(0.015625)"/>
     </defs>
     <use xlink:href="#DejaVuSansMono-3e"/>
     <use xlink:href="#DejaVuSansMono-3" transform="translate(60.203125 0)"/>
     <use xlink:href="#DejaVuSansMono-13" transform="translate(120.40625 0)"/>
     <use xlink:href="#DejaVuSansMono-11" transform="translate(180.609375 0)"/>
     <use xlink:href="#DejaVuSansMono-15" transform="translate(240.8125 0)"/>
     <use xlink:href="#DejaVuSansMono-3" transform="translate(301.015625 0)"/>
     <use xlink:href="#DejaVuSansMono-3" transform="translate(361.21875 0)"/>
     <use xlink:href="#DejaVuSansMono-13" transform="translate(421.421875 0)"/>
     <use xlink:href="#DejaVuSansMono-11" transform="translate(481.625 0)"/>
     <use xlink:href="#DejaVuSansMono-15" transform="translate(541.828125 0)"/>
     <use xlink:href="#DejaVuSansMono-3" transform="translate(602.03125 0)"/>
     <use xlink:href="#DejaVuSansMono-40" transform="translate(662.234375 0)"/>
    </g>
   </g>
   <g id="text_15">
    <!-- [ 0.0  0.6 ] -->
    <g transform="translate(288.58921 144.681231) scale(0.11 -0.11)">
     <defs>
      <path id="DejaVuSansMono-19" d="M 3097 4563 
L 3097 3981 
Q 2900 4097 2678 4158 
Q 2456 4219 2216 4219 
Q 1616 4219 1306 3767 
Q 997 3316 997 2438 
Q 1147 2750 1412 2917 
Q 1678 3084 2022 3084 
Q 2697 3084 3067 2670 
Q 3438 2256 3438 1497 
Q 3438 741 3056 325 
Q 2675 -91 1984 -91 
Q 1172 -91 794 492 
Q 416 1075 416 2328 
Q 416 3509 870 4129 
Q 1325 4750 2188 4750 
Q 2419 4750 2650 4701 
Q 2881 4653 3097 4563 
z
M 1972 2591 
Q 1569 2591 1337 2300 
Q 1106 2009 1106 1497 
Q 1106 984 1337 693 
Q 1569 403 1972 403 
Q 2391 403 2603 679 
Q 2816 956 2816 1497 
Q 2816 2041 2603 2316 
Q 2391 2591 1972 2591 
z
" transform="scale(0.015625)"/>
     </defs>
     <use xlink:href="#DejaVuSansMono-3e"/>
     <use xlink:href="#DejaVuSansMono-3" transform="translate(60.203125 0)"/>
     <use xlink:href="#DejaVuSansMono-13" transform="translate(120.40625 0)"/>
     <use xlink:href="#DejaVuSansMono-11" transform="translate(180.609375 0)"/>
     <use xlink:href="#DejaVuSansMono-13" transform="translate(240.8125 0)"/>
     <use xlink:href="#DejaVuSansMono-3" transform="translate(301.015625 0)"/>
     <use xlink:href="#DejaVuSansMono-3" transform="translate(361.21875 0)"/>
     <use xlink:href="#DejaVuSansMono-13" transform="translate(421.421875 0)"/>
     <use xlink:href="#DejaVuSansMono-11" transform="translate(481.625 0)"/>
     <use xlink:href="#DejaVuSansMono-19" transform="translate(541.828125 0)"/>
     <use xlink:href="#DejaVuSansMono-3" transform="translate(602.03125 0)"/>
     <use xlink:href="#DejaVuSansMono-40" transform="translate(662.234375 0)"/>
    </g>
   </g>
   <g id="text_16">
    <!-- one zero entry -->
    <g style="fill: #607d8b" transform="translate(299.196398 170.482154) scale(0.08 -0.08)">
     <defs>
      <path id="DejaVuSans-52" d="M 1959 3097 
Q 1497 3097 1228 2736 
Q 959 2375 959 1747 
Q 959 1119 1226 758 
Q 1494 397 1959 397 
Q 2419 397 2687 759 
Q 2956 1122 2956 1747 
Q 2956 2369 2687 2733 
Q 2419 3097 1959 3097 
z
M 1959 3584 
Q 2709 3584 3137 3096 
Q 3566 2609 3566 1747 
Q 3566 888 3137 398 
Q 2709 -91 1959 -91 
Q 1206 -91 779 398 
Q 353 888 353 1747 
Q 353 2609 779 3096 
Q 1206 3584 1959 3584 
z
" transform="scale(0.015625)"/>
      <path id="DejaVuSans-51" d="M 3513 2113 
L 3513 0 
L 2938 0 
L 2938 2094 
Q 2938 2591 2744 2837 
Q 2550 3084 2163 3084 
Q 1697 3084 1428 2787 
Q 1159 2491 1159 1978 
L 1159 0 
L 581 0 
L 581 3500 
L 1159 3500 
L 1159 2956 
Q 1366 3272 1645 3428 
Q 1925 3584 2291 3584 
Q 2894 3584 3203 3211 
Q 3513 2838 3513 2113 
z
" transform="scale(0.015625)"/>
      <path id="DejaVuSans-48" d="M 3597 1894 
L 3597 1613 
L 953 1613 
Q 991 1019 1311 708 
Q 1631 397 2203 397 
Q 2534 397 2845 478 
Q 3156 559 3463 722 
L 3463 178 
Q 3153 47 2828 -22 
Q 2503 -91 2169 -91 
Q 1331 -91 842 396 
Q 353 884 353 1716 
Q 353 2575 817 3079 
Q 1281 3584 2069 3584 
Q 2775 3584 3186 3129 
Q 3597 2675 3597 1894 
z
M 3022 2063 
Q 3016 2534 2758 2815 
Q 2500 3097 2075 3097 
Q 1594 3097 1305 2825 
Q 1016 2553 972 2059 
L 3022 2063 
z
" transform="scale(0.015625)"/>
      <path id="DejaVuSans-5d" d="M 353 3500 
L 3084 3500 
L 3084 2975 
L 922 459 
L 3084 459 
L 3084 0 
L 275 0 
L 275 525 
L 2438 3041 
L 353 3041 
L 353 3500 
z
" transform="scale(0.015625)"/>
      <path id="DejaVuSans-55" d="M 2631 2963 
Q 2534 3019 2420 3045 
Q 2306 3072 2169 3072 
Q 1681 3072 1420 2755 
Q 1159 2438 1159 1844 
L 1159 0 
L 581 0 
L 581 3500 
L 1159 3500 
L 1159 2956 
Q 1341 3275 1631 3429 
Q 1922 3584 2338 3584 
Q 2397 3584 2469 3576 
Q 2541 3569 2628 3553 
L 2631 2963 
z
" transform="scale(0.015625)"/>
      <path id="DejaVuSans-57" d="M 1172 4494 
L 1172 3500 
L 2356 3500 
L 2356 3053 
L 1172 3053 
L 1172 1153 
Q 1172 725 1289 603 
Q 1406 481 1766 481 
L 2356 481 
L 2356 0 
L 1766 0 
Q 1100 0 847 248 
Q 594 497 594 1153 
L 594 3053 
L 172 3053 
L 172 3500 
L 594 3500 
L 594 4494 
L 1172 4494 
z
" transform="scale(0.015625)"/>
      <path id="DejaVuSans-5c" d="M 2059 -325 
Q 1816 -950 1584 -1140 
Q 1353 -1331 966 -1331 
L 506 -1331 
L 506 -850 
L 844 -850 
Q 1081 -850 1212 -737 
Q 1344 -625 1503 -206 
L 1606 56 
L 191 3500 
L 800 3500 
L 1894 763 
L 2988 3500 
L 3597 3500 
L 2059 -325 
z
" transform="scale(0.015625)"/>
     </defs>
     <use xlink:href="#DejaVuSans-52"/>
     <use xlink:href="#DejaVuSans-51" transform="translate(61.1875 0)"/>
     <use xlink:href="#DejaVuSans-48" transform="translate(124.5625 0)"/>
     <use xlink:href="#DejaVuSans-3" transform="translate(186.09375 0)"/>
     <use xlink:href="#DejaVuSans-5d" transform="translate(217.875 0)"/>
     <use xlink:href="#DejaVuSans-48" transform="translate(270.359375 0)"/>
     <use xlink:href="#DejaVuSans-55" transform="translate(331.890625 0)"/>
     <use xlink:href="#DejaVuSans-52" transform="translate(370.796875 0)"/>
     <use xlink:href="#DejaVuSans-3" transform="translate(431.984375 0)"/>
     <use xlink:href="#DejaVuSans-48" transform="translate(463.765625 0)"/>
     <use xlink:href="#DejaVuSans-51" transform="translate(525.296875 0)"/>
     <use xlink:href="#DejaVuSans-57" transform="translate(588.671875 0)"/>
     <use xlink:href="#DejaVuSans-55" transform="translate(627.875 0)"/>
     <use xlink:href="#DejaVuSans-5c" transform="translate(668.984375 0)"/>
    </g>
   </g>
   <g id="text_17">
    <!-- P2 (blurrier) -->
    <g style="fill: #2e7d32" transform="translate(428.854261 90.733846) scale(0.1 -0.1)">
     <use xlink:href="#DejaVuSans-Bold-33"/>
     <use xlink:href="#DejaVuSans-Bold-15" transform="translate(73.296875 0)"/>
     <use xlink:href="#DejaVuSans-Bold-3" transform="translate(142.875 0)"/>
     <use xlink:href="#DejaVuSans-Bold-b" transform="translate(177.6875 0)"/>
     <use xlink:href="#DejaVuSans-Bold-45" transform="translate(223.390625 0)"/>
     <use xlink:href="#DejaVuSans-Bold-4f" transform="translate(294.96875 0)"/>
     <use xlink:href="#DejaVuSans-Bold-58" transform="translate(329.25 0)"/>
     <use xlink:href="#DejaVuSans-Bold-55" transform="translate(400.4375 0)"/>
     <use xlink:href="#DejaVuSans-Bold-55" transform="translate(449.75 0)"/>
     <use xlink:href="#DejaVuSans-Bold-4c" transform="translate(499.0625 0)"/>
     <use xlink:href="#DejaVuSans-Bold-48" transform="translate(533.34375 0)"/>
     <use xlink:href="#DejaVuSans-Bold-55" transform="translate(601.171875 0)"/>
     <use xlink:href="#DejaVuSans-Bold-c" transform="translate(650.484375 0)"/>
    </g>
   </g>
   <g id="text_18">
    <!-- H ~ 2.17 -->
    <g style="fill: #607d8b" transform="translate(444.741839 107.152615) scale(0.085 -0.085)">
     <defs>
      <path id="DejaVuSans-1a" d="M 525 4666 
L 3525 4666 
L 3525 4397 
L 1831 0 
L 1172 0 
L 2766 4134 
L 525 4134 
L 525 4666 
z
" transform="scale(0.015625)"/>
     </defs>
     <use xlink:href="#DejaVuSans-2b"/>
     <use xlink:href="#DejaVuSans-3" transform="translate(75.203125 0)"/>
     <use xlink:href="#DejaVuSans-61" transform="translate(106.984375 0)"/>
     <use xlink:href="#DejaVuSans-3" transform="translate(190.78125 0)"/>
     <use xlink:href="#DejaVuSans-15" transform="translate(222.5625 0)"/>
     <use xlink:href="#DejaVuSans-11" transform="translate(286.1875 0)"/>
     <use xlink:href="#DejaVuSans-14" transform="translate(317.96875 0)"/>
     <use xlink:href="#DejaVuSans-1a" transform="translate(381.59375 0)"/>
    </g>
   </g>
   <g id="text_19">
    <!-- [ 0.1  0.3 ] -->
    <g transform="translate(423.929574 128.262462) scale(0.11 -0.11)">
     <defs>
      <path id="DejaVuSansMono-14" d="M 844 531 
L 1825 531 
L 1825 4097 
L 769 3859 
L 769 4434 
L 1819 4666 
L 2450 4666 
L 2450 531 
L 3419 531 
L 3419 0 
L 844 0 
L 844 531 
z
" transform="scale(0.015625)"/>
      <path id="DejaVuSansMono-16" d="M 2425 2497 
Q 2884 2375 3128 2064 
Q 3372 1753 3372 1288 
Q 3372 644 2939 276 
Q 2506 -91 1741 -91 
Q 1419 -91 1084 -31 
Q 750 28 428 141 
L 428 769 
Q 747 603 1056 522 
Q 1366 441 1672 441 
Q 2191 441 2469 675 
Q 2747 909 2747 1350 
Q 2747 1756 2469 1995 
Q 2191 2234 1716 2234 
L 1234 2234 
L 1234 2753 
L 1716 2753 
Q 2150 2753 2394 2943 
Q 2638 3134 2638 3475 
Q 2638 3834 2411 4026 
Q 2184 4219 1766 4219 
Q 1488 4219 1191 4156 
Q 894 4094 569 3969 
L 569 4550 
Q 947 4650 1242 4700 
Q 1538 4750 1766 4750 
Q 2447 4750 2855 4408 
Q 3263 4066 3263 3500 
Q 3263 3116 3048 2859 
Q 2834 2603 2425 2497 
z
" transform="scale(0.015625)"/>
     </defs>
     <use xlink:href="#DejaVuSansMono-3e"/>
     <use xlink:href="#DejaVuSansMono-3" transform="translate(60.203125 0)"/>
     <use xlink:href="#DejaVuSansMono-13" transform="translate(120.40625 0)"/>
     <use xlink:href="#DejaVuSansMono-11" transform="translate(180.609375 0)"/>
     <use xlink:href="#DejaVuSansMono-14" transform="translate(240.8125 0)"/>
     <use xlink:href="#DejaVuSansMono-3" transform="translate(301.015625 0)"/>
     <use xlink:href="#DejaVuSansMono-3" transform="translate(361.21875 0)"/>
     <use xlink:href="#DejaVuSansMono-13" transform="translate(421.421875 0)"/>
     <use xlink:href="#DejaVuSansMono-11" transform="translate(481.625 0)"/>
     <use xlink:href="#DejaVuSansMono-16" transform="translate(541.828125 0)"/>
     <use xlink:href="#DejaVuSansMono-3" transform="translate(602.03125 0)"/>
     <use xlink:href="#DejaVuSansMono-40" transform="translate(662.234375 0)"/>
    </g>
   </g>
   <g id="text_20">
    <!-- [ 0.1  0.5 ] -->
    <g transform="translate(423.929574 144.681231) scale(0.11 -0.11)">
     <defs>
      <path id="DejaVuSansMono-18" d="M 647 4666 
L 3009 4666 
L 3009 4134 
L 1222 4134 
L 1222 2988 
Q 1356 3038 1492 3061 
Q 1628 3084 1766 3084 
Q 2491 3084 2916 2656 
Q 3341 2228 3341 1497 
Q 3341 759 2895 334 
Q 2450 -91 1678 -91 
Q 1306 -91 998 -41 
Q 691 9 447 109 
L 447 750 
Q 734 594 1025 517 
Q 1316 441 1619 441 
Q 2141 441 2423 716 
Q 2706 991 2706 1497 
Q 2706 1997 2414 2275 
Q 2122 2553 1600 2553 
Q 1347 2553 1106 2495 
Q 866 2438 647 2322 
L 647 4666 
z
" transform="scale(0.015625)"/>
     </defs>
     <use xlink:href="#DejaVuSansMono-3e"/>
     <use xlink:href="#DejaVuSansMono-3" transform="translate(60.203125 0)"/>
     <use xlink:href="#DejaVuSansMono-13" transform="translate(120.40625 0)"/>
     <use xlink:href="#DejaVuSansMono-11" transform="translate(180.609375 0)"/>
     <use xlink:href="#DejaVuSansMono-14" transform="translate(240.8125 0)"/>
     <use xlink:href="#DejaVuSansMono-3" transform="translate(301.015625 0)"/>
     <use xlink:href="#DejaVuSansMono-3" transform="translate(361.21875 0)"/>
     <use xlink:href="#DejaVuSansMono-13" transform="translate(421.421875 0)"/>
     <use xlink:href="#DejaVuSansMono-11" transform="translate(481.625 0)"/>
     <use xlink:href="#DejaVuSansMono-18" transform="translate(541.828125 0)"/>
     <use xlink:href="#DejaVuSansMono-3" transform="translate(602.03125 0)"/>
     <use xlink:href="#DejaVuSansMono-40" transform="translate(662.234375 0)"/>
    </g>
   </g>
   <g id="text_21">
    <!-- all routes used -->
    <g style="fill: #607d8b" transform="translate(434.176136 170.482154) scale(0.08 -0.08)">
     <defs>
      <path id="DejaVuSans-4f" d="M 603 4863 
L 1178 4863 
L 1178 0 
L 603 0 
L 603 4863 
z
" transform="scale(0.015625)"/>
      <path id="DejaVuSans-58" d="M 544 1381 
L 544 3500 
L 1119 3500 
L 1119 1403 
Q 1119 906 1312 657 
Q 1506 409 1894 409 
Q 2359 409 2629 706 
Q 2900 1003 2900 1516 
L 2900 3500 
L 3475 3500 
L 3475 0 
L 2900 0 
L 2900 538 
Q 2691 219 2414 64 
Q 2138 -91 1772 -91 
Q 1169 -91 856 284 
Q 544 659 544 1381 
z
M 1991 3584 
L 1991 3584 
z
" transform="scale(0.015625)"/>
      <path id="DejaVuSans-56" d="M 2834 3397 
L 2834 2853 
Q 2591 2978 2328 3040 
Q 2066 3103 1784 3103 
Q 1356 3103 1142 2972 
Q 928 2841 928 2578 
Q 928 2378 1081 2264 
Q 1234 2150 1697 2047 
L 1894 2003 
Q 2506 1872 2764 1633 
Q 3022 1394 3022 966 
Q 3022 478 2636 193 
Q 2250 -91 1575 -91 
Q 1294 -91 989 -36 
Q 684 19 347 128 
L 347 722 
Q 666 556 975 473 
Q 1284 391 1588 391 
Q 1994 391 2212 530 
Q 2431 669 2431 922 
Q 2431 1156 2273 1281 
Q 2116 1406 1581 1522 
L 1381 1569 
Q 847 1681 609 1914 
Q 372 2147 372 2553 
Q 372 3047 722 3315 
Q 1072 3584 1716 3584 
Q 2034 3584 2315 3537 
Q 2597 3491 2834 3397 
z
" transform="scale(0.015625)"/>
      <path id="DejaVuSans-47" d="M 2906 2969 
L 2906 4863 
L 3481 4863 
L 3481 0 
L 2906 0 
L 2906 525 
Q 2725 213 2448 61 
Q 2172 -91 1784 -91 
Q 1150 -91 751 415 
Q 353 922 353 1747 
Q 353 2572 751 3078 
Q 1150 3584 1784 3584 
Q 2172 3584 2448 3432 
Q 2725 3281 2906 2969 
z
M 947 1747 
Q 947 1113 1208 752 
Q 1469 391 1925 391 
Q 2381 391 2643 752 
Q 2906 1113 2906 1747 
Q 2906 2381 2643 2742 
Q 2381 3103 1925 3103 
Q 1469 3103 1208 2742 
Q 947 2381 947 1747 
z
" transform="scale(0.015625)"/>
     </defs>
     <use xlink:href="#DejaVuSans-44"/>
     <use xlink:href="#DejaVuSans-4f" transform="translate(61.28125 0)"/>
     <use xlink:href="#DejaVuSans-4f" transform="translate(89.0625 0)"/>
     <use xlink:href="#DejaVuSans-3" transform="translate(116.84375 0)"/>
     <use xlink:href="#DejaVuSans-55" transform="translate(148.625 0)"/>
     <use xlink:href="#DejaVuSans-52" transform="translate(187.53125 0)"/>
     <use xlink:href="#DejaVuSans-58" transform="translate(248.71875 0)"/>
     <use xlink:href="#DejaVuSans-57" transform="translate(312.09375 0)"/>
     <use xlink:href="#DejaVuSans-48" transform="translate(351.296875 0)"/>
     <use xlink:href="#DejaVuSans-56" transform="translate(412.828125 0)"/>
     <use xlink:href="#DejaVuSans-3" transform="translate(464.921875 0)"/>
     <use xlink:href="#DejaVuSans-58" transform="translate(496.703125 0)"/>
     <use xlink:href="#DejaVuSans-56" transform="translate(560.078125 0)"/>
     <use xlink:href="#DejaVuSans-48" transform="translate(612.171875 0)"/>
     <use xlink:href="#DejaVuSans-47" transform="translate(673.703125 0)"/>
    </g>
   </g>
   <g id="text_22">
    <!-- Graph shows P1 flows (dashed = 0) -->
    <g style="fill: #607d8b" transform="translate(61.088091 236.157231) scale(0.08 -0.08)">
     <defs>
      <path id="DejaVuSans-2a" d="M 3809 666 
L 3809 1919 
L 2778 1919 
L 2778 2438 
L 4434 2438 
L 4434 434 
Q 4069 175 3628 42 
Q 3188 -91 2688 -91 
Q 1594 -91 976 548 
Q 359 1188 359 2328 
Q 359 3472 976 4111 
Q 1594 4750 2688 4750 
Q 3144 4750 3555 4637 
Q 3966 4525 4313 4306 
L 4313 3634 
Q 3963 3931 3569 4081 
Q 3175 4231 2741 4231 
Q 1884 4231 1454 3753 
Q 1025 3275 1025 2328 
Q 1025 1384 1454 906 
Q 1884 428 2741 428 
Q 3075 428 3337 486 
Q 3600 544 3809 666 
z
" transform="scale(0.015625)"/>
      <path id="DejaVuSans-53" d="M 1159 525 
L 1159 -1331 
L 581 -1331 
L 581 3500 
L 1159 3500 
L 1159 2969 
Q 1341 3281 1617 3432 
Q 1894 3584 2278 3584 
Q 2916 3584 3314 3078 
Q 3713 2572 3713 1747 
Q 3713 922 3314 415 
Q 2916 -91 2278 -91 
Q 1894 -91 1617 61 
Q 1341 213 1159 525 
z
M 3116 1747 
Q 3116 2381 2855 2742 
Q 2594 3103 2138 3103 
Q 1681 3103 1420 2742 
Q 1159 2381 1159 1747 
Q 1159 1113 1420 752 
Q 1681 391 2138 391 
Q 2594 391 2855 752 
Q 3116 1113 3116 1747 
z
" transform="scale(0.015625)"/>
      <path id="DejaVuSans-4b" d="M 3513 2113 
L 3513 0 
L 2938 0 
L 2938 2094 
Q 2938 2591 2744 2837 
Q 2550 3084 2163 3084 
Q 1697 3084 1428 2787 
Q 1159 2491 1159 1978 
L 1159 0 
L 581 0 
L 581 4863 
L 1159 4863 
L 1159 2956 
Q 1366 3272 1645 3428 
Q 1925 3584 2291 3584 
Q 2894 3584 3203 3211 
Q 3513 2838 3513 2113 
z
" transform="scale(0.015625)"/>
      <path id="DejaVuSans-5a" d="M 269 3500 
L 844 3500 
L 1563 769 
L 2278 3500 
L 2956 3500 
L 3675 769 
L 4391 3500 
L 4966 3500 
L 4050 0 
L 3372 0 
L 2619 2869 
L 1863 0 
L 1184 0 
L 269 3500 
z
" transform="scale(0.015625)"/>
      <path id="DejaVuSans-33" d="M 1259 4147 
L 1259 2394 
L 2053 2394 
Q 2494 2394 2734 2622 
Q 2975 2850 2975 3272 
Q 2975 3691 2734 3919 
Q 2494 4147 2053 4147 
L 1259 4147 
z
M 628 4666 
L 2053 4666 
Q 2838 4666 3239 4311 
Q 3641 3956 3641 3272 
Q 3641 2581 3239 2228 
Q 2838 1875 2053 1875 
L 1259 1875 
L 1259 0 
L 628 0 
L 628 4666 
z
" transform="scale(0.015625)"/>
      <path id="DejaVuSans-13b0" d="M 1831 4863 
L 3431 4863 
L 3431 0 
L 2853 0 
L 2853 4384 
L 1825 4384 
Q 1516 4384 1395 4259 
Q 1275 4134 1275 3809 
L 1275 3500 
L 2222 3500 
L 2222 3053 
L 1275 3053 
L 1275 0 
L 697 0 
L 697 3053 
L 147 3053 
L 147 3500 
L 697 3500 
L 697 3744 
Q 697 4328 969 4595 
Q 1241 4863 1831 4863 
z
" transform="scale(0.015625)"/>
      <path id="DejaVuSans-b" d="M 1984 4856 
Q 1566 4138 1362 3434 
Q 1159 2731 1159 2009 
Q 1159 1288 1364 580 
Q 1569 -128 1984 -844 
L 1484 -844 
Q 1016 -109 783 600 
Q 550 1309 550 2009 
Q 550 2706 781 3412 
Q 1013 4119 1484 4856 
L 1984 4856 
z
" transform="scale(0.015625)"/>
      <path id="DejaVuSans-c" d="M 513 4856 
L 1013 4856 
Q 1481 4119 1714 3412 
Q 1947 2706 1947 2009 
Q 1947 1309 1714 600 
Q 1481 -109 1013 -844 
L 513 -844 
Q 928 -128 1133 580 
Q 1338 1288 1338 2009 
Q 1338 2731 1133 3434 
Q 928 4138 513 4856 
z
" transform="scale(0.015625)"/>
     </defs>
     <use xlink:href="#DejaVuSans-2a"/>
     <use xlink:href="#DejaVuSans-55" transform="translate(77.484375 0)"/>
     <use xlink:href="#DejaVuSans-44" transform="translate(118.59375 0)"/>
     <use xlink:href="#DejaVuSans-53" transform="translate(179.875 0)"/>
     <use xlink:href="#DejaVuSans-4b" transform="translate(243.359375 0)"/>
     <use xlink:href="#DejaVuSans-3" transform="translate(306.734375 0)"/>
     <use xlink:href="#DejaVuSans-56" transform="translate(338.515625 0)"/>
     <use xlink:href="#DejaVuSans-4b" transform="translate(390.609375 0)"/>
     <use xlink:href="#DejaVuSans-52" transform="translate(453.984375 0)"/>
     <use xlink:href="#DejaVuSans-5a" transform="translate(515.171875 0)"/>
     <use xlink:href="#DejaVuSans-56" transform="translate(596.953125 0)"/>
     <use xlink:href="#DejaVuSans-3" transform="translate(649.046875 0)"/>
     <use xlink:href="#DejaVuSans-33" transform="translate(680.828125 0)"/>
     <use xlink:href="#DejaVuSans-14" transform="translate(741.125 0)"/>
     <use xlink:href="#DejaVuSans-3" transform="translate(804.75 0)"/>
     <use xlink:href="#DejaVuSans-13b0" transform="translate(836.53125 0)"/>
     <use xlink:href="#DejaVuSans-52" transform="translate(899.515625 0)"/>
     <use xlink:href="#DejaVuSans-5a" transform="translate(960.703125 0)"/>
     <use xlink:href="#DejaVuSans-56" transform="translate(1042.484375 0)"/>
     <use xlink:href="#DejaVuSans-3" transform="translate(1094.578125 0)"/>
     <use xlink:href="#DejaVuSans-b" transform="translate(1126.359375 0)"/>
     <use xlink:href="#DejaVuSans-47" transform="translate(1165.375 0)"/>
     <use xlink:href="#DejaVuSans-44" transform="translate(1228.859375 0)"/>
     <use xlink:href="#DejaVuSans-56" transform="translate(1290.140625 0)"/>
     <use xlink:href="#DejaVuSans-4b" transform="translate(1342.234375 0)"/>
     <use xlink:href="#DejaVuSans-48" transform="translate(1405.609375 0)"/>
     <use xlink:href="#DejaVuSans-47" transform="translate(1467.140625 0)"/>
     <use xlink:href="#DejaVuSans-3" transform="translate(1530.625 0)"/>
     <use xlink:href="#DejaVuSans-20" transform="translate(1562.40625 0)"/>
     <use xlink:href="#DejaVuSans-3" transform="translate(1646.203125 0)"/>
     <use xlink:href="#DejaVuSans-13" transform="translate(1677.984375 0)"/>
     <use xlink:href="#DejaVuSans-c" transform="translate(1741.609375 0)"/>
    </g>
   </g>
   <g id="text_23">
    <!-- S1 -->
    <g style="fill: #2e7d32" transform="translate(62.230131 94.738825) scale(0.1 -0.1)">
     <defs>
      <path id="DejaVuSans-Bold-36" d="M 3834 4519 
L 3834 3531 
Q 3450 3703 3084 3790 
Q 2719 3878 2394 3878 
Q 1963 3878 1756 3759 
Q 1550 3641 1550 3391 
Q 1550 3203 1689 3098 
Q 1828 2994 2194 2919 
L 2706 2816 
Q 3484 2659 3812 2340 
Q 4141 2022 4141 1434 
Q 4141 663 3683 286 
Q 3225 -91 2284 -91 
Q 1841 -91 1394 -6 
Q 947 78 500 244 
L 500 1259 
Q 947 1022 1364 901 
Q 1781 781 2169 781 
Q 2563 781 2772 912 
Q 2981 1044 2981 1288 
Q 2981 1506 2839 1625 
Q 2697 1744 2272 1838 
L 1806 1941 
Q 1106 2091 782 2419 
Q 459 2747 459 3303 
Q 459 4000 909 4375 
Q 1359 4750 2203 4750 
Q 2588 4750 2994 4692 
Q 3400 4634 3834 4519 
z
" transform="scale(0.015625)"/>
     </defs>
     <use xlink:href="#DejaVuSans-Bold-36"/>
     <use xlink:href="#DejaVuSans-Bold-14" transform="translate(72.015625 0)"/>
    </g>
   </g>
   <g id="text_24">
    <!-- S2 -->
    <g style="fill: #2e7d32" transform="translate(62.230131 183.869287) scale(0.1 -0.1)">
     <use xlink:href="#DejaVuSans-Bold-36"/>
     <use xlink:href="#DejaVuSans-Bold-15" transform="translate(72.015625 0)"/>
    </g>
   </g>
   <g id="text_25">
    <!-- TA -->
    <g style="fill: #c62828" transform="translate(188.424176 94.738825) scale(0.1 -0.1)">
     <defs>
      <path id="DejaVuSans-Bold-24" d="M 3419 850 
L 1538 850 
L 1241 0 
L 31 0 
L 1759 4666 
L 3194 4666 
L 4922 0 
L 3713 0 
L 3419 850 
z
M 1838 1716 
L 3116 1716 
L 2478 3572 
L 1838 1716 
z
" transform="scale(0.015625)"/>
     </defs>
     <use xlink:href="#DejaVuSans-Bold-37"/>
     <use xlink:href="#DejaVuSans-Bold-24" transform="translate(60.453125 0)"/>
    </g>
   </g>
   <g id="text_26">
    <!-- TB -->
    <g style="fill: #c62828" transform="translate(188.094489 183.869287) scale(0.1 -0.1)">
     <defs>
      <path id="DejaVuSans-Bold-25" d="M 2456 2859 
Q 2741 2859 2887 2984 
Q 3034 3109 3034 3353 
Q 3034 3594 2887 3720 
Q 2741 3847 2456 3847 
L 1791 3847 
L 1791 2859 
L 2456 2859 
z
M 2497 819 
Q 2859 819 3042 972 
Q 3225 1125 3225 1434 
Q 3225 1738 3044 1889 
Q 2863 2041 2497 2041 
L 1791 2041 
L 1791 819 
L 2497 819 
z
M 3616 2497 
Q 4003 2384 4215 2081 
Q 4428 1778 4428 1338 
Q 4428 663 3972 331 
Q 3516 0 2584 0 
L 588 0 
L 588 4666 
L 2394 4666 
Q 3366 4666 3802 4372 
Q 4238 4078 4238 3431 
Q 4238 3091 4078 2852 
Q 3919 2613 3616 2497 
z
" transform="scale(0.015625)"/>
     </defs>
     <use xlink:href="#DejaVuSans-Bold-37"/>
     <use xlink:href="#DejaVuSans-Bold-25" transform="translate(68.21875 0)"/>
    </g>
   </g>
  </g>
 </g>
 <defs>
  <clipPath id="p72fd8fda18">
   <rect x="8.64" y="8.64" width="513.36" height="243.936"/>
  </clipPath>
 </defs>
</svg>
