<?xml version="1.0" encoding="utf-8" standalone="no"?>
<!DOCTYPE svg PUBLIC "-//W3C//DTD SVG 1.1//EN"
  "http://www.w3.org/Graphics/SVG/1.1/DTD/svg11.dtd">
<svg xmlns:xlink="http://www.w3.org/1999/xlink" width="545.90968pt" height="300.24pt" viewBox="0 0 545.90968 300.24" xmlns="http://www.w3.org/2000/svg" version="1.1">
 <metadata>
  <rdf:RDF xmlns:dc="http://purl.org/dc/elements/1.1/" xmlns:cc="http://creativecommons.org/ns#" xmlns:rdf="http://www.w3.org/1999/02/22-rdf-syntax-ns#">
   <cc:Work>
    <dc:type rdf:resource="http://purl.org/dc/dcmitype/StillImage"/>
    <dc:date>2026-07-18T14:56:45.078795</dc:date>
    <dc:format>image/svg+xml</dc:format>
    <dc:creator>
     <cc:Agent>
      <dc:title>Matplotlib v3.11.0, https://matplotlib.org/</dc:title>
     </cc:Agent>
    </dc:creator>
   </cc:Work>
  </rdf:RDF>
 </metadata>
 <defs>
  <style type="text/css">*{stroke-linejoin: round; stroke-linecap: butt}</style>
 </defs>
 <g id="figure_1">
  <g id="patch_1">
   <path d="M 0 300.24 
L 545.90968 300.24 
L 545.90968 0 
L 0 0 
z
" style="fill: #ffffff"/>
  </g>
  <g id="axes_1">
   <g id="patch_2">
    <path d="M 8.64 291.6 
L 240.26968 291.6 
L 240.26968 59.97032 
L 8.64 59.97032 
z
" style="fill: #ffffff"/>
   </g>
   <g id="FillBetweenPolyCollection_1">
    <defs>
     <path id="m069caf974b" d="M 8.64 -8.672049 
L 8.64 -8.64 
L 9.652146 -8.64 
L 10.664293 -8.64 
L 11.676439 -8.64 
L 12.688585 -8.64 
L 13.700731 -8.64 
L 14.712878 -8.64 
L 15.725024 -8.64 
L 16.73717 -8.64 
L 17.749317 -8.64 
L 18.761463 -8.64 
L 19.773609 -8.64 
L 20.785756 -8.64 
L 21.797902 -8.64 
L 22.810048 -8.64 
L 23.822194 -8.64 
L 24.834341 -8.64 
L 25.846487 -8.64 
L 26.858633 -8.64 
L 27.87078 -8.64 
L 28.882926 -8.64 
L 29.895072 -8.64 
L 30.907219 -8.64 
L 31.919365 -8.64 
L 32.931511 -8.64 
L 33.943657 -8.64 
L 34.955804 -8.64 
L 35.96795 -8.64 
L 36.980096 -8.64 
L 37.992243 -8.64 
L 39.004389 -8.64 
L 40.016535 -8.64 
L 41.028682 -8.64 
L 42.040828 -8.64 
L 43.052974 -8.64 
L 44.06512 -8.64 
L 45.077267 -8.64 
L 46.089413 -8.64 
L 47.101559 -8.64 
L 48.113706 -8.64 
L 49.125852 -8.64 
L 50.137998 -8.64 
L 51.150145 -8.64 
L 52.162291 -8.64 
L 53.174437 -8.64 
L 54.186583 -8.64 
L 55.19873 -8.64 
L 56.210876 -8.64 
L 57.223022 -8.64 
L 58.235169 -8.64 
L 59.247315 -8.64 
L 60.259461 -8.64 
L 61.271608 -8.64 
L 62.283754 -8.64 
L 63.2959 -8.64 
L 64.308046 -8.64 
L 65.320193 -8.64 
L 66.332339 -8.64 
L 67.344485 -8.64 
L 68.356632 -8.64 
L 69.368778 -8.64 
L 70.380924 -8.64 
L 71.393071 -8.64 
L 72.405217 -8.64 
L 73.417363 -8.64 
L 74.429509 -8.64 
L 75.441656 -8.64 
L 76.453802 -8.64 
L 77.465948 -8.64 
L 78.478095 -8.64 
L 79.490241 -8.64 
L 80.502387 -8.64 
L 81.514533 -8.64 
L 82.52668 -8.64 
L 83.538826 -8.64 
L 84.550972 -8.64 
L 85.563119 -8.64 
L 86.575265 -8.64 
L 87.587411 -8.64 
L 88.599558 -8.64 
L 89.611704 -8.64 
L 90.62385 -8.64 
L 91.635996 -8.64 
L 92.648143 -8.64 
L 93.660289 -8.64 
L 94.672435 -8.64 
L 95.684582 -8.64 
L 96.696728 -8.64 
L 97.708874 -8.64 
L 98.721021 -8.64 
L 99.733167 -8.64 
L 100.745313 -8.64 
L 101.757459 -8.64 
L 102.769606 -8.64 
L 103.781752 -8.64 
L 104.793898 -8.64 
L 105.806045 -8.64 
L 106.818191 -8.64 
L 107.830337 -8.64 
L 108.842484 -8.64 
L 109.85463 -8.64 
L 110.866776 -8.64 
L 111.878922 -8.64 
L 112.891069 -8.64 
L 113.903215 -8.64 
L 114.915361 -8.64 
L 115.927508 -8.64 
L 116.939654 -8.64 
L 117.9518 -8.64 
L 118.963947 -8.64 
L 119.976093 -8.64 
L 120.988239 -8.64 
L 122.000385 -8.64 
L 123.012532 -8.64 
L 124.024678 -8.64 
L 125.036824 -8.64 
L 126.048971 -8.64 
L 127.061117 -8.64 
L 128.073263 -8.64 
L 129.08541 -8.64 
L 130.097556 -8.64 
L 131.109702 -8.64 
L 132.121848 -8.64 
L 133.133995 -8.64 
L 134.146141 -8.64 
L 135.158287 -8.64 
L 136.170434 -8.64 
L 137.18258 -8.64 
L 138.194726 -8.64 
L 139.206872 -8.64 
L 140.219019 -8.64 
L 141.231165 -8.64 
L 142.243311 -8.64 
L 143.255458 -8.64 
L 144.267604 -8.64 
L 145.27975 -8.64 
L 146.291897 -8.64 
L 147.304043 -8.64 
L 148.316189 -8.64 
L 149.328335 -8.64 
L 150.340482 -8.64 
L 151.352628 -8.64 
L 152.364774 -8.64 
L 153.376921 -8.64 
L 154.389067 -8.64 
L 155.401213 -8.64 
L 156.41336 -8.64 
L 157.425506 -8.64 
L 158.437652 -8.64 
L 159.449798 -8.64 
L 160.461945 -8.64 
L 161.474091 -8.64 
L 162.486237 -8.64 
L 163.498384 -8.64 
L 164.51053 -8.64 
L 165.522676 -8.64 
L 166.534823 -8.64 
L 167.546969 -8.64 
L 168.559115 -8.64 
L 169.571261 -8.64 
L 170.583408 -8.64 
L 171.595554 -8.64 
L 172.6077 -8.64 
L 173.619847 -8.64 
L 174.631993 -8.64 
L 175.644139 -8.64 
L 176.656286 -8.64 
L 177.668432 -8.64 
L 178.680578 -8.64 
L 179.692724 -8.64 
L 180.704871 -8.64 
L 181.717017 -8.64 
L 182.729163 -8.64 
L 183.74131 -8.64 
L 184.753456 -8.64 
L 185.765602 -8.64 
L 186.777749 -8.64 
L 187.789895 -8.64 
L 188.802041 -8.64 
L 189.814187 -8.64 
L 190.826334 -8.64 
L 191.83848 -8.64 
L 192.850626 -8.64 
L 193.862773 -8.64 
L 194.874919 -8.64 
L 195.887065 -8.64 
L 196.899212 -8.64 
L 197.911358 -8.64 
L 198.923504 -8.64 
L 199.93565 -8.64 
L 200.947797 -8.64 
L 201.959943 -8.64 
L 202.972089 -8.64 
L 203.984236 -8.64 
L 204.996382 -8.64 
L 206.008528 -8.64 
L 207.020674 -8.64 
L 208.032821 -8.64 
L 209.044967 -8.64 
L 210.057113 -8.64 
L 210.057113 -8.640995 
L 210.057113 -8.640995 
L 209.044967 -8.641205 
L 208.032821 -8.641456 
L 207.020674 -8.641756 
L 206.008528 -8.642114 
L 204.996382 -8.642542 
L 203.984236 -8.64305 
L 202.972089 -8.643653 
L 201.959943 -8.644368 
L 200.947797 -8.645214 
L 199.93565 -8.646213 
L 198.923504 -8.647391 
L 197.911358 -8.648775 
L 196.899212 -8.650402 
L 195.887065 -8.652308 
L 194.874919 -8.654538 
L 193.862773 -8.657141 
L 192.850626 -8.660176 
L 191.83848 -8.663706 
L 190.826334 -8.667805 
L 189.814187 -8.672556 
L 188.802041 -8.678051 
L 187.789895 -8.684397 
L 186.777749 -8.69171 
L 185.765602 -8.700122 
L 184.753456 -8.709779 
L 183.74131 -8.720846 
L 182.729163 -8.733505 
L 181.717017 -8.747956 
L 180.704871 -8.764421 
L 179.692724 -8.783147 
L 178.680578 -8.804403 
L 177.668432 -8.828484 
L 176.656286 -8.855714 
L 175.644139 -8.886446 
L 174.631993 -8.921062 
L 173.619847 -8.959978 
L 172.6077 -9.003645 
L 171.595554 -9.052547 
L 170.583408 -9.107205 
L 169.571261 -9.168178 
L 168.559115 -9.236061 
L 167.546969 -9.311491 
L 166.534823 -9.395141 
L 165.522676 -9.487724 
L 164.51053 -9.58999 
L 163.498384 -9.702728 
L 162.486237 -9.826762 
L 161.474091 -9.96295 
L 160.461945 -10.112183 
L 159.449798 -10.275379 
L 158.437652 -10.453484 
L 157.425506 -10.647462 
L 156.41336 -10.858295 
L 155.401213 -11.086976 
L 154.389067 -11.334502 
L 153.376921 -11.601868 
L 152.364774 -11.89006 
L 151.352628 -12.200045 
L 150.340482 -12.532763 
L 149.328335 -12.88912 
L 148.316189 -13.269971 
L 147.304043 -13.67612 
L 146.291897 -14.108299 
L 145.27975 -14.567163 
L 144.267604 -15.053276 
L 143.255458 -15.567099 
L 142.243311 -16.108979 
L 141.231165 -16.679139 
L 140.219019 -17.277663 
L 139.206872 -17.904487 
L 138.194726 -18.559389 
L 137.18258 -19.241978 
L 136.170434 -19.951684 
L 135.158287 -20.687754 
L 134.146141 -21.449239 
L 133.133995 -22.234992 
L 132.121848 -23.043666 
L 131.109702 -23.873704 
L 130.097556 -24.723347 
L 129.08541 -25.590627 
L 128.073263 -26.473374 
L 127.061117 -27.369219 
L 126.048971 -28.275604 
L 125.036824 -29.189784 
L 124.024678 -30.108846 
L 123.012532 -31.029714 
L 122.000385 -31.94917 
L 120.988239 -32.863868 
L 119.976093 -33.770354 
L 118.963947 -34.665083 
L 117.9518 -35.544447 
L 116.939654 -36.404793 
L 115.927508 -37.242449 
L 114.915361 -38.053752 
L 113.903215 -38.835071 
L 112.891069 -39.582835 
L 111.878922 -40.29356 
L 110.866776 -40.963877 
L 109.85463 -41.590556 
L 108.842484 -42.170534 
L 107.830337 -42.700939 
L 106.818191 -43.179113 
L 105.806045 -43.602635 
L 104.793898 -43.969343 
L 103.781752 -44.277349 
L 102.769606 -44.525056 
L 101.757459 -44.711175 
L 100.745313 -44.834733 
L 99.733167 -44.89508 
L 98.721021 -44.891902 
L 97.708874 -44.825213 
L 96.696728 -44.695365 
L 95.684582 -44.503038 
L 94.672435 -44.249238 
L 93.660289 -43.935285 
L 92.648143 -43.562806 
L 91.635996 -43.133717 
L 90.62385 -42.650207 
L 89.611704 -42.114721 
L 88.599558 -41.529941 
L 87.587411 -40.898757 
L 86.575265 -40.224251 
L 85.563119 -39.509668 
L 84.550972 -38.758391 
L 83.538826 -37.973912 
L 82.52668 -37.159809 
L 81.514533 -36.319719 
L 80.502387 -35.457306 
L 79.490241 -34.576242 
L 78.478095 -33.680175 
L 77.465948 -32.77271 
L 76.453802 -31.857382 
L 75.441656 -30.937636 
L 74.429509 -30.016806 
L 73.417363 -29.098097 
L 72.405217 -28.184568 
L 71.393071 -27.279117 
L 70.380924 -26.384469 
L 69.368778 -25.503165 
L 68.356632 -24.637555 
L 67.344485 -23.789788 
L 66.332339 -22.96181 
L 65.320193 -22.155362 
L 64.308046 -21.371978 
L 63.2959 -20.612986 
L 62.283754 -19.879513 
L 61.271608 -19.172488 
L 60.259461 -18.492645 
L 59.247315 -17.840536 
L 58.235169 -17.216534 
L 57.223022 -16.620847 
L 56.210876 -16.053521 
L 55.19873 -15.514458 
L 54.186583 -15.003424 
L 53.174437 -14.520059 
L 52.162291 -14.063891 
L 51.150145 -13.634345 
L 50.137998 -13.230761 
L 49.125852 -12.852395 
L 48.113706 -12.498443 
L 47.101559 -12.168039 
L 46.089413 -11.860276 
L 45.077267 -11.574211 
L 44.06512 -11.308873 
L 43.052974 -11.063276 
L 42.040828 -10.836425 
L 41.028682 -10.627322 
L 40.016535 -10.434975 
L 39.004389 -10.258405 
L 37.992243 -10.096647 
L 36.980096 -9.948759 
L 35.96795 -9.813826 
L 34.955804 -9.69096 
L 33.943657 -9.579305 
L 32.931511 -9.478043 
L 31.919365 -9.386386 
L 30.907219 -9.30359 
L 29.895072 -9.228944 
L 28.882926 -9.16178 
L 27.87078 -9.101465 
L 26.858633 -9.047407 
L 25.846487 -8.999051 
L 24.834341 -8.95588 
L 23.822194 -8.917414 
L 22.810048 -8.883204 
L 21.797902 -8.85284 
L 20.785756 -8.82594 
L 19.773609 -8.802156 
L 18.761463 -8.781166 
L 17.749317 -8.762677 
L 16.73717 -8.746424 
L 15.725024 -8.732162 
L 14.712878 -8.719671 
L 13.700731 -8.708753 
L 12.688585 -8.699227 
L 11.676439 -8.690931 
L 10.664293 -8.683721 
L 9.652146 -8.677466 
L 8.64 -8.672049 
z
" style="stroke: #2e7d32; stroke-opacity: 0.35"/>
    </defs>
    <g clip-path="url(#p095c0bbfda)">
     <use xlink:href="#m069caf974b" x="0" y="300.24" style="fill: #2e7d32; fill-opacity: 0.35; stroke: #2e7d32; stroke-opacity: 0.35"/>
    </g>
   </g>
   <g id="FillBetweenPolyCollection_2">
    <defs>
     <path id="mcb6d9e482a" d="M 8.656145 -8.64 
L 8.64 -8.64 
L 8.64 -9.652146 
L 8.64 -10.664293 
L 8.64 -11.676439 
L 8.64 -12.688585 
L 8.64 -13.700731 
L 8.64 -14.712878 
L 8.64 -15.725024 
L 8.64 -16.73717 
L 8.64 -17.749317 
L 8.64 -18.761463 
L 8.64 -19.773609 
L 8.64 -20.785756 
L 8.64 -21.797902 
L 8.64 -22.810048 
L 8.64 -23.822194 
L 8.64 -24.834341 
L 8.64 -25.846487 
L 8.64 -26.858633 
L 8.64 -27.87078 
L 8.64 -28.882926 
L 8.64 -29.895072 
L 8.64 -30.907219 
L 8.64 -31.919365 
L 8.64 -32.931511 
L 8.64 -33.943657 
L 8.64 -34.955804 
L 8.64 -35.96795 
L 8.64 -36.980096 
L 8.64 -37.992243 
L 8.64 -39.004389 
L 8.64 -40.016535 
L 8.64 -41.028682 
L 8.64 -42.040828 
L 8.64 -43.052974 
L 8.64 -44.06512 
L 8.64 -45.077267 
L 8.64 -46.089413 
L 8.64 -47.101559 
L 8.64 -48.113706 
L 8.64 -49.125852 
L 8.64 -50.137998 
L 8.64 -51.150145 
L 8.64 -52.162291 
L 8.64 -53.174437 
L 8.64 -54.186583 
L 8.64 -55.19873 
L 8.64 -56.210876 
L 8.64 -57.223022 
L 8.64 -58.235169 
L 8.64 -59.247315 
L 8.64 -60.259461 
L 8.64 -61.271608 
L 8.64 -62.283754 
L 8.64 -63.2959 
L 8.64 -64.308046 
L 8.64 -65.320193 
L 8.64 -66.332339 
L 8.64 -67.344485 
L 8.64 -68.356632 
L 8.64 -69.368778 
L 8.64 -70.380924 
L 8.64 -71.393071 
L 8.64 -72.405217 
L 8.64 -73.417363 
L 8.64 -74.429509 
L 8.64 -75.441656 
L 8.64 -76.453802 
L 8.64 -77.465948 
L 8.64 -78.478095 
L 8.64 -79.490241 
L 8.64 -80.502387 
L 8.64 -81.514533 
L 8.64 -82.52668 
L 8.64 -83.538826 
L 8.64 -84.550972 
L 8.64 -85.563119 
L 8.64 -86.575265 
L 8.64 -87.587411 
L 8.64 -88.599558 
L 8.64 -89.611704 
L 8.64 -90.62385 
L 8.64 -91.635996 
L 8.64 -92.648143 
L 8.64 -93.660289 
L 8.64 -94.672435 
L 8.64 -95.684582 
L 8.64 -96.696728 
L 8.64 -97.708874 
L 8.64 -98.721021 
L 8.64 -99.733167 
L 8.64 -100.745313 
L 8.64 -101.757459 
L 8.64 -102.769606 
L 8.64 -103.781752 
L 8.64 -104.793898 
L 8.64 -105.806045 
L 8.64 -106.818191 
L 8.64 -107.830337 
L 8.64 -108.842484 
L 8.64 -109.85463 
L 8.64 -110.866776 
L 8.64 -111.878922 
L 8.64 -112.891069 
L 8.64 -113.903215 
L 8.64 -114.915361 
L 8.64 -115.927508 
L 8.64 -116.939654 
L 8.64 -117.9518 
L 8.64 -118.963947 
L 8.64 -119.976093 
L 8.64 -120.988239 
L 8.64 -122.000385 
L 8.64 -123.012532 
L 8.64 -124.024678 
L 8.64 -125.036824 
L 8.64 -126.048971 
L 8.64 -127.061117 
L 8.64 -128.073263 
L 8.64 -129.08541 
L 8.64 -130.097556 
L 8.64 -131.109702 
L 8.64 -132.121848 
L 8.64 -133.133995 
L 8.64 -134.146141 
L 8.64 -135.158287 
L 8.64 -136.170434 
L 8.64 -137.18258 
L 8.64 -138.194726 
L 8.64 -139.206872 
L 8.64 -140.219019 
L 8.64 -141.231165 
L 8.64 -142.243311 
L 8.64 -143.255458 
L 8.64 -144.267604 
L 8.64 -145.27975 
L 8.64 -146.291897 
L 8.64 -147.304043 
L 8.64 -148.316189 
L 8.64 -149.328335 
L 8.64 -150.340482 
L 8.64 -151.352628 
L 8.64 -152.364774 
L 8.64 -153.376921 
L 8.64 -154.389067 
L 8.64 -155.401213 
L 8.64 -156.41336 
L 8.64 -157.425506 
L 8.64 -158.437652 
L 8.64 -159.449798 
L 8.64 -160.461945 
L 8.64 -161.474091 
L 8.64 -162.486237 
L 8.64 -163.498384 
L 8.64 -164.51053 
L 8.64 -165.522676 
L 8.64 -166.534823 
L 8.64 -167.546969 
L 8.64 -168.559115 
L 8.64 -169.571261 
L 8.64 -170.583408 
L 8.64 -171.595554 
L 8.64 -172.6077 
L 8.64 -173.619847 
L 8.64 -174.631993 
L 8.64 -175.644139 
L 8.64 -176.656286 
L 8.64 -177.668432 
L 8.64 -178.680578 
L 8.64 -179.692724 
L 8.64 -180.704871 
L 8.64 -181.717017 
L 8.64 -182.729163 
L 8.64 -183.74131 
L 8.64 -184.753456 
L 8.64 -185.765602 
L 8.64 -186.777749 
L 8.64 -187.789895 
L 8.64 -188.802041 
L 8.64 -189.814187 
L 8.64 -190.826334 
L 8.64 -191.83848 
L 8.64 -192.850626 
L 8.64 -193.862773 
L 8.64 -194.874919 
L 8.64 -195.887065 
L 8.64 -196.899212 
L 8.64 -197.911358 
L 8.64 -198.923504 
L 8.64 -199.93565 
L 8.64 -200.947797 
L 8.64 -201.959943 
L 8.64 -202.972089 
L 8.64 -203.984236 
L 8.64 -204.996382 
L 8.64 -206.008528 
L 8.64 -207.020674 
L 8.64 -208.032821 
L 8.64 -209.044967 
L 8.64 -210.057113 
L 8.846986 -210.057113 
L 8.846986 -210.057113 
L 8.872149 -209.044967 
L 8.900035 -208.032821 
L 8.930897 -207.020674 
L 8.965003 -206.008528 
L 9.002639 -204.996382 
L 9.044113 -203.984236 
L 9.089751 -202.972089 
L 9.139898 -201.959943 
L 9.194921 -200.947797 
L 9.255207 -199.93565 
L 9.321164 -198.923504 
L 9.393222 -197.911358 
L 9.47183 -196.899212 
L 9.557459 -195.887065 
L 9.6506 -194.874919 
L 9.751764 -193.862773 
L 9.861479 -192.850626 
L 9.980294 -191.83848 
L 10.108773 -190.826334 
L 10.247495 -189.814187 
L 10.397054 -188.802041 
L 10.558054 -187.789895 
L 10.731112 -186.777749 
L 10.916849 -185.765602 
L 11.115891 -184.753456 
L 11.328867 -183.74131 
L 11.556403 -182.729163 
L 11.799121 -181.717017 
L 12.057633 -180.704871 
L 12.332539 -179.692724 
L 12.624422 -178.680578 
L 12.93384 -177.668432 
L 13.26133 -176.656286 
L 13.607393 -175.644139 
L 13.972497 -174.631993 
L 14.357065 -173.619847 
L 14.761475 -172.6077 
L 15.186053 -171.595554 
L 15.631067 -170.583408 
L 16.09672 -169.571261 
L 16.583149 -168.559115 
L 17.090415 -167.546969 
L 17.618501 -166.534823 
L 18.167306 -165.522676 
L 18.73664 -164.51053 
L 19.32622 -163.498384 
L 19.935665 -162.486237 
L 20.564494 -161.474091 
L 21.212122 -160.461945 
L 21.877858 -159.449798 
L 22.560899 -158.437652 
L 23.260336 -157.425506 
L 23.975144 -156.41336 
L 24.704191 -155.401213 
L 25.446231 -154.389067 
L 26.19991 -153.376921 
L 26.963764 -152.364774 
L 27.736227 -151.352628 
L 28.515631 -150.340482 
L 29.300211 -149.328335 
L 30.088111 -148.316189 
L 30.87739 -147.304043 
L 31.66603 -146.291897 
L 32.45194 -145.27975 
L 33.232969 -144.267604 
L 34.006913 -143.255458 
L 34.771524 -142.243311 
L 35.524524 -141.231165 
L 36.263609 -140.219019 
L 36.986468 -139.206872 
L 37.690792 -138.194726 
L 38.374282 -137.18258 
L 39.034669 -136.170434 
L 39.669719 -135.158287 
L 40.277252 -134.146141 
L 40.855147 -133.133995 
L 41.401364 -132.121848 
L 41.913944 -131.109702 
L 42.391033 -130.097556 
L 42.830884 -129.08541 
L 43.231872 -128.073263 
L 43.592502 -127.061117 
L 43.91142 -126.048971 
L 44.18742 -125.036824 
L 44.419454 -124.024678 
L 44.606634 -123.012532 
L 44.748243 -122.000385 
L 44.843736 -120.988239 
L 44.892745 -119.976093 
L 44.89508 -118.963947 
L 44.850733 -117.9518 
L 44.759875 -116.939654 
L 44.622856 -115.927508 
L 44.440203 -114.915361 
L 44.212618 -113.903215 
L 43.94097 -112.891069 
L 43.626292 -111.878922 
L 43.269775 -110.866776 
L 42.872758 -109.85463 
L 42.436722 -108.842484 
L 41.96328 -107.830337 
L 41.454167 -106.818191 
L 40.911228 -105.806045 
L 40.336409 -104.793898 
L 39.731747 -103.781752 
L 39.099351 -102.769606 
L 38.441398 -101.757459 
L 37.760116 -100.745313 
L 37.057773 -99.733167 
L 36.336663 -98.721021 
L 35.599096 -97.708874 
L 34.847385 -96.696728 
L 34.083831 -95.684582 
L 33.310719 -94.672435 
L 32.530298 -93.660289 
L 31.744779 -92.648143 
L 30.956317 -91.635996 
L 30.16701 -90.62385 
L 29.378883 -89.611704 
L 28.593886 -88.599558 
L 27.813884 -87.587411 
L 27.04065 -86.575265 
L 26.275862 -85.563119 
L 25.521099 -84.550972 
L 24.777832 -83.538826 
L 24.047428 -82.52668 
L 23.331143 -81.514533 
L 22.630121 -80.502387 
L 21.945397 -79.490241 
L 21.277894 -78.478095 
L 20.628422 -77.465948 
L 19.997684 -76.453802 
L 19.386277 -75.441656 
L 18.794693 -74.429509 
L 18.22332 -73.417363 
L 17.672452 -72.405217 
L 17.142288 -71.393071 
L 16.632937 -70.380924 
L 16.144426 -69.368778 
L 15.6767 -68.356632 
L 15.229631 -67.344485 
L 14.80302 -66.332339 
L 14.396607 -65.320193 
L 14.010071 -64.308046 
L 13.64304 -63.2959 
L 13.295093 -62.283754 
L 12.965768 -61.271608 
L 12.654565 -60.259461 
L 12.360954 -59.247315 
L 12.084376 -58.235169 
L 11.824251 -57.223022 
L 11.579981 -56.210876 
L 11.350955 -55.19873 
L 11.136551 -54.186583 
L 10.936144 -53.174437 
L 10.749105 -52.162291 
L 10.574807 -51.150145 
L 10.412629 -50.137998 
L 10.261953 -49.125852 
L 10.122174 -48.113706 
L 9.992698 -47.101559 
L 9.872942 -46.089413 
L 9.762342 -45.077267 
L 9.660347 -44.06512 
L 9.566427 -43.052974 
L 9.480069 -42.040828 
L 9.400781 -41.028682 
L 9.328088 -40.016535 
L 9.261541 -39.004389 
L 9.200706 -37.992243 
L 9.145174 -36.980096 
L 9.094557 -35.96795 
L 9.048484 -34.955804 
L 9.006609 -33.943657 
L 8.968602 -32.931511 
L 8.934157 -31.919365 
L 8.902983 -30.907219 
L 8.874811 -29.895072 
L 8.849386 -28.882926 
L 8.826474 -27.87078 
L 8.805855 -26.858633 
L 8.787326 -25.846487 
L 8.770699 -24.834341 
L 8.755799 -23.822194 
L 8.742465 -22.810048 
L 8.73055 -21.797902 
L 8.719918 -20.785756 
L 8.710443 -19.773609 
L 8.702012 -18.761463 
L 8.694519 -17.749317 
L 8.68787 -16.73717 
L 8.681978 -15.725024 
L 8.676763 -14.712878 
L 8.672155 -13.700731 
L 8.668089 -12.688585 
L 8.664505 -11.676439 
L 8.66135 -10.664293 
L 8.658578 -9.652146 
L 8.656145 -8.64 
z
" style="stroke: #c62828; stroke-opacity: 0.3"/>
    </defs>
    <g clip-path="url(#p095c0bbfda)">
     <use xlink:href="#mcb6d9e482a" x="0" y="300.24" style="fill: #c62828; fill-opacity: 0.3; stroke: #c62828; stroke-opacity: 0.3"/>
    </g>
   </g>
   <g id="matplotlib.axis_1"/>
   <g id="matplotlib.axis_2"/>
   <g id="line2d_1">
    <path d="M 8.64 291.567951 
L 21.797902 291.38716 
L 28.882926 291.07822 
L 33.943657 290.660695 
L 37.992243 290.143353 
L 42.040828 289.403575 
L 45.077267 288.665789 
L 48.113706 287.741557 
L 51.150145 286.605655 
L 54.186583 285.236576 
L 57.223022 283.619153 
L 60.259461 281.747355 
L 63.2959 279.627014 
L 66.332339 277.27819 
L 70.380924 273.855531 
L 83.538826 262.266088 
L 86.575265 260.015749 
L 89.611704 258.125279 
L 91.635996 257.106283 
L 93.660289 256.304715 
L 95.684582 255.736962 
L 97.708874 255.414787 
L 99.733167 255.34492 
L 101.757459 255.528825 
L 103.781752 255.962651 
L 105.806045 256.637365 
L 107.830337 257.539061 
L 109.85463 258.649444 
L 112.891069 260.657165 
L 115.927508 262.997551 
L 119.976093 266.469646 
L 131.109702 276.366296 
L 135.158287 279.552246 
L 138.194726 281.680611 
L 141.231165 283.560861 
L 144.267604 285.186724 
L 147.304043 286.56388 
L 150.340482 287.707237 
L 153.376921 288.638132 
L 156.41336 289.381705 
L 160.461945 290.127817 
L 164.51053 290.65001 
L 169.571261 291.071822 
L 175.644139 291.353554 
L 184.753456 291.530221 
L 202.972089 291.596347 
L 210.057113 291.599005 
L 210.057113 291.599005 
" clip-path="url(#p095c0bbfda)" style="fill: none; stroke: #2e7d32; stroke-width: 1.5; stroke-linecap: square"/>
   </g>
   <g id="line2d_2">
    <path d="M 8.656145 291.6 
L 8.805855 273.381367 
L 9.094557 264.27205 
L 9.480069 258.199172 
L 9.992698 253.138441 
L 10.749105 248.077709 
L 11.579981 244.029124 
L 12.654565 239.980539 
L 14.010071 235.931954 
L 15.229631 232.895515 
L 16.632937 229.859076 
L 18.794693 225.810491 
L 21.277894 221.761905 
L 24.047428 217.71332 
L 27.813884 212.652589 
L 37.057773 200.506833 
L 39.099351 197.470394 
L 40.911228 194.433955 
L 42.436722 191.397516 
L 43.626292 188.361078 
L 44.212618 186.336785 
L 44.622856 184.312492 
L 44.850733 182.2882 
L 44.892745 180.263907 
L 44.748243 178.239615 
L 44.419454 176.215322 
L 43.91142 174.191029 
L 43.231872 172.166737 
L 41.913944 169.130298 
L 40.277252 166.093859 
L 38.374282 163.05742 
L 35.524524 159.008835 
L 30.87739 152.935957 
L 25.446231 145.850933 
L 22.560899 141.802348 
L 19.935665 137.753763 
L 17.618501 133.705177 
L 15.631067 129.656592 
L 14.357065 126.620153 
L 12.93384 122.571568 
L 11.799121 118.522983 
L 10.916849 114.474398 
L 10.247495 110.425813 
L 9.6506 105.365081 
L 9.194921 99.292203 
L 8.900035 92.207179 
L 8.846986 90.182887 
L 8.846986 90.182887 
" clip-path="url(#p095c0bbfda)" style="fill: none; stroke: #c62828; stroke-width: 1.5; stroke-linecap: square"/>
   </g>
   <g id="patch_3">
    <path d="M 8.64 291.6 
L 8.64 59.97032 
" style="fill: none; stroke: #c5cae9; stroke-width: 0.8; stroke-linejoin: miter; stroke-linecap: square"/>
   </g>
   <g id="patch_4">
    <path d="M 240.26968 291.6 
L 240.26968 59.97032 
" style="fill: none; stroke: #c5cae9; stroke-width: 0.8; stroke-linejoin: miter; stroke-linecap: square"/>
   </g>
   <g id="patch_5">
    <path d="M 8.64 291.6 
L 240.26968 291.6 
" style="fill: none; stroke: #c5cae9; stroke-width: 0.8; stroke-linejoin: miter; stroke-linecap: square"/>
   </g>
   <g id="patch_6">
    <path d="M 8.64 59.97032 
L 240.26968 59.97032 
" style="fill: none; stroke: #c5cae9; stroke-width: 0.8; stroke-linejoin: miter; stroke-linecap: square"/>
   </g>
   <g id="line2d_3">
    <path d="M 44.89508 244.669813 
L 46.679789 243.15281 
L 48.464498 241.635808 
L 50.249206 240.118806 
L 52.033915 238.601803 
L 53.818623 237.084801 
L 55.603332 235.567799 
L 57.388041 234.050796 
L 59.172749 232.533794 
L 60.957458 231.016792 
L 62.742166 229.499789 
L 64.526875 227.982787 
L 66.311584 226.465785 
L 68.096292 224.948783 
L 69.881001 223.43178 
L 71.665709 221.914778 
L 73.450418 220.397776 
L 75.235127 218.880773 
L 77.019835 217.363771 
L 78.804544 215.846769 
L 80.589252 214.329766 
L 82.373961 212.812764 
L 84.15867 211.295762 
L 85.943378 209.778759 
L 87.728087 208.261757 
L 89.512795 206.744755 
L 91.297504 205.227753 
L 93.082213 203.71075 
L 94.866921 202.193748 
L 96.65163 200.676746 
L 98.436338 199.159743 
L 100.221047 197.642741 
L 102.005756 196.125739 
L 103.790464 194.608736 
L 105.575173 193.091734 
L 107.359881 191.574732 
L 109.14459 190.057729 
L 110.929299 188.540727 
L 112.714007 187.023725 
L 114.498716 185.506723 
L 116.283424 183.98972 
L 118.068133 182.472718 
L 119.852842 180.955716 
L 121.63755 179.438713 
L 123.422259 177.921711 
L 125.206967 176.404709 
L 126.991676 174.887706 
L 128.776385 173.370704 
L 130.561093 171.853702 
L 132.345802 170.336699 
L 134.13051 168.819697 
L 135.915219 167.302695 
L 137.699928 165.785692 
L 139.484636 164.26869 
L 141.269345 162.751688 
L 143.054053 161.234686 
L 144.838762 159.717683 
L 146.623471 158.200681 
L 148.408179 156.683679 
L 150.192888 155.166676 
L 151.977596 153.649674 
L 153.762305 152.132672 
L 155.547014 150.615669 
L 157.331722 149.098667 
L 159.116431 147.581665 
L 160.901139 146.064662 
L 162.685848 144.54766 
L 164.470557 143.030658 
L 166.255265 141.513656 
L 168.039974 139.996653 
L 169.824682 138.479651 
L 171.609391 136.962649 
L 173.3941 135.445646 
L 175.178808 133.928644 
L 176.963517 132.411642 
L 178.748225 130.894639 
L 180.532934 129.377637 
L 182.317643 127.860635 
L 184.102351 126.343632 
L 185.88706 124.82663 
" clip-path="url(#p095c0bbfda)" style="fill: none; stroke: #303f9f; stroke-width: 3; stroke-linecap: round"/>
   </g>
   <g id="text_1">
    <!-- $P$ -->
    <g style="fill: #303f9f" transform="translate(133.51861 146.579678) scale(0.12 -0.12)">
     <defs>
      <path id="DejaVuSans-Oblique-33" d="M 1081 4666 
L 2541 4666 
Q 3178 4666 3512 4369 
Q 3847 4072 3847 3500 
Q 3847 2731 3353 2303 
Q 2859 1875 1966 1875 
L 1172 1875 
L 806 0 
L 172 0 
L 1081 4666 
z
M 1613 4147 
L 1275 2394 
L 2069 2394 
Q 2606 2394 2893 2669 
Q 3181 2944 3181 3456 
Q 3181 3784 2986 3965 
Q 2791 4147 2438 4147 
L 1613 4147 
z
" transform="scale(0.015625)"/>
     </defs>
     <use xlink:href="#DejaVuSans-Oblique-33" transform="translate(0 0.09375)"/>
    </g>
   </g>
   <g id="text_2">
    <!-- source a -->
    <g style="fill: #2e7d32" transform="translate(102.413787 287.571658) scale(0.08 -0.08)">
     <defs>
      <path id="DejaVuSans-56" d="M 2834 3397 
L 2834 2853 
Q 2591 2978 2328 3040 
Q 2066 3103 1784 3103 
Q 1356 3103 1142 2972 
Q 928 2841 928 2578 
Q 928 2378 1081 2264 
Q 1234 2150 1697 2047 
L 1894 2003 
Q 2506 1872 2764 1633 
Q 3022 1394 3022 966 
Q 3022 478 2636 193 
Q 2250 -91 1575 -91 
Q 1294 -91 989 -36 
Q 684 19 347 128 
L 347 722 
Q 666 556 975 473 
Q 1284 391 1588 391 
Q 1994 391 2212 530 
Q 2431 669 2431 922 
Q 2431 1156 2273 1281 
Q 2116 1406 1581 1522 
L 1381 1569 
Q 847 1681 609 1914 
Q 372 2147 372 2553 
Q 372 3047 722 3315 
Q 1072 3584 1716 3584 
Q 2034 3584 2315 3537 
Q 2597 3491 2834 3397 
z
" transform="scale(0.015625)"/>
      <path id="DejaVuSans-52" d="M 1959 3097 
Q 1497 3097 1228 2736 
Q 959 2375 959 1747 
Q 959 1119 1226 758 
Q 1494 397 1959 397 
Q 2419 397 2687 759 
Q 2956 1122 2956 1747 
Q 2956 2369 2687 2733 
Q 2419 3097 1959 3097 
z
M 1959 3584 
Q 2709 3584 3137 3096 
Q 3566 2609 3566 1747 
Q 3566 888 3137 398 
Q 2709 -91 1959 -91 
Q 1206 -91 779 398 
Q 353 888 353 1747 
Q 353 2609 779 3096 
Q 1206 3584 1959 3584 
z
" transform="scale(0.015625)"/>
      <path id="DejaVuSans-58" d="M 544 1381 
L 544 3500 
L 1119 3500 
L 1119 1403 
Q 1119 906 1312 657 
Q 1506 409 1894 409 
Q 2359 409 2629 706 
Q 2900 1003 2900 1516 
L 2900 3500 
L 3475 3500 
L 3475 0 
L 2900 0 
L 2900 538 
Q 2691 219 2414 64 
Q 2138 -91 1772 -91 
Q 1169 -91 856 284 
Q 544 659 544 1381 
z
M 1991 3584 
L 1991 3584 
z
" transform="scale(0.015625)"/>
      <path id="DejaVuSans-55" d="M 2631 2963 
Q 2534 3019 2420 3045 
Q 2306 3072 2169 3072 
Q 1681 3072 1420 2755 
Q 1159 2438 1159 1844 
L 1159 0 
L 581 0 
L 581 3500 
L 1159 3500 
L 1159 2956 
Q 1341 3275 1631 3429 
Q 1922 3584 2338 3584 
Q 2397 3584 2469 3576 
Q 2541 3569 2628 3553 
L 2631 2963 
z
" transform="scale(0.015625)"/>
      <path id="DejaVuSans-46" d="M 3122 3366 
L 3122 2828 
Q 2878 2963 2633 3030 
Q 2388 3097 2138 3097 
Q 1578 3097 1268 2742 
Q 959 2388 959 1747 
Q 959 1106 1268 751 
Q 1578 397 2138 397 
Q 2388 397 2633 464 
Q 2878 531 3122 666 
L 3122 134 
Q 2881 22 2623 -34 
Q 2366 -91 2075 -91 
Q 1284 -91 818 406 
Q 353 903 353 1747 
Q 353 2603 823 3093 
Q 1294 3584 2113 3584 
Q 2378 3584 2631 3529 
Q 2884 3475 3122 3366 
z
" transform="scale(0.015625)"/>
      <path id="DejaVuSans-48" d="M 3597 1894 
L 3597 1613 
L 953 1613 
Q 991 1019 1311 708 
Q 1631 397 2203 397 
Q 2534 397 2845 478 
Q 3156 559 3463 722 
L 3463 178 
Q 3153 47 2828 -22 
Q 2503 -91 2169 -91 
Q 1331 -91 842 396 
Q 353 884 353 1716 
Q 353 2575 817 3079 
Q 1281 3584 2069 3584 
Q 2775 3584 3186 3129 
Q 3597 2675 3597 1894 
z
M 3022 2063 
Q 3016 2534 2758 2815 
Q 2500 3097 2075 3097 
Q 1594 3097 1305 2825 
Q 1016 2553 972 2059 
L 3022 2063 
z
" transform="scale(0.015625)"/>
      <path id="DejaVuSans-3" transform="scale(0.015625)"/>
      <path id="DejaVuSans-44" d="M 2194 1759 
Q 1497 1759 1228 1600 
Q 959 1441 959 1056 
Q 959 750 1161 570 
Q 1363 391 1709 391 
Q 2188 391 2477 730 
Q 2766 1069 2766 1631 
L 2766 1759 
L 2194 1759 
z
M 3341 1997 
L 3341 0 
L 2766 0 
L 2766 531 
Q 2569 213 2275 61 
Q 1981 -91 1556 -91 
Q 1019 -91 701 211 
Q 384 513 384 1019 
Q 384 1609 779 1909 
Q 1175 2209 1959 2209 
L 2766 2209 
L 2766 2266 
Q 2766 2663 2505 2880 
Q 2244 3097 1772 3097 
Q 1472 3097 1187 3025 
Q 903 2953 641 2809 
L 641 3341 
Q 956 3463 1253 3523 
Q 1550 3584 1831 3584 
Q 2591 3584 2966 3190 
Q 3341 2797 3341 1997 
z
" transform="scale(0.015625)"/>
     </defs>
     <use xlink:href="#DejaVuSans-56"/>
     <use xlink:href="#DejaVuSans-52" transform="translate(52.09375 0)"/>
     <use xlink:href="#DejaVuSans-58" transform="translate(113.28125 0)"/>
     <use xlink:href="#DejaVuSans-55" transform="translate(176.65625 0)"/>
     <use xlink:href="#DejaVuSans-46" transform="translate(215.5625 0)"/>
     <use xlink:href="#DejaVuSans-48" transform="translate(270.546875 0)"/>
     <use xlink:href="#DejaVuSans-3" transform="translate(332.078125 0)"/>
     <use xlink:href="#DejaVuSans-44" transform="translate(363.859375 0)"/>
    </g>
   </g>
   <g id="text_3">
    <!-- target b -->
    <g style="fill: #c62828" transform="translate(18.747092 196.793713) rotate(-90) scale(0.08 -0.08)">
     <defs>
      <path id="DejaVuSans-57" d="M 1172 4494 
L 1172 3500 
L 2356 3500 
L 2356 3053 
L 1172 3053 
L 1172 1153 
Q 1172 725 1289 603 
Q 1406 481 1766 481 
L 2356 481 
L 2356 0 
L 1766 0 
Q 1100 0 847 248 
Q 594 497 594 1153 
L 594 3053 
L 172 3053 
L 172 3500 
L 594 3500 
L 594 4494 
L 1172 4494 
z
" transform="scale(0.015625)"/>
      <path id="DejaVuSans-4a" d="M 2906 1791 
Q 2906 2416 2648 2759 
Q 2391 3103 1925 3103 
Q 1463 3103 1205 2759 
Q 947 2416 947 1791 
Q 947 1169 1205 825 
Q 1463 481 1925 481 
Q 2391 481 2648 825 
Q 2906 1169 2906 1791 
z
M 3481 434 
Q 3481 -459 3084 -895 
Q 2688 -1331 1869 -1331 
Q 1566 -1331 1297 -1286 
Q 1028 -1241 775 -1147 
L 775 -588 
Q 1028 -725 1275 -790 
Q 1522 -856 1778 -856 
Q 2344 -856 2625 -561 
Q 2906 -266 2906 331 
L 2906 616 
Q 2728 306 2450 153 
Q 2172 0 1784 0 
Q 1141 0 747 490 
Q 353 981 353 1791 
Q 353 2603 747 3093 
Q 1141 3584 1784 3584 
Q 2172 3584 2450 3431 
Q 2728 3278 2906 2969 
L 2906 3500 
L 3481 3500 
L 3481 434 
z
" transform="scale(0.015625)"/>
      <path id="DejaVuSans-45" d="M 3116 1747 
Q 3116 2381 2855 2742 
Q 2594 3103 2138 3103 
Q 1681 3103 1420 2742 
Q 1159 2381 1159 1747 
Q 1159 1113 1420 752 
Q 1681 391 2138 391 
Q 2594 391 2855 752 
Q 3116 1113 3116 1747 
z
M 1159 2969 
Q 1341 3281 1617 3432 
Q 1894 3584 2278 3584 
Q 2916 3584 3314 3078 
Q 3713 2572 3713 1747 
Q 3713 922 3314 415 
Q 2916 -91 2278 -91 
Q 1894 -91 1617 61 
Q 1341 213 1159 525 
L 1159 0 
L 581 0 
L 581 4863 
L 1159 4863 
L 1159 2969 
z
" transform="scale(0.015625)"/>
     </defs>
     <use xlink:href="#DejaVuSans-57"/>
     <use xlink:href="#DejaVuSans-44" transform="translate(39.203125 0)"/>
     <use xlink:href="#DejaVuSans-55" transform="translate(100.484375 0)"/>
     <use xlink:href="#DejaVuSans-4a" transform="translate(139.84375 0)"/>
     <use xlink:href="#DejaVuSans-48" transform="translate(203.328125 0)"/>
     <use xlink:href="#DejaVuSans-57" transform="translate(264.859375 0)"/>
     <use xlink:href="#DejaVuSans-3" transform="translate(304.0625 0)"/>
     <use xlink:href="#DejaVuSans-45" transform="translate(335.84375 0)"/>
    </g>
   </g>
   <g id="text_4">
    <!-- Exact $P$ ($\varepsilon \to 0$) -->
    <g style="fill: #1a237e" transform="translate(82.10484 53.97032) scale(0.11 -0.11)">
     <defs>
      <path id="DejaVuSans-Bold-28" d="M 588 4666 
L 3834 4666 
L 3834 3756 
L 1791 3756 
L 1791 2888 
L 3713 2888 
L 3713 1978 
L 1791 1978 
L 1791 909 
L 3903 909 
L 3903 0 
L 588 0 
L 588 4666 
z
" transform="scale(0.015625)"/>
      <path id="DejaVuSans-Bold-5b" d="M 1422 1791 
L 159 3500 
L 1344 3500 
L 2059 2463 
L 2784 3500 
L 3969 3500 
L 2706 1797 
L 4031 0 
L 2847 0 
L 2059 1106 
L 1281 0 
L 97 0 
L 1422 1791 
z
" transform="scale(0.015625)"/>
      <path id="DejaVuSans-Bold-44" d="M 2106 1575 
Q 1756 1575 1579 1456 
Q 1403 1338 1403 1106 
Q 1403 894 1545 773 
Q 1688 653 1941 653 
Q 2256 653 2472 879 
Q 2688 1106 2688 1447 
L 2688 1575 
L 2106 1575 
z
M 3816 1997 
L 3816 0 
L 2688 0 
L 2688 519 
Q 2463 200 2181 54 
Q 1900 -91 1497 -91 
Q 953 -91 614 226 
Q 275 544 275 1050 
Q 275 1666 698 1953 
Q 1122 2241 2028 2241 
L 2688 2241 
L 2688 2328 
Q 2688 2594 2478 2717 
Q 2269 2841 1825 2841 
Q 1466 2841 1156 2769 
Q 847 2697 581 2553 
L 581 3406 
Q 941 3494 1303 3539 
Q 1666 3584 2028 3584 
Q 2975 3584 3395 3211 
Q 3816 2838 3816 1997 
z
" transform="scale(0.015625)"/>
      <path id="DejaVuSans-Bold-46" d="M 3366 3391 
L 3366 2478 
Q 3138 2634 2908 2709 
Q 2678 2784 2431 2784 
Q 1963 2784 1702 2511 
Q 1441 2238 1441 1747 
Q 1441 1256 1702 982 
Q 1963 709 2431 709 
Q 2694 709 2930 787 
Q 3166 866 3366 1019 
L 3366 103 
Q 3103 6 2833 -42 
Q 2563 -91 2291 -91 
Q 1344 -91 809 395 
Q 275 881 275 1747 
Q 275 2613 809 3098 
Q 1344 3584 2291 3584 
Q 2566 3584 2833 3536 
Q 3100 3488 3366 3391 
z
" transform="scale(0.015625)"/>
      <path id="DejaVuSans-Bold-57" d="M 1759 4494 
L 1759 3500 
L 2913 3500 
L 2913 2700 
L 1759 2700 
L 1759 1216 
Q 1759 972 1856 886 
Q 1953 800 2241 800 
L 2816 800 
L 2816 0 
L 1856 0 
Q 1194 0 917 276 
Q 641 553 641 1216 
L 641 2700 
L 84 2700 
L 84 3500 
L 641 3500 
L 641 4494 
L 1759 4494 
z
" transform="scale(0.015625)"/>
      <path id="DejaVuSans-Bold-3" transform="scale(0.015625)"/>
      <path id="DejaVuSans-Bold-b" d="M 2413 -844 
L 1484 -844 
Q 1006 -72 778 623 
Q 550 1319 550 2003 
Q 550 2688 779 3389 
Q 1009 4091 1484 4856 
L 2413 4856 
Q 2013 4116 1813 3408 
Q 1613 2700 1613 2009 
Q 1613 1319 1811 609 
Q 2009 -100 2413 -844 
z
" transform="scale(0.015625)"/>
      <path id="DejaVuSans-Oblique-349" d="M 1263 1888 
Q 925 1963 778 2166 
Q 669 2309 669 2503 
Q 669 3034 1175 3344 
Q 1575 3588 2188 3588 
Q 2425 3588 2684 3550 
Q 2944 3513 3234 3438 
L 3134 2916 
Q 2847 3006 2606 3047 
Q 2359 3088 2138 3088 
Q 1766 3088 1522 2944 
Q 1228 2772 1228 2522 
Q 1228 2356 1381 2241 
Q 1563 2103 1925 2103 
L 2409 2103 
L 2319 1628 
L 1856 1628 
Q 1425 1628 1172 1469 
Q 828 1253 828 916 
Q 828 703 1013 563 
Q 1244 388 1716 388 
Q 2006 388 2284 444 
Q 2563 503 2806 619 
L 2700 84 
Q 2403 -3 2131 -47 
Q 1859 -91 1609 -91 
Q 866 -91 516 194 
Q 250 413 250 781 
Q 250 1278 600 1584 
Q 859 1813 1263 1888 
z
" transform="scale(0.015625)"/>
      <path id="DejaVuSans-c1c" d="M 5050 2147 
L 5050 1866 
L 3822 638 
L 3447 1013 
L 4175 1741 
L 366 1741 
L 366 2272 
L 4175 2272 
L 3447 3000 
L 3822 3375 
L 5050 2147 
z
" transform="scale(0.015625)"/>
      <path id="DejaVuSans-13" d="M 2034 4250 
Q 1547 4250 1301 3770 
Q 1056 3291 1056 2328 
Q 1056 1369 1301 889 
Q 1547 409 2034 409 
Q 2525 409 2770 889 
Q 3016 1369 3016 2328 
Q 3016 3291 2770 3770 
Q 2525 4250 2034 4250 
z
M 2034 4750 
Q 2819 4750 3233 4129 
Q 3647 3509 3647 2328 
Q 3647 1150 3233 529 
Q 2819 -91 2034 -91 
Q 1250 -91 836 529 
Q 422 1150 422 2328 
Q 422 3509 836 4129 
Q 1250 4750 2034 4750 
z
" transform="scale(0.015625)"/>
      <path id="DejaVuSans-Bold-c" d="M 513 -844 
Q 913 -100 1113 609 
Q 1313 1319 1313 2009 
Q 1313 2700 1113 3408 
Q 913 4116 513 4856 
L 1441 4856 
Q 1916 4091 2145 3389 
Q 2375 2688 2375 2003 
Q 2375 1319 2147 623 
Q 1919 -72 1441 -844 
L 513 -844 
z
" transform="scale(0.015625)"/>
     </defs>
     <use xlink:href="#DejaVuSans-Bold-28" transform="translate(0 0.125)"/>
     <use xlink:href="#DejaVuSans-Bold-5b" transform="translate(68.310547 0.125)"/>
     <use xlink:href="#DejaVuSans-Bold-44" transform="translate(132.8125 0.125)"/>
     <use xlink:href="#DejaVuSans-Bold-46" transform="translate(200.292969 0.125)"/>
     <use xlink:href="#DejaVuSans-Bold-57" transform="translate(259.570312 0.125)"/>
     <use xlink:href="#DejaVuSans-Bold-3" transform="translate(307.373047 0.125)"/>
     <use xlink:href="#DejaVuSans-Oblique-33" transform="translate(342.1875 0.125)"/>
     <use xlink:href="#DejaVuSans-Bold-3" transform="translate(402.490234 0.125)"/>
     <use xlink:href="#DejaVuSans-Bold-b" transform="translate(437.304688 0.125)"/>
     <use xlink:href="#DejaVuSans-Oblique-349" transform="translate(483.007812 0.125)"/>
     <use xlink:href="#DejaVuSans-c1c" transform="translate(556.542969 0.125)"/>
     <use xlink:href="#DejaVuSans-13" transform="translate(659.814453 0.125)"/>
     <use xlink:href="#DejaVuSans-Bold-c" transform="translate(723.4375 0.125)"/>
    </g>
   </g>
  </g>
  <g id="axes_2">
   <g id="patch_7">
    <path d="M 305.64 291.6 
L 537.26968 291.6 
L 537.26968 59.97032 
L 305.64 59.97032 
z
" style="fill: #ffffff"/>
   </g>
   <g id="FillBetweenPolyCollection_3">
    <defs>
     <path id="m316927b553" d="M 305.64 -8.672049 
L 305.64 -8.64 
L 306.652146 -8.64 
L 307.664293 -8.64 
L 308.676439 -8.64 
L 309.688585 -8.64 
L 310.700731 -8.64 
L 311.712878 -8.64 
L 312.725024 -8.64 
L 313.73717 -8.64 
L 314.749317 -8.64 
L 315.761463 -8.64 
L 316.773609 -8.64 
L 317.785756 -8.64 
L 318.797902 -8.64 
L 319.810048 -8.64 
L 320.822194 -8.64 
L 321.834341 -8.64 
L 322.846487 -8.64 
L 323.858633 -8.64 
L 324.87078 -8.64 
L 325.882926 -8.64 
L 326.895072 -8.64 
L 327.907219 -8.64 
L 328.919365 -8.64 
L 329.931511 -8.64 
L 330.943657 -8.64 
L 331.955804 -8.64 
L 332.96795 -8.64 
L 333.980096 -8.64 
L 334.992243 -8.64 
L 336.004389 -8.64 
L 337.016535 -8.64 
L 338.028682 -8.64 
L 339.040828 -8.64 
L 340.052974 -8.64 
L 341.06512 -8.64 
L 342.077267 -8.64 
L 343.089413 -8.64 
L 344.101559 -8.64 
L 345.113706 -8.64 
L 346.125852 -8.64 
L 347.137998 -8.64 
L 348.150145 -8.64 
L 349.162291 -8.64 
L 350.174437 -8.64 
L 351.186583 -8.64 
L 352.19873 -8.64 
L 353.210876 -8.64 
L 354.223022 -8.64 
L 355.235169 -8.64 
L 356.247315 -8.64 
L 357.259461 -8.64 
L 358.271608 -8.64 
L 359.283754 -8.64 
L 360.2959 -8.64 
L 361.308046 -8.64 
L 362.320193 -8.64 
L 363.332339 -8.64 
L 364.344485 -8.64 
L 365.356632 -8.64 
L 366.368778 -8.64 
L 367.380924 -8.64 
L 368.393071 -8.64 
L 369.405217 -8.64 
L 370.417363 -8.64 
L 371.429509 -8.64 
L 372.441656 -8.64 
L 373.453802 -8.64 
L 374.465948 -8.64 
L 375.478095 -8.64 
L 376.490241 -8.64 
L 377.502387 -8.64 
L 378.514533 -8.64 
L 379.52668 -8.64 
L 380.538826 -8.64 
L 381.550972 -8.64 
L 382.563119 -8.64 
L 383.575265 -8.64 
L 384.587411 -8.64 
L 385.599558 -8.64 
L 386.611704 -8.64 
L 387.62385 -8.64 
L 388.635996 -8.64 
L 389.648143 -8.64 
L 390.660289 -8.64 
L 391.672435 -8.64 
L 392.684582 -8.64 
L 393.696728 -8.64 
L 394.708874 -8.64 
L 395.721021 -8.64 
L 396.733167 -8.64 
L 397.745313 -8.64 
L 398.757459 -8.64 
L 399.769606 -8.64 
L 400.781752 -8.64 
L 401.793898 -8.64 
L 402.806045 -8.64 
L 403.818191 -8.64 
L 404.830337 -8.64 
L 405.842484 -8.64 
L 406.85463 -8.64 
L 407.866776 -8.64 
L 408.878922 -8.64 
L 409.891069 -8.64 
L 410.903215 -8.64 
L 411.915361 -8.64 
L 412.927508 -8.64 
L 413.939654 -8.64 
L 414.9518 -8.64 
L 415.963947 -8.64 
L 416.976093 -8.64 
L 417.988239 -8.64 
L 419.000385 -8.64 
L 420.012532 -8.64 
L 421.024678 -8.64 
L 422.036824 -8.64 
L 423.048971 -8.64 
L 424.061117 -8.64 
L 425.073263 -8.64 
L 426.08541 -8.64 
L 427.097556 -8.64 
L 428.109702 -8.64 
L 429.121848 -8.64 
L 430.133995 -8.64 
L 431.146141 -8.64 
L 432.158287 -8.64 
L 433.170434 -8.64 
L 434.18258 -8.64 
L 435.194726 -8.64 
L 436.206872 -8.64 
L 437.219019 -8.64 
L 438.231165 -8.64 
L 439.243311 -8.64 
L 440.255458 -8.64 
L 441.267604 -8.64 
L 442.27975 -8.64 
L 443.291897 -8.64 
L 444.304043 -8.64 
L 445.316189 -8.64 
L 446.328335 -8.64 
L 447.340482 -8.64 
L 448.352628 -8.64 
L 449.364774 -8.64 
L 450.376921 -8.64 
L 451.389067 -8.64 
L 452.401213 -8.64 
L 453.41336 -8.64 
L 454.425506 -8.64 
L 455.437652 -8.64 
L 456.449798 -8.64 
L 457.461945 -8.64 
L 458.474091 -8.64 
L 459.486237 -8.64 
L 460.498384 -8.64 
L 461.51053 -8.64 
L 462.522676 -8.64 
L 463.534823 -8.64 
L 464.546969 -8.64 
L 465.559115 -8.64 
L 466.571261 -8.64 
L 467.583408 -8.64 
L 468.595554 -8.64 
L 469.6077 -8.64 
L 470.619847 -8.64 
L 471.631993 -8.64 
L 472.644139 -8.64 
L 473.656286 -8.64 
L 474.668432 -8.64 
L 475.680578 -8.64 
L 476.692724 -8.64 
L 477.704871 -8.64 
L 478.717017 -8.64 
L 479.729163 -8.64 
L 480.74131 -8.64 
L 481.753456 -8.64 
L 482.765602 -8.64 
L 483.777749 -8.64 
L 484.789895 -8.64 
L 485.802041 -8.64 
L 486.814187 -8.64 
L 487.826334 -8.64 
L 488.83848 -8.64 
L 489.850626 -8.64 
L 490.862773 -8.64 
L 491.874919 -8.64 
L 492.887065 -8.64 
L 493.899212 -8.64 
L 494.911358 -8.64 
L 495.923504 -8.64 
L 496.93565 -8.64 
L 497.947797 -8.64 
L 498.959943 -8.64 
L 499.972089 -8.64 
L 500.984236 -8.64 
L 501.996382 -8.64 
L 503.008528 -8.64 
L 504.020674 -8.64 
L 505.032821 -8.64 
L 506.044967 -8.64 
L 507.057113 -8.64 
L 507.057113 -8.640995 
L 507.057113 -8.640995 
L 506.044967 -8.641205 
L 505.032821 -8.641456 
L 504.020674 -8.641756 
L 503.008528 -8.642114 
L 501.996382 -8.642542 
L 500.984236 -8.64305 
L 499.972089 -8.643653 
L 498.959943 -8.644368 
L 497.947797 -8.645214 
L 496.93565 -8.646213 
L 495.923504 -8.647391 
L 494.911358 -8.648775 
L 493.899212 -8.650402 
L 492.887065 -8.652308 
L 491.874919 -8.654538 
L 490.862773 -8.657141 
L 489.850626 -8.660176 
L 488.83848 -8.663706 
L 487.826334 -8.667805 
L 486.814187 -8.672556 
L 485.802041 -8.678051 
L 484.789895 -8.684397 
L 483.777749 -8.69171 
L 482.765602 -8.700122 
L 481.753456 -8.709779 
L 480.74131 -8.720846 
L 479.729163 -8.733505 
L 478.717017 -8.747956 
L 477.704871 -8.764421 
L 476.692724 -8.783147 
L 475.680578 -8.804403 
L 474.668432 -8.828484 
L 473.656286 -8.855714 
L 472.644139 -8.886446 
L 471.631993 -8.921062 
L 470.619847 -8.959978 
L 469.6077 -9.003645 
L 468.595554 -9.052547 
L 467.583408 -9.107205 
L 466.571261 -9.168178 
L 465.559115 -9.236061 
L 464.546969 -9.311491 
L 463.534823 -9.395141 
L 462.522676 -9.487724 
L 461.51053 -9.58999 
L 460.498384 -9.702728 
L 459.486237 -9.826762 
L 458.474091 -9.96295 
L 457.461945 -10.112183 
L 456.449798 -10.275379 
L 455.437652 -10.453484 
L 454.425506 -10.647462 
L 453.41336 -10.858295 
L 452.401213 -11.086976 
L 451.389067 -11.334502 
L 450.376921 -11.601868 
L 449.364774 -11.89006 
L 448.352628 -12.200045 
L 447.340482 -12.532763 
L 446.328335 -12.88912 
L 445.316189 -13.269971 
L 444.304043 -13.67612 
L 443.291897 -14.108299 
L 442.27975 -14.567163 
L 441.267604 -15.053276 
L 440.255458 -15.567099 
L 439.243311 -16.108979 
L 438.231165 -16.679139 
L 437.219019 -17.277663 
L 436.206872 -17.904487 
L 435.194726 -18.559389 
L 434.18258 -19.241978 
L 433.170434 -19.951684 
L 432.158287 -20.687754 
L 431.146141 -21.449239 
L 430.133995 -22.234992 
L 429.121848 -23.043666 
L 428.109702 -23.873704 
L 427.097556 -24.723347 
L 426.08541 -25.590627 
L 425.073263 -26.473374 
L 424.061117 -27.369219 
L 423.048971 -28.275604 
L 422.036824 -29.189784 
L 421.024678 -30.108846 
L 420.012532 -31.029714 
L 419.000385 -31.94917 
L 417.988239 -32.863868 
L 416.976093 -33.770354 
L 415.963947 -34.665083 
L 414.9518 -35.544447 
L 413.939654 -36.404793 
L 412.927508 -37.242449 
L 411.915361 -38.053752 
L 410.903215 -38.835071 
L 409.891069 -39.582835 
L 408.878922 -40.29356 
L 407.866776 -40.963877 
L 406.85463 -41.590556 
L 405.842484 -42.170534 
L 404.830337 -42.700939 
L 403.818191 -43.179113 
L 402.806045 -43.602635 
L 401.793898 -43.969343 
L 400.781752 -44.277349 
L 399.769606 -44.525056 
L 398.757459 -44.711175 
L 397.745313 -44.834733 
L 396.733167 -44.89508 
L 395.721021 -44.891902 
L 394.708874 -44.825213 
L 393.696728 -44.695365 
L 392.684582 -44.503038 
L 391.672435 -44.249238 
L 390.660289 -43.935285 
L 389.648143 -43.562806 
L 388.635996 -43.133717 
L 387.62385 -42.650207 
L 386.611704 -42.114721 
L 385.599558 -41.529941 
L 384.587411 -40.898757 
L 383.575265 -40.224251 
L 382.563119 -39.509668 
L 381.550972 -38.758391 
L 380.538826 -37.973912 
L 379.52668 -37.159809 
L 378.514533 -36.319719 
L 377.502387 -35.457306 
L 376.490241 -34.576242 
L 375.478095 -33.680175 
L 374.465948 -32.77271 
L 373.453802 -31.857382 
L 372.441656 -30.937636 
L 371.429509 -30.016806 
L 370.417363 -29.098097 
L 369.405217 -28.184568 
L 368.393071 -27.279117 
L 367.380924 -26.384469 
L 366.368778 -25.503165 
L 365.356632 -24.637555 
L 364.344485 -23.789788 
L 363.332339 -22.96181 
L 362.320193 -22.155362 
L 361.308046 -21.371978 
L 360.2959 -20.612986 
L 359.283754 -19.879513 
L 358.271608 -19.172488 
L 357.259461 -18.492645 
L 356.247315 -17.840536 
L 355.235169 -17.216534 
L 354.223022 -16.620847 
L 353.210876 -16.053521 
L 352.19873 -15.514458 
L 351.186583 -15.003424 
L 350.174437 -14.520059 
L 349.162291 -14.063891 
L 348.150145 -13.634345 
L 347.137998 -13.230761 
L 346.125852 -12.852395 
L 345.113706 -12.498443 
L 344.101559 -12.168039 
L 343.089413 -11.860276 
L 342.077267 -11.574211 
L 341.06512 -11.308873 
L 340.052974 -11.063276 
L 339.040828 -10.836425 
L 338.028682 -10.627322 
L 337.016535 -10.434975 
L 336.004389 -10.258405 
L 334.992243 -10.096647 
L 333.980096 -9.948759 
L 332.96795 -9.813826 
L 331.955804 -9.69096 
L 330.943657 -9.579305 
L 329.931511 -9.478043 
L 328.919365 -9.386386 
L 327.907219 -9.30359 
L 326.895072 -9.228944 
L 325.882926 -9.16178 
L 324.87078 -9.101465 
L 323.858633 -9.047407 
L 322.846487 -8.999051 
L 321.834341 -8.95588 
L 320.822194 -8.917414 
L 319.810048 -8.883204 
L 318.797902 -8.85284 
L 317.785756 -8.82594 
L 316.773609 -8.802156 
L 315.761463 -8.781166 
L 314.749317 -8.762677 
L 313.73717 -8.746424 
L 312.725024 -8.732162 
L 311.712878 -8.719671 
L 310.700731 -8.708753 
L 309.688585 -8.699227 
L 308.676439 -8.690931 
L 307.664293 -8.683721 
L 306.652146 -8.677466 
L 305.64 -8.672049 
z
" style="stroke: #2e7d32; stroke-opacity: 0.35"/>
    </defs>
    <g clip-path="url(#p05dd548481)">
     <use xlink:href="#m316927b553" x="0" y="300.24" style="fill: #2e7d32; fill-opacity: 0.35; stroke: #2e7d32; stroke-opacity: 0.35"/>
    </g>
   </g>
   <g id="FillBetweenPolyCollection_4">
    <defs>
     <path id="mf18d6124f6" d="M 305.656145 -8.64 
L 305.64 -8.64 
L 305.64 -9.652146 
L 305.64 -10.664293 
L 305.64 -11.676439 
L 305.64 -12.688585 
L 305.64 -13.700731 
L 305.64 -14.712878 
L 305.64 -15.725024 
L 305.64 -16.73717 
L 305.64 -17.749317 
L 305.64 -18.761463 
L 305.64 -19.773609 
L 305.64 -20.785756 
L 305.64 -21.797902 
L 305.64 -22.810048 
L 305.64 -23.822194 
L 305.64 -24.834341 
L 305.64 -25.846487 
L 305.64 -26.858633 
L 305.64 -27.87078 
L 305.64 -28.882926 
L 305.64 -29.895072 
L 305.64 -30.907219 
L 305.64 -31.919365 
L 305.64 -32.931511 
L 305.64 -33.943657 
L 305.64 -34.955804 
L 305.64 -35.96795 
L 305.64 -36.980096 
L 305.64 -37.992243 
L 305.64 -39.004389 
L 305.64 -40.016535 
L 305.64 -41.028682 
L 305.64 -42.040828 
L 305.64 -43.052974 
L 305.64 -44.06512 
L 305.64 -45.077267 
L 305.64 -46.089413 
L 305.64 -47.101559 
L 305.64 -48.113706 
L 305.64 -49.125852 
L 305.64 -50.137998 
L 305.64 -51.150145 
L 305.64 -52.162291 
L 305.64 -53.174437 
L 305.64 -54.186583 
L 305.64 -55.19873 
L 305.64 -56.210876 
L 305.64 -57.223022 
L 305.64 -58.235169 
L 305.64 -59.247315 
L 305.64 -60.259461 
L 305.64 -61.271608 
L 305.64 -62.283754 
L 305.64 -63.2959 
L 305.64 -64.308046 
L 305.64 -65.320193 
L 305.64 -66.332339 
L 305.64 -67.344485 
L 305.64 -68.356632 
L 305.64 -69.368778 
L 305.64 -70.380924 
L 305.64 -71.393071 
L 305.64 -72.405217 
L 305.64 -73.417363 
L 305.64 -74.429509 
L 305.64 -75.441656 
L 305.64 -76.453802 
L 305.64 -77.465948 
L 305.64 -78.478095 
L 305.64 -79.490241 
L 305.64 -80.502387 
L 305.64 -81.514533 
L 305.64 -82.52668 
L 305.64 -83.538826 
L 305.64 -84.550972 
L 305.64 -85.563119 
L 305.64 -86.575265 
L 305.64 -87.587411 
L 305.64 -88.599558 
L 305.64 -89.611704 
L 305.64 -90.62385 
L 305.64 -91.635996 
L 305.64 -92.648143 
L 305.64 -93.660289 
L 305.64 -94.672435 
L 305.64 -95.684582 
L 305.64 -96.696728 
L 305.64 -97.708874 
L 305.64 -98.721021 
L 305.64 -99.733167 
L 305.64 -100.745313 
L 305.64 -101.757459 
L 305.64 -102.769606 
L 305.64 -103.781752 
L 305.64 -104.793898 
L 305.64 -105.806045 
L 305.64 -106.818191 
L 305.64 -107.830337 
L 305.64 -108.842484 
L 305.64 -109.85463 
L 305.64 -110.866776 
L 305.64 -111.878922 
L 305.64 -112.891069 
L 305.64 -113.903215 
L 305.64 -114.915361 
L 305.64 -115.927508 
L 305.64 -116.939654 
L 305.64 -117.9518 
L 305.64 -118.963947 
L 305.64 -119.976093 
L 305.64 -120.988239 
L 305.64 -122.000385 
L 305.64 -123.012532 
L 305.64 -124.024678 
L 305.64 -125.036824 
L 305.64 -126.048971 
L 305.64 -127.061117 
L 305.64 -128.073263 
L 305.64 -129.08541 
L 305.64 -130.097556 
L 305.64 -131.109702 
L 305.64 -132.121848 
L 305.64 -133.133995 
L 305.64 -134.146141 
L 305.64 -135.158287 
L 305.64 -136.170434 
L 305.64 -137.18258 
L 305.64 -138.194726 
L 305.64 -139.206872 
L 305.64 -140.219019 
L 305.64 -141.231165 
L 305.64 -142.243311 
L 305.64 -143.255458 
L 305.64 -144.267604 
L 305.64 -145.27975 
L 305.64 -146.291897 
L 305.64 -147.304043 
L 305.64 -148.316189 
L 305.64 -149.328335 
L 305.64 -150.340482 
L 305.64 -151.352628 
L 305.64 -152.364774 
L 305.64 -153.376921 
L 305.64 -154.389067 
L 305.64 -155.401213 
L 305.64 -156.41336 
L 305.64 -157.425506 
L 305.64 -158.437652 
L 305.64 -159.449798 
L 305.64 -160.461945 
L 305.64 -161.474091 
L 305.64 -162.486237 
L 305.64 -163.498384 
L 305.64 -164.51053 
L 305.64 -165.522676 
L 305.64 -166.534823 
L 305.64 -167.546969 
L 305.64 -168.559115 
L 305.64 -169.571261 
L 305.64 -170.583408 
L 305.64 -171.595554 
L 305.64 -172.6077 
L 305.64 -173.619847 
L 305.64 -174.631993 
L 305.64 -175.644139 
L 305.64 -176.656286 
L 305.64 -177.668432 
L 305.64 -178.680578 
L 305.64 -179.692724 
L 305.64 -180.704871 
L 305.64 -181.717017 
L 305.64 -182.729163 
L 305.64 -183.74131 
L 305.64 -184.753456 
L 305.64 -185.765602 
L 305.64 -186.777749 
L 305.64 -187.789895 
L 305.64 -188.802041 
L 305.64 -189.814187 
L 305.64 -190.826334 
L 305.64 -191.83848 
L 305.64 -192.850626 
L 305.64 -193.862773 
L 305.64 -194.874919 
L 305.64 -195.887065 
L 305.64 -196.899212 
L 305.64 -197.911358 
L 305.64 -198.923504 
L 305.64 -199.93565 
L 305.64 -200.947797 
L 305.64 -201.959943 
L 305.64 -202.972089 
L 305.64 -203.984236 
L 305.64 -204.996382 
L 305.64 -206.008528 
L 305.64 -207.020674 
L 305.64 -208.032821 
L 305.64 -209.044967 
L 305.64 -210.057113 
L 305.846986 -210.057113 
L 305.846986 -210.057113 
L 305.872149 -209.044967 
L 305.900035 -208.032821 
L 305.930897 -207.020674 
L 305.965003 -206.008528 
L 306.002639 -204.996382 
L 306.044113 -203.984236 
L 306.089751 -202.972089 
L 306.139898 -201.959943 
L 306.194921 -200.947797 
L 306.255207 -199.93565 
L 306.321164 -198.923504 
L 306.393222 -197.911358 
L 306.47183 -196.899212 
L 306.557459 -195.887065 
L 306.6506 -194.874919 
L 306.751764 -193.862773 
L 306.861479 -192.850626 
L 306.980294 -191.83848 
L 307.108773 -190.826334 
L 307.247495 -189.814187 
L 307.397054 -188.802041 
L 307.558054 -187.789895 
L 307.731112 -186.777749 
L 307.916849 -185.765602 
L 308.115891 -184.753456 
L 308.328867 -183.74131 
L 308.556403 -182.729163 
L 308.799121 -181.717017 
L 309.057633 -180.704871 
L 309.332539 -179.692724 
L 309.624422 -178.680578 
L 309.93384 -177.668432 
L 310.26133 -176.656286 
L 310.607393 -175.644139 
L 310.972497 -174.631993 
L 311.357065 -173.619847 
L 311.761475 -172.6077 
L 312.186053 -171.595554 
L 312.631067 -170.583408 
L 313.09672 -169.571261 
L 313.583149 -168.559115 
L 314.090415 -167.546969 
L 314.618501 -166.534823 
L 315.167306 -165.522676 
L 315.73664 -164.51053 
L 316.32622 -163.498384 
L 316.935665 -162.486237 
L 317.564494 -161.474091 
L 318.212122 -160.461945 
L 318.877858 -159.449798 
L 319.560899 -158.437652 
L 320.260336 -157.425506 
L 320.975144 -156.41336 
L 321.704191 -155.401213 
L 322.446231 -154.389067 
L 323.19991 -153.376921 
L 323.963764 -152.364774 
L 324.736227 -151.352628 
L 325.515631 -150.340482 
L 326.300211 -149.328335 
L 327.088111 -148.316189 
L 327.87739 -147.304043 
L 328.66603 -146.291897 
L 329.45194 -145.27975 
L 330.232969 -144.267604 
L 331.006913 -143.255458 
L 331.771524 -142.243311 
L 332.524524 -141.231165 
L 333.263609 -140.219019 
L 333.986468 -139.206872 
L 334.690792 -138.194726 
L 335.374282 -137.18258 
L 336.034669 -136.170434 
L 336.669719 -135.158287 
L 337.277252 -134.146141 
L 337.855147 -133.133995 
L 338.401364 -132.121848 
L 338.913944 -131.109702 
L 339.391033 -130.097556 
L 339.830884 -129.08541 
L 340.231872 -128.073263 
L 340.592502 -127.061117 
L 340.91142 -126.048971 
L 341.18742 -125.036824 
L 341.419454 -124.024678 
L 341.606634 -123.012532 
L 341.748243 -122.000385 
L 341.843736 -120.988239 
L 341.892745 -119.976093 
L 341.89508 -118.963947 
L 341.850733 -117.9518 
L 341.759875 -116.939654 
L 341.622856 -115.927508 
L 341.440203 -114.915361 
L 341.212618 -113.903215 
L 340.94097 -112.891069 
L 340.626292 -111.878922 
L 340.269775 -110.866776 
L 339.872758 -109.85463 
L 339.436722 -108.842484 
L 338.96328 -107.830337 
L 338.454167 -106.818191 
L 337.911228 -105.806045 
L 337.336409 -104.793898 
L 336.731747 -103.781752 
L 336.099351 -102.769606 
L 335.441398 -101.757459 
L 334.760116 -100.745313 
L 334.057773 -99.733167 
L 333.336663 -98.721021 
L 332.599096 -97.708874 
L 331.847385 -96.696728 
L 331.083831 -95.684582 
L 330.310719 -94.672435 
L 329.530298 -93.660289 
L 328.744779 -92.648143 
L 327.956317 -91.635996 
L 327.16701 -90.62385 
L 326.378883 -89.611704 
L 325.593886 -88.599558 
L 324.813884 -87.587411 
L 324.04065 -86.575265 
L 323.275862 -85.563119 
L 322.521099 -84.550972 
L 321.777832 -83.538826 
L 321.047428 -82.52668 
L 320.331143 -81.514533 
L 319.630121 -80.502387 
L 318.945397 -79.490241 
L 318.277894 -78.478095 
L 317.628422 -77.465948 
L 316.997684 -76.453802 
L 316.386277 -75.441656 
L 315.794693 -74.429509 
L 315.22332 -73.417363 
L 314.672452 -72.405217 
L 314.142288 -71.393071 
L 313.632937 -70.380924 
L 313.144426 -69.368778 
L 312.6767 -68.356632 
L 312.229631 -67.344485 
L 311.80302 -66.332339 
L 311.396607 -65.320193 
L 311.010071 -64.308046 
L 310.64304 -63.2959 
L 310.295093 -62.283754 
L 309.965768 -61.271608 
L 309.654565 -60.259461 
L 309.360954 -59.247315 
L 309.084376 -58.235169 
L 308.824251 -57.223022 
L 308.579981 -56.210876 
L 308.350955 -55.19873 
L 308.136551 -54.186583 
L 307.936144 -53.174437 
L 307.749105 -52.162291 
L 307.574807 -51.150145 
L 307.412629 -50.137998 
L 307.261953 -49.125852 
L 307.122174 -48.113706 
L 306.992698 -47.101559 
L 306.872942 -46.089413 
L 306.762342 -45.077267 
L 306.660347 -44.06512 
L 306.566427 -43.052974 
L 306.480069 -42.040828 
L 306.400781 -41.028682 
L 306.328088 -40.016535 
L 306.261541 -39.004389 
L 306.200706 -37.992243 
L 306.145174 -36.980096 
L 306.094557 -35.96795 
L 306.048484 -34.955804 
L 306.006609 -33.943657 
L 305.968602 -32.931511 
L 305.934157 -31.919365 
L 305.902983 -30.907219 
L 305.874811 -29.895072 
L 305.849386 -28.882926 
L 305.826474 -27.87078 
L 305.805855 -26.858633 
L 305.787326 -25.846487 
L 305.770699 -24.834341 
L 305.755799 -23.822194 
L 305.742465 -22.810048 
L 305.73055 -21.797902 
L 305.719918 -20.785756 
L 305.710443 -19.773609 
L 305.702012 -18.761463 
L 305.694519 -17.749317 
L 305.68787 -16.73717 
L 305.681978 -15.725024 
L 305.676763 -14.712878 
L 305.672155 -13.700731 
L 305.668089 -12.688585 
L 305.664505 -11.676439 
L 305.66135 -10.664293 
L 305.658578 -9.652146 
L 305.656145 -8.64 
z
" style="stroke: #c62828; stroke-opacity: 0.3"/>
    </defs>
    <g clip-path="url(#p05dd548481)">
     <use xlink:href="#mf18d6124f6" x="0" y="300.24" style="fill: #c62828; fill-opacity: 0.3; stroke: #c62828; stroke-opacity: 0.3"/>
    </g>
   </g>
   <g id="matplotlib.axis_3"/>
   <g id="matplotlib.axis_4"/>
   <g id="line2d_4">
    <path d="M 305.64 291.567951 
L 318.797902 291.38716 
L 325.882926 291.07822 
L 330.943657 290.660695 
L 334.992243 290.143353 
L 339.040828 289.403575 
L 342.077267 288.665789 
L 345.113706 287.741557 
L 348.150145 286.605655 
L 351.186583 285.236576 
L 354.223022 283.619153 
L 357.259461 281.747355 
L 360.2959 279.627014 
L 363.332339 277.27819 
L 367.380924 273.855531 
L 380.538826 262.266088 
L 383.575265 260.015749 
L 386.611704 258.125279 
L 388.635996 257.106283 
L 390.660289 256.304715 
L 392.684582 255.736962 
L 394.708874 255.414787 
L 396.733167 255.34492 
L 398.757459 255.528825 
L 400.781752 255.962651 
L 402.806045 256.637365 
L 404.830337 257.539061 
L 406.85463 258.649444 
L 409.891069 260.657165 
L 412.927508 262.997551 
L 416.976093 266.469646 
L 428.109702 276.366296 
L 432.158287 279.552246 
L 435.194726 281.680611 
L 438.231165 283.560861 
L 441.267604 285.186724 
L 444.304043 286.56388 
L 447.340482 287.707237 
L 450.376921 288.638132 
L 453.41336 289.381705 
L 457.461945 290.127817 
L 461.51053 290.65001 
L 466.571261 291.071822 
L 472.644139 291.353554 
L 481.753456 291.530221 
L 499.972089 291.596347 
L 507.057113 291.599005 
L 507.057113 291.599005 
" clip-path="url(#p05dd548481)" style="fill: none; stroke: #2e7d32; stroke-width: 1.5; stroke-linecap: square"/>
   </g>
   <g id="line2d_5">
    <path d="M 305.656145 291.6 
L 305.805855 273.381367 
L 306.094557 264.27205 
L 306.480069 258.199172 
L 306.992698 253.138441 
L 307.749105 248.077709 
L 308.579981 244.029124 
L 309.654565 239.980539 
L 311.010071 235.931954 
L 312.229631 232.895515 
L 313.632937 229.859076 
L 315.794693 225.810491 
L 318.277894 221.761905 
L 321.047428 217.71332 
L 324.813884 212.652589 
L 334.057773 200.506833 
L 336.099351 197.470394 
L 337.911228 194.433955 
L 339.436722 191.397516 
L 340.626292 188.361078 
L 341.212618 186.336785 
L 341.622856 184.312492 
L 341.850733 182.2882 
L 341.892745 180.263907 
L 341.748243 178.239615 
L 341.419454 176.215322 
L 340.91142 174.191029 
L 340.231872 172.166737 
L 338.913944 169.130298 
L 337.277252 166.093859 
L 335.374282 163.05742 
L 332.524524 159.008835 
L 327.87739 152.935957 
L 322.446231 145.850933 
L 319.560899 141.802348 
L 316.935665 137.753763 
L 314.618501 133.705177 
L 312.631067 129.656592 
L 311.357065 126.620153 
L 309.93384 122.571568 
L 308.799121 118.522983 
L 307.916849 114.474398 
L 307.247495 110.425813 
L 306.6506 105.365081 
L 306.194921 99.292203 
L 305.900035 92.207179 
L 305.846986 90.182887 
L 305.846986 90.182887 
" clip-path="url(#p05dd548481)" style="fill: none; stroke: #c62828; stroke-width: 1.5; stroke-linecap: square"/>
   </g>
   <g id="FillBetweenPolyCollection_5">
    <defs>
     <path id="m639079a623" d="M 341.89508 -71.683556 
L 341.89508 -39.456818 
L 343.679789 -40.973821 
L 345.464498 -42.490823 
L 347.249206 -44.007825 
L 349.033915 -45.524828 
L 350.818623 -47.04183 
L 352.603332 -48.558832 
L 354.388041 -50.075835 
L 356.172749 -51.592837 
L 357.957458 -53.109839 
L 359.742166 -54.626841 
L 361.526875 -56.143844 
L 363.311584 -57.660846 
L 365.096292 -59.177848 
L 366.881001 -60.694851 
L 368.665709 -62.211853 
L 370.450418 -63.728855 
L 372.235127 -65.245858 
L 374.019835 -66.76286 
L 375.804544 -68.279862 
L 377.589252 -69.796865 
L 379.373961 -71.313867 
L 381.15867 -72.830869 
L 382.943378 -74.347871 
L 384.728087 -75.864874 
L 386.512795 -77.381876 
L 388.297504 -78.898878 
L 390.082213 -80.415881 
L 391.866921 -81.932883 
L 393.65163 -83.449885 
L 395.436338 -84.966888 
L 397.221047 -86.48389 
L 399.005756 -88.000892 
L 400.790464 -89.517895 
L 402.575173 -91.034897 
L 404.359881 -92.551899 
L 406.14459 -94.068901 
L 407.929299 -95.585904 
L 409.714007 -97.102906 
L 411.498716 -98.619908 
L 413.283424 -100.136911 
L 415.068133 -101.653913 
L 416.852842 -103.170915 
L 418.63755 -104.687918 
L 420.422259 -106.20492 
L 422.206967 -107.721922 
L 423.991676 -109.238925 
L 425.776385 -110.755927 
L 427.561093 -112.272929 
L 429.345802 -113.789932 
L 431.13051 -115.306934 
L 432.915219 -116.823936 
L 434.699928 -118.340938 
L 436.484636 -119.857941 
L 438.269345 -121.374943 
L 440.054053 -122.891945 
L 441.838762 -124.408948 
L 443.623471 -125.92595 
L 445.408179 -127.442952 
L 447.192888 -128.959955 
L 448.977596 -130.476957 
L 450.762305 -131.993959 
L 452.547014 -133.510962 
L 454.331722 -135.027964 
L 456.116431 -136.544966 
L 457.901139 -138.061968 
L 459.685848 -139.578971 
L 461.470557 -141.095973 
L 463.255265 -142.612975 
L 465.039974 -144.129978 
L 466.824682 -145.64698 
L 468.609391 -147.163982 
L 470.3941 -148.680985 
L 472.178808 -150.197987 
L 473.963517 -151.714989 
L 475.748225 -153.231992 
L 477.532934 -154.748994 
L 479.317643 -156.265996 
L 481.102351 -157.782999 
L 482.88706 -159.300001 
L 482.88706 -191.526739 
L 482.88706 -191.526739 
L 481.102351 -190.009737 
L 479.317643 -188.492734 
L 477.532934 -186.975732 
L 475.748225 -185.45873 
L 473.963517 -183.941727 
L 472.178808 -182.424725 
L 470.3941 -180.907723 
L 468.609391 -179.39072 
L 466.824682 -177.873718 
L 465.039974 -176.356716 
L 463.255265 -174.839714 
L 461.470557 -173.322711 
L 459.685848 -171.805709 
L 457.901139 -170.288707 
L 456.116431 -168.771704 
L 454.331722 -167.254702 
L 452.547014 -165.7377 
L 450.762305 -164.220697 
L 448.977596 -162.703695 
L 447.192888 -161.186693 
L 445.408179 -159.66969 
L 443.623471 -158.152688 
L 441.838762 -156.635686 
L 440.054053 -155.118684 
L 438.269345 -153.601681 
L 436.484636 -152.084679 
L 434.699928 -150.567677 
L 432.915219 -149.050674 
L 431.13051 -147.533672 
L 429.345802 -146.01667 
L 427.561093 -144.499667 
L 425.776385 -142.982665 
L 423.991676 -141.465663 
L 422.206967 -139.94866 
L 420.422259 -138.431658 
L 418.63755 -136.914656 
L 416.852842 -135.397653 
L 415.068133 -133.880651 
L 413.283424 -132.363649 
L 411.498716 -130.846647 
L 409.714007 -129.329644 
L 407.929299 -127.812642 
L 406.14459 -126.29564 
L 404.359881 -124.778637 
L 402.575173 -123.261635 
L 400.790464 -121.744633 
L 399.005756 -120.22763 
L 397.221047 -118.710628 
L 395.436338 -117.193626 
L 393.65163 -115.676623 
L 391.866921 -114.159621 
L 390.082213 -112.642619 
L 388.297504 -111.125617 
L 386.512795 -109.608614 
L 384.728087 -108.091612 
L 382.943378 -106.57461 
L 381.15867 -105.057607 
L 379.373961 -103.540605 
L 377.589252 -102.023603 
L 375.804544 -100.5066 
L 374.019835 -98.989598 
L 372.235127 -97.472596 
L 370.450418 -95.955593 
L 368.665709 -94.438591 
L 366.881001 -92.921589 
L 365.096292 -91.404587 
L 363.311584 -89.887584 
L 361.526875 -88.370582 
L 359.742166 -86.85358 
L 357.957458 -85.336577 
L 356.172749 -83.819575 
L 354.388041 -82.302573 
L 352.603332 -80.78557 
L 350.818623 -79.268568 
L 349.033915 -77.751566 
L 347.249206 -76.234563 
L 345.464498 -74.717561 
L 343.679789 -73.200559 
L 341.89508 -71.683556 
z
" style="stroke: #303f9f; stroke-opacity: 0.28"/>
    </defs>
    <g clip-path="url(#p05dd548481)">
     <use xlink:href="#m639079a623" x="0" y="300.24" style="fill: #303f9f; fill-opacity: 0.28; stroke: #303f9f; stroke-opacity: 0.28"/>
    </g>
   </g>
   <g id="patch_8">
    <path d="M 305.64 291.6 
L 305.64 59.97032 
" style="fill: none; stroke: #c5cae9; stroke-width: 0.8; stroke-linejoin: miter; stroke-linecap: square"/>
   </g>
   <g id="patch_9">
    <path d="M 537.26968 291.6 
L 537.26968 59.97032 
" style="fill: none; stroke: #c5cae9; stroke-width: 0.8; stroke-linejoin: miter; stroke-linecap: square"/>
   </g>
   <g id="patch_10">
    <path d="M 305.64 291.6 
L 537.26968 291.6 
" style="fill: none; stroke: #c5cae9; stroke-width: 0.8; stroke-linejoin: miter; stroke-linecap: square"/>
   </g>
   <g id="patch_11">
    <path d="M 305.64 59.97032 
L 537.26968 59.97032 
" style="fill: none; stroke: #c5cae9; stroke-width: 0.8; stroke-linejoin: miter; stroke-linecap: square"/>
   </g>
   <g id="line2d_6">
    <path d="M 341.89508 244.669813 
L 343.679789 243.15281 
L 345.464498 241.635808 
L 347.249206 240.118806 
L 349.033915 238.601803 
L 350.818623 237.084801 
L 352.603332 235.567799 
L 354.388041 234.050796 
L 356.172749 232.533794 
L 357.957458 231.016792 
L 359.742166 229.499789 
L 361.526875 227.982787 
L 363.311584 226.465785 
L 365.096292 224.948783 
L 366.881001 223.43178 
L 368.665709 221.914778 
L 370.450418 220.397776 
L 372.235127 218.880773 
L 374.019835 217.363771 
L 375.804544 215.846769 
L 377.589252 214.329766 
L 379.373961 212.812764 
L 381.15867 211.295762 
L 382.943378 209.778759 
L 384.728087 208.261757 
L 386.512795 206.744755 
L 388.297504 205.227753 
L 390.082213 203.71075 
L 391.866921 202.193748 
L 393.65163 200.676746 
L 395.436338 199.159743 
L 397.221047 197.642741 
L 399.005756 196.125739 
L 400.790464 194.608736 
L 402.575173 193.091734 
L 404.359881 191.574732 
L 406.14459 190.057729 
L 407.929299 188.540727 
L 409.714007 187.023725 
L 411.498716 185.506723 
L 413.283424 183.98972 
L 415.068133 182.472718 
L 416.852842 180.955716 
L 418.63755 179.438713 
L 420.422259 177.921711 
L 422.206967 176.404709 
L 423.991676 174.887706 
L 425.776385 173.370704 
L 427.561093 171.853702 
L 429.345802 170.336699 
L 431.13051 168.819697 
L 432.915219 167.302695 
L 434.699928 165.785692 
L 436.484636 164.26869 
L 438.269345 162.751688 
L 440.054053 161.234686 
L 441.838762 159.717683 
L 443.623471 158.200681 
L 445.408179 156.683679 
L 447.192888 155.166676 
L 448.977596 153.649674 
L 450.762305 152.132672 
L 452.547014 150.615669 
L 454.331722 149.098667 
L 456.116431 147.581665 
L 457.901139 146.064662 
L 459.685848 144.54766 
L 461.470557 143.030658 
L 463.255265 141.513656 
L 465.039974 139.996653 
L 466.824682 138.479651 
L 468.609391 136.962649 
L 470.3941 135.445646 
L 472.178808 133.928644 
L 473.963517 132.411642 
L 475.748225 130.894639 
L 477.532934 129.377637 
L 479.317643 127.860635 
L 481.102351 126.343632 
L 482.88706 124.82663 
" clip-path="url(#p05dd548481)" style="fill: none; stroke: #303f9f; stroke-opacity: 0.7; stroke-width: 1.5; stroke-linecap: square"/>
   </g>
   <g id="text_5">
    <!-- $P^{\varepsilon}$ -->
    <g style="fill: #303f9f" transform="translate(430.51861 134.494652) scale(0.12 -0.12)">
     <use xlink:href="#DejaVuSans-Oblique-33" transform="translate(0 0.45625)"/>
     <use xlink:href="#DejaVuSans-Oblique-349" transform="translate(67.319505 41.75625) scale(0.7)"/>
    </g>
   </g>
   <g id="text_6">
    <!-- source a -->
    <g style="fill: #2e7d32" transform="translate(399.413787 287.571658) scale(0.08 -0.08)">
     <use xlink:href="#DejaVuSans-56"/>
     <use xlink:href="#DejaVuSans-52" transform="translate(52.09375 0)"/>
     <use xlink:href="#DejaVuSans-58" transform="translate(113.28125 0)"/>
     <use xlink:href="#DejaVuSans-55" transform="translate(176.65625 0)"/>
     <use xlink:href="#DejaVuSans-46" transform="translate(215.5625 0)"/>
     <use xlink:href="#DejaVuSans-48" transform="translate(270.546875 0)"/>
     <use xlink:href="#DejaVuSans-3" transform="translate(332.078125 0)"/>
     <use xlink:href="#DejaVuSans-44" transform="translate(363.859375 0)"/>
    </g>
   </g>
   <g id="text_7">
    <!-- target b -->
    <g style="fill: #c62828" transform="translate(315.747092 196.793713) rotate(-90) scale(0.08 -0.08)">
     <use xlink:href="#DejaVuSans-57"/>
     <use xlink:href="#DejaVuSans-44" transform="translate(39.203125 0)"/>
     <use xlink:href="#DejaVuSans-55" transform="translate(100.484375 0)"/>
     <use xlink:href="#DejaVuSans-4a" transform="translate(139.84375 0)"/>
     <use xlink:href="#DejaVuSans-48" transform="translate(203.328125 0)"/>
     <use xlink:href="#DejaVuSans-57" transform="translate(264.859375 0)"/>
     <use xlink:href="#DejaVuSans-3" transform="translate(304.0625 0)"/>
     <use xlink:href="#DejaVuSans-45" transform="translate(335.84375 0)"/>
    </g>
   </g>
   <g id="text_8">
    <!-- Blurry $P^{\varepsilon}$ ($\varepsilon &gt; 0$) -->
    <g style="fill: #1a237e" transform="translate(374.42984 53.97032) scale(0.11 -0.11)">
     <defs>
      <path id="DejaVuSans-Bold-25" d="M 2456 2859 
Q 2741 2859 2887 2984 
Q 3034 3109 3034 3353 
Q 3034 3594 2887 3720 
Q 2741 3847 2456 3847 
L 1791 3847 
L 1791 2859 
L 2456 2859 
z
M 2497 819 
Q 2859 819 3042 972 
Q 3225 1125 3225 1434 
Q 3225 1738 3044 1889 
Q 2863 2041 2497 2041 
L 1791 2041 
L 1791 819 
L 2497 819 
z
M 3616 2497 
Q 4003 2384 4215 2081 
Q 4428 1778 4428 1338 
Q 4428 663 3972 331 
Q 3516 0 2584 0 
L 588 0 
L 588 4666 
L 2394 4666 
Q 3366 4666 3802 4372 
Q 4238 4078 4238 3431 
Q 4238 3091 4078 2852 
Q 3919 2613 3616 2497 
z
" transform="scale(0.015625)"/>
      <path id="DejaVuSans-Bold-4f" d="M 538 4863 
L 1656 4863 
L 1656 0 
L 538 0 
L 538 4863 
z
" transform="scale(0.015625)"/>
      <path id="DejaVuSans-Bold-58" d="M 500 1363 
L 500 3500 
L 1625 3500 
L 1625 3150 
Q 1625 2866 1622 2436 
Q 1619 2006 1619 1863 
Q 1619 1441 1641 1255 
Q 1663 1069 1716 984 
Q 1784 875 1895 815 
Q 2006 756 2150 756 
Q 2500 756 2700 1025 
Q 2900 1294 2900 1772 
L 2900 3500 
L 4019 3500 
L 4019 0 
L 2900 0 
L 2900 506 
Q 2647 200 2364 54 
Q 2081 -91 1741 -91 
Q 1134 -91 817 281 
Q 500 653 500 1363 
z
" transform="scale(0.015625)"/>
      <path id="DejaVuSans-Bold-55" d="M 3138 2547 
Q 2991 2616 2845 2648 
Q 2700 2681 2553 2681 
Q 2122 2681 1889 2404 
Q 1656 2128 1656 1613 
L 1656 0 
L 538 0 
L 538 3500 
L 1656 3500 
L 1656 2925 
Q 1872 3269 2151 3426 
Q 2431 3584 2822 3584 
Q 2878 3584 2943 3579 
Q 3009 3575 3134 3559 
L 3138 2547 
z
" transform="scale(0.015625)"/>
      <path id="DejaVuSans-Bold-5c" d="M 78 3500 
L 1197 3500 
L 2138 1125 
L 2938 3500 
L 4056 3500 
L 2584 -331 
Q 2363 -916 2067 -1148 
Q 1772 -1381 1288 -1381 
L 641 -1381 
L 641 -647 
L 991 -647 
Q 1275 -647 1404 -556 
Q 1534 -466 1606 -231 
L 1638 -134 
L 78 3500 
z
" transform="scale(0.015625)"/>
      <path id="DejaVuSans-21" d="M 678 3150 
L 678 3719 
L 4684 2266 
L 4684 1747 
L 678 294 
L 678 863 
L 3897 2003 
L 678 3150 
z
" transform="scale(0.015625)"/>
     </defs>
     <use xlink:href="#DejaVuSans-Bold-25" transform="translate(0 0.45625)"/>
     <use xlink:href="#DejaVuSans-Bold-4f" transform="translate(76.220703 0.45625)"/>
     <use xlink:href="#DejaVuSans-Bold-58" transform="translate(110.498047 0.45625)"/>
     <use xlink:href="#DejaVuSans-Bold-55" transform="translate(181.689453 0.45625)"/>
     <use xlink:href="#DejaVuSans-Bold-55" transform="translate(231.005859 0.45625)"/>
     <use xlink:href="#DejaVuSans-Bold-5c" transform="translate(280.322266 0.45625)"/>
     <use xlink:href="#DejaVuSans-Bold-3" transform="translate(345.507812 0.45625)"/>
     <use xlink:href="#DejaVuSans-Oblique-33" transform="translate(380.322266 0.45625)"/>
     <use xlink:href="#DejaVuSans-Oblique-349" transform="translate(447.641771 41.75625) scale(0.7)"/>
     <use xlink:href="#DejaVuSans-Bold-3" transform="translate(488.21306 0.45625)"/>
     <use xlink:href="#DejaVuSans-Bold-b" transform="translate(523.027513 0.45625)"/>
     <use xlink:href="#DejaVuSans-Oblique-349" transform="translate(568.730638 0.45625)"/>
     <use xlink:href="#DejaVuSans-21" transform="translate(642.265794 0.45625)"/>
     <use xlink:href="#DejaVuSans-13" transform="translate(745.537279 0.45625)"/>
     <use xlink:href="#DejaVuSans-Bold-c" transform="translate(809.160326 0.45625)"/>
    </g>
   </g>
  </g>
  <g id="text_9">
   <!-- Sharp plan vs blurred plan -->
   <g style="fill: #1a237e" transform="translate(175.476168 18.517969) scale(0.13 -0.13)">
    <defs>
     <path id="DejaVuSans-Bold-36" d="M 3834 4519 
L 3834 3531 
Q 3450 3703 3084 3790 
Q 2719 3878 2394 3878 
Q 1963 3878 1756 3759 
Q 1550 3641 1550 3391 
Q 1550 3203 1689 3098 
Q 1828 2994 2194 2919 
L 2706 2816 
Q 3484 2659 3812 2340 
Q 4141 2022 4141 1434 
Q 4141 663 3683 286 
Q 3225 -91 2284 -91 
Q 1841 -91 1394 -6 
Q 947 78 500 244 
L 500 1259 
Q 947 1022 1364 901 
Q 1781 781 2169 781 
Q 2563 781 2772 912 
Q 2981 1044 2981 1288 
Q 2981 1506 2839 1625 
Q 2697 1744 2272 1838 
L 1806 1941 
Q 1106 2091 782 2419 
Q 459 2747 459 3303 
Q 459 4000 909 4375 
Q 1359 4750 2203 4750 
Q 2588 4750 2994 4692 
Q 3400 4634 3834 4519 
z
" transform="scale(0.015625)"/>
     <path id="DejaVuSans-Bold-4b" d="M 4056 2131 
L 4056 0 
L 2931 0 
L 2931 347 
L 2931 1625 
Q 2931 2084 2911 2256 
Q 2891 2428 2841 2509 
Q 2775 2619 2662 2680 
Q 2550 2741 2406 2741 
Q 2056 2741 1856 2470 
Q 1656 2200 1656 1722 
L 1656 0 
L 538 0 
L 538 4863 
L 1656 4863 
L 1656 2988 
Q 1909 3294 2193 3439 
Q 2478 3584 2822 3584 
Q 3428 3584 3742 3212 
Q 4056 2841 4056 2131 
z
" transform="scale(0.015625)"/>
     <path id="DejaVuSans-Bold-53" d="M 1656 506 
L 1656 -1331 
L 538 -1331 
L 538 3500 
L 1656 3500 
L 1656 2988 
Q 1888 3294 2169 3439 
Q 2450 3584 2816 3584 
Q 3463 3584 3878 3070 
Q 4294 2556 4294 1747 
Q 4294 938 3878 423 
Q 3463 -91 2816 -91 
Q 2450 -91 2169 54 
Q 1888 200 1656 506 
z
M 2400 2772 
Q 2041 2772 1848 2508 
Q 1656 2244 1656 1747 
Q 1656 1250 1848 986 
Q 2041 722 2400 722 
Q 2759 722 2948 984 
Q 3138 1247 3138 1747 
Q 3138 2247 2948 2509 
Q 2759 2772 2400 2772 
z
" transform="scale(0.015625)"/>
     <path id="DejaVuSans-Bold-51" d="M 4056 2131 
L 4056 0 
L 2931 0 
L 2931 347 
L 2931 1631 
Q 2931 2084 2911 2256 
Q 2891 2428 2841 2509 
Q 2775 2619 2662 2680 
Q 2550 2741 2406 2741 
Q 2056 2741 1856 2470 
Q 1656 2200 1656 1722 
L 1656 0 
L 538 0 
L 538 3500 
L 1656 3500 
L 1656 2988 
Q 1909 3294 2193 3439 
Q 2478 3584 2822 3584 
Q 3428 3584 3742 3212 
Q 4056 2841 4056 2131 
z
" transform="scale(0.015625)"/>
     <path id="DejaVuSans-Bold-59" d="M 97 3500 
L 1216 3500 
L 2088 1081 
L 2956 3500 
L 4078 3500 
L 2700 0 
L 1472 0 
L 97 3500 
z
" transform="scale(0.015625)"/>
     <path id="DejaVuSans-Bold-56" d="M 3272 3391 
L 3272 2541 
Q 2913 2691 2578 2766 
Q 2244 2841 1947 2841 
Q 1628 2841 1473 2761 
Q 1319 2681 1319 2516 
Q 1319 2381 1436 2309 
Q 1553 2238 1856 2203 
L 2053 2175 
Q 2913 2066 3209 1816 
Q 3506 1566 3506 1031 
Q 3506 472 3093 190 
Q 2681 -91 1863 -91 
Q 1516 -91 1145 -36 
Q 775 19 384 128 
L 384 978 
Q 719 816 1070 734 
Q 1422 653 1784 653 
Q 2113 653 2278 743 
Q 2444 834 2444 1013 
Q 2444 1163 2330 1236 
Q 2216 1309 1875 1350 
L 1678 1375 
Q 931 1469 631 1722 
Q 331 1975 331 2491 
Q 331 3047 712 3315 
Q 1094 3584 1881 3584 
Q 2191 3584 2531 3537 
Q 2872 3491 3272 3391 
z
" transform="scale(0.015625)"/>
     <path id="DejaVuSans-Bold-45" d="M 2400 722 
Q 2759 722 2948 984 
Q 3138 1247 3138 1747 
Q 3138 2247 2948 2509 
Q 2759 2772 2400 2772 
Q 2041 2772 1848 2508 
Q 1656 2244 1656 1747 
Q 1656 1250 1848 986 
Q 2041 722 2400 722 
z
M 1656 2988 
Q 1888 3294 2169 3439 
Q 2450 3584 2816 3584 
Q 3463 3584 3878 3070 
Q 4294 2556 4294 1747 
Q 4294 938 3878 423 
Q 3463 -91 2816 -91 
Q 2450 -91 2169 54 
Q 1888 200 1656 506 
L 1656 0 
L 538 0 
L 538 4863 
L 1656 4863 
L 1656 2988 
z
" transform="scale(0.015625)"/>
     <path id="DejaVuSans-Bold-48" d="M 4031 1759 
L 4031 1441 
L 1416 1441 
Q 1456 1047 1700 850 
Q 1944 653 2381 653 
Q 2734 653 3104 758 
Q 3475 863 3866 1075 
L 3866 213 
Q 3469 63 3072 -14 
Q 2675 -91 2278 -91 
Q 1328 -91 801 392 
Q 275 875 275 1747 
Q 275 2603 792 3093 
Q 1309 3584 2216 3584 
Q 3041 3584 3536 3087 
Q 4031 2591 4031 1759 
z
M 2881 2131 
Q 2881 2450 2695 2645 
Q 2509 2841 2209 2841 
Q 1884 2841 1681 2658 
Q 1478 2475 1428 2131 
L 2881 2131 
z
" transform="scale(0.015625)"/>
     <path id="DejaVuSans-Bold-47" d="M 2919 2988 
L 2919 4863 
L 4044 4863 
L 4044 0 
L 2919 0 
L 2919 506 
Q 2688 197 2409 53 
Q 2131 -91 1766 -91 
Q 1119 -91 703 423 
Q 288 938 288 1747 
Q 288 2556 703 3070 
Q 1119 3584 1766 3584 
Q 2128 3584 2408 3439 
Q 2688 3294 2919 2988 
z
M 2181 722 
Q 2541 722 2730 984 
Q 2919 1247 2919 1747 
Q 2919 2247 2730 2509 
Q 2541 2772 2181 2772 
Q 1825 2772 1636 2509 
Q 1447 2247 1447 1747 
Q 1447 1247 1636 984 
Q 1825 722 2181 722 
z
" transform="scale(0.015625)"/>
    </defs>
    <use xlink:href="#DejaVuSans-Bold-36"/>
    <use xlink:href="#DejaVuSans-Bold-4b" transform="translate(72.015625 0)"/>
    <use xlink:href="#DejaVuSans-Bold-44" transform="translate(143.203125 0)"/>
    <use xlink:href="#DejaVuSans-Bold-55" transform="translate(210.6875 0)"/>
    <use xlink:href="#DejaVuSans-Bold-53" transform="translate(260 0)"/>
    <use xlink:href="#DejaVuSans-Bold-3" transform="translate(331.578125 0)"/>
    <use xlink:href="#DejaVuSans-Bold-53" transform="translate(366.390625 0)"/>
    <use xlink:href="#DejaVuSans-Bold-4f" transform="translate(437.96875 0)"/>
    <use xlink:href="#DejaVuSans-Bold-44" transform="translate(472.25 0)"/>
    <use xlink:href="#DejaVuSans-Bold-51" transform="translate(539.734375 0)"/>
    <use xlink:href="#DejaVuSans-Bold-3" transform="translate(610.921875 0)"/>
    <use xlink:href="#DejaVuSans-Bold-59" transform="translate(645.734375 0)"/>
    <use xlink:href="#DejaVuSans-Bold-56" transform="translate(710.921875 0)"/>
    <use xlink:href="#DejaVuSans-Bold-3" transform="translate(770.4375 0)"/>
    <use xlink:href="#DejaVuSans-Bold-45" transform="translate(805.25 0)"/>
    <use xlink:href="#DejaVuSans-Bold-4f" transform="translate(876.828125 0)"/>
    <use xlink:href="#DejaVuSans-Bold-58" transform="translate(911.109375 0)"/>
    <use xlink:href="#DejaVuSans-Bold-55" transform="translate(982.296875 0)"/>
    <use xlink:href="#DejaVuSans-Bold-55" transform="translate(1031.609375 0)"/>
    <use xlink:href="#DejaVuSans-Bold-48" transform="translate(1080.921875 0)"/>
    <use xlink:href="#DejaVuSans-Bold-47" transform="translate(1148.75 0)"/>
    <use xlink:href="#DejaVuSans-Bold-3" transform="translate(1220.328125 0)"/>
    <use xlink:href="#DejaVuSans-Bold-53" transform="translate(1255.140625 0)"/>
    <use xlink:href="#DejaVuSans-Bold-4f" transform="translate(1326.71875 0)"/>
    <use xlink:href="#DejaVuSans-Bold-44" transform="translate(1361 0)"/>
    <use xlink:href="#DejaVuSans-Bold-51" transform="translate(1428.484375 0)"/>
   </g>
  </g>
 </g>
 <defs>
  <clipPath id="p095c0bbfda">
   <rect x="8.64" y="59.97032" width="231.62968" height="231.62968"/>
  </clipPath>
  <clipPath id="p05dd548481">
   <rect x="305.64" y="59.97032" width="231.62968" height="231.62968"/>
  </clipPath>
 </defs>
</svg>
