<?xml version="1.0" encoding="utf-8" standalone="no"?>
<!DOCTYPE svg PUBLIC "-//W3C//DTD SVG 1.1//EN"
  "http://www.w3.org/Graphics/SVG/1.1/DTD/svg11.dtd">
<svg xmlns:xlink="http://www.w3.org/1999/xlink" width="315.803077pt" height="294.48pt" viewBox="0 0 315.803077 294.48" xmlns="http://www.w3.org/2000/svg" version="1.1">
 <metadata>
  <rdf:RDF xmlns:dc="http://purl.org/dc/elements/1.1/" xmlns:cc="http://creativecommons.org/ns#" xmlns:rdf="http://www.w3.org/1999/02/22-rdf-syntax-ns#">
   <cc:Work>
    <dc:type rdf:resource="http://purl.org/dc/dcmitype/StillImage"/>
    <dc:date>2026-07-18T04:24:15.061550</dc:date>
    <dc:format>image/svg+xml</dc:format>
    <dc:creator>
     <cc:Agent>
      <dc:title>Matplotlib v3.11.0, https://matplotlib.org/</dc:title>
     </cc:Agent>
    </dc:creator>
   </cc:Work>
  </rdf:RDF>
 </metadata>
 <defs>
  <style type="text/css">*{stroke-linejoin: round; stroke-linecap: butt}</style>
 </defs>
 <g id="figure_1">
  <g id="patch_1">
   <path d="M 0 294.48 
L 315.803077 294.48 
L 315.803077 0 
L 0 0 
z
" style="fill: #ffffff"/>
  </g>
  <g id="axes_1">
   <g id="patch_2">
    <path d="M 72.609231 232.532308 
L 275.178462 232.532308 
L 173.893846 40.624615 
z
" clip-path="url(#pfdc21ebf8a)" style="fill: #eef1fb; stroke: #303f9f; stroke-width: 2; stroke-linejoin: miter"/>
   </g>
   <g id="patch_3">
    <path d="M 153.636923 179.224615 
C 159.857364 179.224615 165.823869 177.651902 170.222385 174.852846 
C 174.6209 172.053791 177.092308 168.256924 177.092308 164.298462 
C 177.092308 160.339999 174.6209 156.543132 170.222385 153.744077 
C 165.823869 150.945021 159.857364 149.372308 153.636923 149.372308 
C 147.416482 149.372308 141.449977 150.945021 137.051462 153.744077 
C 132.652946 156.543132 130.181538 160.339999 130.181538 164.298462 
C 130.181538 168.256924 132.652946 172.053791 137.051462 174.852846 
C 141.449977 177.651902 147.416482 179.224615 153.636923 179.224615 
L 153.636923 179.224615 
z
" clip-path="url(#pfdc21ebf8a)" style="fill: none; opacity: 0.9; stroke: #2e7d32; stroke-width: 1.4; stroke-linejoin: miter"/>
   </g>
   <g id="patch_4">
    <path d="M 153.636923 187.753846 
C 163.815826 187.753846 173.579198 185.282439 180.776769 180.883923 
C 187.974341 176.485407 192.018462 170.518902 192.018462 164.298462 
C 192.018462 158.078021 187.974341 152.111516 180.776769 147.713 
C 173.579198 143.314484 163.815826 140.843077 153.636923 140.843077 
C 143.45802 140.843077 133.694648 143.314484 126.497077 147.713 
C 119.299506 152.111516 115.255385 158.078021 115.255385 164.298462 
C 115.255385 170.518902 119.299506 176.485407 126.497077 180.883923 
C 133.694648 185.282439 143.45802 187.753846 153.636923 187.753846 
L 153.636923 187.753846 
z
" clip-path="url(#pfdc21ebf8a)" style="fill: none; opacity: 0.55; stroke: #2e7d32; stroke-width: 1.4; stroke-linejoin: miter"/>
   </g>
   <g id="patch_5">
    <path d="M 74.139875 231.243344 
Q 113.122978 198.415468 150.737766 166.739857 
" style="fill: none; stroke-dasharray: 6.4,3.2; stroke-dashoffset: 0; stroke: #2e7d32; stroke-width: 1.6; stroke-linecap: round"/>
    <path d="M 145.520267 167.995922 
L 150.737766 166.739857 
L 148.612118 171.667495 
z
" style="fill: #2e7d32; stroke-dasharray: 6.4,3.2; stroke-dashoffset: 0; stroke: #2e7d32; stroke-width: 1.6; stroke-linecap: round"/>
   </g>
   <g id="text_1">
    <!-- U(a, b)  ·  feasible plans -->
    <g style="fill: #1a237e" transform="translate(99.816581 27.830769) scale(0.11 -0.11)">
     <defs>
      <path id="DejaVuSans-Bold-38" d="M 588 4666 
L 1791 4666 
L 1791 1869 
Q 1791 1291 1980 1042 
Q 2169 794 2597 794 
Q 3028 794 3217 1042 
Q 3406 1291 3406 1869 
L 3406 4666 
L 4609 4666 
L 4609 1869 
Q 4609 878 4112 393 
Q 3616 -91 2597 -91 
Q 1581 -91 1084 393 
Q 588 878 588 1869 
L 588 4666 
z
" transform="scale(0.015625)"/>
      <path id="DejaVuSans-Bold-b" d="M 2413 -844 
L 1484 -844 
Q 1006 -72 778 623 
Q 550 1319 550 2003 
Q 550 2688 779 3389 
Q 1009 4091 1484 4856 
L 2413 4856 
Q 2013 4116 1813 3408 
Q 1613 2700 1613 2009 
Q 1613 1319 1811 609 
Q 2009 -100 2413 -844 
z
" transform="scale(0.015625)"/>
      <path id="DejaVuSans-Bold-44" d="M 2106 1575 
Q 1756 1575 1579 1456 
Q 1403 1338 1403 1106 
Q 1403 894 1545 773 
Q 1688 653 1941 653 
Q 2256 653 2472 879 
Q 2688 1106 2688 1447 
L 2688 1575 
L 2106 1575 
z
M 3816 1997 
L 3816 0 
L 2688 0 
L 2688 519 
Q 2463 200 2181 54 
Q 1900 -91 1497 -91 
Q 953 -91 614 226 
Q 275 544 275 1050 
Q 275 1666 698 1953 
Q 1122 2241 2028 2241 
L 2688 2241 
L 2688 2328 
Q 2688 2594 2478 2717 
Q 2269 2841 1825 2841 
Q 1466 2841 1156 2769 
Q 847 2697 581 2553 
L 581 3406 
Q 941 3494 1303 3539 
Q 1666 3584 2028 3584 
Q 2975 3584 3395 3211 
Q 3816 2838 3816 1997 
z
" transform="scale(0.015625)"/>
      <path id="DejaVuSans-Bold-f" d="M 653 1209 
L 1778 1209 
L 1778 256 
L 1006 -909 
L 341 -909 
L 653 256 
L 653 1209 
z
" transform="scale(0.015625)"/>
      <path id="DejaVuSans-Bold-3" transform="scale(0.015625)"/>
      <path id="DejaVuSans-Bold-45" d="M 2400 722 
Q 2759 722 2948 984 
Q 3138 1247 3138 1747 
Q 3138 2247 2948 2509 
Q 2759 2772 2400 2772 
Q 2041 2772 1848 2508 
Q 1656 2244 1656 1747 
Q 1656 1250 1848 986 
Q 2041 722 2400 722 
z
M 1656 2988 
Q 1888 3294 2169 3439 
Q 2450 3584 2816 3584 
Q 3463 3584 3878 3070 
Q 4294 2556 4294 1747 
Q 4294 938 3878 423 
Q 3463 -91 2816 -91 
Q 2450 -91 2169 54 
Q 1888 200 1656 506 
L 1656 0 
L 538 0 
L 538 4863 
L 1656 4863 
L 1656 2988 
z
" transform="scale(0.015625)"/>
      <path id="DejaVuSans-Bold-c" d="M 513 -844 
Q 913 -100 1113 609 
Q 1313 1319 1313 2009 
Q 1313 2700 1113 3408 
Q 913 4116 513 4856 
L 1441 4856 
Q 1916 4091 2145 3389 
Q 2375 2688 2375 2003 
Q 2375 1319 2147 623 
Q 1919 -72 1441 -844 
L 513 -844 
z
" transform="scale(0.015625)"/>
      <path id="DejaVuSans-Bold-79" d="M 653 2828 
L 1778 2828 
L 1778 1619 
L 653 1619 
L 653 2828 
z
" transform="scale(0.015625)"/>
      <path id="DejaVuSans-Bold-49" d="M 2841 4863 
L 2841 4128 
L 2222 4128 
Q 1984 4128 1890 4042 
Q 1797 3956 1797 3744 
L 1797 3500 
L 2753 3500 
L 2753 2700 
L 1797 2700 
L 1797 0 
L 678 0 
L 678 2700 
L 122 2700 
L 122 3500 
L 678 3500 
L 678 3744 
Q 678 4316 997 4589 
Q 1316 4863 1984 4863 
L 2841 4863 
z
" transform="scale(0.015625)"/>
      <path id="DejaVuSans-Bold-48" d="M 4031 1759 
L 4031 1441 
L 1416 1441 
Q 1456 1047 1700 850 
Q 1944 653 2381 653 
Q 2734 653 3104 758 
Q 3475 863 3866 1075 
L 3866 213 
Q 3469 63 3072 -14 
Q 2675 -91 2278 -91 
Q 1328 -91 801 392 
Q 275 875 275 1747 
Q 275 2603 792 3093 
Q 1309 3584 2216 3584 
Q 3041 3584 3536 3087 
Q 4031 2591 4031 1759 
z
M 2881 2131 
Q 2881 2450 2695 2645 
Q 2509 2841 2209 2841 
Q 1884 2841 1681 2658 
Q 1478 2475 1428 2131 
L 2881 2131 
z
" transform="scale(0.015625)"/>
      <path id="DejaVuSans-Bold-56" d="M 3272 3391 
L 3272 2541 
Q 2913 2691 2578 2766 
Q 2244 2841 1947 2841 
Q 1628 2841 1473 2761 
Q 1319 2681 1319 2516 
Q 1319 2381 1436 2309 
Q 1553 2238 1856 2203 
L 2053 2175 
Q 2913 2066 3209 1816 
Q 3506 1566 3506 1031 
Q 3506 472 3093 190 
Q 2681 -91 1863 -91 
Q 1516 -91 1145 -36 
Q 775 19 384 128 
L 384 978 
Q 719 816 1070 734 
Q 1422 653 1784 653 
Q 2113 653 2278 743 
Q 2444 834 2444 1013 
Q 2444 1163 2330 1236 
Q 2216 1309 1875 1350 
L 1678 1375 
Q 931 1469 631 1722 
Q 331 1975 331 2491 
Q 331 3047 712 3315 
Q 1094 3584 1881 3584 
Q 2191 3584 2531 3537 
Q 2872 3491 3272 3391 
z
" transform="scale(0.015625)"/>
      <path id="DejaVuSans-Bold-4c" d="M 538 3500 
L 1656 3500 
L 1656 0 
L 538 0 
L 538 3500 
z
M 538 4863 
L 1656 4863 
L 1656 3950 
L 538 3950 
L 538 4863 
z
" transform="scale(0.015625)"/>
      <path id="DejaVuSans-Bold-4f" d="M 538 4863 
L 1656 4863 
L 1656 0 
L 538 0 
L 538 4863 
z
" transform="scale(0.015625)"/>
      <path id="DejaVuSans-Bold-53" d="M 1656 506 
L 1656 -1331 
L 538 -1331 
L 538 3500 
L 1656 3500 
L 1656 2988 
Q 1888 3294 2169 3439 
Q 2450 3584 2816 3584 
Q 3463 3584 3878 3070 
Q 4294 2556 4294 1747 
Q 4294 938 3878 423 
Q 3463 -91 2816 -91 
Q 2450 -91 2169 54 
Q 1888 200 1656 506 
z
M 2400 2772 
Q 2041 2772 1848 2508 
Q 1656 2244 1656 1747 
Q 1656 1250 1848 986 
Q 2041 722 2400 722 
Q 2759 722 2948 984 
Q 3138 1247 3138 1747 
Q 3138 2247 2948 2509 
Q 2759 2772 2400 2772 
z
" transform="scale(0.015625)"/>
      <path id="DejaVuSans-Bold-51" d="M 4056 2131 
L 4056 0 
L 2931 0 
L 2931 347 
L 2931 1631 
Q 2931 2084 2911 2256 
Q 2891 2428 2841 2509 
Q 2775 2619 2662 2680 
Q 2550 2741 2406 2741 
Q 2056 2741 1856 2470 
Q 1656 2200 1656 1722 
L 1656 0 
L 538 0 
L 538 3500 
L 1656 3500 
L 1656 2988 
Q 1909 3294 2193 3439 
Q 2478 3584 2822 3584 
Q 3428 3584 3742 3212 
Q 4056 2841 4056 2131 
z
" transform="scale(0.015625)"/>
     </defs>
     <use xlink:href="#DejaVuSans-Bold-38"/>
     <use xlink:href="#DejaVuSans-Bold-b" transform="translate(81.203125 0)"/>
     <use xlink:href="#DejaVuSans-Bold-44" transform="translate(126.90625 0)"/>
     <use xlink:href="#DejaVuSans-Bold-f" transform="translate(194.390625 0)"/>
     <use xlink:href="#DejaVuSans-Bold-3" transform="translate(232.375 0)"/>
     <use xlink:href="#DejaVuSans-Bold-45" transform="translate(267.1875 0)"/>
     <use xlink:href="#DejaVuSans-Bold-c" transform="translate(338.765625 0)"/>
     <use xlink:href="#DejaVuSans-Bold-3" transform="translate(384.46875 0)"/>
     <use xlink:href="#DejaVuSans-Bold-3" transform="translate(419.28125 0)"/>
     <use xlink:href="#DejaVuSans-Bold-79" transform="translate(454.09375 0)"/>
     <use xlink:href="#DejaVuSans-Bold-3" transform="translate(492.078125 0)"/>
     <use xlink:href="#DejaVuSans-Bold-3" transform="translate(526.890625 0)"/>
     <use xlink:href="#DejaVuSans-Bold-49" transform="translate(561.703125 0)"/>
     <use xlink:href="#DejaVuSans-Bold-48" transform="translate(605.203125 0)"/>
     <use xlink:href="#DejaVuSans-Bold-44" transform="translate(673.03125 0)"/>
     <use xlink:href="#DejaVuSans-Bold-56" transform="translate(740.515625 0)"/>
     <use xlink:href="#DejaVuSans-Bold-4c" transform="translate(800.03125 0)"/>
     <use xlink:href="#DejaVuSans-Bold-45" transform="translate(834.3125 0)"/>
     <use xlink:href="#DejaVuSans-Bold-4f" transform="translate(905.890625 0)"/>
     <use xlink:href="#DejaVuSans-Bold-48" transform="translate(940.171875 0)"/>
     <use xlink:href="#DejaVuSans-Bold-3" transform="translate(1008 0)"/>
     <use xlink:href="#DejaVuSans-Bold-53" transform="translate(1042.8125 0)"/>
     <use xlink:href="#DejaVuSans-Bold-4f" transform="translate(1114.390625 0)"/>
     <use xlink:href="#DejaVuSans-Bold-44" transform="translate(1148.671875 0)"/>
     <use xlink:href="#DejaVuSans-Bold-51" transform="translate(1216.15625 0)"/>
     <use xlink:href="#DejaVuSans-Bold-56" transform="translate(1287.34375 0)"/>
    </g>
   </g>
   <g id="text_2">
    <!-- Exact OT -->
    <g style="fill: #1565c0" transform="translate(68.344615 257.329539) scale(0.09 -0.09)">
     <defs>
      <path id="DejaVuSans-Bold-28" d="M 588 4666 
L 3834 4666 
L 3834 3756 
L 1791 3756 
L 1791 2888 
L 3713 2888 
L 3713 1978 
L 1791 1978 
L 1791 909 
L 3903 909 
L 3903 0 
L 588 0 
L 588 4666 
z
" transform="scale(0.015625)"/>
      <path id="DejaVuSans-Bold-5b" d="M 1422 1791 
L 159 3500 
L 1344 3500 
L 2059 2463 
L 2784 3500 
L 3969 3500 
L 2706 1797 
L 4031 0 
L 2847 0 
L 2059 1106 
L 1281 0 
L 97 0 
L 1422 1791 
z
" transform="scale(0.015625)"/>
      <path id="DejaVuSans-Bold-46" d="M 3366 3391 
L 3366 2478 
Q 3138 2634 2908 2709 
Q 2678 2784 2431 2784 
Q 1963 2784 1702 2511 
Q 1441 2238 1441 1747 
Q 1441 1256 1702 982 
Q 1963 709 2431 709 
Q 2694 709 2930 787 
Q 3166 866 3366 1019 
L 3366 103 
Q 3103 6 2833 -42 
Q 2563 -91 2291 -91 
Q 1344 -91 809 395 
Q 275 881 275 1747 
Q 275 2613 809 3098 
Q 1344 3584 2291 3584 
Q 2566 3584 2833 3536 
Q 3100 3488 3366 3391 
z
" transform="scale(0.015625)"/>
      <path id="DejaVuSans-Bold-57" d="M 1759 4494 
L 1759 3500 
L 2913 3500 
L 2913 2700 
L 1759 2700 
L 1759 1216 
Q 1759 972 1856 886 
Q 1953 800 2241 800 
L 2816 800 
L 2816 0 
L 1856 0 
Q 1194 0 917 276 
Q 641 553 641 1216 
L 641 2700 
L 84 2700 
L 84 3500 
L 641 3500 
L 641 4494 
L 1759 4494 
z
" transform="scale(0.015625)"/>
      <path id="DejaVuSans-Bold-32" d="M 2719 3878 
Q 2169 3878 1866 3472 
Q 1563 3066 1563 2328 
Q 1563 1594 1866 1187 
Q 2169 781 2719 781 
Q 3272 781 3575 1187 
Q 3878 1594 3878 2328 
Q 3878 3066 3575 3472 
Q 3272 3878 2719 3878 
z
M 2719 4750 
Q 3844 4750 4481 4106 
Q 5119 3463 5119 2328 
Q 5119 1197 4481 553 
Q 3844 -91 2719 -91 
Q 1597 -91 958 553 
Q 319 1197 319 2328 
Q 319 3463 958 4106 
Q 1597 4750 2719 4750 
z
" transform="scale(0.015625)"/>
      <path id="DejaVuSans-Bold-37" d="M 31 4666 
L 4331 4666 
L 4331 3756 
L 2784 3756 
L 2784 0 
L 1581 0 
L 1581 3756 
L 31 3756 
L 31 4666 
z
" transform="scale(0.015625)"/>
     </defs>
     <use xlink:href="#DejaVuSans-Bold-28"/>
     <use xlink:href="#DejaVuSans-Bold-5b" transform="translate(68.3125 0)"/>
     <use xlink:href="#DejaVuSans-Bold-44" transform="translate(132.8125 0)"/>
     <use xlink:href="#DejaVuSans-Bold-46" transform="translate(200.296875 0)"/>
     <use xlink:href="#DejaVuSans-Bold-57" transform="translate(259.578125 0)"/>
     <use xlink:href="#DejaVuSans-Bold-3" transform="translate(307.375 0)"/>
     <use xlink:href="#DejaVuSans-Bold-32" transform="translate(342.1875 0)"/>
     <use xlink:href="#DejaVuSans-Bold-37" transform="translate(427.203125 0)"/>
    </g>
    <!-- (eps -&gt; 0) -->
    <g style="fill: #1565c0" transform="translate(68.344615 268.131297) scale(0.09 -0.09)">
     <defs>
      <path id="DejaVuSans-Bold-10" d="M 347 2297 
L 2309 2297 
L 2309 1388 
L 347 1388 
L 347 2297 
z
" transform="scale(0.015625)"/>
      <path id="DejaVuSans-Bold-21" d="M 678 3041 
L 678 3822 
L 4684 2375 
L 4684 1638 
L 678 191 
L 678 972 
L 3694 2003 
L 678 3041 
z
" transform="scale(0.015625)"/>
      <path id="DejaVuSans-Bold-13" d="M 2944 2338 
Q 2944 3213 2780 3570 
Q 2616 3928 2228 3928 
Q 1841 3928 1675 3570 
Q 1509 3213 1509 2338 
Q 1509 1453 1675 1090 
Q 1841 728 2228 728 
Q 2613 728 2778 1090 
Q 2944 1453 2944 2338 
z
M 4147 2328 
Q 4147 1169 3647 539 
Q 3147 -91 2228 -91 
Q 1306 -91 806 539 
Q 306 1169 306 2328 
Q 306 3491 806 4120 
Q 1306 4750 2228 4750 
Q 3147 4750 3647 4120 
Q 4147 3491 4147 2328 
z
" transform="scale(0.015625)"/>
     </defs>
     <use xlink:href="#DejaVuSans-Bold-b"/>
     <use xlink:href="#DejaVuSans-Bold-48" transform="translate(45.703125 0)"/>
     <use xlink:href="#DejaVuSans-Bold-53" transform="translate(113.53125 0)"/>
     <use xlink:href="#DejaVuSans-Bold-56" transform="translate(185.109375 0)"/>
     <use xlink:href="#DejaVuSans-Bold-3" transform="translate(244.625 0)"/>
     <use xlink:href="#DejaVuSans-Bold-10" transform="translate(279.4375 0)"/>
     <use xlink:href="#DejaVuSans-Bold-21" transform="translate(320.9375 0)"/>
     <use xlink:href="#DejaVuSans-Bold-3" transform="translate(404.734375 0)"/>
     <use xlink:href="#DejaVuSans-Bold-13" transform="translate(439.546875 0)"/>
     <use xlink:href="#DejaVuSans-Bold-c" transform="translate(509.125 0)"/>
    </g>
   </g>
   <g id="text_3">
    <!-- Entropic OT -->
    <g style="fill: #2e7d32" transform="translate(170.695385 146.1691) scale(0.09 -0.09)">
     <defs>
      <path id="DejaVuSans-Bold-55" d="M 3138 2547 
Q 2991 2616 2845 2648 
Q 2700 2681 2553 2681 
Q 2122 2681 1889 2404 
Q 1656 2128 1656 1613 
L 1656 0 
L 538 0 
L 538 3500 
L 1656 3500 
L 1656 2925 
Q 1872 3269 2151 3426 
Q 2431 3584 2822 3584 
Q 2878 3584 2943 3579 
Q 3009 3575 3134 3559 
L 3138 2547 
z
" transform="scale(0.015625)"/>
      <path id="DejaVuSans-Bold-52" d="M 2203 2784 
Q 1831 2784 1636 2517 
Q 1441 2250 1441 1747 
Q 1441 1244 1636 976 
Q 1831 709 2203 709 
Q 2569 709 2762 976 
Q 2956 1244 2956 1747 
Q 2956 2250 2762 2517 
Q 2569 2784 2203 2784 
z
M 2203 3584 
Q 3106 3584 3614 3096 
Q 4122 2609 4122 1747 
Q 4122 884 3614 396 
Q 3106 -91 2203 -91 
Q 1297 -91 786 396 
Q 275 884 275 1747 
Q 275 2609 786 3096 
Q 1297 3584 2203 3584 
z
" transform="scale(0.015625)"/>
     </defs>
     <use xlink:href="#DejaVuSans-Bold-28"/>
     <use xlink:href="#DejaVuSans-Bold-51" transform="translate(68.3125 0)"/>
     <use xlink:href="#DejaVuSans-Bold-57" transform="translate(139.5 0)"/>
     <use xlink:href="#DejaVuSans-Bold-55" transform="translate(187.296875 0)"/>
     <use xlink:href="#DejaVuSans-Bold-52" transform="translate(236.609375 0)"/>
     <use xlink:href="#DejaVuSans-Bold-53" transform="translate(305.3125 0)"/>
     <use xlink:href="#DejaVuSans-Bold-4c" transform="translate(376.890625 0)"/>
     <use xlink:href="#DejaVuSans-Bold-46" transform="translate(411.171875 0)"/>
     <use xlink:href="#DejaVuSans-Bold-3" transform="translate(470.453125 0)"/>
     <use xlink:href="#DejaVuSans-Bold-32" transform="translate(505.265625 0)"/>
     <use xlink:href="#DejaVuSans-Bold-37" transform="translate(590.28125 0)"/>
    </g>
    <!-- (eps &gt; 0) -->
    <g style="fill: #2e7d32" transform="translate(170.695385 156.970858) scale(0.09 -0.09)">
     <use xlink:href="#DejaVuSans-Bold-b"/>
     <use xlink:href="#DejaVuSans-Bold-48" transform="translate(45.703125 0)"/>
     <use xlink:href="#DejaVuSans-Bold-53" transform="translate(113.53125 0)"/>
     <use xlink:href="#DejaVuSans-Bold-56" transform="translate(185.109375 0)"/>
     <use xlink:href="#DejaVuSans-Bold-3" transform="translate(244.625 0)"/>
     <use xlink:href="#DejaVuSans-Bold-21" transform="translate(279.4375 0)"/>
     <use xlink:href="#DejaVuSans-Bold-3" transform="translate(363.234375 0)"/>
     <use xlink:href="#DejaVuSans-Bold-13" transform="translate(398.046875 0)"/>
     <use xlink:href="#DejaVuSans-Bold-c" transform="translate(467.625 0)"/>
    </g>
   </g>
   <g id="text_4">
    <!-- interior slides inward as eps increases -->
    <g style="fill: #607d8b" transform="translate(88.039471 270.913846) scale(0.09 -0.09)">
     <defs>
      <path id="DejaVuSans-4c" d="M 603 3500 
L 1178 3500 
L 1178 0 
L 603 0 
L 603 3500 
z
M 603 4863 
L 1178 4863 
L 1178 4134 
L 603 4134 
L 603 4863 
z
" transform="scale(0.015625)"/>
      <path id="DejaVuSans-51" d="M 3513 2113 
L 3513 0 
L 2938 0 
L 2938 2094 
Q 2938 2591 2744 2837 
Q 2550 3084 2163 3084 
Q 1697 3084 1428 2787 
Q 1159 2491 1159 1978 
L 1159 0 
L 581 0 
L 581 3500 
L 1159 3500 
L 1159 2956 
Q 1366 3272 1645 3428 
Q 1925 3584 2291 3584 
Q 2894 3584 3203 3211 
Q 3513 2838 3513 2113 
z
" transform="scale(0.015625)"/>
      <path id="DejaVuSans-57" d="M 1172 4494 
L 1172 3500 
L 2356 3500 
L 2356 3053 
L 1172 3053 
L 1172 1153 
Q 1172 725 1289 603 
Q 1406 481 1766 481 
L 2356 481 
L 2356 0 
L 1766 0 
Q 1100 0 847 248 
Q 594 497 594 1153 
L 594 3053 
L 172 3053 
L 172 3500 
L 594 3500 
L 594 4494 
L 1172 4494 
z
" transform="scale(0.015625)"/>
      <path id="DejaVuSans-48" d="M 3597 1894 
L 3597 1613 
L 953 1613 
Q 991 1019 1311 708 
Q 1631 397 2203 397 
Q 2534 397 2845 478 
Q 3156 559 3463 722 
L 3463 178 
Q 3153 47 2828 -22 
Q 2503 -91 2169 -91 
Q 1331 -91 842 396 
Q 353 884 353 1716 
Q 353 2575 817 3079 
Q 1281 3584 2069 3584 
Q 2775 3584 3186 3129 
Q 3597 2675 3597 1894 
z
M 3022 2063 
Q 3016 2534 2758 2815 
Q 2500 3097 2075 3097 
Q 1594 3097 1305 2825 
Q 1016 2553 972 2059 
L 3022 2063 
z
" transform="scale(0.015625)"/>
      <path id="DejaVuSans-55" d="M 2631 2963 
Q 2534 3019 2420 3045 
Q 2306 3072 2169 3072 
Q 1681 3072 1420 2755 
Q 1159 2438 1159 1844 
L 1159 0 
L 581 0 
L 581 3500 
L 1159 3500 
L 1159 2956 
Q 1341 3275 1631 3429 
Q 1922 3584 2338 3584 
Q 2397 3584 2469 3576 
Q 2541 3569 2628 3553 
L 2631 2963 
z
" transform="scale(0.015625)"/>
      <path id="DejaVuSans-52" d="M 1959 3097 
Q 1497 3097 1228 2736 
Q 959 2375 959 1747 
Q 959 1119 1226 758 
Q 1494 397 1959 397 
Q 2419 397 2687 759 
Q 2956 1122 2956 1747 
Q 2956 2369 2687 2733 
Q 2419 3097 1959 3097 
z
M 1959 3584 
Q 2709 3584 3137 3096 
Q 3566 2609 3566 1747 
Q 3566 888 3137 398 
Q 2709 -91 1959 -91 
Q 1206 -91 779 398 
Q 353 888 353 1747 
Q 353 2609 779 3096 
Q 1206 3584 1959 3584 
z
" transform="scale(0.015625)"/>
      <path id="DejaVuSans-3" transform="scale(0.015625)"/>
      <path id="DejaVuSans-56" d="M 2834 3397 
L 2834 2853 
Q 2591 2978 2328 3040 
Q 2066 3103 1784 3103 
Q 1356 3103 1142 2972 
Q 928 2841 928 2578 
Q 928 2378 1081 2264 
Q 1234 2150 1697 2047 
L 1894 2003 
Q 2506 1872 2764 1633 
Q 3022 1394 3022 966 
Q 3022 478 2636 193 
Q 2250 -91 1575 -91 
Q 1294 -91 989 -36 
Q 684 19 347 128 
L 347 722 
Q 666 556 975 473 
Q 1284 391 1588 391 
Q 1994 391 2212 530 
Q 2431 669 2431 922 
Q 2431 1156 2273 1281 
Q 2116 1406 1581 1522 
L 1381 1569 
Q 847 1681 609 1914 
Q 372 2147 372 2553 
Q 372 3047 722 3315 
Q 1072 3584 1716 3584 
Q 2034 3584 2315 3537 
Q 2597 3491 2834 3397 
z
" transform="scale(0.015625)"/>
      <path id="DejaVuSans-4f" d="M 603 4863 
L 1178 4863 
L 1178 0 
L 603 0 
L 603 4863 
z
" transform="scale(0.015625)"/>
      <path id="DejaVuSans-47" d="M 2906 2969 
L 2906 4863 
L 3481 4863 
L 3481 0 
L 2906 0 
L 2906 525 
Q 2725 213 2448 61 
Q 2172 -91 1784 -91 
Q 1150 -91 751 415 
Q 353 922 353 1747 
Q 353 2572 751 3078 
Q 1150 3584 1784 3584 
Q 2172 3584 2448 3432 
Q 2725 3281 2906 2969 
z
M 947 1747 
Q 947 1113 1208 752 
Q 1469 391 1925 391 
Q 2381 391 2643 752 
Q 2906 1113 2906 1747 
Q 2906 2381 2643 2742 
Q 2381 3103 1925 3103 
Q 1469 3103 1208 2742 
Q 947 2381 947 1747 
z
" transform="scale(0.015625)"/>
      <path id="DejaVuSans-5a" d="M 269 3500 
L 844 3500 
L 1563 769 
L 2278 3500 
L 2956 3500 
L 3675 769 
L 4391 3500 
L 4966 3500 
L 4050 0 
L 3372 0 
L 2619 2869 
L 1863 0 
L 1184 0 
L 269 3500 
z
" transform="scale(0.015625)"/>
      <path id="DejaVuSans-44" d="M 2194 1759 
Q 1497 1759 1228 1600 
Q 959 1441 959 1056 
Q 959 750 1161 570 
Q 1363 391 1709 391 
Q 2188 391 2477 730 
Q 2766 1069 2766 1631 
L 2766 1759 
L 2194 1759 
z
M 3341 1997 
L 3341 0 
L 2766 0 
L 2766 531 
Q 2569 213 2275 61 
Q 1981 -91 1556 -91 
Q 1019 -91 701 211 
Q 384 513 384 1019 
Q 384 1609 779 1909 
Q 1175 2209 1959 2209 
L 2766 2209 
L 2766 2266 
Q 2766 2663 2505 2880 
Q 2244 3097 1772 3097 
Q 1472 3097 1187 3025 
Q 903 2953 641 2809 
L 641 3341 
Q 956 3463 1253 3523 
Q 1550 3584 1831 3584 
Q 2591 3584 2966 3190 
Q 3341 2797 3341 1997 
z
" transform="scale(0.015625)"/>
      <path id="DejaVuSans-53" d="M 1159 525 
L 1159 -1331 
L 581 -1331 
L 581 3500 
L 1159 3500 
L 1159 2969 
Q 1341 3281 1617 3432 
Q 1894 3584 2278 3584 
Q 2916 3584 3314 3078 
Q 3713 2572 3713 1747 
Q 3713 922 3314 415 
Q 2916 -91 2278 -91 
Q 1894 -91 1617 61 
Q 1341 213 1159 525 
z
M 3116 1747 
Q 3116 2381 2855 2742 
Q 2594 3103 2138 3103 
Q 1681 3103 1420 2742 
Q 1159 2381 1159 1747 
Q 1159 1113 1420 752 
Q 1681 391 2138 391 
Q 2594 391 2855 752 
Q 3116 1113 3116 1747 
z
" transform="scale(0.015625)"/>
      <path id="DejaVuSans-46" d="M 3122 3366 
L 3122 2828 
Q 2878 2963 2633 3030 
Q 2388 3097 2138 3097 
Q 1578 3097 1268 2742 
Q 959 2388 959 1747 
Q 959 1106 1268 751 
Q 1578 397 2138 397 
Q 2388 397 2633 464 
Q 2878 531 3122 666 
L 3122 134 
Q 2881 22 2623 -34 
Q 2366 -91 2075 -91 
Q 1284 -91 818 406 
Q 353 903 353 1747 
Q 353 2603 823 3093 
Q 1294 3584 2113 3584 
Q 2378 3584 2631 3529 
Q 2884 3475 3122 3366 
z
" transform="scale(0.015625)"/>
     </defs>
     <use xlink:href="#DejaVuSans-4c"/>
     <use xlink:href="#DejaVuSans-51" transform="translate(27.78125 0)"/>
     <use xlink:href="#DejaVuSans-57" transform="translate(91.15625 0)"/>
     <use xlink:href="#DejaVuSans-48" transform="translate(130.359375 0)"/>
     <use xlink:href="#DejaVuSans-55" transform="translate(191.890625 0)"/>
     <use xlink:href="#DejaVuSans-4c" transform="translate(233 0)"/>
     <use xlink:href="#DejaVuSans-52" transform="translate(260.78125 0)"/>
     <use xlink:href="#DejaVuSans-55" transform="translate(321.96875 0)"/>
     <use xlink:href="#DejaVuSans-3" transform="translate(363.078125 0)"/>
     <use xlink:href="#DejaVuSans-56" transform="translate(394.859375 0)"/>
     <use xlink:href="#DejaVuSans-4f" transform="translate(446.953125 0)"/>
     <use xlink:href="#DejaVuSans-4c" transform="translate(474.734375 0)"/>
     <use xlink:href="#DejaVuSans-47" transform="translate(502.515625 0)"/>
     <use xlink:href="#DejaVuSans-48" transform="translate(566 0)"/>
     <use xlink:href="#DejaVuSans-56" transform="translate(627.53125 0)"/>
     <use xlink:href="#DejaVuSans-3" transform="translate(679.625 0)"/>
     <use xlink:href="#DejaVuSans-4c" transform="translate(711.40625 0)"/>
     <use xlink:href="#DejaVuSans-51" transform="translate(739.1875 0)"/>
     <use xlink:href="#DejaVuSans-5a" transform="translate(802.5625 0)"/>
     <use xlink:href="#DejaVuSans-44" transform="translate(884.34375 0)"/>
     <use xlink:href="#DejaVuSans-55" transform="translate(945.625 0)"/>
     <use xlink:href="#DejaVuSans-47" transform="translate(984.984375 0)"/>
     <use xlink:href="#DejaVuSans-3" transform="translate(1048.46875 0)"/>
     <use xlink:href="#DejaVuSans-44" transform="translate(1080.25 0)"/>
     <use xlink:href="#DejaVuSans-56" transform="translate(1141.53125 0)"/>
     <use xlink:href="#DejaVuSans-3" transform="translate(1193.625 0)"/>
     <use xlink:href="#DejaVuSans-48" transform="translate(1225.40625 0)"/>
     <use xlink:href="#DejaVuSans-53" transform="translate(1286.9375 0)"/>
     <use xlink:href="#DejaVuSans-56" transform="translate(1350.421875 0)"/>
     <use xlink:href="#DejaVuSans-3" transform="translate(1402.515625 0)"/>
     <use xlink:href="#DejaVuSans-4c" transform="translate(1434.296875 0)"/>
     <use xlink:href="#DejaVuSans-51" transform="translate(1462.078125 0)"/>
     <use xlink:href="#DejaVuSans-46" transform="translate(1525.453125 0)"/>
     <use xlink:href="#DejaVuSans-55" transform="translate(1580.4375 0)"/>
     <use xlink:href="#DejaVuSans-48" transform="translate(1619.34375 0)"/>
     <use xlink:href="#DejaVuSans-44" transform="translate(1680.875 0)"/>
     <use xlink:href="#DejaVuSans-56" transform="translate(1742.15625 0)"/>
     <use xlink:href="#DejaVuSans-48" transform="translate(1794.25 0)"/>
     <use xlink:href="#DejaVuSans-56" transform="translate(1855.78125 0)"/>
    </g>
   </g>
   <g id="PathCollection_1">
    <defs>
     <path id="m5aa5380e94" d="M 0 4.743416 
C 1.257969 4.743416 2.464584 4.24362 3.354102 3.354102 
C 4.24362 2.464584 4.743416 1.257969 4.743416 0 
C 4.743416 -1.257969 4.24362 -2.464584 3.354102 -3.354102 
C 2.464584 -4.24362 1.257969 -4.743416 0 -4.743416 
C -1.257969 -4.743416 -2.464584 -4.24362 -3.354102 -3.354102 
C -4.24362 -2.464584 -4.743416 -1.257969 -4.743416 0 
C -4.743416 1.257969 -4.24362 2.464584 -3.354102 3.354102 
C -2.464584 4.24362 -1.257969 4.743416 0 4.743416 
z
" style="stroke: #ffffff; stroke-width: 1.2"/>
    </defs>
    <g clip-path="url(#pfdc21ebf8a)">
     <use xlink:href="#m5aa5380e94" x="72.609231" y="232.532308" style="fill: #1565c0; stroke: #ffffff; stroke-width: 1.2"/>
    </g>
   </g>
   <g id="PathCollection_2">
    <defs>
     <path id="meef87cbe64" d="M 0 4.743416 
C 1.257969 4.743416 2.464584 4.24362 3.354102 3.354102 
C 4.24362 2.464584 4.743416 1.257969 4.743416 0 
C 4.743416 -1.257969 4.24362 -2.464584 3.354102 -3.354102 
C 2.464584 -4.24362 1.257969 -4.743416 0 -4.743416 
C -1.257969 -4.743416 -2.464584 -4.24362 -3.354102 -3.354102 
C -4.24362 -2.464584 -4.743416 -1.257969 -4.743416 0 
C -4.743416 1.257969 -4.24362 2.464584 -3.354102 3.354102 
C -2.464584 4.24362 -1.257969 4.743416 0 4.743416 
z
" style="stroke: #ffffff; stroke-width: 1.2"/>
    </defs>
    <g clip-path="url(#pfdc21ebf8a)">
     <use xlink:href="#meef87cbe64" x="153.636923" y="164.298462" style="fill: #2e7d32; stroke: #ffffff; stroke-width: 1.2"/>
    </g>
   </g>
  </g>
 </g>
 <defs>
  <clipPath id="pfdc21ebf8a">
   <rect x="8.64" y="8.64" width="298.523077" height="277.2"/>
  </clipPath>
 </defs>
</svg>
