<?xml version="1.0" encoding="utf-8" standalone="no"?>
<!DOCTYPE svg PUBLIC "-//W3C//DTD SVG 1.1//EN"
  "http://www.w3.org/Graphics/SVG/1.1/DTD/svg11.dtd">
<svg xmlns:xlink="http://www.w3.org/1999/xlink" width="546.672259pt" height="300.24pt" viewBox="0 0 546.672259 300.24" xmlns="http://www.w3.org/2000/svg" version="1.1">
 <metadata>
  <rdf:RDF xmlns:dc="http://purl.org/dc/elements/1.1/" xmlns:cc="http://creativecommons.org/ns#" xmlns:rdf="http://www.w3.org/1999/02/22-rdf-syntax-ns#">
   <cc:Work>
    <dc:type rdf:resource="http://purl.org/dc/dcmitype/StillImage"/>
    <dc:date>2026-07-18T04:24:15.093364</dc:date>
    <dc:format>image/svg+xml</dc:format>
    <dc:creator>
     <cc:Agent>
      <dc:title>Matplotlib v3.11.0, https://matplotlib.org/</dc:title>
     </cc:Agent>
    </dc:creator>
   </cc:Work>
  </rdf:RDF>
 </metadata>
 <defs>
  <style type="text/css">*{stroke-linejoin: round; stroke-linecap: butt}</style>
 </defs>
 <g id="figure_1">
  <g id="patch_1">
   <path d="M -0 300.24 
L 546.672259 300.24 
L 546.672259 0 
L -0 0 
z
" style="fill: #ffffff"/>
  </g>
  <g id="axes_1">
   <g id="patch_2">
    <path d="M 8.64 291.6 
L 241.032259 291.6 
L 241.032259 59.207741 
L 8.64 59.207741 
z
" style="fill: #ffffff"/>
   </g>
   <g id="FillBetweenPolyCollection_1">
    <defs>
     <path id="md063bcbe0f" d="M 8.64 -8.672154 
L 8.64 -8.64 
L 9.655479 -8.64 
L 10.670957 -8.64 
L 11.686436 -8.64 
L 12.701914 -8.64 
L 13.717393 -8.64 
L 14.732871 -8.64 
L 15.74835 -8.64 
L 16.763828 -8.64 
L 17.779307 -8.64 
L 18.794785 -8.64 
L 19.810264 -8.64 
L 20.825742 -8.64 
L 21.841221 -8.64 
L 22.856699 -8.64 
L 23.872178 -8.64 
L 24.887656 -8.64 
L 25.903135 -8.64 
L 26.918613 -8.64 
L 27.934092 -8.64 
L 28.94957 -8.64 
L 29.965049 -8.64 
L 30.980527 -8.64 
L 31.996006 -8.64 
L 33.011484 -8.64 
L 34.026963 -8.64 
L 35.042441 -8.64 
L 36.05792 -8.64 
L 37.073398 -8.64 
L 38.088877 -8.64 
L 39.104355 -8.64 
L 40.119834 -8.64 
L 41.135313 -8.64 
L 42.150791 -8.64 
L 43.16627 -8.64 
L 44.181748 -8.64 
L 45.197227 -8.64 
L 46.212705 -8.64 
L 47.228184 -8.64 
L 48.243662 -8.64 
L 49.259141 -8.64 
L 50.274619 -8.64 
L 51.290098 -8.64 
L 52.305576 -8.64 
L 53.321055 -8.64 
L 54.336533 -8.64 
L 55.352012 -8.64 
L 56.36749 -8.64 
L 57.382969 -8.64 
L 58.398447 -8.64 
L 59.413926 -8.64 
L 60.429404 -8.64 
L 61.444883 -8.64 
L 62.460361 -8.64 
L 63.47584 -8.64 
L 64.491318 -8.64 
L 65.506797 -8.64 
L 66.522275 -8.64 
L 67.537754 -8.64 
L 68.553232 -8.64 
L 69.568711 -8.64 
L 70.58419 -8.64 
L 71.599668 -8.64 
L 72.615147 -8.64 
L 73.630625 -8.64 
L 74.646104 -8.64 
L 75.661582 -8.64 
L 76.677061 -8.64 
L 77.692539 -8.64 
L 78.708018 -8.64 
L 79.723496 -8.64 
L 80.738975 -8.64 
L 81.754453 -8.64 
L 82.769932 -8.64 
L 83.78541 -8.64 
L 84.800889 -8.64 
L 85.816367 -8.64 
L 86.831846 -8.64 
L 87.847324 -8.64 
L 88.862803 -8.64 
L 89.878281 -8.64 
L 90.89376 -8.64 
L 91.909238 -8.64 
L 92.924717 -8.64 
L 93.940195 -8.64 
L 94.955674 -8.64 
L 95.971152 -8.64 
L 96.986631 -8.64 
L 98.002109 -8.64 
L 99.017588 -8.64 
L 100.033066 -8.64 
L 101.048545 -8.64 
L 102.064024 -8.64 
L 103.079502 -8.64 
L 104.094981 -8.64 
L 105.110459 -8.64 
L 106.125938 -8.64 
L 107.141416 -8.64 
L 108.156895 -8.64 
L 109.172373 -8.64 
L 110.187852 -8.64 
L 111.20333 -8.64 
L 112.218809 -8.64 
L 113.234287 -8.64 
L 114.249766 -8.64 
L 115.265244 -8.64 
L 116.280723 -8.64 
L 117.296201 -8.64 
L 118.31168 -8.64 
L 119.327158 -8.64 
L 120.342637 -8.64 
L 121.358115 -8.64 
L 122.373594 -8.64 
L 123.389072 -8.64 
L 124.404551 -8.64 
L 125.420029 -8.64 
L 126.435508 -8.64 
L 127.450986 -8.64 
L 128.466465 -8.64 
L 129.481943 -8.64 
L 130.497422 -8.64 
L 131.512901 -8.64 
L 132.528379 -8.64 
L 133.543858 -8.64 
L 134.559336 -8.64 
L 135.574815 -8.64 
L 136.590293 -8.64 
L 137.605772 -8.64 
L 138.62125 -8.64 
L 139.636729 -8.64 
L 140.652207 -8.64 
L 141.667686 -8.64 
L 142.683164 -8.64 
L 143.698643 -8.64 
L 144.714121 -8.64 
L 145.7296 -8.64 
L 146.745078 -8.64 
L 147.760557 -8.64 
L 148.776035 -8.64 
L 149.791514 -8.64 
L 150.806992 -8.64 
L 151.822471 -8.64 
L 152.837949 -8.64 
L 153.853428 -8.64 
L 154.868906 -8.64 
L 155.884385 -8.64 
L 156.899863 -8.64 
L 157.915342 -8.64 
L 158.93082 -8.64 
L 159.946299 -8.64 
L 160.961777 -8.64 
L 161.977256 -8.64 
L 162.992735 -8.64 
L 164.008213 -8.64 
L 165.023692 -8.64 
L 166.03917 -8.64 
L 167.054649 -8.64 
L 168.070127 -8.64 
L 169.085606 -8.64 
L 170.101084 -8.64 
L 171.116563 -8.64 
L 172.132041 -8.64 
L 173.14752 -8.64 
L 174.162998 -8.64 
L 175.178477 -8.64 
L 176.193955 -8.64 
L 177.209434 -8.64 
L 178.224912 -8.64 
L 179.240391 -8.64 
L 180.255869 -8.64 
L 181.271348 -8.64 
L 182.286826 -8.64 
L 183.302305 -8.64 
L 184.317783 -8.64 
L 185.333262 -8.64 
L 186.34874 -8.64 
L 187.364219 -8.64 
L 188.379697 -8.64 
L 189.395176 -8.64 
L 190.410654 -8.64 
L 191.426133 -8.64 
L 192.441612 -8.64 
L 193.45709 -8.64 
L 194.472569 -8.64 
L 195.488047 -8.64 
L 196.503526 -8.64 
L 197.519004 -8.64 
L 198.534483 -8.64 
L 199.549961 -8.64 
L 200.56544 -8.64 
L 201.580918 -8.64 
L 202.596397 -8.64 
L 203.611875 -8.64 
L 204.627354 -8.64 
L 205.642832 -8.64 
L 206.658311 -8.64 
L 207.673789 -8.64 
L 208.689268 -8.64 
L 209.704746 -8.64 
L 210.720225 -8.64 
L 210.720225 -8.640998 
L 210.720225 -8.640998 
L 209.704746 -8.641209 
L 208.689268 -8.64146 
L 207.673789 -8.641762 
L 206.658311 -8.642121 
L 205.642832 -8.64255 
L 204.627354 -8.64306 
L 203.611875 -8.643665 
L 202.596397 -8.644383 
L 201.580918 -8.645231 
L 200.56544 -8.646234 
L 199.549961 -8.647415 
L 198.534483 -8.648804 
L 197.519004 -8.650436 
L 196.503526 -8.652348 
L 195.488047 -8.654585 
L 194.472569 -8.657198 
L 193.45709 -8.660242 
L 192.441612 -8.663784 
L 191.426133 -8.667897 
L 190.410654 -8.672663 
L 189.395176 -8.678177 
L 188.379697 -8.684543 
L 187.364219 -8.69188 
L 186.34874 -8.700319 
L 185.333262 -8.710009 
L 184.317783 -8.721113 
L 183.302305 -8.733813 
L 182.286826 -8.748311 
L 181.271348 -8.764831 
L 180.255869 -8.783619 
L 179.240391 -8.804944 
L 178.224912 -8.829105 
L 177.209434 -8.856425 
L 176.193955 -8.887257 
L 175.178477 -8.921987 
L 174.162998 -8.961032 
L 173.14752 -9.004842 
L 172.132041 -9.053905 
L 171.116563 -9.108743 
L 170.101084 -9.169917 
L 169.085606 -9.238024 
L 168.070127 -9.313702 
L 167.054649 -9.397627 
L 166.03917 -9.490515 
L 165.023692 -9.593118 
L 164.008213 -9.706227 
L 162.992735 -9.830669 
L 161.977256 -9.967306 
L 160.961777 -10.11703 
L 159.946299 -10.280763 
L 158.93082 -10.459454 
L 157.915342 -10.654071 
L 156.899863 -10.865598 
L 155.884385 -11.095032 
L 154.868906 -11.343373 
L 153.853428 -11.611619 
L 152.837949 -11.90076 
L 151.822471 -12.211766 
L 150.806992 -12.545579 
L 149.791514 -12.903109 
L 148.776035 -13.285214 
L 147.760557 -13.6927 
L 146.745078 -14.126302 
L 145.7296 -14.586677 
L 144.714121 -15.07439 
L 143.698643 -15.589904 
L 142.683164 -16.133569 
L 141.667686 -16.705605 
L 140.652207 -17.3061 
L 139.636729 -17.934988 
L 138.62125 -18.592046 
L 137.605772 -19.276882 
L 136.590293 -19.988925 
L 135.574815 -20.727418 
L 134.559336 -21.49141 
L 133.543858 -22.27975 
L 132.528379 -23.091086 
L 131.512901 -23.923857 
L 130.497422 -24.776297 
L 129.481943 -25.646432 
L 128.466465 -26.532085 
L 127.450986 -27.43088 
L 126.435508 -28.340249 
L 125.420029 -29.257439 
L 124.404551 -30.179526 
L 123.389072 -31.103426 
L 122.373594 -32.025909 
L 121.358115 -32.943619 
L 120.342637 -33.853089 
L 119.327158 -34.750764 
L 118.31168 -35.633023 
L 117.296201 -36.496201 
L 116.280723 -37.336615 
L 115.265244 -38.150589 
L 114.249766 -38.93448 
L 113.234287 -39.684706 
L 112.218809 -40.397771 
L 111.20333 -41.070295 
L 110.187852 -41.699037 
L 109.172373 -42.280924 
L 108.156895 -42.813075 
L 107.141416 -43.292824 
L 106.125938 -43.71774 
L 105.110459 -44.085656 
L 104.094981 -44.394675 
L 103.079502 -44.643198 
L 102.064024 -44.82993 
L 101.048545 -44.953894 
L 100.033066 -45.01444 
L 99.017588 -45.011251 
L 98.002109 -44.944343 
L 96.986631 -44.814067 
L 95.971152 -44.621107 
L 94.955674 -44.366471 
L 93.940195 -44.051485 
L 92.924717 -43.67778 
L 91.909238 -43.247278 
L 90.89376 -42.762176 
L 89.878281 -42.224928 
L 88.862803 -41.638222 
L 87.847324 -41.00496 
L 86.831846 -40.328234 
L 85.816367 -39.611298 
L 84.800889 -38.857547 
L 83.78541 -38.070486 
L 82.769932 -37.253703 
L 81.754453 -36.410847 
L 80.738975 -35.545595 
L 79.723496 -34.66163 
L 78.708018 -33.762613 
L 77.692539 -32.852161 
L 76.677061 -31.933819 
L 75.661582 -31.011045 
L 74.646104 -30.087184 
L 73.630625 -29.16545 
L 72.615147 -28.248913 
L 71.599668 -27.340481 
L 70.58419 -26.442888 
L 69.568711 -25.558683 
L 68.553232 -24.690223 
L 67.537754 -23.839664 
L 66.522275 -23.00896 
L 65.506797 -22.199857 
L 64.491318 -21.413894 
L 63.47584 -20.652404 
L 62.460361 -19.916516 
L 61.444883 -19.207163 
L 60.429404 -18.525082 
L 59.413926 -17.870826 
L 58.398447 -17.24477 
L 57.382969 -16.647121 
L 56.36749 -16.077928 
L 55.352012 -15.537091 
L 54.336533 -15.024374 
L 53.321055 -14.539418 
L 52.305576 -14.081747 
L 51.290098 -13.650788 
L 50.274619 -13.245874 
L 49.259141 -12.866264 
L 48.243662 -12.511145 
L 47.228184 -12.179654 
L 46.212705 -11.870878 
L 45.197227 -11.583871 
L 44.181748 -11.317659 
L 43.16627 -11.071254 
L 42.150791 -10.843656 
L 41.135313 -10.633864 
L 40.119834 -10.440885 
L 39.104355 -10.263733 
L 38.088877 -10.101442 
L 37.073398 -9.953068 
L 36.05792 -9.81769 
L 35.042441 -9.69442 
L 34.026963 -9.582398 
L 33.011484 -9.480802 
L 31.996006 -9.388844 
L 30.980527 -9.305775 
L 29.965049 -9.230883 
L 28.94957 -9.163497 
L 27.934092 -9.102984 
L 26.918613 -9.048748 
L 25.903135 -9.000233 
L 24.887656 -8.95692 
L 23.872178 -8.918327 
L 22.856699 -8.884005 
L 21.841221 -8.853541 
L 20.825742 -8.826552 
L 19.810264 -8.802689 
L 18.794785 -8.78163 
L 17.779307 -8.763081 
L 16.763828 -8.746774 
L 15.74835 -8.732465 
L 14.732871 -8.719934 
L 13.717393 -8.708979 
L 12.701914 -8.699422 
L 11.686436 -8.691099 
L 10.670957 -8.683865 
L 9.655479 -8.677589 
L 8.64 -8.672154 
z
" style="stroke: #2e7d32; stroke-opacity: 0.35"/>
    </defs>
    <g clip-path="url(#pb0cb9c5867)">
     <use xlink:href="#md063bcbe0f" x="0" y="300.24" style="fill: #2e7d32; fill-opacity: 0.35; stroke: #2e7d32; stroke-opacity: 0.35"/>
    </g>
   </g>
   <g id="FillBetweenPolyCollection_2">
    <defs>
     <path id="m07b7c51a0b" d="M 8.656198 -8.64 
L 8.64 -8.64 
L 8.64 -9.655479 
L 8.64 -10.670957 
L 8.64 -11.686436 
L 8.64 -12.701914 
L 8.64 -13.717393 
L 8.64 -14.732871 
L 8.64 -15.74835 
L 8.64 -16.763828 
L 8.64 -17.779307 
L 8.64 -18.794785 
L 8.64 -19.810264 
L 8.64 -20.825742 
L 8.64 -21.841221 
L 8.64 -22.856699 
L 8.64 -23.872178 
L 8.64 -24.887656 
L 8.64 -25.903135 
L 8.64 -26.918613 
L 8.64 -27.934092 
L 8.64 -28.94957 
L 8.64 -29.965049 
L 8.64 -30.980527 
L 8.64 -31.996006 
L 8.64 -33.011484 
L 8.64 -34.026963 
L 8.64 -35.042441 
L 8.64 -36.05792 
L 8.64 -37.073398 
L 8.64 -38.088877 
L 8.64 -39.104355 
L 8.64 -40.119834 
L 8.64 -41.135313 
L 8.64 -42.150791 
L 8.64 -43.16627 
L 8.64 -44.181748 
L 8.64 -45.197227 
L 8.64 -46.212705 
L 8.64 -47.228184 
L 8.64 -48.243662 
L 8.64 -49.259141 
L 8.64 -50.274619 
L 8.64 -51.290098 
L 8.64 -52.305576 
L 8.64 -53.321055 
L 8.64 -54.336533 
L 8.64 -55.352012 
L 8.64 -56.36749 
L 8.64 -57.382969 
L 8.64 -58.398447 
L 8.64 -59.413926 
L 8.64 -60.429404 
L 8.64 -61.444883 
L 8.64 -62.460361 
L 8.64 -63.47584 
L 8.64 -64.491318 
L 8.64 -65.506797 
L 8.64 -66.522275 
L 8.64 -67.537754 
L 8.64 -68.553232 
L 8.64 -69.568711 
L 8.64 -70.58419 
L 8.64 -71.599668 
L 8.64 -72.615147 
L 8.64 -73.630625 
L 8.64 -74.646104 
L 8.64 -75.661582 
L 8.64 -76.677061 
L 8.64 -77.692539 
L 8.64 -78.708018 
L 8.64 -79.723496 
L 8.64 -80.738975 
L 8.64 -81.754453 
L 8.64 -82.769932 
L 8.64 -83.78541 
L 8.64 -84.800889 
L 8.64 -85.816367 
L 8.64 -86.831846 
L 8.64 -87.847324 
L 8.64 -88.862803 
L 8.64 -89.878281 
L 8.64 -90.89376 
L 8.64 -91.909238 
L 8.64 -92.924717 
L 8.64 -93.940195 
L 8.64 -94.955674 
L 8.64 -95.971152 
L 8.64 -96.986631 
L 8.64 -98.002109 
L 8.64 -99.017588 
L 8.64 -100.033066 
L 8.64 -101.048545 
L 8.64 -102.064024 
L 8.64 -103.079502 
L 8.64 -104.094981 
L 8.64 -105.110459 
L 8.64 -106.125938 
L 8.64 -107.141416 
L 8.64 -108.156895 
L 8.64 -109.172373 
L 8.64 -110.187852 
L 8.64 -111.20333 
L 8.64 -112.218809 
L 8.64 -113.234287 
L 8.64 -114.249766 
L 8.64 -115.265244 
L 8.64 -116.280723 
L 8.64 -117.296201 
L 8.64 -118.31168 
L 8.64 -119.327158 
L 8.64 -120.342637 
L 8.64 -121.358115 
L 8.64 -122.373594 
L 8.64 -123.389072 
L 8.64 -124.404551 
L 8.64 -125.420029 
L 8.64 -126.435508 
L 8.64 -127.450986 
L 8.64 -128.466465 
L 8.64 -129.481943 
L 8.64 -130.497422 
L 8.64 -131.512901 
L 8.64 -132.528379 
L 8.64 -133.543858 
L 8.64 -134.559336 
L 8.64 -135.574815 
L 8.64 -136.590293 
L 8.64 -137.605772 
L 8.64 -138.62125 
L 8.64 -139.636729 
L 8.64 -140.652207 
L 8.64 -141.667686 
L 8.64 -142.683164 
L 8.64 -143.698643 
L 8.64 -144.714121 
L 8.64 -145.7296 
L 8.64 -146.745078 
L 8.64 -147.760557 
L 8.64 -148.776035 
L 8.64 -149.791514 
L 8.64 -150.806992 
L 8.64 -151.822471 
L 8.64 -152.837949 
L 8.64 -153.853428 
L 8.64 -154.868906 
L 8.64 -155.884385 
L 8.64 -156.899863 
L 8.64 -157.915342 
L 8.64 -158.93082 
L 8.64 -159.946299 
L 8.64 -160.961777 
L 8.64 -161.977256 
L 8.64 -162.992735 
L 8.64 -164.008213 
L 8.64 -165.023692 
L 8.64 -166.03917 
L 8.64 -167.054649 
L 8.64 -168.070127 
L 8.64 -169.085606 
L 8.64 -170.101084 
L 8.64 -171.116563 
L 8.64 -172.132041 
L 8.64 -173.14752 
L 8.64 -174.162998 
L 8.64 -175.178477 
L 8.64 -176.193955 
L 8.64 -177.209434 
L 8.64 -178.224912 
L 8.64 -179.240391 
L 8.64 -180.255869 
L 8.64 -181.271348 
L 8.64 -182.286826 
L 8.64 -183.302305 
L 8.64 -184.317783 
L 8.64 -185.333262 
L 8.64 -186.34874 
L 8.64 -187.364219 
L 8.64 -188.379697 
L 8.64 -189.395176 
L 8.64 -190.410654 
L 8.64 -191.426133 
L 8.64 -192.441612 
L 8.64 -193.45709 
L 8.64 -194.472569 
L 8.64 -195.488047 
L 8.64 -196.503526 
L 8.64 -197.519004 
L 8.64 -198.534483 
L 8.64 -199.549961 
L 8.64 -200.56544 
L 8.64 -201.580918 
L 8.64 -202.596397 
L 8.64 -203.611875 
L 8.64 -204.627354 
L 8.64 -205.642832 
L 8.64 -206.658311 
L 8.64 -207.673789 
L 8.64 -208.689268 
L 8.64 -209.704746 
L 8.64 -210.720225 
L 8.847667 -210.720225 
L 8.847667 -210.720225 
L 8.872913 -209.704746 
L 8.900891 -208.689268 
L 8.931855 -207.673789 
L 8.966073 -206.658311 
L 9.003833 -205.642832 
L 9.045444 -204.627354 
L 9.091231 -203.611875 
L 9.141544 -202.596397 
L 9.196748 -201.580918 
L 9.257232 -200.56544 
L 9.323407 -199.549961 
L 9.395702 -198.534483 
L 9.474569 -197.519004 
L 9.56048 -196.503526 
L 9.653928 -195.488047 
L 9.755424 -194.472569 
L 9.865501 -193.45709 
L 9.984707 -192.441612 
L 10.113608 -191.426133 
L 10.252787 -190.410654 
L 10.402838 -189.395176 
L 10.564369 -188.379697 
L 10.737996 -187.364219 
L 10.924344 -186.34874 
L 11.124042 -185.333262 
L 11.337719 -184.317783 
L 11.566004 -183.302305 
L 11.809521 -182.286826 
L 12.068885 -181.271348 
L 12.344696 -180.255869 
L 12.637539 -179.240391 
L 12.947977 -178.224912 
L 13.276545 -177.209434 
L 13.623747 -176.193955 
L 13.990052 -175.178477 
L 14.375886 -174.162998 
L 14.781628 -173.14752 
L 15.207604 -172.132041 
L 15.654083 -171.116563 
L 16.121269 -170.101084 
L 16.6093 -169.085606 
L 17.118236 -168.070127 
L 17.648061 -167.054649 
L 18.198672 -166.03917 
L 18.769881 -165.023692 
L 19.361401 -164.008213 
L 19.972853 -162.992735 
L 20.603752 -161.977256 
L 21.253513 -160.961777 
L 21.92144 -159.946299 
L 22.60673 -158.93082 
L 23.308469 -157.915342 
L 24.025631 -156.899863 
L 24.757078 -155.884385 
L 25.501561 -154.868906 
L 26.257721 -153.853428 
L 27.02409 -152.837949 
L 27.799096 -151.822471 
L 28.581066 -150.806992 
L 29.368229 -149.791514 
L 30.158723 -148.776035 
L 30.950601 -147.760557 
L 31.741837 -146.745078 
L 32.530334 -145.7296 
L 33.313935 -144.714121 
L 34.090427 -143.698643 
L 34.857555 -142.683164 
L 35.613034 -141.667686 
L 36.354552 -140.652207 
L 37.079792 -139.636729 
L 37.786434 -138.62125 
L 38.472174 -137.605772 
L 39.134735 -136.590293 
L 39.771876 -135.574815 
L 40.381409 -134.559336 
L 40.961207 -133.543858 
L 41.509221 -132.528379 
L 42.02349 -131.512901 
L 42.502149 -130.497422 
L 42.943449 -129.481943 
L 43.345756 -128.466465 
L 43.707574 -127.450986 
L 44.027541 -126.435508 
L 44.304451 -125.420029 
L 44.537248 -124.404551 
L 44.725045 -123.389072 
L 44.86712 -122.373594 
L 44.962927 -121.358115 
L 45.012097 -120.342637 
L 45.01444 -119.327158 
L 44.969947 -118.31168 
L 44.87879 -117.296201 
L 44.74132 -116.280723 
L 44.558066 -115.265244 
L 44.329731 -114.249766 
L 44.057189 -113.234287 
L 43.741475 -112.218809 
L 43.383784 -111.20333 
L 42.98546 -110.187852 
L 42.547988 -109.172373 
L 42.072988 -108.156895 
L 41.562198 -107.141416 
L 41.017472 -106.125938 
L 40.440761 -105.110459 
L 39.834108 -104.094981 
L 39.19963 -103.079502 
L 38.539511 -102.064024 
L 37.855986 -101.048545 
L 37.151331 -100.033066 
L 36.427847 -99.017588 
L 35.687852 -98.002109 
L 34.933665 -96.986631 
L 34.167598 -95.971152 
L 33.391941 -94.955674 
L 32.608951 -93.940195 
L 31.820845 -92.924717 
L 31.029788 -91.909238 
L 30.237882 -90.89376 
L 29.44716 -89.878281 
L 28.659579 -88.862803 
L 27.877008 -87.847324 
L 27.101229 -86.831846 
L 26.333924 -85.816367 
L 25.576675 -84.800889 
L 24.830962 -83.78541 
L 24.098153 -82.769932 
L 23.379509 -81.754453 
L 22.67618 -80.738975 
L 21.989202 -79.723496 
L 21.3195 -78.708018 
L 20.66789 -77.692539 
L 20.035076 -76.677061 
L 19.421657 -75.661582 
L 18.828124 -74.646104 
L 18.25487 -73.630625 
L 17.702189 -72.615147 
L 17.170279 -71.599668 
L 16.659252 -70.58419 
L 16.169133 -69.568711 
L 15.699867 -68.553232 
L 15.251326 -67.537754 
L 14.82331 -66.522275 
L 14.415559 -65.506797 
L 14.02775 -64.491318 
L 13.659511 -63.47584 
L 13.310418 -62.460361 
L 12.980009 -61.444883 
L 12.667782 -60.429404 
L 12.373204 -59.413926 
L 12.095716 -58.398447 
L 11.834735 -57.382969 
L 11.58966 -56.36749 
L 11.35988 -55.352012 
L 11.14477 -54.336533 
L 10.943703 -53.321055 
L 10.756048 -52.305576 
L 10.581177 -51.290098 
L 10.418465 -50.274619 
L 10.267293 -49.259141 
L 10.127054 -48.243662 
L 9.997151 -47.228184 
L 9.877001 -46.212705 
L 9.766037 -45.197227 
L 9.663706 -44.181748 
L 9.569477 -43.16627 
L 9.482835 -42.150791 
L 9.403285 -41.135313 
L 9.330354 -40.119834 
L 9.263587 -39.104355 
L 9.202552 -38.088877 
L 9.146838 -37.073398 
L 9.096053 -36.05792 
L 9.049829 -35.042441 
L 9.007816 -34.026963 
L 8.969684 -33.011484 
L 8.935126 -31.996006 
L 8.903849 -30.980527 
L 8.875584 -29.965049 
L 8.850075 -28.94957 
L 8.827088 -27.934092 
L 8.806401 -26.918613 
L 8.787811 -25.903135 
L 8.771129 -24.887656 
L 8.75618 -23.872178 
L 8.742803 -22.856699 
L 8.730849 -21.841221 
L 8.720181 -20.825742 
L 8.710675 -19.810264 
L 8.702216 -18.794785 
L 8.694699 -17.779307 
L 8.688028 -16.763828 
L 8.682116 -15.74835 
L 8.676885 -14.732871 
L 8.672261 -13.717393 
L 8.668181 -12.701914 
L 8.664585 -11.686436 
L 8.661421 -10.670957 
L 8.658639 -9.655479 
L 8.656198 -8.64 
z
" style="stroke: #c62828; stroke-opacity: 0.3"/>
    </defs>
    <g clip-path="url(#pb0cb9c5867)">
     <use xlink:href="#m07b7c51a0b" x="0" y="300.24" style="fill: #c62828; fill-opacity: 0.3; stroke: #c62828; stroke-opacity: 0.3"/>
    </g>
   </g>
   <g id="matplotlib.axis_1"/>
   <g id="matplotlib.axis_2"/>
   <g id="line2d_1">
    <path d="M 8.64 291.567846 
L 21.841221 291.386459 
L 28.94957 291.076503 
L 34.026963 290.657602 
L 38.088877 290.138558 
L 42.150791 289.396344 
L 45.197227 288.656129 
L 48.243662 287.728855 
L 51.290098 286.589212 
L 54.336533 285.215626 
L 57.382969 283.592879 
L 60.429404 281.714918 
L 63.47584 279.587596 
L 66.522275 277.23104 
L 70.58419 273.797112 
L 83.78541 262.169514 
L 86.831846 259.911766 
L 89.878281 258.015072 
L 91.909238 256.992722 
L 93.940195 256.188515 
L 95.971152 255.618893 
L 98.002109 255.295657 
L 100.033066 255.22556 
L 102.064024 255.41007 
L 104.094981 255.845325 
L 106.125938 256.52226 
L 108.156895 257.426925 
L 110.187852 258.540963 
L 113.234287 260.555294 
L 116.280723 262.903385 
L 120.342637 266.386911 
L 131.512901 276.316143 
L 135.574815 279.512582 
L 138.62125 281.647954 
L 141.667686 283.534395 
L 144.714121 285.16561 
L 147.760557 286.5473 
L 150.806992 287.694421 
L 153.853428 288.628381 
L 156.899863 289.374402 
L 160.961777 290.12297 
L 165.023692 290.646882 
L 170.101084 291.070083 
L 176.193955 291.352743 
L 185.333262 291.529991 
L 203.611875 291.596335 
L 210.720225 291.599002 
L 210.720225 291.599002 
" clip-path="url(#pb0cb9c5867)" style="fill: none; stroke: #2e7d32; stroke-width: 1.5; stroke-linecap: square"/>
   </g>
   <g id="line2d_2">
    <path d="M 8.656198 291.6 
L 8.806401 273.321387 
L 9.096053 264.18208 
L 9.482835 258.089209 
L 9.997151 253.011816 
L 10.756048 247.934424 
L 11.58966 243.87251 
L 12.667782 239.810596 
L 14.02775 235.748682 
L 15.251326 232.702246 
L 16.659252 229.65581 
L 18.25487 226.609375 
L 20.66789 222.547461 
L 23.379509 218.485547 
L 27.101229 213.408154 
L 37.855986 199.191455 
L 39.834108 196.145019 
L 41.562198 193.098584 
L 42.98546 190.052148 
L 43.741475 188.021191 
L 44.329731 185.990234 
L 44.74132 183.959277 
L 44.969947 181.92832 
L 45.012097 179.897363 
L 44.86712 177.866406 
L 44.537248 175.835449 
L 44.027541 173.804492 
L 43.345756 171.773535 
L 42.02349 168.727099 
L 40.381409 165.680664 
L 38.472174 162.634228 
L 35.613034 158.572314 
L 30.950601 152.479443 
L 25.501561 145.371094 
L 22.60673 141.30918 
L 19.972853 137.247265 
L 17.648061 133.185351 
L 15.654083 129.123437 
L 14.375886 126.077002 
L 12.947977 122.015088 
L 11.809521 117.953174 
L 10.924344 113.89126 
L 10.252787 109.829346 
L 9.653928 104.751953 
L 9.196748 98.659082 
L 8.900891 91.550732 
L 8.847667 89.519775 
L 8.847667 89.519775 
" clip-path="url(#pb0cb9c5867)" style="fill: none; stroke: #c62828; stroke-width: 1.5; stroke-linecap: square"/>
   </g>
   <g id="patch_3">
    <path d="M 8.64 291.6 
L 8.64 59.207741 
" style="fill: none; stroke: #c5cae9; stroke-width: 0.8; stroke-linejoin: miter; stroke-linecap: square"/>
   </g>
   <g id="patch_4">
    <path d="M 241.032259 291.6 
L 241.032259 59.207741 
" style="fill: none; stroke: #c5cae9; stroke-width: 0.8; stroke-linejoin: miter; stroke-linecap: square"/>
   </g>
   <g id="patch_5">
    <path d="M 8.64 291.6 
L 241.032259 291.6 
" style="fill: none; stroke: #c5cae9; stroke-width: 0.8; stroke-linejoin: miter; stroke-linecap: square"/>
   </g>
   <g id="patch_6">
    <path d="M 8.64 59.207741 
L 241.032259 59.207741 
" style="fill: none; stroke: #c5cae9; stroke-width: 0.8; stroke-linejoin: miter; stroke-linecap: square"/>
   </g>
   <g id="line2d_3">
    <path d="M 45.01444 244.515308 
L 46.805025 242.993311 
L 48.595609 241.471314 
L 50.386193 239.949318 
L 52.176778 238.427321 
L 53.967362 236.905324 
L 55.757946 235.383328 
L 57.54853 233.861331 
L 59.339115 232.339335 
L 61.129699 230.817338 
L 62.920283 229.295341 
L 64.710867 227.773345 
L 66.501452 226.251348 
L 68.292036 224.729351 
L 70.08262 223.207355 
L 71.873205 221.685358 
L 73.663789 220.163362 
L 75.454373 218.641365 
L 77.244957 217.119368 
L 79.035542 215.597372 
L 80.826126 214.075375 
L 82.61671 212.553378 
L 84.407294 211.031382 
L 86.197879 209.509385 
L 87.988463 207.987389 
L 89.779047 206.465392 
L 91.569631 204.943395 
L 93.360216 203.421399 
L 95.1508 201.899402 
L 96.941384 200.377405 
L 98.731969 198.855409 
L 100.522553 197.333412 
L 102.313137 195.811415 
L 104.103721 194.289419 
L 105.894306 192.767422 
L 107.68489 191.245426 
L 109.475474 189.723429 
L 111.266058 188.201432 
L 113.056643 186.679436 
L 114.847227 185.157439 
L 116.637811 183.635442 
L 118.428396 182.113446 
L 120.21898 180.591449 
L 122.009564 179.069453 
L 123.800148 177.547456 
L 125.590733 176.025459 
L 127.381317 174.503463 
L 129.171901 172.981466 
L 130.962485 171.459469 
L 132.75307 169.937473 
L 134.543654 168.415476 
L 136.334238 166.893479 
L 138.124823 165.371483 
L 139.915407 163.849486 
L 141.705991 162.32749 
L 143.496575 160.805493 
L 145.28716 159.283496 
L 147.077744 157.7615 
L 148.868328 156.239503 
L 150.658912 154.717506 
L 152.449497 153.19551 
L 154.240081 151.673513 
L 156.030665 150.151517 
L 157.821249 148.62952 
L 159.611834 147.107523 
L 161.402418 145.585527 
L 163.193002 144.06353 
L 164.983587 142.541533 
L 166.774171 141.019537 
L 168.564755 139.49754 
L 170.355339 137.975544 
L 172.145924 136.453547 
L 173.936508 134.93155 
L 175.727092 133.409554 
L 177.517676 131.887557 
L 179.308261 130.36556 
L 181.098845 128.843564 
L 182.889429 127.321567 
L 184.680014 125.79957 
L 186.470598 124.277574 
" clip-path="url(#pb0cb9c5867)" style="fill: none; stroke: #303f9f; stroke-width: 3; stroke-linecap: round"/>
   </g>
   <g id="text_1">
    <!-- P -->
    <g style="fill: #303f9f" transform="translate(133.929739 146.102238) scale(0.11 -0.11)">
     <defs>
      <path id="DejaVuSans-Bold-33" d="M 588 4666 
L 2584 4666 
Q 3475 4666 3951 4270 
Q 4428 3875 4428 3144 
Q 4428 2409 3951 2014 
Q 3475 1619 2584 1619 
L 1791 1619 
L 1791 0 
L 588 0 
L 588 4666 
z
M 1791 3794 
L 1791 2491 
L 2456 2491 
Q 2806 2491 2997 2661 
Q 3188 2831 3188 3144 
Q 3188 3456 2997 3625 
Q 2806 3794 2456 3794 
L 1791 3794 
z
" transform="scale(0.015625)"/>
     </defs>
     <use xlink:href="#DejaVuSans-Bold-33"/>
    </g>
   </g>
   <g id="text_2">
    <!-- source a -->
    <g style="fill: #2e7d32" transform="translate(102.778499 287.558396) scale(0.08 -0.08)">
     <defs>
      <path id="DejaVuSans-56" d="M 2834 3397 
L 2834 2853 
Q 2591 2978 2328 3040 
Q 2066 3103 1784 3103 
Q 1356 3103 1142 2972 
Q 928 2841 928 2578 
Q 928 2378 1081 2264 
Q 1234 2150 1697 2047 
L 1894 2003 
Q 2506 1872 2764 1633 
Q 3022 1394 3022 966 
Q 3022 478 2636 193 
Q 2250 -91 1575 -91 
Q 1294 -91 989 -36 
Q 684 19 347 128 
L 347 722 
Q 666 556 975 473 
Q 1284 391 1588 391 
Q 1994 391 2212 530 
Q 2431 669 2431 922 
Q 2431 1156 2273 1281 
Q 2116 1406 1581 1522 
L 1381 1569 
Q 847 1681 609 1914 
Q 372 2147 372 2553 
Q 372 3047 722 3315 
Q 1072 3584 1716 3584 
Q 2034 3584 2315 3537 
Q 2597 3491 2834 3397 
z
" transform="scale(0.015625)"/>
      <path id="DejaVuSans-52" d="M 1959 3097 
Q 1497 3097 1228 2736 
Q 959 2375 959 1747 
Q 959 1119 1226 758 
Q 1494 397 1959 397 
Q 2419 397 2687 759 
Q 2956 1122 2956 1747 
Q 2956 2369 2687 2733 
Q 2419 3097 1959 3097 
z
M 1959 3584 
Q 2709 3584 3137 3096 
Q 3566 2609 3566 1747 
Q 3566 888 3137 398 
Q 2709 -91 1959 -91 
Q 1206 -91 779 398 
Q 353 888 353 1747 
Q 353 2609 779 3096 
Q 1206 3584 1959 3584 
z
" transform="scale(0.015625)"/>
      <path id="DejaVuSans-58" d="M 544 1381 
L 544 3500 
L 1119 3500 
L 1119 1403 
Q 1119 906 1312 657 
Q 1506 409 1894 409 
Q 2359 409 2629 706 
Q 2900 1003 2900 1516 
L 2900 3500 
L 3475 3500 
L 3475 0 
L 2900 0 
L 2900 538 
Q 2691 219 2414 64 
Q 2138 -91 1772 -91 
Q 1169 -91 856 284 
Q 544 659 544 1381 
z
M 1991 3584 
L 1991 3584 
z
" transform="scale(0.015625)"/>
      <path id="DejaVuSans-55" d="M 2631 2963 
Q 2534 3019 2420 3045 
Q 2306 3072 2169 3072 
Q 1681 3072 1420 2755 
Q 1159 2438 1159 1844 
L 1159 0 
L 581 0 
L 581 3500 
L 1159 3500 
L 1159 2956 
Q 1341 3275 1631 3429 
Q 1922 3584 2338 3584 
Q 2397 3584 2469 3576 
Q 2541 3569 2628 3553 
L 2631 2963 
z
" transform="scale(0.015625)"/>
      <path id="DejaVuSans-46" d="M 3122 3366 
L 3122 2828 
Q 2878 2963 2633 3030 
Q 2388 3097 2138 3097 
Q 1578 3097 1268 2742 
Q 959 2388 959 1747 
Q 959 1106 1268 751 
Q 1578 397 2138 397 
Q 2388 397 2633 464 
Q 2878 531 3122 666 
L 3122 134 
Q 2881 22 2623 -34 
Q 2366 -91 2075 -91 
Q 1284 -91 818 406 
Q 353 903 353 1747 
Q 353 2603 823 3093 
Q 1294 3584 2113 3584 
Q 2378 3584 2631 3529 
Q 2884 3475 3122 3366 
z
" transform="scale(0.015625)"/>
      <path id="DejaVuSans-48" d="M 3597 1894 
L 3597 1613 
L 953 1613 
Q 991 1019 1311 708 
Q 1631 397 2203 397 
Q 2534 397 2845 478 
Q 3156 559 3463 722 
L 3463 178 
Q 3153 47 2828 -22 
Q 2503 -91 2169 -91 
Q 1331 -91 842 396 
Q 353 884 353 1716 
Q 353 2575 817 3079 
Q 1281 3584 2069 3584 
Q 2775 3584 3186 3129 
Q 3597 2675 3597 1894 
z
M 3022 2063 
Q 3016 2534 2758 2815 
Q 2500 3097 2075 3097 
Q 1594 3097 1305 2825 
Q 1016 2553 972 2059 
L 3022 2063 
z
" transform="scale(0.015625)"/>
      <path id="DejaVuSans-3" transform="scale(0.015625)"/>
      <path id="DejaVuSans-44" d="M 2194 1759 
Q 1497 1759 1228 1600 
Q 959 1441 959 1056 
Q 959 750 1161 570 
Q 1363 391 1709 391 
Q 2188 391 2477 730 
Q 2766 1069 2766 1631 
L 2766 1759 
L 2194 1759 
z
M 3341 1997 
L 3341 0 
L 2766 0 
L 2766 531 
Q 2569 213 2275 61 
Q 1981 -91 1556 -91 
Q 1019 -91 701 211 
Q 384 513 384 1019 
Q 384 1609 779 1909 
Q 1175 2209 1959 2209 
L 2766 2209 
L 2766 2266 
Q 2766 2663 2505 2880 
Q 2244 3097 1772 3097 
Q 1472 3097 1187 3025 
Q 903 2953 641 2809 
L 641 3341 
Q 956 3463 1253 3523 
Q 1550 3584 1831 3584 
Q 2591 3584 2966 3190 
Q 3341 2797 3341 1997 
z
" transform="scale(0.015625)"/>
     </defs>
     <use xlink:href="#DejaVuSans-56"/>
     <use xlink:href="#DejaVuSans-52" transform="translate(52.09375 0)"/>
     <use xlink:href="#DejaVuSans-58" transform="translate(113.28125 0)"/>
     <use xlink:href="#DejaVuSans-55" transform="translate(176.65625 0)"/>
     <use xlink:href="#DejaVuSans-46" transform="translate(215.5625 0)"/>
     <use xlink:href="#DejaVuSans-48" transform="translate(270.546875 0)"/>
     <use xlink:href="#DejaVuSans-3" transform="translate(332.078125 0)"/>
     <use xlink:href="#DejaVuSans-44" transform="translate(363.859375 0)"/>
    </g>
   </g>
   <g id="text_3">
    <!-- target b -->
    <g style="fill: #c62828" transform="translate(18.760354 196.429001) rotate(-90) scale(0.08 -0.08)">
     <defs>
      <path id="DejaVuSans-57" d="M 1172 4494 
L 1172 3500 
L 2356 3500 
L 2356 3053 
L 1172 3053 
L 1172 1153 
Q 1172 725 1289 603 
Q 1406 481 1766 481 
L 2356 481 
L 2356 0 
L 1766 0 
Q 1100 0 847 248 
Q 594 497 594 1153 
L 594 3053 
L 172 3053 
L 172 3500 
L 594 3500 
L 594 4494 
L 1172 4494 
z
" transform="scale(0.015625)"/>
      <path id="DejaVuSans-4a" d="M 2906 1791 
Q 2906 2416 2648 2759 
Q 2391 3103 1925 3103 
Q 1463 3103 1205 2759 
Q 947 2416 947 1791 
Q 947 1169 1205 825 
Q 1463 481 1925 481 
Q 2391 481 2648 825 
Q 2906 1169 2906 1791 
z
M 3481 434 
Q 3481 -459 3084 -895 
Q 2688 -1331 1869 -1331 
Q 1566 -1331 1297 -1286 
Q 1028 -1241 775 -1147 
L 775 -588 
Q 1028 -725 1275 -790 
Q 1522 -856 1778 -856 
Q 2344 -856 2625 -561 
Q 2906 -266 2906 331 
L 2906 616 
Q 2728 306 2450 153 
Q 2172 0 1784 0 
Q 1141 0 747 490 
Q 353 981 353 1791 
Q 353 2603 747 3093 
Q 1141 3584 1784 3584 
Q 2172 3584 2450 3431 
Q 2728 3278 2906 2969 
L 2906 3500 
L 3481 3500 
L 3481 434 
z
" transform="scale(0.015625)"/>
      <path id="DejaVuSans-45" d="M 3116 1747 
Q 3116 2381 2855 2742 
Q 2594 3103 2138 3103 
Q 1681 3103 1420 2742 
Q 1159 2381 1159 1747 
Q 1159 1113 1420 752 
Q 1681 391 2138 391 
Q 2594 391 2855 752 
Q 3116 1113 3116 1747 
z
M 1159 2969 
Q 1341 3281 1617 3432 
Q 1894 3584 2278 3584 
Q 2916 3584 3314 3078 
Q 3713 2572 3713 1747 
Q 3713 922 3314 415 
Q 2916 -91 2278 -91 
Q 1894 -91 1617 61 
Q 1341 213 1159 525 
L 1159 0 
L 581 0 
L 581 4863 
L 1159 4863 
L 1159 2969 
z
" transform="scale(0.015625)"/>
     </defs>
     <use xlink:href="#DejaVuSans-57"/>
     <use xlink:href="#DejaVuSans-44" transform="translate(39.203125 0)"/>
     <use xlink:href="#DejaVuSans-55" transform="translate(100.484375 0)"/>
     <use xlink:href="#DejaVuSans-4a" transform="translate(139.84375 0)"/>
     <use xlink:href="#DejaVuSans-48" transform="translate(203.328125 0)"/>
     <use xlink:href="#DejaVuSans-57" transform="translate(264.859375 0)"/>
     <use xlink:href="#DejaVuSans-3" transform="translate(304.0625 0)"/>
     <use xlink:href="#DejaVuSans-45" transform="translate(335.84375 0)"/>
    </g>
   </g>
   <g id="text_4">
    <!-- Exact P  (eps -&gt; 0) -->
    <g style="fill: #1a237e" transform="translate(67.639567 53.207741) scale(0.11 -0.11)">
     <defs>
      <path id="DejaVuSans-Bold-28" d="M 588 4666 
L 3834 4666 
L 3834 3756 
L 1791 3756 
L 1791 2888 
L 3713 2888 
L 3713 1978 
L 1791 1978 
L 1791 909 
L 3903 909 
L 3903 0 
L 588 0 
L 588 4666 
z
" transform="scale(0.015625)"/>
      <path id="DejaVuSans-Bold-5b" d="M 1422 1791 
L 159 3500 
L 1344 3500 
L 2059 2463 
L 2784 3500 
L 3969 3500 
L 2706 1797 
L 4031 0 
L 2847 0 
L 2059 1106 
L 1281 0 
L 97 0 
L 1422 1791 
z
" transform="scale(0.015625)"/>
      <path id="DejaVuSans-Bold-44" d="M 2106 1575 
Q 1756 1575 1579 1456 
Q 1403 1338 1403 1106 
Q 1403 894 1545 773 
Q 1688 653 1941 653 
Q 2256 653 2472 879 
Q 2688 1106 2688 1447 
L 2688 1575 
L 2106 1575 
z
M 3816 1997 
L 3816 0 
L 2688 0 
L 2688 519 
Q 2463 200 2181 54 
Q 1900 -91 1497 -91 
Q 953 -91 614 226 
Q 275 544 275 1050 
Q 275 1666 698 1953 
Q 1122 2241 2028 2241 
L 2688 2241 
L 2688 2328 
Q 2688 2594 2478 2717 
Q 2269 2841 1825 2841 
Q 1466 2841 1156 2769 
Q 847 2697 581 2553 
L 581 3406 
Q 941 3494 1303 3539 
Q 1666 3584 2028 3584 
Q 2975 3584 3395 3211 
Q 3816 2838 3816 1997 
z
" transform="scale(0.015625)"/>
      <path id="DejaVuSans-Bold-46" d="M 3366 3391 
L 3366 2478 
Q 3138 2634 2908 2709 
Q 2678 2784 2431 2784 
Q 1963 2784 1702 2511 
Q 1441 2238 1441 1747 
Q 1441 1256 1702 982 
Q 1963 709 2431 709 
Q 2694 709 2930 787 
Q 3166 866 3366 1019 
L 3366 103 
Q 3103 6 2833 -42 
Q 2563 -91 2291 -91 
Q 1344 -91 809 395 
Q 275 881 275 1747 
Q 275 2613 809 3098 
Q 1344 3584 2291 3584 
Q 2566 3584 2833 3536 
Q 3100 3488 3366 3391 
z
" transform="scale(0.015625)"/>
      <path id="DejaVuSans-Bold-57" d="M 1759 4494 
L 1759 3500 
L 2913 3500 
L 2913 2700 
L 1759 2700 
L 1759 1216 
Q 1759 972 1856 886 
Q 1953 800 2241 800 
L 2816 800 
L 2816 0 
L 1856 0 
Q 1194 0 917 276 
Q 641 553 641 1216 
L 641 2700 
L 84 2700 
L 84 3500 
L 641 3500 
L 641 4494 
L 1759 4494 
z
" transform="scale(0.015625)"/>
      <path id="DejaVuSans-Bold-3" transform="scale(0.015625)"/>
      <path id="DejaVuSans-Bold-b" d="M 2413 -844 
L 1484 -844 
Q 1006 -72 778 623 
Q 550 1319 550 2003 
Q 550 2688 779 3389 
Q 1009 4091 1484 4856 
L 2413 4856 
Q 2013 4116 1813 3408 
Q 1613 2700 1613 2009 
Q 1613 1319 1811 609 
Q 2009 -100 2413 -844 
z
" transform="scale(0.015625)"/>
      <path id="DejaVuSans-Bold-48" d="M 4031 1759 
L 4031 1441 
L 1416 1441 
Q 1456 1047 1700 850 
Q 1944 653 2381 653 
Q 2734 653 3104 758 
Q 3475 863 3866 1075 
L 3866 213 
Q 3469 63 3072 -14 
Q 2675 -91 2278 -91 
Q 1328 -91 801 392 
Q 275 875 275 1747 
Q 275 2603 792 3093 
Q 1309 3584 2216 3584 
Q 3041 3584 3536 3087 
Q 4031 2591 4031 1759 
z
M 2881 2131 
Q 2881 2450 2695 2645 
Q 2509 2841 2209 2841 
Q 1884 2841 1681 2658 
Q 1478 2475 1428 2131 
L 2881 2131 
z
" transform="scale(0.015625)"/>
      <path id="DejaVuSans-Bold-53" d="M 1656 506 
L 1656 -1331 
L 538 -1331 
L 538 3500 
L 1656 3500 
L 1656 2988 
Q 1888 3294 2169 3439 
Q 2450 3584 2816 3584 
Q 3463 3584 3878 3070 
Q 4294 2556 4294 1747 
Q 4294 938 3878 423 
Q 3463 -91 2816 -91 
Q 2450 -91 2169 54 
Q 1888 200 1656 506 
z
M 2400 2772 
Q 2041 2772 1848 2508 
Q 1656 2244 1656 1747 
Q 1656 1250 1848 986 
Q 2041 722 2400 722 
Q 2759 722 2948 984 
Q 3138 1247 3138 1747 
Q 3138 2247 2948 2509 
Q 2759 2772 2400 2772 
z
" transform="scale(0.015625)"/>
      <path id="DejaVuSans-Bold-56" d="M 3272 3391 
L 3272 2541 
Q 2913 2691 2578 2766 
Q 2244 2841 1947 2841 
Q 1628 2841 1473 2761 
Q 1319 2681 1319 2516 
Q 1319 2381 1436 2309 
Q 1553 2238 1856 2203 
L 2053 2175 
Q 2913 2066 3209 1816 
Q 3506 1566 3506 1031 
Q 3506 472 3093 190 
Q 2681 -91 1863 -91 
Q 1516 -91 1145 -36 
Q 775 19 384 128 
L 384 978 
Q 719 816 1070 734 
Q 1422 653 1784 653 
Q 2113 653 2278 743 
Q 2444 834 2444 1013 
Q 2444 1163 2330 1236 
Q 2216 1309 1875 1350 
L 1678 1375 
Q 931 1469 631 1722 
Q 331 1975 331 2491 
Q 331 3047 712 3315 
Q 1094 3584 1881 3584 
Q 2191 3584 2531 3537 
Q 2872 3491 3272 3391 
z
" transform="scale(0.015625)"/>
      <path id="DejaVuSans-Bold-10" d="M 347 2297 
L 2309 2297 
L 2309 1388 
L 347 1388 
L 347 2297 
z
" transform="scale(0.015625)"/>
      <path id="DejaVuSans-Bold-21" d="M 678 3041 
L 678 3822 
L 4684 2375 
L 4684 1638 
L 678 191 
L 678 972 
L 3694 2003 
L 678 3041 
z
" transform="scale(0.015625)"/>
      <path id="DejaVuSans-Bold-13" d="M 2944 2338 
Q 2944 3213 2780 3570 
Q 2616 3928 2228 3928 
Q 1841 3928 1675 3570 
Q 1509 3213 1509 2338 
Q 1509 1453 1675 1090 
Q 1841 728 2228 728 
Q 2613 728 2778 1090 
Q 2944 1453 2944 2338 
z
M 4147 2328 
Q 4147 1169 3647 539 
Q 3147 -91 2228 -91 
Q 1306 -91 806 539 
Q 306 1169 306 2328 
Q 306 3491 806 4120 
Q 1306 4750 2228 4750 
Q 3147 4750 3647 4120 
Q 4147 3491 4147 2328 
z
" transform="scale(0.015625)"/>
      <path id="DejaVuSans-Bold-c" d="M 513 -844 
Q 913 -100 1113 609 
Q 1313 1319 1313 2009 
Q 1313 2700 1113 3408 
Q 913 4116 513 4856 
L 1441 4856 
Q 1916 4091 2145 3389 
Q 2375 2688 2375 2003 
Q 2375 1319 2147 623 
Q 1919 -72 1441 -844 
L 513 -844 
z
" transform="scale(0.015625)"/>
     </defs>
     <use xlink:href="#DejaVuSans-Bold-28"/>
     <use xlink:href="#DejaVuSans-Bold-5b" transform="translate(68.3125 0)"/>
     <use xlink:href="#DejaVuSans-Bold-44" transform="translate(132.8125 0)"/>
     <use xlink:href="#DejaVuSans-Bold-46" transform="translate(200.296875 0)"/>
     <use xlink:href="#DejaVuSans-Bold-57" transform="translate(259.578125 0)"/>
     <use xlink:href="#DejaVuSans-Bold-3" transform="translate(307.375 0)"/>
     <use xlink:href="#DejaVuSans-Bold-33" transform="translate(342.1875 0)"/>
     <use xlink:href="#DejaVuSans-Bold-3" transform="translate(415.484375 0)"/>
     <use xlink:href="#DejaVuSans-Bold-3" transform="translate(450.296875 0)"/>
     <use xlink:href="#DejaVuSans-Bold-b" transform="translate(485.109375 0)"/>
     <use xlink:href="#DejaVuSans-Bold-48" transform="translate(530.8125 0)"/>
     <use xlink:href="#DejaVuSans-Bold-53" transform="translate(598.640625 0)"/>
     <use xlink:href="#DejaVuSans-Bold-56" transform="translate(670.21875 0)"/>
     <use xlink:href="#DejaVuSans-Bold-3" transform="translate(729.734375 0)"/>
     <use xlink:href="#DejaVuSans-Bold-10" transform="translate(764.546875 0)"/>
     <use xlink:href="#DejaVuSans-Bold-21" transform="translate(806.046875 0)"/>
     <use xlink:href="#DejaVuSans-Bold-3" transform="translate(889.84375 0)"/>
     <use xlink:href="#DejaVuSans-Bold-13" transform="translate(924.65625 0)"/>
     <use xlink:href="#DejaVuSans-Bold-c" transform="translate(994.234375 0)"/>
    </g>
   </g>
  </g>
  <g id="axes_2">
   <g id="patch_7">
    <path d="M 305.64 291.6 
L 538.032259 291.6 
L 538.032259 59.207741 
L 305.64 59.207741 
z
" style="fill: #ffffff"/>
   </g>
   <g id="FillBetweenPolyCollection_3">
    <defs>
     <path id="m827f521afd" d="M 305.64 -8.672154 
L 305.64 -8.64 
L 306.655479 -8.64 
L 307.670957 -8.64 
L 308.686436 -8.64 
L 309.701914 -8.64 
L 310.717393 -8.64 
L 311.732871 -8.64 
L 312.74835 -8.64 
L 313.763828 -8.64 
L 314.779307 -8.64 
L 315.794785 -8.64 
L 316.810264 -8.64 
L 317.825742 -8.64 
L 318.841221 -8.64 
L 319.856699 -8.64 
L 320.872178 -8.64 
L 321.887656 -8.64 
L 322.903135 -8.64 
L 323.918613 -8.64 
L 324.934092 -8.64 
L 325.94957 -8.64 
L 326.965049 -8.64 
L 327.980527 -8.64 
L 328.996006 -8.64 
L 330.011484 -8.64 
L 331.026963 -8.64 
L 332.042441 -8.64 
L 333.05792 -8.64 
L 334.073398 -8.64 
L 335.088877 -8.64 
L 336.104355 -8.64 
L 337.119834 -8.64 
L 338.135313 -8.64 
L 339.150791 -8.64 
L 340.16627 -8.64 
L 341.181748 -8.64 
L 342.197227 -8.64 
L 343.212705 -8.64 
L 344.228184 -8.64 
L 345.243662 -8.64 
L 346.259141 -8.64 
L 347.274619 -8.64 
L 348.290098 -8.64 
L 349.305576 -8.64 
L 350.321055 -8.64 
L 351.336533 -8.64 
L 352.352012 -8.64 
L 353.36749 -8.64 
L 354.382969 -8.64 
L 355.398447 -8.64 
L 356.413926 -8.64 
L 357.429404 -8.64 
L 358.444883 -8.64 
L 359.460361 -8.64 
L 360.47584 -8.64 
L 361.491318 -8.64 
L 362.506797 -8.64 
L 363.522275 -8.64 
L 364.537754 -8.64 
L 365.553232 -8.64 
L 366.568711 -8.64 
L 367.58419 -8.64 
L 368.599668 -8.64 
L 369.615147 -8.64 
L 370.630625 -8.64 
L 371.646104 -8.64 
L 372.661582 -8.64 
L 373.677061 -8.64 
L 374.692539 -8.64 
L 375.708018 -8.64 
L 376.723496 -8.64 
L 377.738975 -8.64 
L 378.754453 -8.64 
L 379.769932 -8.64 
L 380.78541 -8.64 
L 381.800889 -8.64 
L 382.816367 -8.64 
L 383.831846 -8.64 
L 384.847324 -8.64 
L 385.862803 -8.64 
L 386.878281 -8.64 
L 387.89376 -8.64 
L 388.909238 -8.64 
L 389.924717 -8.64 
L 390.940195 -8.64 
L 391.955674 -8.64 
L 392.971152 -8.64 
L 393.986631 -8.64 
L 395.002109 -8.64 
L 396.017588 -8.64 
L 397.033066 -8.64 
L 398.048545 -8.64 
L 399.064024 -8.64 
L 400.079502 -8.64 
L 401.094981 -8.64 
L 402.110459 -8.64 
L 403.125938 -8.64 
L 404.141416 -8.64 
L 405.156895 -8.64 
L 406.172373 -8.64 
L 407.187852 -8.64 
L 408.20333 -8.64 
L 409.218809 -8.64 
L 410.234287 -8.64 
L 411.249766 -8.64 
L 412.265244 -8.64 
L 413.280723 -8.64 
L 414.296201 -8.64 
L 415.31168 -8.64 
L 416.327158 -8.64 
L 417.342637 -8.64 
L 418.358115 -8.64 
L 419.373594 -8.64 
L 420.389072 -8.64 
L 421.404551 -8.64 
L 422.420029 -8.64 
L 423.435508 -8.64 
L 424.450986 -8.64 
L 425.466465 -8.64 
L 426.481943 -8.64 
L 427.497422 -8.64 
L 428.512901 -8.64 
L 429.528379 -8.64 
L 430.543858 -8.64 
L 431.559336 -8.64 
L 432.574815 -8.64 
L 433.590293 -8.64 
L 434.605772 -8.64 
L 435.62125 -8.64 
L 436.636729 -8.64 
L 437.652207 -8.64 
L 438.667686 -8.64 
L 439.683164 -8.64 
L 440.698643 -8.64 
L 441.714121 -8.64 
L 442.7296 -8.64 
L 443.745078 -8.64 
L 444.760557 -8.64 
L 445.776035 -8.64 
L 446.791514 -8.64 
L 447.806992 -8.64 
L 448.822471 -8.64 
L 449.837949 -8.64 
L 450.853428 -8.64 
L 451.868906 -8.64 
L 452.884385 -8.64 
L 453.899863 -8.64 
L 454.915342 -8.64 
L 455.93082 -8.64 
L 456.946299 -8.64 
L 457.961777 -8.64 
L 458.977256 -8.64 
L 459.992735 -8.64 
L 461.008213 -8.64 
L 462.023692 -8.64 
L 463.03917 -8.64 
L 464.054649 -8.64 
L 465.070127 -8.64 
L 466.085606 -8.64 
L 467.101084 -8.64 
L 468.116563 -8.64 
L 469.132041 -8.64 
L 470.14752 -8.64 
L 471.162998 -8.64 
L 472.178477 -8.64 
L 473.193955 -8.64 
L 474.209434 -8.64 
L 475.224912 -8.64 
L 476.240391 -8.64 
L 477.255869 -8.64 
L 478.271348 -8.64 
L 479.286826 -8.64 
L 480.302305 -8.64 
L 481.317783 -8.64 
L 482.333262 -8.64 
L 483.34874 -8.64 
L 484.364219 -8.64 
L 485.379697 -8.64 
L 486.395176 -8.64 
L 487.410654 -8.64 
L 488.426133 -8.64 
L 489.441612 -8.64 
L 490.45709 -8.64 
L 491.472569 -8.64 
L 492.488047 -8.64 
L 493.503526 -8.64 
L 494.519004 -8.64 
L 495.534483 -8.64 
L 496.549961 -8.64 
L 497.56544 -8.64 
L 498.580918 -8.64 
L 499.596397 -8.64 
L 500.611875 -8.64 
L 501.627354 -8.64 
L 502.642832 -8.64 
L 503.658311 -8.64 
L 504.673789 -8.64 
L 505.689268 -8.64 
L 506.704746 -8.64 
L 507.720225 -8.64 
L 507.720225 -8.640998 
L 507.720225 -8.640998 
L 506.704746 -8.641209 
L 505.689268 -8.64146 
L 504.673789 -8.641762 
L 503.658311 -8.642121 
L 502.642832 -8.64255 
L 501.627354 -8.64306 
L 500.611875 -8.643665 
L 499.596397 -8.644383 
L 498.580918 -8.645231 
L 497.56544 -8.646234 
L 496.549961 -8.647415 
L 495.534483 -8.648804 
L 494.519004 -8.650436 
L 493.503526 -8.652348 
L 492.488047 -8.654585 
L 491.472569 -8.657198 
L 490.45709 -8.660242 
L 489.441612 -8.663784 
L 488.426133 -8.667897 
L 487.410654 -8.672663 
L 486.395176 -8.678177 
L 485.379697 -8.684543 
L 484.364219 -8.69188 
L 483.34874 -8.700319 
L 482.333262 -8.710009 
L 481.317783 -8.721113 
L 480.302305 -8.733813 
L 479.286826 -8.748311 
L 478.271348 -8.764831 
L 477.255869 -8.783619 
L 476.240391 -8.804944 
L 475.224912 -8.829105 
L 474.209434 -8.856425 
L 473.193955 -8.887257 
L 472.178477 -8.921987 
L 471.162998 -8.961032 
L 470.14752 -9.004842 
L 469.132041 -9.053905 
L 468.116563 -9.108743 
L 467.101084 -9.169917 
L 466.085606 -9.238024 
L 465.070127 -9.313702 
L 464.054649 -9.397627 
L 463.03917 -9.490515 
L 462.023692 -9.593118 
L 461.008213 -9.706227 
L 459.992735 -9.830669 
L 458.977256 -9.967306 
L 457.961777 -10.11703 
L 456.946299 -10.280763 
L 455.93082 -10.459454 
L 454.915342 -10.654071 
L 453.899863 -10.865598 
L 452.884385 -11.095032 
L 451.868906 -11.343373 
L 450.853428 -11.611619 
L 449.837949 -11.90076 
L 448.822471 -12.211766 
L 447.806992 -12.545579 
L 446.791514 -12.903109 
L 445.776035 -13.285214 
L 444.760557 -13.6927 
L 443.745078 -14.126302 
L 442.7296 -14.586677 
L 441.714121 -15.07439 
L 440.698643 -15.589904 
L 439.683164 -16.133569 
L 438.667686 -16.705605 
L 437.652207 -17.3061 
L 436.636729 -17.934988 
L 435.62125 -18.592046 
L 434.605772 -19.276882 
L 433.590293 -19.988925 
L 432.574815 -20.727418 
L 431.559336 -21.49141 
L 430.543858 -22.27975 
L 429.528379 -23.091086 
L 428.512901 -23.923857 
L 427.497422 -24.776297 
L 426.481943 -25.646432 
L 425.466465 -26.532085 
L 424.450986 -27.43088 
L 423.435508 -28.340249 
L 422.420029 -29.257439 
L 421.404551 -30.179526 
L 420.389072 -31.103426 
L 419.373594 -32.025909 
L 418.358115 -32.943619 
L 417.342637 -33.853089 
L 416.327158 -34.750764 
L 415.31168 -35.633023 
L 414.296201 -36.496201 
L 413.280723 -37.336615 
L 412.265244 -38.150589 
L 411.249766 -38.93448 
L 410.234287 -39.684706 
L 409.218809 -40.397771 
L 408.20333 -41.070295 
L 407.187852 -41.699037 
L 406.172373 -42.280924 
L 405.156895 -42.813075 
L 404.141416 -43.292824 
L 403.125938 -43.71774 
L 402.110459 -44.085656 
L 401.094981 -44.394675 
L 400.079502 -44.643198 
L 399.064024 -44.82993 
L 398.048545 -44.953894 
L 397.033066 -45.01444 
L 396.017588 -45.011251 
L 395.002109 -44.944343 
L 393.986631 -44.814067 
L 392.971152 -44.621107 
L 391.955674 -44.366471 
L 390.940195 -44.051485 
L 389.924717 -43.67778 
L 388.909238 -43.247278 
L 387.89376 -42.762176 
L 386.878281 -42.224928 
L 385.862803 -41.638222 
L 384.847324 -41.00496 
L 383.831846 -40.328234 
L 382.816367 -39.611298 
L 381.800889 -38.857547 
L 380.78541 -38.070486 
L 379.769932 -37.253703 
L 378.754453 -36.410847 
L 377.738975 -35.545595 
L 376.723496 -34.66163 
L 375.708018 -33.762613 
L 374.692539 -32.852161 
L 373.677061 -31.933819 
L 372.661582 -31.011045 
L 371.646104 -30.087184 
L 370.630625 -29.16545 
L 369.615147 -28.248913 
L 368.599668 -27.340481 
L 367.58419 -26.442888 
L 366.568711 -25.558683 
L 365.553232 -24.690223 
L 364.537754 -23.839664 
L 363.522275 -23.00896 
L 362.506797 -22.199857 
L 361.491318 -21.413894 
L 360.47584 -20.652404 
L 359.460361 -19.916516 
L 358.444883 -19.207163 
L 357.429404 -18.525082 
L 356.413926 -17.870826 
L 355.398447 -17.24477 
L 354.382969 -16.647121 
L 353.36749 -16.077928 
L 352.352012 -15.537091 
L 351.336533 -15.024374 
L 350.321055 -14.539418 
L 349.305576 -14.081747 
L 348.290098 -13.650788 
L 347.274619 -13.245874 
L 346.259141 -12.866264 
L 345.243662 -12.511145 
L 344.228184 -12.179654 
L 343.212705 -11.870878 
L 342.197227 -11.583871 
L 341.181748 -11.317659 
L 340.16627 -11.071254 
L 339.150791 -10.843656 
L 338.135313 -10.633864 
L 337.119834 -10.440885 
L 336.104355 -10.263733 
L 335.088877 -10.101442 
L 334.073398 -9.953068 
L 333.05792 -9.81769 
L 332.042441 -9.69442 
L 331.026963 -9.582398 
L 330.011484 -9.480802 
L 328.996006 -9.388844 
L 327.980527 -9.305775 
L 326.965049 -9.230883 
L 325.94957 -9.163497 
L 324.934092 -9.102984 
L 323.918613 -9.048748 
L 322.903135 -9.000233 
L 321.887656 -8.95692 
L 320.872178 -8.918327 
L 319.856699 -8.884005 
L 318.841221 -8.853541 
L 317.825742 -8.826552 
L 316.810264 -8.802689 
L 315.794785 -8.78163 
L 314.779307 -8.763081 
L 313.763828 -8.746774 
L 312.74835 -8.732465 
L 311.732871 -8.719934 
L 310.717393 -8.708979 
L 309.701914 -8.699422 
L 308.686436 -8.691099 
L 307.670957 -8.683865 
L 306.655479 -8.677589 
L 305.64 -8.672154 
z
" style="stroke: #2e7d32; stroke-opacity: 0.35"/>
    </defs>
    <g clip-path="url(#p98d14c3af3)">
     <use xlink:href="#m827f521afd" x="0" y="300.24" style="fill: #2e7d32; fill-opacity: 0.35; stroke: #2e7d32; stroke-opacity: 0.35"/>
    </g>
   </g>
   <g id="FillBetweenPolyCollection_4">
    <defs>
     <path id="mc78e689863" d="M 305.656198 -8.64 
L 305.64 -8.64 
L 305.64 -9.655479 
L 305.64 -10.670957 
L 305.64 -11.686436 
L 305.64 -12.701914 
L 305.64 -13.717393 
L 305.64 -14.732871 
L 305.64 -15.74835 
L 305.64 -16.763828 
L 305.64 -17.779307 
L 305.64 -18.794785 
L 305.64 -19.810264 
L 305.64 -20.825742 
L 305.64 -21.841221 
L 305.64 -22.856699 
L 305.64 -23.872178 
L 305.64 -24.887656 
L 305.64 -25.903135 
L 305.64 -26.918613 
L 305.64 -27.934092 
L 305.64 -28.94957 
L 305.64 -29.965049 
L 305.64 -30.980527 
L 305.64 -31.996006 
L 305.64 -33.011484 
L 305.64 -34.026963 
L 305.64 -35.042441 
L 305.64 -36.05792 
L 305.64 -37.073398 
L 305.64 -38.088877 
L 305.64 -39.104355 
L 305.64 -40.119834 
L 305.64 -41.135313 
L 305.64 -42.150791 
L 305.64 -43.16627 
L 305.64 -44.181748 
L 305.64 -45.197227 
L 305.64 -46.212705 
L 305.64 -47.228184 
L 305.64 -48.243662 
L 305.64 -49.259141 
L 305.64 -50.274619 
L 305.64 -51.290098 
L 305.64 -52.305576 
L 305.64 -53.321055 
L 305.64 -54.336533 
L 305.64 -55.352012 
L 305.64 -56.36749 
L 305.64 -57.382969 
L 305.64 -58.398447 
L 305.64 -59.413926 
L 305.64 -60.429404 
L 305.64 -61.444883 
L 305.64 -62.460361 
L 305.64 -63.47584 
L 305.64 -64.491318 
L 305.64 -65.506797 
L 305.64 -66.522275 
L 305.64 -67.537754 
L 305.64 -68.553232 
L 305.64 -69.568711 
L 305.64 -70.58419 
L 305.64 -71.599668 
L 305.64 -72.615147 
L 305.64 -73.630625 
L 305.64 -74.646104 
L 305.64 -75.661582 
L 305.64 -76.677061 
L 305.64 -77.692539 
L 305.64 -78.708018 
L 305.64 -79.723496 
L 305.64 -80.738975 
L 305.64 -81.754453 
L 305.64 -82.769932 
L 305.64 -83.78541 
L 305.64 -84.800889 
L 305.64 -85.816367 
L 305.64 -86.831846 
L 305.64 -87.847324 
L 305.64 -88.862803 
L 305.64 -89.878281 
L 305.64 -90.89376 
L 305.64 -91.909238 
L 305.64 -92.924717 
L 305.64 -93.940195 
L 305.64 -94.955674 
L 305.64 -95.971152 
L 305.64 -96.986631 
L 305.64 -98.002109 
L 305.64 -99.017588 
L 305.64 -100.033066 
L 305.64 -101.048545 
L 305.64 -102.064024 
L 305.64 -103.079502 
L 305.64 -104.094981 
L 305.64 -105.110459 
L 305.64 -106.125938 
L 305.64 -107.141416 
L 305.64 -108.156895 
L 305.64 -109.172373 
L 305.64 -110.187852 
L 305.64 -111.20333 
L 305.64 -112.218809 
L 305.64 -113.234287 
L 305.64 -114.249766 
L 305.64 -115.265244 
L 305.64 -116.280723 
L 305.64 -117.296201 
L 305.64 -118.31168 
L 305.64 -119.327158 
L 305.64 -120.342637 
L 305.64 -121.358115 
L 305.64 -122.373594 
L 305.64 -123.389072 
L 305.64 -124.404551 
L 305.64 -125.420029 
L 305.64 -126.435508 
L 305.64 -127.450986 
L 305.64 -128.466465 
L 305.64 -129.481943 
L 305.64 -130.497422 
L 305.64 -131.512901 
L 305.64 -132.528379 
L 305.64 -133.543858 
L 305.64 -134.559336 
L 305.64 -135.574815 
L 305.64 -136.590293 
L 305.64 -137.605772 
L 305.64 -138.62125 
L 305.64 -139.636729 
L 305.64 -140.652207 
L 305.64 -141.667686 
L 305.64 -142.683164 
L 305.64 -143.698643 
L 305.64 -144.714121 
L 305.64 -145.7296 
L 305.64 -146.745078 
L 305.64 -147.760557 
L 305.64 -148.776035 
L 305.64 -149.791514 
L 305.64 -150.806992 
L 305.64 -151.822471 
L 305.64 -152.837949 
L 305.64 -153.853428 
L 305.64 -154.868906 
L 305.64 -155.884385 
L 305.64 -156.899863 
L 305.64 -157.915342 
L 305.64 -158.93082 
L 305.64 -159.946299 
L 305.64 -160.961777 
L 305.64 -161.977256 
L 305.64 -162.992735 
L 305.64 -164.008213 
L 305.64 -165.023692 
L 305.64 -166.03917 
L 305.64 -167.054649 
L 305.64 -168.070127 
L 305.64 -169.085606 
L 305.64 -170.101084 
L 305.64 -171.116563 
L 305.64 -172.132041 
L 305.64 -173.14752 
L 305.64 -174.162998 
L 305.64 -175.178477 
L 305.64 -176.193955 
L 305.64 -177.209434 
L 305.64 -178.224912 
L 305.64 -179.240391 
L 305.64 -180.255869 
L 305.64 -181.271348 
L 305.64 -182.286826 
L 305.64 -183.302305 
L 305.64 -184.317783 
L 305.64 -185.333262 
L 305.64 -186.34874 
L 305.64 -187.364219 
L 305.64 -188.379697 
L 305.64 -189.395176 
L 305.64 -190.410654 
L 305.64 -191.426133 
L 305.64 -192.441612 
L 305.64 -193.45709 
L 305.64 -194.472569 
L 305.64 -195.488047 
L 305.64 -196.503526 
L 305.64 -197.519004 
L 305.64 -198.534483 
L 305.64 -199.549961 
L 305.64 -200.56544 
L 305.64 -201.580918 
L 305.64 -202.596397 
L 305.64 -203.611875 
L 305.64 -204.627354 
L 305.64 -205.642832 
L 305.64 -206.658311 
L 305.64 -207.673789 
L 305.64 -208.689268 
L 305.64 -209.704746 
L 305.64 -210.720225 
L 305.847667 -210.720225 
L 305.847667 -210.720225 
L 305.872913 -209.704746 
L 305.900891 -208.689268 
L 305.931855 -207.673789 
L 305.966073 -206.658311 
L 306.003833 -205.642832 
L 306.045444 -204.627354 
L 306.091231 -203.611875 
L 306.141544 -202.596397 
L 306.196748 -201.580918 
L 306.257232 -200.56544 
L 306.323407 -199.549961 
L 306.395702 -198.534483 
L 306.474569 -197.519004 
L 306.56048 -196.503526 
L 306.653928 -195.488047 
L 306.755424 -194.472569 
L 306.865501 -193.45709 
L 306.984707 -192.441612 
L 307.113608 -191.426133 
L 307.252787 -190.410654 
L 307.402838 -189.395176 
L 307.564369 -188.379697 
L 307.737996 -187.364219 
L 307.924344 -186.34874 
L 308.124042 -185.333262 
L 308.337719 -184.317783 
L 308.566004 -183.302305 
L 308.809521 -182.286826 
L 309.068885 -181.271348 
L 309.344696 -180.255869 
L 309.637539 -179.240391 
L 309.947977 -178.224912 
L 310.276545 -177.209434 
L 310.623747 -176.193955 
L 310.990052 -175.178477 
L 311.375886 -174.162998 
L 311.781628 -173.14752 
L 312.207604 -172.132041 
L 312.654083 -171.116563 
L 313.121269 -170.101084 
L 313.6093 -169.085606 
L 314.118236 -168.070127 
L 314.648061 -167.054649 
L 315.198672 -166.03917 
L 315.769881 -165.023692 
L 316.361401 -164.008213 
L 316.972853 -162.992735 
L 317.603752 -161.977256 
L 318.253513 -160.961777 
L 318.92144 -159.946299 
L 319.60673 -158.93082 
L 320.308469 -157.915342 
L 321.025631 -156.899863 
L 321.757078 -155.884385 
L 322.501561 -154.868906 
L 323.257721 -153.853428 
L 324.02409 -152.837949 
L 324.799096 -151.822471 
L 325.581066 -150.806992 
L 326.368229 -149.791514 
L 327.158723 -148.776035 
L 327.950601 -147.760557 
L 328.741837 -146.745078 
L 329.530334 -145.7296 
L 330.313935 -144.714121 
L 331.090427 -143.698643 
L 331.857555 -142.683164 
L 332.613034 -141.667686 
L 333.354552 -140.652207 
L 334.079792 -139.636729 
L 334.786434 -138.62125 
L 335.472174 -137.605772 
L 336.134735 -136.590293 
L 336.771876 -135.574815 
L 337.381409 -134.559336 
L 337.961207 -133.543858 
L 338.509221 -132.528379 
L 339.02349 -131.512901 
L 339.502149 -130.497422 
L 339.943449 -129.481943 
L 340.345756 -128.466465 
L 340.707574 -127.450986 
L 341.027541 -126.435508 
L 341.304451 -125.420029 
L 341.537248 -124.404551 
L 341.725045 -123.389072 
L 341.86712 -122.373594 
L 341.962927 -121.358115 
L 342.012097 -120.342637 
L 342.01444 -119.327158 
L 341.969947 -118.31168 
L 341.87879 -117.296201 
L 341.74132 -116.280723 
L 341.558066 -115.265244 
L 341.329731 -114.249766 
L 341.057189 -113.234287 
L 340.741475 -112.218809 
L 340.383784 -111.20333 
L 339.98546 -110.187852 
L 339.547988 -109.172373 
L 339.072988 -108.156895 
L 338.562198 -107.141416 
L 338.017472 -106.125938 
L 337.440761 -105.110459 
L 336.834108 -104.094981 
L 336.19963 -103.079502 
L 335.539511 -102.064024 
L 334.855986 -101.048545 
L 334.151331 -100.033066 
L 333.427847 -99.017588 
L 332.687852 -98.002109 
L 331.933665 -96.986631 
L 331.167598 -95.971152 
L 330.391941 -94.955674 
L 329.608951 -93.940195 
L 328.820845 -92.924717 
L 328.029788 -91.909238 
L 327.237882 -90.89376 
L 326.44716 -89.878281 
L 325.659579 -88.862803 
L 324.877008 -87.847324 
L 324.101229 -86.831846 
L 323.333924 -85.816367 
L 322.576675 -84.800889 
L 321.830962 -83.78541 
L 321.098153 -82.769932 
L 320.379509 -81.754453 
L 319.67618 -80.738975 
L 318.989202 -79.723496 
L 318.3195 -78.708018 
L 317.66789 -77.692539 
L 317.035076 -76.677061 
L 316.421657 -75.661582 
L 315.828124 -74.646104 
L 315.25487 -73.630625 
L 314.702189 -72.615147 
L 314.170279 -71.599668 
L 313.659252 -70.58419 
L 313.169133 -69.568711 
L 312.699867 -68.553232 
L 312.251326 -67.537754 
L 311.82331 -66.522275 
L 311.415559 -65.506797 
L 311.02775 -64.491318 
L 310.659511 -63.47584 
L 310.310418 -62.460361 
L 309.980009 -61.444883 
L 309.667782 -60.429404 
L 309.373204 -59.413926 
L 309.095716 -58.398447 
L 308.834735 -57.382969 
L 308.58966 -56.36749 
L 308.35988 -55.352012 
L 308.14477 -54.336533 
L 307.943703 -53.321055 
L 307.756048 -52.305576 
L 307.581177 -51.290098 
L 307.418465 -50.274619 
L 307.267293 -49.259141 
L 307.127054 -48.243662 
L 306.997151 -47.228184 
L 306.877001 -46.212705 
L 306.766037 -45.197227 
L 306.663706 -44.181748 
L 306.569477 -43.16627 
L 306.482835 -42.150791 
L 306.403285 -41.135313 
L 306.330354 -40.119834 
L 306.263587 -39.104355 
L 306.202552 -38.088877 
L 306.146838 -37.073398 
L 306.096053 -36.05792 
L 306.049829 -35.042441 
L 306.007816 -34.026963 
L 305.969684 -33.011484 
L 305.935126 -31.996006 
L 305.903849 -30.980527 
L 305.875584 -29.965049 
L 305.850075 -28.94957 
L 305.827088 -27.934092 
L 305.806401 -26.918613 
L 305.787811 -25.903135 
L 305.771129 -24.887656 
L 305.75618 -23.872178 
L 305.742803 -22.856699 
L 305.730849 -21.841221 
L 305.720181 -20.825742 
L 305.710675 -19.810264 
L 305.702216 -18.794785 
L 305.694699 -17.779307 
L 305.688028 -16.763828 
L 305.682116 -15.74835 
L 305.676885 -14.732871 
L 305.672261 -13.717393 
L 305.668181 -12.701914 
L 305.664585 -11.686436 
L 305.661421 -10.670957 
L 305.658639 -9.655479 
L 305.656198 -8.64 
z
" style="stroke: #c62828; stroke-opacity: 0.3"/>
    </defs>
    <g clip-path="url(#p98d14c3af3)">
     <use xlink:href="#mc78e689863" x="0" y="300.24" style="fill: #c62828; fill-opacity: 0.3; stroke: #c62828; stroke-opacity: 0.3"/>
    </g>
   </g>
   <g id="matplotlib.axis_3"/>
   <g id="matplotlib.axis_4"/>
   <g id="line2d_4">
    <path d="M 305.64 291.567846 
L 318.841221 291.386459 
L 325.94957 291.076503 
L 331.026963 290.657602 
L 335.088877 290.138558 
L 339.150791 289.396344 
L 342.197227 288.656129 
L 345.243662 287.728855 
L 348.290098 286.589212 
L 351.336533 285.215626 
L 354.382969 283.592879 
L 357.429404 281.714918 
L 360.47584 279.587596 
L 363.522275 277.23104 
L 367.58419 273.797112 
L 380.78541 262.169514 
L 383.831846 259.911766 
L 386.878281 258.015072 
L 388.909238 256.992722 
L 390.940195 256.188515 
L 392.971152 255.618893 
L 395.002109 255.295657 
L 397.033066 255.22556 
L 399.064024 255.41007 
L 401.094981 255.845325 
L 403.125938 256.52226 
L 405.156895 257.426925 
L 407.187852 258.540963 
L 410.234287 260.555294 
L 413.280723 262.903385 
L 417.342637 266.386911 
L 428.512901 276.316143 
L 432.574815 279.512582 
L 435.62125 281.647954 
L 438.667686 283.534395 
L 441.714121 285.16561 
L 444.760557 286.5473 
L 447.806992 287.694421 
L 450.853428 288.628381 
L 453.899863 289.374402 
L 457.961777 290.12297 
L 462.023692 290.646882 
L 467.101084 291.070083 
L 473.193955 291.352743 
L 482.333262 291.529991 
L 500.611875 291.596335 
L 507.720225 291.599002 
L 507.720225 291.599002 
" clip-path="url(#p98d14c3af3)" style="fill: none; stroke: #2e7d32; stroke-width: 1.5; stroke-linecap: square"/>
   </g>
   <g id="line2d_5">
    <path d="M 305.656198 291.6 
L 305.806401 273.321387 
L 306.096053 264.18208 
L 306.482835 258.089209 
L 306.997151 253.011816 
L 307.756048 247.934424 
L 308.58966 243.87251 
L 309.667782 239.810596 
L 311.02775 235.748682 
L 312.251326 232.702246 
L 313.659252 229.65581 
L 315.25487 226.609375 
L 317.66789 222.547461 
L 320.379509 218.485547 
L 324.101229 213.408154 
L 334.855986 199.191455 
L 336.834108 196.145019 
L 338.562198 193.098584 
L 339.98546 190.052148 
L 340.741475 188.021191 
L 341.329731 185.990234 
L 341.74132 183.959277 
L 341.969947 181.92832 
L 342.012097 179.897363 
L 341.86712 177.866406 
L 341.537248 175.835449 
L 341.027541 173.804492 
L 340.345756 171.773535 
L 339.02349 168.727099 
L 337.381409 165.680664 
L 335.472174 162.634228 
L 332.613034 158.572314 
L 327.950601 152.479443 
L 322.501561 145.371094 
L 319.60673 141.30918 
L 316.972853 137.247265 
L 314.648061 133.185351 
L 312.654083 129.123437 
L 311.375886 126.077002 
L 309.947977 122.015088 
L 308.809521 117.953174 
L 307.924344 113.89126 
L 307.252787 109.829346 
L 306.653928 104.751953 
L 306.196748 98.659082 
L 305.900891 91.550732 
L 305.847667 89.519775 
L 305.847667 89.519775 
" clip-path="url(#p98d14c3af3)" style="fill: none; stroke: #c62828; stroke-width: 1.5; stroke-linecap: square"/>
   </g>
   <g id="FillBetweenPolyCollection_5">
    <defs>
     <path id="m42f78bcceb" d="M 342.01444 -71.89111 
L 342.01444 -39.558274 
L 343.805025 -41.080271 
L 345.595609 -42.602268 
L 347.386193 -44.124264 
L 349.176778 -45.646261 
L 350.967362 -47.168258 
L 352.757946 -48.690254 
L 354.54853 -50.212251 
L 356.339115 -51.734247 
L 358.129699 -53.256244 
L 359.920283 -54.778241 
L 361.710867 -56.300237 
L 363.501452 -57.822234 
L 365.292036 -59.344231 
L 367.08262 -60.866227 
L 368.873205 -62.388224 
L 370.663789 -63.91022 
L 372.454373 -65.432217 
L 374.244957 -66.954214 
L 376.035542 -68.47621 
L 377.826126 -69.998207 
L 379.61671 -71.520204 
L 381.407294 -73.0422 
L 383.197879 -74.564197 
L 384.988463 -76.086194 
L 386.779047 -77.60819 
L 388.569631 -79.130187 
L 390.360216 -80.652183 
L 392.1508 -82.17418 
L 393.941384 -83.696177 
L 395.731969 -85.218173 
L 397.522553 -86.74017 
L 399.313137 -88.262167 
L 401.103721 -89.784163 
L 402.894306 -91.30616 
L 404.68489 -92.828156 
L 406.475474 -94.350153 
L 408.266058 -95.87215 
L 410.056643 -97.394146 
L 411.847227 -98.916143 
L 413.637811 -100.43814 
L 415.428396 -101.960136 
L 417.21898 -103.482133 
L 419.009564 -105.004129 
L 420.800148 -106.526126 
L 422.590733 -108.048123 
L 424.381317 -109.570119 
L 426.171901 -111.092116 
L 427.962485 -112.614113 
L 429.75307 -114.136109 
L 431.543654 -115.658106 
L 433.334238 -117.180103 
L 435.124823 -118.702099 
L 436.915407 -120.224096 
L 438.705991 -121.746092 
L 440.496575 -123.268089 
L 442.28716 -124.790086 
L 444.077744 -126.312082 
L 445.868328 -127.834079 
L 447.658912 -129.356076 
L 449.449497 -130.878072 
L 451.240081 -132.400069 
L 453.030665 -133.922065 
L 454.821249 -135.444062 
L 456.611834 -136.966059 
L 458.402418 -138.488055 
L 460.193002 -140.010052 
L 461.983587 -141.532049 
L 463.774171 -143.054045 
L 465.564755 -144.576042 
L 467.355339 -146.098038 
L 469.145924 -147.620035 
L 470.936508 -149.142032 
L 472.727092 -150.664028 
L 474.517676 -152.186025 
L 476.308261 -153.708022 
L 478.098845 -155.230018 
L 479.889429 -156.752015 
L 481.680014 -158.274012 
L 483.470598 -159.796008 
L 483.470598 -192.128844 
L 483.470598 -192.128844 
L 481.680014 -190.606847 
L 479.889429 -189.084851 
L 478.098845 -187.562854 
L 476.308261 -186.040858 
L 474.517676 -184.518861 
L 472.727092 -182.996864 
L 470.936508 -181.474868 
L 469.145924 -179.952871 
L 467.355339 -178.430874 
L 465.564755 -176.908878 
L 463.774171 -175.386881 
L 461.983587 -173.864885 
L 460.193002 -172.342888 
L 458.402418 -170.820891 
L 456.611834 -169.298895 
L 454.821249 -167.776898 
L 453.030665 -166.254901 
L 451.240081 -164.732905 
L 449.449497 -163.210908 
L 447.658912 -161.688912 
L 445.868328 -160.166915 
L 444.077744 -158.644918 
L 442.28716 -157.122922 
L 440.496575 -155.600925 
L 438.705991 -154.078928 
L 436.915407 -152.556932 
L 435.124823 -151.034935 
L 433.334238 -149.512938 
L 431.543654 -147.990942 
L 429.75307 -146.468945 
L 427.962485 -144.946949 
L 426.171901 -143.424952 
L 424.381317 -141.902955 
L 422.590733 -140.380959 
L 420.800148 -138.858962 
L 419.009564 -137.336965 
L 417.21898 -135.814969 
L 415.428396 -134.292972 
L 413.637811 -132.770976 
L 411.847227 -131.248979 
L 410.056643 -129.726982 
L 408.266058 -128.204986 
L 406.475474 -126.682989 
L 404.68489 -125.160992 
L 402.894306 -123.638996 
L 401.103721 -122.116999 
L 399.313137 -120.595003 
L 397.522553 -119.073006 
L 395.731969 -117.551009 
L 393.941384 -116.029013 
L 392.1508 -114.507016 
L 390.360216 -112.985019 
L 388.569631 -111.463023 
L 386.779047 -109.941026 
L 384.988463 -108.419029 
L 383.197879 -106.897033 
L 381.407294 -105.375036 
L 379.61671 -103.85304 
L 377.826126 -102.331043 
L 376.035542 -100.809046 
L 374.244957 -99.28705 
L 372.454373 -97.765053 
L 370.663789 -96.243056 
L 368.873205 -94.72106 
L 367.08262 -93.199063 
L 365.292036 -91.677067 
L 363.501452 -90.15507 
L 361.710867 -88.633073 
L 359.920283 -87.111077 
L 358.129699 -85.58908 
L 356.339115 -84.067083 
L 354.54853 -82.545087 
L 352.757946 -81.02309 
L 350.967362 -79.501094 
L 349.176778 -77.979097 
L 347.386193 -76.4571 
L 345.595609 -74.935104 
L 343.805025 -73.413107 
L 342.01444 -71.89111 
z
" style="stroke: #303f9f; stroke-opacity: 0.28"/>
    </defs>
    <g clip-path="url(#p98d14c3af3)">
     <use xlink:href="#m42f78bcceb" x="0" y="300.24" style="fill: #303f9f; fill-opacity: 0.28; stroke: #303f9f; stroke-opacity: 0.28"/>
    </g>
   </g>
   <g id="patch_8">
    <path d="M 305.64 291.6 
L 305.64 59.207741 
" style="fill: none; stroke: #c5cae9; stroke-width: 0.8; stroke-linejoin: miter; stroke-linecap: square"/>
   </g>
   <g id="patch_9">
    <path d="M 538.032259 291.6 
L 538.032259 59.207741 
" style="fill: none; stroke: #c5cae9; stroke-width: 0.8; stroke-linejoin: miter; stroke-linecap: square"/>
   </g>
   <g id="patch_10">
    <path d="M 305.64 291.6 
L 538.032259 291.6 
" style="fill: none; stroke: #c5cae9; stroke-width: 0.8; stroke-linejoin: miter; stroke-linecap: square"/>
   </g>
   <g id="patch_11">
    <path d="M 305.64 59.207741 
L 538.032259 59.207741 
" style="fill: none; stroke: #c5cae9; stroke-width: 0.8; stroke-linejoin: miter; stroke-linecap: square"/>
   </g>
   <g id="line2d_6">
    <path d="M 342.01444 244.515308 
L 343.805025 242.993311 
L 345.595609 241.471314 
L 347.386193 239.949318 
L 349.176778 238.427321 
L 350.967362 236.905324 
L 352.757946 235.383328 
L 354.54853 233.861331 
L 356.339115 232.339335 
L 358.129699 230.817338 
L 359.920283 229.295341 
L 361.710867 227.773345 
L 363.501452 226.251348 
L 365.292036 224.729351 
L 367.08262 223.207355 
L 368.873205 221.685358 
L 370.663789 220.163362 
L 372.454373 218.641365 
L 374.244957 217.119368 
L 376.035542 215.597372 
L 377.826126 214.075375 
L 379.61671 212.553378 
L 381.407294 211.031382 
L 383.197879 209.509385 
L 384.988463 207.987389 
L 386.779047 206.465392 
L 388.569631 204.943395 
L 390.360216 203.421399 
L 392.1508 201.899402 
L 393.941384 200.377405 
L 395.731969 198.855409 
L 397.522553 197.333412 
L 399.313137 195.811415 
L 401.103721 194.289419 
L 402.894306 192.767422 
L 404.68489 191.245426 
L 406.475474 189.723429 
L 408.266058 188.201432 
L 410.056643 186.679436 
L 411.847227 185.157439 
L 413.637811 183.635442 
L 415.428396 182.113446 
L 417.21898 180.591449 
L 419.009564 179.069453 
L 420.800148 177.547456 
L 422.590733 176.025459 
L 424.381317 174.503463 
L 426.171901 172.981466 
L 427.962485 171.459469 
L 429.75307 169.937473 
L 431.543654 168.415476 
L 433.334238 166.893479 
L 435.124823 165.371483 
L 436.915407 163.849486 
L 438.705991 162.32749 
L 440.496575 160.805493 
L 442.28716 159.283496 
L 444.077744 157.7615 
L 445.868328 156.239503 
L 447.658912 154.717506 
L 449.449497 153.19551 
L 451.240081 151.673513 
L 453.030665 150.151517 
L 454.821249 148.62952 
L 456.611834 147.107523 
L 458.402418 145.585527 
L 460.193002 144.06353 
L 461.983587 142.541533 
L 463.774171 141.019537 
L 465.564755 139.49754 
L 467.355339 137.975544 
L 469.145924 136.453547 
L 470.936508 134.93155 
L 472.727092 133.409554 
L 474.517676 131.887557 
L 476.308261 130.36556 
L 478.098845 128.843564 
L 479.889429 127.321567 
L 481.680014 125.79957 
L 483.470598 124.277574 
" clip-path="url(#p98d14c3af3)" style="fill: none; stroke: #303f9f; stroke-opacity: 0.7; stroke-width: 1.5; stroke-linecap: square"/>
   </g>
   <g id="text_5">
    <!-- Peps -->
    <g style="fill: #303f9f" transform="translate(430.929739 133.977425) scale(0.11 -0.11)">
     <use xlink:href="#DejaVuSans-Bold-33"/>
     <use xlink:href="#DejaVuSans-Bold-48" transform="translate(73.296875 0)"/>
     <use xlink:href="#DejaVuSans-Bold-53" transform="translate(141.125 0)"/>
     <use xlink:href="#DejaVuSans-Bold-56" transform="translate(212.703125 0)"/>
    </g>
   </g>
   <g id="text_6">
    <!-- source a -->
    <g style="fill: #2e7d32" transform="translate(399.778499 287.558396) scale(0.08 -0.08)">
     <use xlink:href="#DejaVuSans-56"/>
     <use xlink:href="#DejaVuSans-52" transform="translate(52.09375 0)"/>
     <use xlink:href="#DejaVuSans-58" transform="translate(113.28125 0)"/>
     <use xlink:href="#DejaVuSans-55" transform="translate(176.65625 0)"/>
     <use xlink:href="#DejaVuSans-46" transform="translate(215.5625 0)"/>
     <use xlink:href="#DejaVuSans-48" transform="translate(270.546875 0)"/>
     <use xlink:href="#DejaVuSans-3" transform="translate(332.078125 0)"/>
     <use xlink:href="#DejaVuSans-44" transform="translate(363.859375 0)"/>
    </g>
   </g>
   <g id="text_7">
    <!-- target b -->
    <g style="fill: #c62828" transform="translate(315.760354 196.429001) rotate(-90) scale(0.08 -0.08)">
     <use xlink:href="#DejaVuSans-57"/>
     <use xlink:href="#DejaVuSans-44" transform="translate(39.203125 0)"/>
     <use xlink:href="#DejaVuSans-55" transform="translate(100.484375 0)"/>
     <use xlink:href="#DejaVuSans-4a" transform="translate(139.84375 0)"/>
     <use xlink:href="#DejaVuSans-48" transform="translate(203.328125 0)"/>
     <use xlink:href="#DejaVuSans-57" transform="translate(264.859375 0)"/>
     <use xlink:href="#DejaVuSans-3" transform="translate(304.0625 0)"/>
     <use xlink:href="#DejaVuSans-45" transform="translate(335.84375 0)"/>
    </g>
   </g>
   <g id="text_8">
    <!-- Blurry Peps  (eps &gt; 0) -->
    <g style="fill: #1a237e" transform="translate(353.884489 53.207741) scale(0.11 -0.11)">
     <defs>
      <path id="DejaVuSans-Bold-25" d="M 2456 2859 
Q 2741 2859 2887 2984 
Q 3034 3109 3034 3353 
Q 3034 3594 2887 3720 
Q 2741 3847 2456 3847 
L 1791 3847 
L 1791 2859 
L 2456 2859 
z
M 2497 819 
Q 2859 819 3042 972 
Q 3225 1125 3225 1434 
Q 3225 1738 3044 1889 
Q 2863 2041 2497 2041 
L 1791 2041 
L 1791 819 
L 2497 819 
z
M 3616 2497 
Q 4003 2384 4215 2081 
Q 4428 1778 4428 1338 
Q 4428 663 3972 331 
Q 3516 0 2584 0 
L 588 0 
L 588 4666 
L 2394 4666 
Q 3366 4666 3802 4372 
Q 4238 4078 4238 3431 
Q 4238 3091 4078 2852 
Q 3919 2613 3616 2497 
z
" transform="scale(0.015625)"/>
      <path id="DejaVuSans-Bold-4f" d="M 538 4863 
L 1656 4863 
L 1656 0 
L 538 0 
L 538 4863 
z
" transform="scale(0.015625)"/>
      <path id="DejaVuSans-Bold-58" d="M 500 1363 
L 500 3500 
L 1625 3500 
L 1625 3150 
Q 1625 2866 1622 2436 
Q 1619 2006 1619 1863 
Q 1619 1441 1641 1255 
Q 1663 1069 1716 984 
Q 1784 875 1895 815 
Q 2006 756 2150 756 
Q 2500 756 2700 1025 
Q 2900 1294 2900 1772 
L 2900 3500 
L 4019 3500 
L 4019 0 
L 2900 0 
L 2900 506 
Q 2647 200 2364 54 
Q 2081 -91 1741 -91 
Q 1134 -91 817 281 
Q 500 653 500 1363 
z
" transform="scale(0.015625)"/>
      <path id="DejaVuSans-Bold-55" d="M 3138 2547 
Q 2991 2616 2845 2648 
Q 2700 2681 2553 2681 
Q 2122 2681 1889 2404 
Q 1656 2128 1656 1613 
L 1656 0 
L 538 0 
L 538 3500 
L 1656 3500 
L 1656 2925 
Q 1872 3269 2151 3426 
Q 2431 3584 2822 3584 
Q 2878 3584 2943 3579 
Q 3009 3575 3134 3559 
L 3138 2547 
z
" transform="scale(0.015625)"/>
      <path id="DejaVuSans-Bold-5c" d="M 78 3500 
L 1197 3500 
L 2138 1125 
L 2938 3500 
L 4056 3500 
L 2584 -331 
Q 2363 -916 2067 -1148 
Q 1772 -1381 1288 -1381 
L 641 -1381 
L 641 -647 
L 991 -647 
Q 1275 -647 1404 -556 
Q 1534 -466 1606 -231 
L 1638 -134 
L 78 3500 
z
" transform="scale(0.015625)"/>
     </defs>
     <use xlink:href="#DejaVuSans-Bold-25"/>
     <use xlink:href="#DejaVuSans-Bold-4f" transform="translate(76.21875 0)"/>
     <use xlink:href="#DejaVuSans-Bold-58" transform="translate(110.5 0)"/>
     <use xlink:href="#DejaVuSans-Bold-55" transform="translate(181.6875 0)"/>
     <use xlink:href="#DejaVuSans-Bold-55" transform="translate(231 0)"/>
     <use xlink:href="#DejaVuSans-Bold-5c" transform="translate(280.3125 0)"/>
     <use xlink:href="#DejaVuSans-Bold-3" transform="translate(345.5 0)"/>
     <use xlink:href="#DejaVuSans-Bold-33" transform="translate(380.3125 0)"/>
     <use xlink:href="#DejaVuSans-Bold-48" transform="translate(453.609375 0)"/>
     <use xlink:href="#DejaVuSans-Bold-53" transform="translate(521.4375 0)"/>
     <use xlink:href="#DejaVuSans-Bold-56" transform="translate(593.015625 0)"/>
     <use xlink:href="#DejaVuSans-Bold-3" transform="translate(652.53125 0)"/>
     <use xlink:href="#DejaVuSans-Bold-3" transform="translate(687.34375 0)"/>
     <use xlink:href="#DejaVuSans-Bold-b" transform="translate(722.15625 0)"/>
     <use xlink:href="#DejaVuSans-Bold-48" transform="translate(767.859375 0)"/>
     <use xlink:href="#DejaVuSans-Bold-53" transform="translate(835.6875 0)"/>
     <use xlink:href="#DejaVuSans-Bold-56" transform="translate(907.265625 0)"/>
     <use xlink:href="#DejaVuSans-Bold-3" transform="translate(966.78125 0)"/>
     <use xlink:href="#DejaVuSans-Bold-21" transform="translate(1001.59375 0)"/>
     <use xlink:href="#DejaVuSans-Bold-3" transform="translate(1085.390625 0)"/>
     <use xlink:href="#DejaVuSans-Bold-13" transform="translate(1120.203125 0)"/>
     <use xlink:href="#DejaVuSans-Bold-c" transform="translate(1189.78125 0)"/>
    </g>
   </g>
  </g>
  <g id="text_9">
   <!-- Sharp plan vs blurred plan -->
   <g style="fill: #1a237e" transform="translate(175.857457 18.517969) scale(0.13 -0.13)">
    <defs>
     <path id="DejaVuSans-Bold-36" d="M 3834 4519 
L 3834 3531 
Q 3450 3703 3084 3790 
Q 2719 3878 2394 3878 
Q 1963 3878 1756 3759 
Q 1550 3641 1550 3391 
Q 1550 3203 1689 3098 
Q 1828 2994 2194 2919 
L 2706 2816 
Q 3484 2659 3812 2340 
Q 4141 2022 4141 1434 
Q 4141 663 3683 286 
Q 3225 -91 2284 -91 
Q 1841 -91 1394 -6 
Q 947 78 500 244 
L 500 1259 
Q 947 1022 1364 901 
Q 1781 781 2169 781 
Q 2563 781 2772 912 
Q 2981 1044 2981 1288 
Q 2981 1506 2839 1625 
Q 2697 1744 2272 1838 
L 1806 1941 
Q 1106 2091 782 2419 
Q 459 2747 459 3303 
Q 459 4000 909 4375 
Q 1359 4750 2203 4750 
Q 2588 4750 2994 4692 
Q 3400 4634 3834 4519 
z
" transform="scale(0.015625)"/>
     <path id="DejaVuSans-Bold-4b" d="M 4056 2131 
L 4056 0 
L 2931 0 
L 2931 347 
L 2931 1625 
Q 2931 2084 2911 2256 
Q 2891 2428 2841 2509 
Q 2775 2619 2662 2680 
Q 2550 2741 2406 2741 
Q 2056 2741 1856 2470 
Q 1656 2200 1656 1722 
L 1656 0 
L 538 0 
L 538 4863 
L 1656 4863 
L 1656 2988 
Q 1909 3294 2193 3439 
Q 2478 3584 2822 3584 
Q 3428 3584 3742 3212 
Q 4056 2841 4056 2131 
z
" transform="scale(0.015625)"/>
     <path id="DejaVuSans-Bold-51" d="M 4056 2131 
L 4056 0 
L 2931 0 
L 2931 347 
L 2931 1631 
Q 2931 2084 2911 2256 
Q 2891 2428 2841 2509 
Q 2775 2619 2662 2680 
Q 2550 2741 2406 2741 
Q 2056 2741 1856 2470 
Q 1656 2200 1656 1722 
L 1656 0 
L 538 0 
L 538 3500 
L 1656 3500 
L 1656 2988 
Q 1909 3294 2193 3439 
Q 2478 3584 2822 3584 
Q 3428 3584 3742 3212 
Q 4056 2841 4056 2131 
z
" transform="scale(0.015625)"/>
     <path id="DejaVuSans-Bold-59" d="M 97 3500 
L 1216 3500 
L 2088 1081 
L 2956 3500 
L 4078 3500 
L 2700 0 
L 1472 0 
L 97 3500 
z
" transform="scale(0.015625)"/>
     <path id="DejaVuSans-Bold-45" d="M 2400 722 
Q 2759 722 2948 984 
Q 3138 1247 3138 1747 
Q 3138 2247 2948 2509 
Q 2759 2772 2400 2772 
Q 2041 2772 1848 2508 
Q 1656 2244 1656 1747 
Q 1656 1250 1848 986 
Q 2041 722 2400 722 
z
M 1656 2988 
Q 1888 3294 2169 3439 
Q 2450 3584 2816 3584 
Q 3463 3584 3878 3070 
Q 4294 2556 4294 1747 
Q 4294 938 3878 423 
Q 3463 -91 2816 -91 
Q 2450 -91 2169 54 
Q 1888 200 1656 506 
L 1656 0 
L 538 0 
L 538 4863 
L 1656 4863 
L 1656 2988 
z
" transform="scale(0.015625)"/>
     <path id="DejaVuSans-Bold-47" d="M 2919 2988 
L 2919 4863 
L 4044 4863 
L 4044 0 
L 2919 0 
L 2919 506 
Q 2688 197 2409 53 
Q 2131 -91 1766 -91 
Q 1119 -91 703 423 
Q 288 938 288 1747 
Q 288 2556 703 3070 
Q 1119 3584 1766 3584 
Q 2128 3584 2408 3439 
Q 2688 3294 2919 2988 
z
M 2181 722 
Q 2541 722 2730 984 
Q 2919 1247 2919 1747 
Q 2919 2247 2730 2509 
Q 2541 2772 2181 2772 
Q 1825 2772 1636 2509 
Q 1447 2247 1447 1747 
Q 1447 1247 1636 984 
Q 1825 722 2181 722 
z
" transform="scale(0.015625)"/>
    </defs>
    <use xlink:href="#DejaVuSans-Bold-36"/>
    <use xlink:href="#DejaVuSans-Bold-4b" transform="translate(72.015625 0)"/>
    <use xlink:href="#DejaVuSans-Bold-44" transform="translate(143.203125 0)"/>
    <use xlink:href="#DejaVuSans-Bold-55" transform="translate(210.6875 0)"/>
    <use xlink:href="#DejaVuSans-Bold-53" transform="translate(260 0)"/>
    <use xlink:href="#DejaVuSans-Bold-3" transform="translate(331.578125 0)"/>
    <use xlink:href="#DejaVuSans-Bold-53" transform="translate(366.390625 0)"/>
    <use xlink:href="#DejaVuSans-Bold-4f" transform="translate(437.96875 0)"/>
    <use xlink:href="#DejaVuSans-Bold-44" transform="translate(472.25 0)"/>
    <use xlink:href="#DejaVuSans-Bold-51" transform="translate(539.734375 0)"/>
    <use xlink:href="#DejaVuSans-Bold-3" transform="translate(610.921875 0)"/>
    <use xlink:href="#DejaVuSans-Bold-59" transform="translate(645.734375 0)"/>
    <use xlink:href="#DejaVuSans-Bold-56" transform="translate(710.921875 0)"/>
    <use xlink:href="#DejaVuSans-Bold-3" transform="translate(770.4375 0)"/>
    <use xlink:href="#DejaVuSans-Bold-45" transform="translate(805.25 0)"/>
    <use xlink:href="#DejaVuSans-Bold-4f" transform="translate(876.828125 0)"/>
    <use xlink:href="#DejaVuSans-Bold-58" transform="translate(911.109375 0)"/>
    <use xlink:href="#DejaVuSans-Bold-55" transform="translate(982.296875 0)"/>
    <use xlink:href="#DejaVuSans-Bold-55" transform="translate(1031.609375 0)"/>
    <use xlink:href="#DejaVuSans-Bold-48" transform="translate(1080.921875 0)"/>
    <use xlink:href="#DejaVuSans-Bold-47" transform="translate(1148.75 0)"/>
    <use xlink:href="#DejaVuSans-Bold-3" transform="translate(1220.328125 0)"/>
    <use xlink:href="#DejaVuSans-Bold-53" transform="translate(1255.140625 0)"/>
    <use xlink:href="#DejaVuSans-Bold-4f" transform="translate(1326.71875 0)"/>
    <use xlink:href="#DejaVuSans-Bold-44" transform="translate(1361 0)"/>
    <use xlink:href="#DejaVuSans-Bold-51" transform="translate(1428.484375 0)"/>
   </g>
  </g>
 </g>
 <defs>
  <clipPath id="pb0cb9c5867">
   <rect x="8.64" y="59.207741" width="232.392259" height="232.392259"/>
  </clipPath>
  <clipPath id="p98d14c3af3">
   <rect x="305.64" y="59.207741" width="232.392259" height="232.392259"/>
  </clipPath>
 </defs>
</svg>
