<?xml version="1.0" encoding="utf-8" standalone="no"?>
<!DOCTYPE svg PUBLIC "-//W3C//DTD SVG 1.1//EN"
  "http://www.w3.org/Graphics/SVG/1.1/DTD/svg11.dtd">
<svg xmlns:xlink="http://www.w3.org/1999/xlink" width="479.16pt" height="276.624pt" viewBox="0 0 479.16 276.624" xmlns="http://www.w3.org/2000/svg" version="1.1">
 <metadata>
  <rdf:RDF xmlns:dc="http://purl.org/dc/elements/1.1/" xmlns:cc="http://creativecommons.org/ns#" xmlns:rdf="http://www.w3.org/1999/02/22-rdf-syntax-ns#">
   <cc:Work>
    <dc:type rdf:resource="http://purl.org/dc/dcmitype/StillImage"/>
    <dc:date>2026-07-18T04:17:53.988479</dc:date>
    <dc:format>image/svg+xml</dc:format>
    <dc:creator>
     <cc:Agent>
      <dc:title>Matplotlib v3.11.0, https://matplotlib.org/</dc:title>
     </cc:Agent>
    </dc:creator>
   </cc:Work>
  </rdf:RDF>
 </metadata>
 <defs>
  <style type="text/css">*{stroke-linejoin: round; stroke-linecap: butt}</style>
 </defs>
 <g id="figure_1">
  <g id="patch_1">
   <path d="M 0 276.624 
L 479.16 276.624 
L 479.16 0 
L 0 0 
z
" style="fill: #ffffff"/>
  </g>
  <g id="axes_1">
   <g id="patch_2">
    <path d="M 57.6999 118.83744 
L 119.4705 118.83744 
Q 124.96122 118.83744 124.96122 113.27328 
L 124.96122 89.16192 
Q 124.96122 83.59776 119.4705 83.59776 
L 57.6999 83.59776 
Q 52.20918 83.59776 52.20918 89.16192 
L 52.20918 113.27328 
Q 52.20918 118.83744 57.6999 118.83744 
z
" clip-path="url(#p1c5571d8de)" style="fill: #ffffff; stroke: #2e7d32; stroke-width: 1.6; stroke-linejoin: miter"/>
   </g>
   <g id="patch_3">
    <path d="M 57.6999 211.57344 
L 119.4705 211.57344 
Q 124.96122 211.57344 124.96122 206.00928 
L 124.96122 181.89792 
Q 124.96122 176.33376 119.4705 176.33376 
L 57.6999 176.33376 
Q 52.20918 176.33376 52.20918 181.89792 
L 52.20918 206.00928 
Q 52.20918 211.57344 57.6999 211.57344 
z
" clip-path="url(#p1c5571d8de)" style="fill: #ffffff; stroke: #2e7d32; stroke-width: 1.6; stroke-linejoin: miter"/>
   </g>
   <g id="patch_4">
    <path d="M 254.4507 118.83744 
L 316.2213 118.83744 
Q 321.71202 118.83744 321.71202 113.27328 
L 321.71202 89.16192 
Q 321.71202 83.59776 316.2213 83.59776 
L 254.4507 83.59776 
Q 248.95998 83.59776 248.95998 89.16192 
L 248.95998 113.27328 
Q 248.95998 118.83744 254.4507 118.83744 
z
" clip-path="url(#p1c5571d8de)" style="fill: #ffffff; stroke: #c62828; stroke-width: 1.6; stroke-linejoin: miter"/>
   </g>
   <g id="patch_5">
    <path d="M 254.4507 211.57344 
L 316.2213 211.57344 
Q 321.71202 211.57344 321.71202 206.00928 
L 321.71202 181.89792 
Q 321.71202 176.33376 316.2213 176.33376 
L 254.4507 176.33376 
Q 248.95998 176.33376 248.95998 181.89792 
L 248.95998 206.00928 
Q 248.95998 211.57344 254.4507 211.57344 
z
" clip-path="url(#p1c5571d8de)" style="fill: #ffffff; stroke: #c62828; stroke-width: 1.6; stroke-linejoin: miter"/>
   </g>
   <g id="patch_6">
    <path d="M 351.6822 213.42816 
L 450.0576 213.42816 
Q 455.54832 213.42816 455.54832 207.864 
L 455.54832 73.3968 
Q 455.54832 67.83264 450.0576 67.83264 
L 351.6822 67.83264 
Q 346.19148 67.83264 346.19148 73.3968 
L 346.19148 207.864 
Q 346.19148 213.42816 351.6822 213.42816 
z
" clip-path="url(#p1c5571d8de)" style="fill: #f5f7ff; stroke: #c5cae9; stroke-width: 1.2; stroke-linejoin: miter"/>
   </g>
   <g id="text_1">
    <!-- Monge vs Kantorovich — tiny example -->
    <g style="fill: #1a237e" transform="translate(99.547656 28.087861) scale(0.13 -0.13)">
     <defs>
      <path id="DejaVuSans-Bold-30" d="M 588 4666 
L 2119 4666 
L 3181 2169 
L 4250 4666 
L 5778 4666 
L 5778 0 
L 4641 0 
L 4641 3413 
L 3566 897 
L 2803 897 
L 1728 3413 
L 1728 0 
L 588 0 
L 588 4666 
z
" transform="scale(0.015625)"/>
      <path id="DejaVuSans-Bold-52" d="M 2203 2784 
Q 1831 2784 1636 2517 
Q 1441 2250 1441 1747 
Q 1441 1244 1636 976 
Q 1831 709 2203 709 
Q 2569 709 2762 976 
Q 2956 1244 2956 1747 
Q 2956 2250 2762 2517 
Q 2569 2784 2203 2784 
z
M 2203 3584 
Q 3106 3584 3614 3096 
Q 4122 2609 4122 1747 
Q 4122 884 3614 396 
Q 3106 -91 2203 -91 
Q 1297 -91 786 396 
Q 275 884 275 1747 
Q 275 2609 786 3096 
Q 1297 3584 2203 3584 
z
" transform="scale(0.015625)"/>
      <path id="DejaVuSans-Bold-51" d="M 4056 2131 
L 4056 0 
L 2931 0 
L 2931 347 
L 2931 1631 
Q 2931 2084 2911 2256 
Q 2891 2428 2841 2509 
Q 2775 2619 2662 2680 
Q 2550 2741 2406 2741 
Q 2056 2741 1856 2470 
Q 1656 2200 1656 1722 
L 1656 0 
L 538 0 
L 538 3500 
L 1656 3500 
L 1656 2988 
Q 1909 3294 2193 3439 
Q 2478 3584 2822 3584 
Q 3428 3584 3742 3212 
Q 4056 2841 4056 2131 
z
" transform="scale(0.015625)"/>
      <path id="DejaVuSans-Bold-4a" d="M 2919 594 
Q 2688 288 2409 144 
Q 2131 0 1766 0 
Q 1125 0 706 504 
Q 288 1009 288 1791 
Q 288 2575 706 3076 
Q 1125 3578 1766 3578 
Q 2131 3578 2409 3434 
Q 2688 3291 2919 2981 
L 2919 3500 
L 4044 3500 
L 4044 353 
Q 4044 -491 3511 -936 
Q 2978 -1381 1966 -1381 
Q 1638 -1381 1331 -1331 
Q 1025 -1281 716 -1178 
L 716 -306 
Q 1009 -475 1290 -558 
Q 1572 -641 1856 -641 
Q 2406 -641 2662 -400 
Q 2919 -159 2919 353 
L 2919 594 
z
M 2181 2772 
Q 1834 2772 1640 2515 
Q 1447 2259 1447 1791 
Q 1447 1309 1634 1061 
Q 1822 813 2181 813 
Q 2531 813 2725 1069 
Q 2919 1325 2919 1791 
Q 2919 2259 2725 2515 
Q 2531 2772 2181 2772 
z
" transform="scale(0.015625)"/>
      <path id="DejaVuSans-Bold-48" d="M 4031 1759 
L 4031 1441 
L 1416 1441 
Q 1456 1047 1700 850 
Q 1944 653 2381 653 
Q 2734 653 3104 758 
Q 3475 863 3866 1075 
L 3866 213 
Q 3469 63 3072 -14 
Q 2675 -91 2278 -91 
Q 1328 -91 801 392 
Q 275 875 275 1747 
Q 275 2603 792 3093 
Q 1309 3584 2216 3584 
Q 3041 3584 3536 3087 
Q 4031 2591 4031 1759 
z
M 2881 2131 
Q 2881 2450 2695 2645 
Q 2509 2841 2209 2841 
Q 1884 2841 1681 2658 
Q 1478 2475 1428 2131 
L 2881 2131 
z
" transform="scale(0.015625)"/>
      <path id="DejaVuSans-Bold-3" transform="scale(0.015625)"/>
      <path id="DejaVuSans-Bold-59" d="M 97 3500 
L 1216 3500 
L 2088 1081 
L 2956 3500 
L 4078 3500 
L 2700 0 
L 1472 0 
L 97 3500 
z
" transform="scale(0.015625)"/>
      <path id="DejaVuSans-Bold-56" d="M 3272 3391 
L 3272 2541 
Q 2913 2691 2578 2766 
Q 2244 2841 1947 2841 
Q 1628 2841 1473 2761 
Q 1319 2681 1319 2516 
Q 1319 2381 1436 2309 
Q 1553 2238 1856 2203 
L 2053 2175 
Q 2913 2066 3209 1816 
Q 3506 1566 3506 1031 
Q 3506 472 3093 190 
Q 2681 -91 1863 -91 
Q 1516 -91 1145 -36 
Q 775 19 384 128 
L 384 978 
Q 719 816 1070 734 
Q 1422 653 1784 653 
Q 2113 653 2278 743 
Q 2444 834 2444 1013 
Q 2444 1163 2330 1236 
Q 2216 1309 1875 1350 
L 1678 1375 
Q 931 1469 631 1722 
Q 331 1975 331 2491 
Q 331 3047 712 3315 
Q 1094 3584 1881 3584 
Q 2191 3584 2531 3537 
Q 2872 3491 3272 3391 
z
" transform="scale(0.015625)"/>
      <path id="DejaVuSans-Bold-2e" d="M 588 4666 
L 1791 4666 
L 1791 2963 
L 3525 4666 
L 4922 4666 
L 2675 2456 
L 5153 0 
L 3647 0 
L 1791 1838 
L 1791 0 
L 588 0 
L 588 4666 
z
" transform="scale(0.015625)"/>
      <path id="DejaVuSans-Bold-44" d="M 2106 1575 
Q 1756 1575 1579 1456 
Q 1403 1338 1403 1106 
Q 1403 894 1545 773 
Q 1688 653 1941 653 
Q 2256 653 2472 879 
Q 2688 1106 2688 1447 
L 2688 1575 
L 2106 1575 
z
M 3816 1997 
L 3816 0 
L 2688 0 
L 2688 519 
Q 2463 200 2181 54 
Q 1900 -91 1497 -91 
Q 953 -91 614 226 
Q 275 544 275 1050 
Q 275 1666 698 1953 
Q 1122 2241 2028 2241 
L 2688 2241 
L 2688 2328 
Q 2688 2594 2478 2717 
Q 2269 2841 1825 2841 
Q 1466 2841 1156 2769 
Q 847 2697 581 2553 
L 581 3406 
Q 941 3494 1303 3539 
Q 1666 3584 2028 3584 
Q 2975 3584 3395 3211 
Q 3816 2838 3816 1997 
z
" transform="scale(0.015625)"/>
      <path id="DejaVuSans-Bold-57" d="M 1759 4494 
L 1759 3500 
L 2913 3500 
L 2913 2700 
L 1759 2700 
L 1759 1216 
Q 1759 972 1856 886 
Q 1953 800 2241 800 
L 2816 800 
L 2816 0 
L 1856 0 
Q 1194 0 917 276 
Q 641 553 641 1216 
L 641 2700 
L 84 2700 
L 84 3500 
L 641 3500 
L 641 4494 
L 1759 4494 
z
" transform="scale(0.015625)"/>
      <path id="DejaVuSans-Bold-55" d="M 3138 2547 
Q 2991 2616 2845 2648 
Q 2700 2681 2553 2681 
Q 2122 2681 1889 2404 
Q 1656 2128 1656 1613 
L 1656 0 
L 538 0 
L 538 3500 
L 1656 3500 
L 1656 2925 
Q 1872 3269 2151 3426 
Q 2431 3584 2822 3584 
Q 2878 3584 2943 3579 
Q 3009 3575 3134 3559 
L 3138 2547 
z
" transform="scale(0.015625)"/>
      <path id="DejaVuSans-Bold-4c" d="M 538 3500 
L 1656 3500 
L 1656 0 
L 538 0 
L 538 3500 
z
M 538 4863 
L 1656 4863 
L 1656 3950 
L 538 3950 
L 538 4863 
z
" transform="scale(0.015625)"/>
      <path id="DejaVuSans-Bold-46" d="M 3366 3391 
L 3366 2478 
Q 3138 2634 2908 2709 
Q 2678 2784 2431 2784 
Q 1963 2784 1702 2511 
Q 1441 2238 1441 1747 
Q 1441 1256 1702 982 
Q 1963 709 2431 709 
Q 2694 709 2930 787 
Q 3166 866 3366 1019 
L 3366 103 
Q 3103 6 2833 -42 
Q 2563 -91 2291 -91 
Q 1344 -91 809 395 
Q 275 881 275 1747 
Q 275 2613 809 3098 
Q 1344 3584 2291 3584 
Q 2566 3584 2833 3536 
Q 3100 3488 3366 3391 
z
" transform="scale(0.015625)"/>
      <path id="DejaVuSans-Bold-4b" d="M 4056 2131 
L 4056 0 
L 2931 0 
L 2931 347 
L 2931 1625 
Q 2931 2084 2911 2256 
Q 2891 2428 2841 2509 
Q 2775 2619 2662 2680 
Q 2550 2741 2406 2741 
Q 2056 2741 1856 2470 
Q 1656 2200 1656 1722 
L 1656 0 
L 538 0 
L 538 4863 
L 1656 4863 
L 1656 2988 
Q 1909 3294 2193 3439 
Q 2478 3584 2822 3584 
Q 3428 3584 3742 3212 
Q 4056 2841 4056 2131 
z
" transform="scale(0.015625)"/>
      <path id="DejaVuSans-Bold-af6" d="M 344 2156 
L 6056 2156 
L 6056 1350 
L 344 1350 
L 344 2156 
z
" transform="scale(0.015625)"/>
      <path id="DejaVuSans-Bold-5c" d="M 78 3500 
L 1197 3500 
L 2138 1125 
L 2938 3500 
L 4056 3500 
L 2584 -331 
Q 2363 -916 2067 -1148 
Q 1772 -1381 1288 -1381 
L 641 -1381 
L 641 -647 
L 991 -647 
Q 1275 -647 1404 -556 
Q 1534 -466 1606 -231 
L 1638 -134 
L 78 3500 
z
" transform="scale(0.015625)"/>
      <path id="DejaVuSans-Bold-5b" d="M 1422 1791 
L 159 3500 
L 1344 3500 
L 2059 2463 
L 2784 3500 
L 3969 3500 
L 2706 1797 
L 4031 0 
L 2847 0 
L 2059 1106 
L 1281 0 
L 97 0 
L 1422 1791 
z
" transform="scale(0.015625)"/>
      <path id="DejaVuSans-Bold-50" d="M 3781 2919 
Q 3994 3244 4286 3414 
Q 4578 3584 4928 3584 
Q 5531 3584 5847 3212 
Q 6163 2841 6163 2131 
L 6163 0 
L 5038 0 
L 5038 1825 
Q 5041 1866 5042 1909 
Q 5044 1953 5044 2034 
Q 5044 2406 4934 2573 
Q 4825 2741 4581 2741 
Q 4263 2741 4089 2478 
Q 3916 2216 3909 1719 
L 3909 0 
L 2784 0 
L 2784 1825 
Q 2784 2406 2684 2573 
Q 2584 2741 2328 2741 
Q 2006 2741 1831 2477 
Q 1656 2213 1656 1722 
L 1656 0 
L 531 0 
L 531 3500 
L 1656 3500 
L 1656 2988 
Q 1863 3284 2130 3434 
Q 2397 3584 2719 3584 
Q 3081 3584 3359 3409 
Q 3638 3234 3781 2919 
z
" transform="scale(0.015625)"/>
      <path id="DejaVuSans-Bold-53" d="M 1656 506 
L 1656 -1331 
L 538 -1331 
L 538 3500 
L 1656 3500 
L 1656 2988 
Q 1888 3294 2169 3439 
Q 2450 3584 2816 3584 
Q 3463 3584 3878 3070 
Q 4294 2556 4294 1747 
Q 4294 938 3878 423 
Q 3463 -91 2816 -91 
Q 2450 -91 2169 54 
Q 1888 200 1656 506 
z
M 2400 2772 
Q 2041 2772 1848 2508 
Q 1656 2244 1656 1747 
Q 1656 1250 1848 986 
Q 2041 722 2400 722 
Q 2759 722 2948 984 
Q 3138 1247 3138 1747 
Q 3138 2247 2948 2509 
Q 2759 2772 2400 2772 
z
" transform="scale(0.015625)"/>
      <path id="DejaVuSans-Bold-4f" d="M 538 4863 
L 1656 4863 
L 1656 0 
L 538 0 
L 538 4863 
z
" transform="scale(0.015625)"/>
     </defs>
     <use xlink:href="#DejaVuSans-Bold-30"/>
     <use xlink:href="#DejaVuSans-Bold-52" transform="translate(99.515625 0)"/>
     <use xlink:href="#DejaVuSans-Bold-51" transform="translate(168.21875 0)"/>
     <use xlink:href="#DejaVuSans-Bold-4a" transform="translate(239.40625 0)"/>
     <use xlink:href="#DejaVuSans-Bold-48" transform="translate(310.984375 0)"/>
     <use xlink:href="#DejaVuSans-Bold-3" transform="translate(378.8125 0)"/>
     <use xlink:href="#DejaVuSans-Bold-59" transform="translate(413.625 0)"/>
     <use xlink:href="#DejaVuSans-Bold-56" transform="translate(478.8125 0)"/>
     <use xlink:href="#DejaVuSans-Bold-3" transform="translate(538.328125 0)"/>
     <use xlink:href="#DejaVuSans-Bold-2e" transform="translate(573.140625 0)"/>
     <use xlink:href="#DejaVuSans-Bold-44" transform="translate(650.625 0)"/>
     <use xlink:href="#DejaVuSans-Bold-51" transform="translate(718.109375 0)"/>
     <use xlink:href="#DejaVuSans-Bold-57" transform="translate(789.296875 0)"/>
     <use xlink:href="#DejaVuSans-Bold-52" transform="translate(837.09375 0)"/>
     <use xlink:href="#DejaVuSans-Bold-55" transform="translate(905.796875 0)"/>
     <use xlink:href="#DejaVuSans-Bold-52" transform="translate(955.109375 0)"/>
     <use xlink:href="#DejaVuSans-Bold-59" transform="translate(1023.8125 0)"/>
     <use xlink:href="#DejaVuSans-Bold-4c" transform="translate(1089 0)"/>
     <use xlink:href="#DejaVuSans-Bold-46" transform="translate(1123.28125 0)"/>
     <use xlink:href="#DejaVuSans-Bold-4b" transform="translate(1182.5625 0)"/>
     <use xlink:href="#DejaVuSans-Bold-3" transform="translate(1253.75 0)"/>
     <use xlink:href="#DejaVuSans-Bold-af6" transform="translate(1288.5625 0)"/>
     <use xlink:href="#DejaVuSans-Bold-3" transform="translate(1388.5625 0)"/>
     <use xlink:href="#DejaVuSans-Bold-57" transform="translate(1423.375 0)"/>
     <use xlink:href="#DejaVuSans-Bold-4c" transform="translate(1471.171875 0)"/>
     <use xlink:href="#DejaVuSans-Bold-51" transform="translate(1505.453125 0)"/>
     <use xlink:href="#DejaVuSans-Bold-5c" transform="translate(1576.640625 0)"/>
     <use xlink:href="#DejaVuSans-Bold-3" transform="translate(1641.828125 0)"/>
     <use xlink:href="#DejaVuSans-Bold-48" transform="translate(1676.640625 0)"/>
     <use xlink:href="#DejaVuSans-Bold-5b" transform="translate(1744.46875 0)"/>
     <use xlink:href="#DejaVuSans-Bold-44" transform="translate(1808.96875 0)"/>
     <use xlink:href="#DejaVuSans-Bold-50" transform="translate(1876.453125 0)"/>
     <use xlink:href="#DejaVuSans-Bold-53" transform="translate(1980.65625 0)"/>
     <use xlink:href="#DejaVuSans-Bold-4f" transform="translate(2052.234375 0)"/>
     <use xlink:href="#DejaVuSans-Bold-48" transform="translate(2086.515625 0)"/>
    </g>
   </g>
   <g id="text_2">
    <!-- Sources total 25 = targets total 25 · plan allows splitting -->
    <g style="fill: #607d8b" transform="translate(112.277813 43.277442) scale(0.09 -0.09)">
     <defs>
      <path id="DejaVuSans-36" d="M 3425 4513 
L 3425 3897 
Q 3066 4069 2747 4153 
Q 2428 4238 2131 4238 
Q 1616 4238 1336 4038 
Q 1056 3838 1056 3469 
Q 1056 3159 1242 3001 
Q 1428 2844 1947 2747 
L 2328 2669 
Q 3034 2534 3370 2195 
Q 3706 1856 3706 1288 
Q 3706 609 3251 259 
Q 2797 -91 1919 -91 
Q 1588 -91 1214 -16 
Q 841 59 441 206 
L 441 856 
Q 825 641 1194 531 
Q 1563 422 1919 422 
Q 2459 422 2753 634 
Q 3047 847 3047 1241 
Q 3047 1584 2836 1778 
Q 2625 1972 2144 2069 
L 1759 2144 
Q 1053 2284 737 2584 
Q 422 2884 422 3419 
Q 422 4038 858 4394 
Q 1294 4750 2059 4750 
Q 2388 4750 2728 4690 
Q 3069 4631 3425 4513 
z
" transform="scale(0.015625)"/>
      <path id="DejaVuSans-52" d="M 1959 3097 
Q 1497 3097 1228 2736 
Q 959 2375 959 1747 
Q 959 1119 1226 758 
Q 1494 397 1959 397 
Q 2419 397 2687 759 
Q 2956 1122 2956 1747 
Q 2956 2369 2687 2733 
Q 2419 3097 1959 3097 
z
M 1959 3584 
Q 2709 3584 3137 3096 
Q 3566 2609 3566 1747 
Q 3566 888 3137 398 
Q 2709 -91 1959 -91 
Q 1206 -91 779 398 
Q 353 888 353 1747 
Q 353 2609 779 3096 
Q 1206 3584 1959 3584 
z
" transform="scale(0.015625)"/>
      <path id="DejaVuSans-58" d="M 544 1381 
L 544 3500 
L 1119 3500 
L 1119 1403 
Q 1119 906 1312 657 
Q 1506 409 1894 409 
Q 2359 409 2629 706 
Q 2900 1003 2900 1516 
L 2900 3500 
L 3475 3500 
L 3475 0 
L 2900 0 
L 2900 538 
Q 2691 219 2414 64 
Q 2138 -91 1772 -91 
Q 1169 -91 856 284 
Q 544 659 544 1381 
z
M 1991 3584 
L 1991 3584 
z
" transform="scale(0.015625)"/>
      <path id="DejaVuSans-55" d="M 2631 2963 
Q 2534 3019 2420 3045 
Q 2306 3072 2169 3072 
Q 1681 3072 1420 2755 
Q 1159 2438 1159 1844 
L 1159 0 
L 581 0 
L 581 3500 
L 1159 3500 
L 1159 2956 
Q 1341 3275 1631 3429 
Q 1922 3584 2338 3584 
Q 2397 3584 2469 3576 
Q 2541 3569 2628 3553 
L 2631 2963 
z
" transform="scale(0.015625)"/>
      <path id="DejaVuSans-46" d="M 3122 3366 
L 3122 2828 
Q 2878 2963 2633 3030 
Q 2388 3097 2138 3097 
Q 1578 3097 1268 2742 
Q 959 2388 959 1747 
Q 959 1106 1268 751 
Q 1578 397 2138 397 
Q 2388 397 2633 464 
Q 2878 531 3122 666 
L 3122 134 
Q 2881 22 2623 -34 
Q 2366 -91 2075 -91 
Q 1284 -91 818 406 
Q 353 903 353 1747 
Q 353 2603 823 3093 
Q 1294 3584 2113 3584 
Q 2378 3584 2631 3529 
Q 2884 3475 3122 3366 
z
" transform="scale(0.015625)"/>
      <path id="DejaVuSans-48" d="M 3597 1894 
L 3597 1613 
L 953 1613 
Q 991 1019 1311 708 
Q 1631 397 2203 397 
Q 2534 397 2845 478 
Q 3156 559 3463 722 
L 3463 178 
Q 3153 47 2828 -22 
Q 2503 -91 2169 -91 
Q 1331 -91 842 396 
Q 353 884 353 1716 
Q 353 2575 817 3079 
Q 1281 3584 2069 3584 
Q 2775 3584 3186 3129 
Q 3597 2675 3597 1894 
z
M 3022 2063 
Q 3016 2534 2758 2815 
Q 2500 3097 2075 3097 
Q 1594 3097 1305 2825 
Q 1016 2553 972 2059 
L 3022 2063 
z
" transform="scale(0.015625)"/>
      <path id="DejaVuSans-56" d="M 2834 3397 
L 2834 2853 
Q 2591 2978 2328 3040 
Q 2066 3103 1784 3103 
Q 1356 3103 1142 2972 
Q 928 2841 928 2578 
Q 928 2378 1081 2264 
Q 1234 2150 1697 2047 
L 1894 2003 
Q 2506 1872 2764 1633 
Q 3022 1394 3022 966 
Q 3022 478 2636 193 
Q 2250 -91 1575 -91 
Q 1294 -91 989 -36 
Q 684 19 347 128 
L 347 722 
Q 666 556 975 473 
Q 1284 391 1588 391 
Q 1994 391 2212 530 
Q 2431 669 2431 922 
Q 2431 1156 2273 1281 
Q 2116 1406 1581 1522 
L 1381 1569 
Q 847 1681 609 1914 
Q 372 2147 372 2553 
Q 372 3047 722 3315 
Q 1072 3584 1716 3584 
Q 2034 3584 2315 3537 
Q 2597 3491 2834 3397 
z
" transform="scale(0.015625)"/>
      <path id="DejaVuSans-3" transform="scale(0.015625)"/>
      <path id="DejaVuSans-57" d="M 1172 4494 
L 1172 3500 
L 2356 3500 
L 2356 3053 
L 1172 3053 
L 1172 1153 
Q 1172 725 1289 603 
Q 1406 481 1766 481 
L 2356 481 
L 2356 0 
L 1766 0 
Q 1100 0 847 248 
Q 594 497 594 1153 
L 594 3053 
L 172 3053 
L 172 3500 
L 594 3500 
L 594 4494 
L 1172 4494 
z
" transform="scale(0.015625)"/>
      <path id="DejaVuSans-44" d="M 2194 1759 
Q 1497 1759 1228 1600 
Q 959 1441 959 1056 
Q 959 750 1161 570 
Q 1363 391 1709 391 
Q 2188 391 2477 730 
Q 2766 1069 2766 1631 
L 2766 1759 
L 2194 1759 
z
M 3341 1997 
L 3341 0 
L 2766 0 
L 2766 531 
Q 2569 213 2275 61 
Q 1981 -91 1556 -91 
Q 1019 -91 701 211 
Q 384 513 384 1019 
Q 384 1609 779 1909 
Q 1175 2209 1959 2209 
L 2766 2209 
L 2766 2266 
Q 2766 2663 2505 2880 
Q 2244 3097 1772 3097 
Q 1472 3097 1187 3025 
Q 903 2953 641 2809 
L 641 3341 
Q 956 3463 1253 3523 
Q 1550 3584 1831 3584 
Q 2591 3584 2966 3190 
Q 3341 2797 3341 1997 
z
" transform="scale(0.015625)"/>
      <path id="DejaVuSans-4f" d="M 603 4863 
L 1178 4863 
L 1178 0 
L 603 0 
L 603 4863 
z
" transform="scale(0.015625)"/>
      <path id="DejaVuSans-15" d="M 1228 531 
L 3431 531 
L 3431 0 
L 469 0 
L 469 531 
Q 828 903 1448 1529 
Q 2069 2156 2228 2338 
Q 2531 2678 2651 2914 
Q 2772 3150 2772 3378 
Q 2772 3750 2511 3984 
Q 2250 4219 1831 4219 
Q 1534 4219 1204 4116 
Q 875 4013 500 3803 
L 500 4441 
Q 881 4594 1212 4672 
Q 1544 4750 1819 4750 
Q 2544 4750 2975 4387 
Q 3406 4025 3406 3419 
Q 3406 3131 3298 2873 
Q 3191 2616 2906 2266 
Q 2828 2175 2409 1742 
Q 1991 1309 1228 531 
z
" transform="scale(0.015625)"/>
      <path id="DejaVuSans-18" d="M 691 4666 
L 3169 4666 
L 3169 4134 
L 1269 4134 
L 1269 2991 
Q 1406 3038 1543 3061 
Q 1681 3084 1819 3084 
Q 2600 3084 3056 2656 
Q 3513 2228 3513 1497 
Q 3513 744 3044 326 
Q 2575 -91 1722 -91 
Q 1428 -91 1123 -41 
Q 819 9 494 109 
L 494 744 
Q 775 591 1075 516 
Q 1375 441 1709 441 
Q 2250 441 2565 725 
Q 2881 1009 2881 1497 
Q 2881 1984 2565 2268 
Q 2250 2553 1709 2553 
Q 1456 2553 1204 2497 
Q 953 2441 691 2322 
L 691 4666 
z
" transform="scale(0.015625)"/>
      <path id="DejaVuSans-20" d="M 678 2906 
L 4684 2906 
L 4684 2381 
L 678 2381 
L 678 2906 
z
M 678 1631 
L 4684 1631 
L 4684 1100 
L 678 1100 
L 678 1631 
z
" transform="scale(0.015625)"/>
      <path id="DejaVuSans-4a" d="M 2906 1791 
Q 2906 2416 2648 2759 
Q 2391 3103 1925 3103 
Q 1463 3103 1205 2759 
Q 947 2416 947 1791 
Q 947 1169 1205 825 
Q 1463 481 1925 481 
Q 2391 481 2648 825 
Q 2906 1169 2906 1791 
z
M 3481 434 
Q 3481 -459 3084 -895 
Q 2688 -1331 1869 -1331 
Q 1566 -1331 1297 -1286 
Q 1028 -1241 775 -1147 
L 775 -588 
Q 1028 -725 1275 -790 
Q 1522 -856 1778 -856 
Q 2344 -856 2625 -561 
Q 2906 -266 2906 331 
L 2906 616 
Q 2728 306 2450 153 
Q 2172 0 1784 0 
Q 1141 0 747 490 
Q 353 981 353 1791 
Q 353 2603 747 3093 
Q 1141 3584 1784 3584 
Q 2172 3584 2450 3431 
Q 2728 3278 2906 2969 
L 2906 3500 
L 3481 3500 
L 3481 434 
z
" transform="scale(0.015625)"/>
      <path id="DejaVuSans-79" d="M 684 2619 
L 1344 2619 
L 1344 1825 
L 684 1825 
L 684 2619 
z
" transform="scale(0.015625)"/>
      <path id="DejaVuSans-53" d="M 1159 525 
L 1159 -1331 
L 581 -1331 
L 581 3500 
L 1159 3500 
L 1159 2969 
Q 1341 3281 1617 3432 
Q 1894 3584 2278 3584 
Q 2916 3584 3314 3078 
Q 3713 2572 3713 1747 
Q 3713 922 3314 415 
Q 2916 -91 2278 -91 
Q 1894 -91 1617 61 
Q 1341 213 1159 525 
z
M 3116 1747 
Q 3116 2381 2855 2742 
Q 2594 3103 2138 3103 
Q 1681 3103 1420 2742 
Q 1159 2381 1159 1747 
Q 1159 1113 1420 752 
Q 1681 391 2138 391 
Q 2594 391 2855 752 
Q 3116 1113 3116 1747 
z
" transform="scale(0.015625)"/>
      <path id="DejaVuSans-51" d="M 3513 2113 
L 3513 0 
L 2938 0 
L 2938 2094 
Q 2938 2591 2744 2837 
Q 2550 3084 2163 3084 
Q 1697 3084 1428 2787 
Q 1159 2491 1159 1978 
L 1159 0 
L 581 0 
L 581 3500 
L 1159 3500 
L 1159 2956 
Q 1366 3272 1645 3428 
Q 1925 3584 2291 3584 
Q 2894 3584 3203 3211 
Q 3513 2838 3513 2113 
z
" transform="scale(0.015625)"/>
      <path id="DejaVuSans-5a" d="M 269 3500 
L 844 3500 
L 1563 769 
L 2278 3500 
L 2956 3500 
L 3675 769 
L 4391 3500 
L 4966 3500 
L 4050 0 
L 3372 0 
L 2619 2869 
L 1863 0 
L 1184 0 
L 269 3500 
z
" transform="scale(0.015625)"/>
      <path id="DejaVuSans-4c" d="M 603 3500 
L 1178 3500 
L 1178 0 
L 603 0 
L 603 3500 
z
M 603 4863 
L 1178 4863 
L 1178 4134 
L 603 4134 
L 603 4863 
z
" transform="scale(0.015625)"/>
     </defs>
     <use xlink:href="#DejaVuSans-36"/>
     <use xlink:href="#DejaVuSans-52" transform="translate(63.484375 0)"/>
     <use xlink:href="#DejaVuSans-58" transform="translate(124.671875 0)"/>
     <use xlink:href="#DejaVuSans-55" transform="translate(188.046875 0)"/>
     <use xlink:href="#DejaVuSans-46" transform="translate(226.953125 0)"/>
     <use xlink:href="#DejaVuSans-48" transform="translate(281.9375 0)"/>
     <use xlink:href="#DejaVuSans-56" transform="translate(343.46875 0)"/>
     <use xlink:href="#DejaVuSans-3" transform="translate(395.5625 0)"/>
     <use xlink:href="#DejaVuSans-57" transform="translate(427.34375 0)"/>
     <use xlink:href="#DejaVuSans-52" transform="translate(466.546875 0)"/>
     <use xlink:href="#DejaVuSans-57" transform="translate(527.734375 0)"/>
     <use xlink:href="#DejaVuSans-44" transform="translate(566.9375 0)"/>
     <use xlink:href="#DejaVuSans-4f" transform="translate(628.21875 0)"/>
     <use xlink:href="#DejaVuSans-3" transform="translate(656 0)"/>
     <use xlink:href="#DejaVuSans-15" transform="translate(687.78125 0)"/>
     <use xlink:href="#DejaVuSans-18" transform="translate(751.40625 0)"/>
     <use xlink:href="#DejaVuSans-3" transform="translate(815.03125 0)"/>
     <use xlink:href="#DejaVuSans-20" transform="translate(846.8125 0)"/>
     <use xlink:href="#DejaVuSans-3" transform="translate(930.609375 0)"/>
     <use xlink:href="#DejaVuSans-57" transform="translate(962.390625 0)"/>
     <use xlink:href="#DejaVuSans-44" transform="translate(1001.59375 0)"/>
     <use xlink:href="#DejaVuSans-55" transform="translate(1062.875 0)"/>
     <use xlink:href="#DejaVuSans-4a" transform="translate(1102.234375 0)"/>
     <use xlink:href="#DejaVuSans-48" transform="translate(1165.71875 0)"/>
     <use xlink:href="#DejaVuSans-57" transform="translate(1227.25 0)"/>
     <use xlink:href="#DejaVuSans-56" transform="translate(1266.453125 0)"/>
     <use xlink:href="#DejaVuSans-3" transform="translate(1318.546875 0)"/>
     <use xlink:href="#DejaVuSans-57" transform="translate(1350.328125 0)"/>
     <use xlink:href="#DejaVuSans-52" transform="translate(1389.53125 0)"/>
     <use xlink:href="#DejaVuSans-57" transform="translate(1450.71875 0)"/>
     <use xlink:href="#DejaVuSans-44" transform="translate(1489.921875 0)"/>
     <use xlink:href="#DejaVuSans-4f" transform="translate(1551.203125 0)"/>
     <use xlink:href="#DejaVuSans-3" transform="translate(1578.984375 0)"/>
     <use xlink:href="#DejaVuSans-15" transform="translate(1610.765625 0)"/>
     <use xlink:href="#DejaVuSans-18" transform="translate(1674.390625 0)"/>
     <use xlink:href="#DejaVuSans-3" transform="translate(1738.015625 0)"/>
     <use xlink:href="#DejaVuSans-79" transform="translate(1769.796875 0)"/>
     <use xlink:href="#DejaVuSans-3" transform="translate(1801.578125 0)"/>
     <use xlink:href="#DejaVuSans-53" transform="translate(1833.359375 0)"/>
     <use xlink:href="#DejaVuSans-4f" transform="translate(1896.84375 0)"/>
     <use xlink:href="#DejaVuSans-44" transform="translate(1924.625 0)"/>
     <use xlink:href="#DejaVuSans-51" transform="translate(1985.90625 0)"/>
     <use xlink:href="#DejaVuSans-3" transform="translate(2049.28125 0)"/>
     <use xlink:href="#DejaVuSans-44" transform="translate(2081.0625 0)"/>
     <use xlink:href="#DejaVuSans-4f" transform="translate(2142.34375 0)"/>
     <use xlink:href="#DejaVuSans-4f" transform="translate(2170.125 0)"/>
     <use xlink:href="#DejaVuSans-52" transform="translate(2197.90625 0)"/>
     <use xlink:href="#DejaVuSans-5a" transform="translate(2259.09375 0)"/>
     <use xlink:href="#DejaVuSans-56" transform="translate(2340.875 0)"/>
     <use xlink:href="#DejaVuSans-3" transform="translate(2392.96875 0)"/>
     <use xlink:href="#DejaVuSans-56" transform="translate(2424.75 0)"/>
     <use xlink:href="#DejaVuSans-53" transform="translate(2476.84375 0)"/>
     <use xlink:href="#DejaVuSans-4f" transform="translate(2540.328125 0)"/>
     <use xlink:href="#DejaVuSans-4c" transform="translate(2568.109375 0)"/>
     <use xlink:href="#DejaVuSans-57" transform="translate(2595.890625 0)"/>
     <use xlink:href="#DejaVuSans-57" transform="translate(2635.09375 0)"/>
     <use xlink:href="#DejaVuSans-4c" transform="translate(2674.296875 0)"/>
     <use xlink:href="#DejaVuSans-51" transform="translate(2702.078125 0)"/>
     <use xlink:href="#DejaVuSans-4a" transform="translate(2765.453125 0)"/>
    </g>
   </g>
   <g id="text_3">
    <!-- m1 -->
    <g style="fill: #2e7d32" transform="translate(79.027231 100.365582) scale(0.11 -0.11)">
     <defs>
      <path id="DejaVuSans-Bold-14" d="M 750 831 
L 1813 831 
L 1813 3847 
L 722 3622 
L 722 4441 
L 1806 4666 
L 2950 4666 
L 2950 831 
L 4013 831 
L 4013 0 
L 750 0 
L 750 831 
z
" transform="scale(0.015625)"/>
     </defs>
     <use xlink:href="#DejaVuSans-Bold-50"/>
     <use xlink:href="#DejaVuSans-Bold-14" transform="translate(104.203125 0)"/>
    </g>
   </g>
   <g id="text_4">
    <!-- = 10 -->
    <g style="fill: #607d8b" transform="translate(77.050864 113.886333) scale(0.095 -0.095)">
     <defs>
      <path id="DejaVuSans-14" d="M 794 531 
L 1825 531 
L 1825 4091 
L 703 3866 
L 703 4441 
L 1819 4666 
L 2450 4666 
L 2450 531 
L 3481 531 
L 3481 0 
L 794 0 
L 794 531 
z
" transform="scale(0.015625)"/>
      <path id="DejaVuSans-13" d="M 2034 4250 
Q 1547 4250 1301 3770 
Q 1056 3291 1056 2328 
Q 1056 1369 1301 889 
Q 1547 409 2034 409 
Q 2525 409 2770 889 
Q 3016 1369 3016 2328 
Q 3016 3291 2770 3770 
Q 2525 4250 2034 4250 
z
M 2034 4750 
Q 2819 4750 3233 4129 
Q 3647 3509 3647 2328 
Q 3647 1150 3233 529 
Q 2819 -91 2034 -91 
Q 1250 -91 836 529 
Q 422 1150 422 2328 
Q 422 3509 836 4129 
Q 1250 4750 2034 4750 
z
" transform="scale(0.015625)"/>
     </defs>
     <use xlink:href="#DejaVuSans-20"/>
     <use xlink:href="#DejaVuSans-3" transform="translate(83.796875 0)"/>
     <use xlink:href="#DejaVuSans-14" transform="translate(115.578125 0)"/>
     <use xlink:href="#DejaVuSans-13" transform="translate(179.203125 0)"/>
    </g>
   </g>
   <g id="text_5">
    <!-- m2 -->
    <g style="fill: #2e7d32" transform="translate(79.027231 193.101582) scale(0.11 -0.11)">
     <defs>
      <path id="DejaVuSans-Bold-15" d="M 1844 884 
L 3897 884 
L 3897 0 
L 506 0 
L 506 884 
L 2209 2388 
Q 2438 2594 2547 2791 
Q 2656 2988 2656 3200 
Q 2656 3528 2436 3728 
Q 2216 3928 1850 3928 
Q 1569 3928 1234 3808 
Q 900 3688 519 3450 
L 519 4475 
Q 925 4609 1322 4679 
Q 1719 4750 2100 4750 
Q 2938 4750 3402 4381 
Q 3866 4013 3866 3353 
Q 3866 2972 3669 2642 
Q 3472 2313 2841 1759 
L 1844 884 
z
" transform="scale(0.015625)"/>
     </defs>
     <use xlink:href="#DejaVuSans-Bold-50"/>
     <use xlink:href="#DejaVuSans-Bold-15" transform="translate(104.203125 0)"/>
    </g>
   </g>
   <g id="text_6">
    <!-- = 15 -->
    <g style="fill: #607d8b" transform="translate(77.050864 206.622333) scale(0.095 -0.095)">
     <use xlink:href="#DejaVuSans-20"/>
     <use xlink:href="#DejaVuSans-3" transform="translate(83.796875 0)"/>
     <use xlink:href="#DejaVuSans-14" transform="translate(115.578125 0)"/>
     <use xlink:href="#DejaVuSans-18" transform="translate(179.203125 0)"/>
    </g>
   </g>
   <g id="text_7">
    <!-- mA -->
    <g style="fill: #c62828" transform="translate(275.348344 100.365582) scale(0.11 -0.11)">
     <defs>
      <path id="DejaVuSans-Bold-24" d="M 3419 850 
L 1538 850 
L 1241 0 
L 31 0 
L 1759 4666 
L 3194 4666 
L 4922 0 
L 3713 0 
L 3419 850 
z
M 1838 1716 
L 3116 1716 
L 2478 3572 
L 1838 1716 
z
" transform="scale(0.015625)"/>
     </defs>
     <use xlink:href="#DejaVuSans-Bold-50"/>
     <use xlink:href="#DejaVuSans-Bold-24" transform="translate(104.203125 0)"/>
    </g>
   </g>
   <g id="text_8">
    <!-- = 5 -->
    <g style="fill: #607d8b" transform="translate(276.823852 113.886333) scale(0.095 -0.095)">
     <use xlink:href="#DejaVuSans-20"/>
     <use xlink:href="#DejaVuSans-3" transform="translate(83.796875 0)"/>
     <use xlink:href="#DejaVuSans-18" transform="translate(115.578125 0)"/>
    </g>
   </g>
   <g id="text_9">
    <!-- mB -->
    <g style="fill: #c62828" transform="translate(275.412797 193.101582) scale(0.11 -0.11)">
     <defs>
      <path id="DejaVuSans-Bold-25" d="M 2456 2859 
Q 2741 2859 2887 2984 
Q 3034 3109 3034 3353 
Q 3034 3594 2887 3720 
Q 2741 3847 2456 3847 
L 1791 3847 
L 1791 2859 
L 2456 2859 
z
M 2497 819 
Q 2859 819 3042 972 
Q 3225 1125 3225 1434 
Q 3225 1738 3044 1889 
Q 2863 2041 2497 2041 
L 1791 2041 
L 1791 819 
L 2497 819 
z
M 3616 2497 
Q 4003 2384 4215 2081 
Q 4428 1778 4428 1338 
Q 4428 663 3972 331 
Q 3516 0 2584 0 
L 588 0 
L 588 4666 
L 2394 4666 
Q 3366 4666 3802 4372 
Q 4238 4078 4238 3431 
Q 4238 3091 4078 2852 
Q 3919 2613 3616 2497 
z
" transform="scale(0.015625)"/>
     </defs>
     <use xlink:href="#DejaVuSans-Bold-50"/>
     <use xlink:href="#DejaVuSans-Bold-25" transform="translate(104.203125 0)"/>
    </g>
   </g>
   <g id="text_10">
    <!-- = 20 -->
    <g style="fill: #607d8b" transform="translate(273.801664 206.622333) scale(0.095 -0.095)">
     <use xlink:href="#DejaVuSans-20"/>
     <use xlink:href="#DejaVuSans-3" transform="translate(83.796875 0)"/>
     <use xlink:href="#DejaVuSans-15" transform="translate(115.578125 0)"/>
     <use xlink:href="#DejaVuSans-13" transform="translate(179.203125 0)"/>
    </g>
   </g>
   <g id="text_11">
    <!-- sources -->
    <g style="fill: #2e7d32" transform="translate(70.083091 64.1232) scale(0.085 -0.085)">
     <defs>
      <path id="DejaVuSans-Bold-58" d="M 500 1363 
L 500 3500 
L 1625 3500 
L 1625 3150 
Q 1625 2866 1622 2436 
Q 1619 2006 1619 1863 
Q 1619 1441 1641 1255 
Q 1663 1069 1716 984 
Q 1784 875 1895 815 
Q 2006 756 2150 756 
Q 2500 756 2700 1025 
Q 2900 1294 2900 1772 
L 2900 3500 
L 4019 3500 
L 4019 0 
L 2900 0 
L 2900 506 
Q 2647 200 2364 54 
Q 2081 -91 1741 -91 
Q 1134 -91 817 281 
Q 500 653 500 1363 
z
" transform="scale(0.015625)"/>
     </defs>
     <use xlink:href="#DejaVuSans-Bold-56"/>
     <use xlink:href="#DejaVuSans-Bold-52" transform="translate(59.515625 0)"/>
     <use xlink:href="#DejaVuSans-Bold-58" transform="translate(128.21875 0)"/>
     <use xlink:href="#DejaVuSans-Bold-55" transform="translate(199.40625 0)"/>
     <use xlink:href="#DejaVuSans-Bold-46" transform="translate(248.71875 0)"/>
     <use xlink:href="#DejaVuSans-Bold-48" transform="translate(308 0)"/>
     <use xlink:href="#DejaVuSans-Bold-56" transform="translate(375.828125 0)"/>
    </g>
   </g>
   <g id="text_12">
    <!-- targets -->
    <g style="fill: #c62828" transform="translate(267.855219 64.1232) scale(0.085 -0.085)">
     <use xlink:href="#DejaVuSans-Bold-57"/>
     <use xlink:href="#DejaVuSans-Bold-44" transform="translate(47.796875 0)"/>
     <use xlink:href="#DejaVuSans-Bold-55" transform="translate(115.28125 0)"/>
     <use xlink:href="#DejaVuSans-Bold-4a" transform="translate(164.59375 0)"/>
     <use xlink:href="#DejaVuSans-Bold-48" transform="translate(236.171875 0)"/>
     <use xlink:href="#DejaVuSans-Bold-57" transform="translate(304 0)"/>
     <use xlink:href="#DejaVuSans-Bold-56" transform="translate(351.796875 0)"/>
    </g>
   </g>
   <g id="patch_7">
    <path d="M 134.054108 101.2176 
Q 186.962374 101.2176 237.187359 101.2176 
" style="fill: none; stroke: #455a64; stroke-width: 2.4; stroke-linecap: round"/>
    <path d="M 232.387359 98.8176 
L 237.187359 101.2176 
L 232.387359 103.6176 
z
" style="fill: #455a64; stroke: #455a64; stroke-width: 2.4; stroke-linecap: round"/>
   </g>
   <g id="text_13">
    <g id="patch_8">
     <path d="M 188.798468 97.84164 
L 196.104172 97.84164 
Q 197.679172 97.84164 197.679172 96.26664 
L 197.679172 85.76664 
Q 197.679172 84.19164 196.104172 84.19164 
L 188.798468 84.19164 
Q 187.223468 84.19164 187.223468 85.76664 
L 187.223468 96.26664 
Q 187.223468 97.84164 188.798468 97.84164 
z
" style="fill: #ffffff; stroke: #e8eaf6; stroke-linejoin: miter"/>
    </g>
    <!-- 5 -->
    <g style="fill: #303f9f" transform="translate(188.798468 93.744179) scale(0.105 -0.105)">
     <defs>
      <path id="DejaVuSans-Bold-18" d="M 678 4666 
L 3669 4666 
L 3669 3781 
L 1638 3781 
L 1638 3059 
Q 1775 3097 1914 3117 
Q 2053 3138 2203 3138 
Q 3056 3138 3531 2711 
Q 4006 2284 4006 1522 
Q 4006 766 3489 337 
Q 2972 -91 2053 -91 
Q 1656 -91 1267 -14 
Q 878 63 494 219 
L 494 1166 
Q 875 947 1217 837 
Q 1559 728 1863 728 
Q 2300 728 2551 942 
Q 2803 1156 2803 1522 
Q 2803 1891 2551 2103 
Q 2300 2316 1863 2316 
Q 1603 2316 1309 2248 
Q 1016 2181 678 2041 
L 678 4666 
z
" transform="scale(0.015625)"/>
     </defs>
     <use xlink:href="#DejaVuSans-Bold-18"/>
    </g>
   </g>
   <g id="patch_9">
    <path d="M 129.808904 120.647871 
Q 186.960319 147.585468 241.684552 173.379042 
" style="fill: none; stroke: #455a64; stroke-width: 2.4; stroke-linecap: round"/>
    <path d="M 238.36592 169.161616 
L 241.684552 173.379042 
L 236.319432 173.503492 
z
" style="fill: #455a64; stroke: #455a64; stroke-width: 2.4; stroke-linecap: round"/>
   </g>
   <g id="text_14">
    <g id="patch_10">
     <path d="M 193.449212 147.940267 
L 200.754915 147.940267 
Q 202.329915 147.940267 202.329915 146.365267 
L 202.329915 135.865267 
Q 202.329915 134.290267 200.754915 134.290267 
L 193.449212 134.290267 
Q 191.874212 134.290267 191.874212 135.865267 
L 191.874212 146.365267 
Q 191.874212 147.940267 193.449212 147.940267 
z
" style="fill: #ffffff; stroke: #e8eaf6; stroke-linejoin: miter"/>
    </g>
    <!-- 5 -->
    <g style="fill: #303f9f" transform="translate(193.449212 143.842806) scale(0.105 -0.105)">
     <use xlink:href="#DejaVuSans-Bold-18"/>
    </g>
   </g>
   <g id="patch_11">
    <path d="M 129.808904 174.523329 
Q 186.960319 147.585732 242.999276 121.172479 
" style="fill: none; opacity: 0.7; stroke-dasharray: 3.3,2.2; stroke-dashoffset: 0; stroke: #b0bec5; stroke-width: 1.1; stroke-linecap: round"/>
    <path d="M 237.634156 121.04803 
L 242.999276 121.172479 
L 239.680644 125.389905 
z
" style="fill: #b0bec5; opacity: 0.7; stroke-dasharray: 3.3,2.2; stroke-dashoffset: 0; stroke: #b0bec5; stroke-width: 1.1; stroke-linecap: round"/>
   </g>
   <g id="text_15">
    <!-- 0 -->
    <g style="fill: #90a4ae" transform="translate(185.748385 137.894972) scale(0.09 -0.09)">
     <defs>
      <path id="DejaVuSans-Oblique-13" d="M 2444 4750 
Q 3078 4750 3414 4328 
Q 3750 3906 3750 3116 
Q 3750 2516 3592 1923 
Q 3434 1331 3150 863 
Q 2859 394 2467 151 
Q 2075 -91 1600 -91 
Q 988 -91 653 334 
Q 319 759 319 1544 
Q 319 2138 480 2733 
Q 641 3328 928 3794 
Q 1216 4263 1602 4506 
Q 1988 4750 2444 4750 
z
M 2406 4250 
Q 2169 4250 1955 4123 
Q 1741 3997 1569 3750 
Q 1281 3338 1111 2720 
Q 941 2103 941 1453 
Q 941 938 1123 673 
Q 1306 409 1663 409 
Q 1913 409 2125 536 
Q 2338 663 2509 909 
Q 2794 1319 2961 1936 
Q 3128 2553 3128 3206 
Q 3128 3722 2945 3986 
Q 2763 4250 2406 4250 
z
" transform="scale(0.015625)"/>
     </defs>
     <use xlink:href="#DejaVuSans-Oblique-13"/>
    </g>
   </g>
   <g id="patch_12">
    <path d="M 134.054108 193.9536 
Q 186.962374 193.9536 236.516539 193.9536 
" style="fill: none; stroke: #455a64; stroke-width: 3; stroke-linecap: round"/>
    <path d="M 231.716539 191.5536 
L 236.516539 193.9536 
L 231.716539 196.3536 
z
" style="fill: #455a64; stroke: #455a64; stroke-width: 3; stroke-linecap: round"/>
   </g>
   <g id="text_16">
    <g id="patch_13">
     <path d="M 185.145617 190.57764 
L 199.757023 190.57764 
Q 201.332023 190.57764 201.332023 189.00264 
L 201.332023 178.50264 
Q 201.332023 176.92764 199.757023 176.92764 
L 185.145617 176.92764 
Q 183.570617 176.92764 183.570617 178.50264 
L 183.570617 189.00264 
Q 183.570617 190.57764 185.145617 190.57764 
z
" style="fill: #ffffff; stroke: #e8eaf6; stroke-linejoin: miter"/>
    </g>
    <!-- 15 -->
    <g style="fill: #303f9f" transform="translate(185.145617 186.480179) scale(0.105 -0.105)">
     <use xlink:href="#DejaVuSans-Bold-14"/>
     <use xlink:href="#DejaVuSans-Bold-18" transform="translate(69.578125 0)"/>
    </g>
   </g>
   <g id="text_17">
    <!-- plan γ -->
    <g style="fill: #303f9f" transform="translate(381.531198 82.6704) scale(0.11 -0.11)">
     <defs>
      <path id="DejaVuSans-Bold-347" d="M 1769 2450 
L 2275 1100 
L 3144 3500 
L 4266 3500 
L 2834 0 
L 2834 -1331 
L 1716 -1331 
L 1716 0 
L 794 2350 
Q 688 2625 594 2675 
Q 425 2766 309 2766 
L 97 2766 
L 97 3500 
L 606 3500 
Q 819 3500 1294 3269 
Q 1500 3169 1769 2450 
z
" transform="scale(0.015625)"/>
     </defs>
     <use xlink:href="#DejaVuSans-Bold-53"/>
     <use xlink:href="#DejaVuSans-Bold-4f" transform="translate(71.578125 0)"/>
     <use xlink:href="#DejaVuSans-Bold-44" transform="translate(105.859375 0)"/>
     <use xlink:href="#DejaVuSans-Bold-51" transform="translate(173.34375 0)"/>
     <use xlink:href="#DejaVuSans-Bold-3" transform="translate(244.53125 0)"/>
     <use xlink:href="#DejaVuSans-Bold-347" transform="translate(279.34375 0)"/>
    </g>
   </g>
   <g id="text_18">
    <!-- [  5   5  ] -->
    <g style="fill: #212121" transform="translate(360.907058 113.608856) scale(0.12 -0.12)">
     <defs>
      <path id="DejaVuSansMono-3e" d="M 1447 4863 
L 2772 4863 
L 2772 4416 
L 2022 4416 
L 2022 -397 
L 2772 -397 
L 2772 -844 
L 1447 -844 
L 1447 4863 
z
" transform="scale(0.015625)"/>
      <path id="DejaVuSansMono-3" transform="scale(0.015625)"/>
      <path id="DejaVuSansMono-18" d="M 647 4666 
L 3009 4666 
L 3009 4134 
L 1222 4134 
L 1222 2988 
Q 1356 3038 1492 3061 
Q 1628 3084 1766 3084 
Q 2491 3084 2916 2656 
Q 3341 2228 3341 1497 
Q 3341 759 2895 334 
Q 2450 -91 1678 -91 
Q 1306 -91 998 -41 
Q 691 9 447 109 
L 447 750 
Q 734 594 1025 517 
Q 1316 441 1619 441 
Q 2141 441 2423 716 
Q 2706 991 2706 1497 
Q 2706 1997 2414 2275 
Q 2122 2553 1600 2553 
Q 1347 2553 1106 2495 
Q 866 2438 647 2322 
L 647 4666 
z
" transform="scale(0.015625)"/>
      <path id="DejaVuSansMono-40" d="M 2406 4863 
L 2406 -844 
L 1081 -844 
L 1081 -397 
L 1831 -397 
L 1831 4416 
L 1081 4416 
L 1081 4863 
L 2406 4863 
z
" transform="scale(0.015625)"/>
     </defs>
     <use xlink:href="#DejaVuSansMono-3e"/>
     <use xlink:href="#DejaVuSansMono-3" transform="translate(60.203125 0)"/>
     <use xlink:href="#DejaVuSansMono-3" transform="translate(120.40625 0)"/>
     <use xlink:href="#DejaVuSansMono-18" transform="translate(180.609375 0)"/>
     <use xlink:href="#DejaVuSansMono-3" transform="translate(240.8125 0)"/>
     <use xlink:href="#DejaVuSansMono-3" transform="translate(301.015625 0)"/>
     <use xlink:href="#DejaVuSansMono-3" transform="translate(361.21875 0)"/>
     <use xlink:href="#DejaVuSansMono-18" transform="translate(421.421875 0)"/>
     <use xlink:href="#DejaVuSansMono-3" transform="translate(481.625 0)"/>
     <use xlink:href="#DejaVuSansMono-3" transform="translate(541.828125 0)"/>
     <use xlink:href="#DejaVuSansMono-40" transform="translate(602.03125 0)"/>
    </g>
   </g>
   <g id="text_19">
    <!-- [  0  15  ] -->
    <g style="fill: #212121" transform="translate(360.907058 127.519256) scale(0.12 -0.12)">
     <defs>
      <path id="DejaVuSansMono-13" d="M 1509 2344 
Q 1509 2516 1629 2641 
Q 1750 2766 1919 2766 
Q 2094 2766 2219 2641 
Q 2344 2516 2344 2344 
Q 2344 2169 2220 2047 
Q 2097 1925 1919 1925 
Q 1744 1925 1626 2044 
Q 1509 2163 1509 2344 
z
M 1925 4250 
Q 1484 4250 1267 3775 
Q 1050 3300 1050 2328 
Q 1050 1359 1267 884 
Q 1484 409 1925 409 
Q 2369 409 2586 884 
Q 2803 1359 2803 2328 
Q 2803 3300 2586 3775 
Q 2369 4250 1925 4250 
z
M 1925 4750 
Q 2672 4750 3055 4137 
Q 3438 3525 3438 2328 
Q 3438 1134 3055 521 
Q 2672 -91 1925 -91 
Q 1178 -91 797 521 
Q 416 1134 416 2328 
Q 416 3525 797 4137 
Q 1178 4750 1925 4750 
z
" transform="scale(0.015625)"/>
      <path id="DejaVuSansMono-14" d="M 844 531 
L 1825 531 
L 1825 4097 
L 769 3859 
L 769 4434 
L 1819 4666 
L 2450 4666 
L 2450 531 
L 3419 531 
L 3419 0 
L 844 0 
L 844 531 
z
" transform="scale(0.015625)"/>
     </defs>
     <use xlink:href="#DejaVuSansMono-3e"/>
     <use xlink:href="#DejaVuSansMono-3" transform="translate(60.203125 0)"/>
     <use xlink:href="#DejaVuSansMono-3" transform="translate(120.40625 0)"/>
     <use xlink:href="#DejaVuSansMono-13" transform="translate(180.609375 0)"/>
     <use xlink:href="#DejaVuSansMono-3" transform="translate(240.8125 0)"/>
     <use xlink:href="#DejaVuSansMono-3" transform="translate(301.015625 0)"/>
     <use xlink:href="#DejaVuSansMono-14" transform="translate(361.21875 0)"/>
     <use xlink:href="#DejaVuSansMono-18" transform="translate(421.421875 0)"/>
     <use xlink:href="#DejaVuSansMono-3" transform="translate(481.625 0)"/>
     <use xlink:href="#DejaVuSansMono-3" transform="translate(541.828125 0)"/>
     <use xlink:href="#DejaVuSansMono-40" transform="translate(602.03125 0)"/>
    </g>
   </g>
   <g id="text_20">
    <!-- rows → sources -->
    <g style="fill: #607d8b" transform="translate(370.02112 147.5856) scale(0.08 -0.08)">
     <defs>
      <path id="DejaVuSans-c1c" d="M 5050 2147 
L 5050 1866 
L 3822 638 
L 3447 1013 
L 4175 1741 
L 366 1741 
L 366 2272 
L 4175 2272 
L 3447 3000 
L 3822 3375 
L 5050 2147 
z
" transform="scale(0.015625)"/>
     </defs>
     <use xlink:href="#DejaVuSans-55"/>
     <use xlink:href="#DejaVuSans-52" transform="translate(38.90625 0)"/>
     <use xlink:href="#DejaVuSans-5a" transform="translate(100.09375 0)"/>
     <use xlink:href="#DejaVuSans-56" transform="translate(181.875 0)"/>
     <use xlink:href="#DejaVuSans-3" transform="translate(233.96875 0)"/>
     <use xlink:href="#DejaVuSans-c1c" transform="translate(265.75 0)"/>
     <use xlink:href="#DejaVuSans-3" transform="translate(349.546875 0)"/>
     <use xlink:href="#DejaVuSans-56" transform="translate(381.328125 0)"/>
     <use xlink:href="#DejaVuSans-52" transform="translate(433.421875 0)"/>
     <use xlink:href="#DejaVuSans-58" transform="translate(494.609375 0)"/>
     <use xlink:href="#DejaVuSans-55" transform="translate(557.984375 0)"/>
     <use xlink:href="#DejaVuSans-46" transform="translate(596.890625 0)"/>
     <use xlink:href="#DejaVuSans-48" transform="translate(651.875 0)"/>
     <use xlink:href="#DejaVuSans-56" transform="translate(713.40625 0)"/>
    </g>
   </g>
   <g id="text_21">
    <!-- cols → targets -->
    <g style="fill: #607d8b" transform="translate(372.65862 161.496) scale(0.08 -0.08)">
     <use xlink:href="#DejaVuSans-46"/>
     <use xlink:href="#DejaVuSans-52" transform="translate(54.984375 0)"/>
     <use xlink:href="#DejaVuSans-4f" transform="translate(116.171875 0)"/>
     <use xlink:href="#DejaVuSans-56" transform="translate(143.953125 0)"/>
     <use xlink:href="#DejaVuSans-3" transform="translate(196.046875 0)"/>
     <use xlink:href="#DejaVuSans-c1c" transform="translate(227.828125 0)"/>
     <use xlink:href="#DejaVuSans-3" transform="translate(311.625 0)"/>
     <use xlink:href="#DejaVuSans-57" transform="translate(343.40625 0)"/>
     <use xlink:href="#DejaVuSans-44" transform="translate(382.609375 0)"/>
     <use xlink:href="#DejaVuSans-55" transform="translate(443.890625 0)"/>
     <use xlink:href="#DejaVuSans-4a" transform="translate(483.25 0)"/>
     <use xlink:href="#DejaVuSans-48" transform="translate(546.734375 0)"/>
     <use xlink:href="#DejaVuSans-57" transform="translate(608.265625 0)"/>
     <use xlink:href="#DejaVuSans-56" transform="translate(647.46875 0)"/>
    </g>
   </g>
   <g id="text_22">
    <!-- m1 splits 5+5 -->
    <g style="fill: #2e7d32" transform="translate(367.774675 182.3616) scale(0.085 -0.085)">
     <defs>
      <path id="DejaVuSans-Bold-e" d="M 3053 4013 
L 3053 2375 
L 4684 2375 
L 4684 1638 
L 3053 1638 
L 3053 0 
L 2309 0 
L 2309 1638 
L 678 1638 
L 678 2375 
L 2309 2375 
L 2309 4013 
L 3053 4013 
z
" transform="scale(0.015625)"/>
     </defs>
     <use xlink:href="#DejaVuSans-Bold-50"/>
     <use xlink:href="#DejaVuSans-Bold-14" transform="translate(104.203125 0)"/>
     <use xlink:href="#DejaVuSans-Bold-3" transform="translate(173.78125 0)"/>
     <use xlink:href="#DejaVuSans-Bold-56" transform="translate(208.59375 0)"/>
     <use xlink:href="#DejaVuSans-Bold-53" transform="translate(268.109375 0)"/>
     <use xlink:href="#DejaVuSans-Bold-4f" transform="translate(339.6875 0)"/>
     <use xlink:href="#DejaVuSans-Bold-4c" transform="translate(373.96875 0)"/>
     <use xlink:href="#DejaVuSans-Bold-57" transform="translate(408.25 0)"/>
     <use xlink:href="#DejaVuSans-Bold-56" transform="translate(456.046875 0)"/>
     <use xlink:href="#DejaVuSans-Bold-3" transform="translate(515.5625 0)"/>
     <use xlink:href="#DejaVuSans-Bold-18" transform="translate(550.375 0)"/>
     <use xlink:href="#DejaVuSans-Bold-e" transform="translate(619.953125 0)"/>
     <use xlink:href="#DejaVuSans-Bold-18" transform="translate(703.75 0)"/>
    </g>
   </g>
   <g id="text_23">
    <!-- (Kantorovich OK; Monge cannot) -->
    <g style="fill: #607d8b" transform="translate(339.70655 198.5904) scale(0.075 -0.075)">
     <defs>
      <path id="DejaVuSans-b" d="M 1984 4856 
Q 1566 4138 1362 3434 
Q 1159 2731 1159 2009 
Q 1159 1288 1364 580 
Q 1569 -128 1984 -844 
L 1484 -844 
Q 1016 -109 783 600 
Q 550 1309 550 2009 
Q 550 2706 781 3412 
Q 1013 4119 1484 4856 
L 1984 4856 
z
" transform="scale(0.015625)"/>
      <path id="DejaVuSans-2e" d="M 628 4666 
L 1259 4666 
L 1259 2694 
L 3353 4666 
L 4166 4666 
L 1850 2491 
L 4331 0 
L 3500 0 
L 1259 2247 
L 1259 0 
L 628 0 
L 628 4666 
z
" transform="scale(0.015625)"/>
      <path id="DejaVuSans-59" d="M 191 3500 
L 800 3500 
L 1894 563 
L 2988 3500 
L 3597 3500 
L 2284 0 
L 1503 0 
L 191 3500 
z
" transform="scale(0.015625)"/>
      <path id="DejaVuSans-4b" d="M 3513 2113 
L 3513 0 
L 2938 0 
L 2938 2094 
Q 2938 2591 2744 2837 
Q 2550 3084 2163 3084 
Q 1697 3084 1428 2787 
Q 1159 2491 1159 1978 
L 1159 0 
L 581 0 
L 581 4863 
L 1159 4863 
L 1159 2956 
Q 1366 3272 1645 3428 
Q 1925 3584 2291 3584 
Q 2894 3584 3203 3211 
Q 3513 2838 3513 2113 
z
" transform="scale(0.015625)"/>
      <path id="DejaVuSans-32" d="M 2522 4238 
Q 1834 4238 1429 3725 
Q 1025 3213 1025 2328 
Q 1025 1447 1429 934 
Q 1834 422 2522 422 
Q 3209 422 3611 934 
Q 4013 1447 4013 2328 
Q 4013 3213 3611 3725 
Q 3209 4238 2522 4238 
z
M 2522 4750 
Q 3503 4750 4090 4092 
Q 4678 3434 4678 2328 
Q 4678 1225 4090 567 
Q 3503 -91 2522 -91 
Q 1538 -91 948 565 
Q 359 1222 359 2328 
Q 359 3434 948 4092 
Q 1538 4750 2522 4750 
z
" transform="scale(0.015625)"/>
      <path id="DejaVuSans-1e" d="M 750 3309 
L 1409 3309 
L 1409 2516 
L 750 2516 
L 750 3309 
z
M 750 794 
L 1409 794 
L 1409 256 
L 897 -744 
L 494 -744 
L 750 256 
L 750 794 
z
" transform="scale(0.015625)"/>
      <path id="DejaVuSans-30" d="M 628 4666 
L 1569 4666 
L 2759 1491 
L 3956 4666 
L 4897 4666 
L 4897 0 
L 4281 0 
L 4281 4097 
L 3078 897 
L 2444 897 
L 1241 4097 
L 1241 0 
L 628 0 
L 628 4666 
z
" transform="scale(0.015625)"/>
      <path id="DejaVuSans-c" d="M 513 4856 
L 1013 4856 
Q 1481 4119 1714 3412 
Q 1947 2706 1947 2009 
Q 1947 1309 1714 600 
Q 1481 -109 1013 -844 
L 513 -844 
Q 928 -128 1133 580 
Q 1338 1288 1338 2009 
Q 1338 2731 1133 3434 
Q 928 4138 513 4856 
z
" transform="scale(0.015625)"/>
     </defs>
     <use xlink:href="#DejaVuSans-b"/>
     <use xlink:href="#DejaVuSans-2e" transform="translate(39.015625 0)"/>
     <use xlink:href="#DejaVuSans-44" transform="translate(102.84375 0)"/>
     <use xlink:href="#DejaVuSans-51" transform="translate(164.125 0)"/>
     <use xlink:href="#DejaVuSans-57" transform="translate(227.5 0)"/>
     <use xlink:href="#DejaVuSans-52" transform="translate(266.703125 0)"/>
     <use xlink:href="#DejaVuSans-55" transform="translate(327.890625 0)"/>
     <use xlink:href="#DejaVuSans-52" transform="translate(366.796875 0)"/>
     <use xlink:href="#DejaVuSans-59" transform="translate(427.984375 0)"/>
     <use xlink:href="#DejaVuSans-4c" transform="translate(487.171875 0)"/>
     <use xlink:href="#DejaVuSans-46" transform="translate(514.953125 0)"/>
     <use xlink:href="#DejaVuSans-4b" transform="translate(569.9375 0)"/>
     <use xlink:href="#DejaVuSans-3" transform="translate(633.3125 0)"/>
     <use xlink:href="#DejaVuSans-32" transform="translate(665.09375 0)"/>
     <use xlink:href="#DejaVuSans-2e" transform="translate(743.8125 0)"/>
     <use xlink:href="#DejaVuSans-1e" transform="translate(809.390625 0)"/>
     <use xlink:href="#DejaVuSans-3" transform="translate(843.078125 0)"/>
     <use xlink:href="#DejaVuSans-30" transform="translate(874.859375 0)"/>
     <use xlink:href="#DejaVuSans-52" transform="translate(961.140625 0)"/>
     <use xlink:href="#DejaVuSans-51" transform="translate(1022.328125 0)"/>
     <use xlink:href="#DejaVuSans-4a" transform="translate(1085.703125 0)"/>
     <use xlink:href="#DejaVuSans-48" transform="translate(1149.1875 0)"/>
     <use xlink:href="#DejaVuSans-3" transform="translate(1210.71875 0)"/>
     <use xlink:href="#DejaVuSans-46" transform="translate(1242.5 0)"/>
     <use xlink:href="#DejaVuSans-44" transform="translate(1297.484375 0)"/>
     <use xlink:href="#DejaVuSans-51" transform="translate(1358.765625 0)"/>
     <use xlink:href="#DejaVuSans-51" transform="translate(1422.140625 0)"/>
     <use xlink:href="#DejaVuSans-52" transform="translate(1485.515625 0)"/>
     <use xlink:href="#DejaVuSans-57" transform="translate(1546.703125 0)"/>
     <use xlink:href="#DejaVuSans-c" transform="translate(1585.90625 0)"/>
    </g>
   </g>
  </g>
 </g>
 <defs>
  <clipPath id="p1c5571d8de">
   <rect x="10.8" y="10.8" width="457.56" height="255.024"/>
  </clipPath>
 </defs>
</svg>
