<?xml version="1.0" encoding="utf-8" standalone="no"?>
<!DOCTYPE svg PUBLIC "-//W3C//DTD SVG 1.1//EN"
  "http://www.w3.org/Graphics/SVG/1.1/DTD/svg11.dtd">
<svg xmlns:xlink="http://www.w3.org/1999/xlink" width="491.58pt" height="194.688pt" viewBox="0 0 491.58 194.688" xmlns="http://www.w3.org/2000/svg" version="1.1">
 <metadata>
  <rdf:RDF xmlns:dc="http://purl.org/dc/elements/1.1/" xmlns:cc="http://creativecommons.org/ns#" xmlns:rdf="http://www.w3.org/1999/02/22-rdf-syntax-ns#">
   <cc:Work>
    <dc:type rdf:resource="http://purl.org/dc/dcmitype/StillImage"/>
    <dc:date>2026-07-18T14:56:45.143695</dc:date>
    <dc:format>image/svg+xml</dc:format>
    <dc:creator>
     <cc:Agent>
      <dc:title>Matplotlib v3.11.0, https://matplotlib.org/</dc:title>
     </cc:Agent>
    </dc:creator>
   </cc:Work>
  </rdf:RDF>
 </metadata>
 <defs>
  <style type="text/css">*{stroke-linejoin: round; stroke-linecap: butt}</style>
 </defs>
 <g id="figure_1">
  <g id="patch_1">
   <path d="M 0 194.688 
L 491.58 194.688 
L 491.58 -0 
L 0 -0 
z
" style="fill: #ffffff"/>
  </g>
  <g id="axes_1">
   <g id="patch_2">
    <path d="M 30.4578 148.3488 
L 95.9112 148.3488 
Q 99.7056 148.3488 99.7056 143.9136 
L 99.7056 67.4064 
Q 99.7056 62.9712 95.9112 62.9712 
L 30.4578 62.9712 
Q 26.6634 62.9712 26.6634 67.4064 
L 26.6634 143.9136 
Q 26.6634 148.3488 30.4578 148.3488 
z
" clip-path="url(#p039820b3d0)" style="fill: #ffffff; stroke: #2e7d32; stroke-width: 1.8; stroke-linejoin: miter"/>
   </g>
   <g id="patch_3">
    <path d="M 130.0608 148.3488 
L 209.7432 148.3488 
Q 213.5376 148.3488 213.5376 143.9136 
L 213.5376 67.4064 
Q 213.5376 62.9712 209.7432 62.9712 
L 130.0608 62.9712 
Q 126.2664 62.9712 126.2664 67.4064 
L 126.2664 143.9136 
Q 126.2664 148.3488 130.0608 148.3488 
z
" clip-path="url(#p039820b3d0)" style="fill: #ffffff; stroke: #303f9f; stroke-width: 1.8; stroke-linejoin: miter"/>
   </g>
   <g id="patch_4">
    <path d="M 243.8928 148.3488 
L 309.3462 148.3488 
Q 313.1406 148.3488 313.1406 143.9136 
L 313.1406 67.4064 
Q 313.1406 62.9712 309.3462 62.9712 
L 243.8928 62.9712 
Q 240.0984 62.9712 240.0984 67.4064 
L 240.0984 143.9136 
Q 240.0984 148.3488 243.8928 148.3488 
z
" clip-path="url(#p039820b3d0)" style="fill: #ffffff; stroke: #c62828; stroke-width: 1.8; stroke-linejoin: miter"/>
   </g>
   <g id="patch_5">
    <path d="M 348.2388 148.3488 
L 446.8932 148.3488 
Q 450.6876 148.3488 450.6876 143.9136 
L 450.6876 67.4064 
Q 450.6876 62.9712 446.8932 62.9712 
L 348.2388 62.9712 
Q 344.4444 62.9712 344.4444 67.4064 
L 344.4444 143.9136 
Q 344.4444 148.3488 348.2388 148.3488 
z
" clip-path="url(#p039820b3d0)" style="fill: #ffffff; stroke: #455a64; stroke-width: 1.8; stroke-linejoin: miter"/>
   </g>
   <g id="text_1">
    <!-- Sinkhorn factorization -->
    <g style="fill: #1a237e" transform="translate(164.071797 19.728) scale(0.13 -0.13)">
     <defs>
      <path id="DejaVuSans-Bold-36" d="M 3834 4519 
L 3834 3531 
Q 3450 3703 3084 3790 
Q 2719 3878 2394 3878 
Q 1963 3878 1756 3759 
Q 1550 3641 1550 3391 
Q 1550 3203 1689 3098 
Q 1828 2994 2194 2919 
L 2706 2816 
Q 3484 2659 3812 2340 
Q 4141 2022 4141 1434 
Q 4141 663 3683 286 
Q 3225 -91 2284 -91 
Q 1841 -91 1394 -6 
Q 947 78 500 244 
L 500 1259 
Q 947 1022 1364 901 
Q 1781 781 2169 781 
Q 2563 781 2772 912 
Q 2981 1044 2981 1288 
Q 2981 1506 2839 1625 
Q 2697 1744 2272 1838 
L 1806 1941 
Q 1106 2091 782 2419 
Q 459 2747 459 3303 
Q 459 4000 909 4375 
Q 1359 4750 2203 4750 
Q 2588 4750 2994 4692 
Q 3400 4634 3834 4519 
z
" transform="scale(0.015625)"/>
      <path id="DejaVuSans-Bold-4c" d="M 538 3500 
L 1656 3500 
L 1656 0 
L 538 0 
L 538 3500 
z
M 538 4863 
L 1656 4863 
L 1656 3950 
L 538 3950 
L 538 4863 
z
" transform="scale(0.015625)"/>
      <path id="DejaVuSans-Bold-51" d="M 4056 2131 
L 4056 0 
L 2931 0 
L 2931 347 
L 2931 1631 
Q 2931 2084 2911 2256 
Q 2891 2428 2841 2509 
Q 2775 2619 2662 2680 
Q 2550 2741 2406 2741 
Q 2056 2741 1856 2470 
Q 1656 2200 1656 1722 
L 1656 0 
L 538 0 
L 538 3500 
L 1656 3500 
L 1656 2988 
Q 1909 3294 2193 3439 
Q 2478 3584 2822 3584 
Q 3428 3584 3742 3212 
Q 4056 2841 4056 2131 
z
" transform="scale(0.015625)"/>
      <path id="DejaVuSans-Bold-4e" d="M 538 4863 
L 1656 4863 
L 1656 2216 
L 2944 3500 
L 4244 3500 
L 2534 1894 
L 4378 0 
L 3022 0 
L 1656 1459 
L 1656 0 
L 538 0 
L 538 4863 
z
" transform="scale(0.015625)"/>
      <path id="DejaVuSans-Bold-4b" d="M 4056 2131 
L 4056 0 
L 2931 0 
L 2931 347 
L 2931 1625 
Q 2931 2084 2911 2256 
Q 2891 2428 2841 2509 
Q 2775 2619 2662 2680 
Q 2550 2741 2406 2741 
Q 2056 2741 1856 2470 
Q 1656 2200 1656 1722 
L 1656 0 
L 538 0 
L 538 4863 
L 1656 4863 
L 1656 2988 
Q 1909 3294 2193 3439 
Q 2478 3584 2822 3584 
Q 3428 3584 3742 3212 
Q 4056 2841 4056 2131 
z
" transform="scale(0.015625)"/>
      <path id="DejaVuSans-Bold-52" d="M 2203 2784 
Q 1831 2784 1636 2517 
Q 1441 2250 1441 1747 
Q 1441 1244 1636 976 
Q 1831 709 2203 709 
Q 2569 709 2762 976 
Q 2956 1244 2956 1747 
Q 2956 2250 2762 2517 
Q 2569 2784 2203 2784 
z
M 2203 3584 
Q 3106 3584 3614 3096 
Q 4122 2609 4122 1747 
Q 4122 884 3614 396 
Q 3106 -91 2203 -91 
Q 1297 -91 786 396 
Q 275 884 275 1747 
Q 275 2609 786 3096 
Q 1297 3584 2203 3584 
z
" transform="scale(0.015625)"/>
      <path id="DejaVuSans-Bold-55" d="M 3138 2547 
Q 2991 2616 2845 2648 
Q 2700 2681 2553 2681 
Q 2122 2681 1889 2404 
Q 1656 2128 1656 1613 
L 1656 0 
L 538 0 
L 538 3500 
L 1656 3500 
L 1656 2925 
Q 1872 3269 2151 3426 
Q 2431 3584 2822 3584 
Q 2878 3584 2943 3579 
Q 3009 3575 3134 3559 
L 3138 2547 
z
" transform="scale(0.015625)"/>
      <path id="DejaVuSans-Bold-3" transform="scale(0.015625)"/>
      <path id="DejaVuSans-Bold-49" d="M 2841 4863 
L 2841 4128 
L 2222 4128 
Q 1984 4128 1890 4042 
Q 1797 3956 1797 3744 
L 1797 3500 
L 2753 3500 
L 2753 2700 
L 1797 2700 
L 1797 0 
L 678 0 
L 678 2700 
L 122 2700 
L 122 3500 
L 678 3500 
L 678 3744 
Q 678 4316 997 4589 
Q 1316 4863 1984 4863 
L 2841 4863 
z
" transform="scale(0.015625)"/>
      <path id="DejaVuSans-Bold-44" d="M 2106 1575 
Q 1756 1575 1579 1456 
Q 1403 1338 1403 1106 
Q 1403 894 1545 773 
Q 1688 653 1941 653 
Q 2256 653 2472 879 
Q 2688 1106 2688 1447 
L 2688 1575 
L 2106 1575 
z
M 3816 1997 
L 3816 0 
L 2688 0 
L 2688 519 
Q 2463 200 2181 54 
Q 1900 -91 1497 -91 
Q 953 -91 614 226 
Q 275 544 275 1050 
Q 275 1666 698 1953 
Q 1122 2241 2028 2241 
L 2688 2241 
L 2688 2328 
Q 2688 2594 2478 2717 
Q 2269 2841 1825 2841 
Q 1466 2841 1156 2769 
Q 847 2697 581 2553 
L 581 3406 
Q 941 3494 1303 3539 
Q 1666 3584 2028 3584 
Q 2975 3584 3395 3211 
Q 3816 2838 3816 1997 
z
" transform="scale(0.015625)"/>
      <path id="DejaVuSans-Bold-46" d="M 3366 3391 
L 3366 2478 
Q 3138 2634 2908 2709 
Q 2678 2784 2431 2784 
Q 1963 2784 1702 2511 
Q 1441 2238 1441 1747 
Q 1441 1256 1702 982 
Q 1963 709 2431 709 
Q 2694 709 2930 787 
Q 3166 866 3366 1019 
L 3366 103 
Q 3103 6 2833 -42 
Q 2563 -91 2291 -91 
Q 1344 -91 809 395 
Q 275 881 275 1747 
Q 275 2613 809 3098 
Q 1344 3584 2291 3584 
Q 2566 3584 2833 3536 
Q 3100 3488 3366 3391 
z
" transform="scale(0.015625)"/>
      <path id="DejaVuSans-Bold-57" d="M 1759 4494 
L 1759 3500 
L 2913 3500 
L 2913 2700 
L 1759 2700 
L 1759 1216 
Q 1759 972 1856 886 
Q 1953 800 2241 800 
L 2816 800 
L 2816 0 
L 1856 0 
Q 1194 0 917 276 
Q 641 553 641 1216 
L 641 2700 
L 84 2700 
L 84 3500 
L 641 3500 
L 641 4494 
L 1759 4494 
z
" transform="scale(0.015625)"/>
      <path id="DejaVuSans-Bold-5d" d="M 366 3500 
L 3419 3500 
L 3419 2719 
L 1575 800 
L 3419 800 
L 3419 0 
L 288 0 
L 288 781 
L 2131 2700 
L 366 2700 
L 366 3500 
z
" transform="scale(0.015625)"/>
     </defs>
     <use xlink:href="#DejaVuSans-Bold-36"/>
     <use xlink:href="#DejaVuSans-Bold-4c" transform="translate(72.015625 0)"/>
     <use xlink:href="#DejaVuSans-Bold-51" transform="translate(106.296875 0)"/>
     <use xlink:href="#DejaVuSans-Bold-4e" transform="translate(177.484375 0)"/>
     <use xlink:href="#DejaVuSans-Bold-4b" transform="translate(243.984375 0)"/>
     <use xlink:href="#DejaVuSans-Bold-52" transform="translate(315.171875 0)"/>
     <use xlink:href="#DejaVuSans-Bold-55" transform="translate(383.875 0)"/>
     <use xlink:href="#DejaVuSans-Bold-51" transform="translate(433.1875 0)"/>
     <use xlink:href="#DejaVuSans-Bold-3" transform="translate(504.375 0)"/>
     <use xlink:href="#DejaVuSans-Bold-49" transform="translate(539.1875 0)"/>
     <use xlink:href="#DejaVuSans-Bold-44" transform="translate(582.6875 0)"/>
     <use xlink:href="#DejaVuSans-Bold-46" transform="translate(650.171875 0)"/>
     <use xlink:href="#DejaVuSans-Bold-57" transform="translate(709.453125 0)"/>
     <use xlink:href="#DejaVuSans-Bold-52" transform="translate(757.25 0)"/>
     <use xlink:href="#DejaVuSans-Bold-55" transform="translate(825.953125 0)"/>
     <use xlink:href="#DejaVuSans-Bold-4c" transform="translate(875.265625 0)"/>
     <use xlink:href="#DejaVuSans-Bold-5d" transform="translate(909.546875 0)"/>
     <use xlink:href="#DejaVuSans-Bold-44" transform="translate(967.75 0)"/>
     <use xlink:href="#DejaVuSans-Bold-57" transform="translate(1035.234375 0)"/>
     <use xlink:href="#DejaVuSans-Bold-4c" transform="translate(1083.03125 0)"/>
     <use xlink:href="#DejaVuSans-Bold-52" transform="translate(1117.3125 0)"/>
     <use xlink:href="#DejaVuSans-Bold-51" transform="translate(1186.015625 0)"/>
    </g>
   </g>
   <g id="text_2">
    <!-- $\mathrm{diag}(u)$ -->
    <g style="fill: #2e7d32" transform="translate(41.7045 95.6808) scale(0.12 -0.12)">
     <defs>
      <path id="DejaVuSans-47" d="M 2906 2969 
L 2906 4863 
L 3481 4863 
L 3481 0 
L 2906 0 
L 2906 525 
Q 2725 213 2448 61 
Q 2172 -91 1784 -91 
Q 1150 -91 751 415 
Q 353 922 353 1747 
Q 353 2572 751 3078 
Q 1150 3584 1784 3584 
Q 2172 3584 2448 3432 
Q 2725 3281 2906 2969 
z
M 947 1747 
Q 947 1113 1208 752 
Q 1469 391 1925 391 
Q 2381 391 2643 752 
Q 2906 1113 2906 1747 
Q 2906 2381 2643 2742 
Q 2381 3103 1925 3103 
Q 1469 3103 1208 2742 
Q 947 2381 947 1747 
z
" transform="scale(0.015625)"/>
      <path id="DejaVuSans-4c" d="M 603 3500 
L 1178 3500 
L 1178 0 
L 603 0 
L 603 3500 
z
M 603 4863 
L 1178 4863 
L 1178 4134 
L 603 4134 
L 603 4863 
z
" transform="scale(0.015625)"/>
      <path id="DejaVuSans-44" d="M 2194 1759 
Q 1497 1759 1228 1600 
Q 959 1441 959 1056 
Q 959 750 1161 570 
Q 1363 391 1709 391 
Q 2188 391 2477 730 
Q 2766 1069 2766 1631 
L 2766 1759 
L 2194 1759 
z
M 3341 1997 
L 3341 0 
L 2766 0 
L 2766 531 
Q 2569 213 2275 61 
Q 1981 -91 1556 -91 
Q 1019 -91 701 211 
Q 384 513 384 1019 
Q 384 1609 779 1909 
Q 1175 2209 1959 2209 
L 2766 2209 
L 2766 2266 
Q 2766 2663 2505 2880 
Q 2244 3097 1772 3097 
Q 1472 3097 1187 3025 
Q 903 2953 641 2809 
L 641 3341 
Q 956 3463 1253 3523 
Q 1550 3584 1831 3584 
Q 2591 3584 2966 3190 
Q 3341 2797 3341 1997 
z
" transform="scale(0.015625)"/>
      <path id="DejaVuSans-4a" d="M 2906 1791 
Q 2906 2416 2648 2759 
Q 2391 3103 1925 3103 
Q 1463 3103 1205 2759 
Q 947 2416 947 1791 
Q 947 1169 1205 825 
Q 1463 481 1925 481 
Q 2391 481 2648 825 
Q 2906 1169 2906 1791 
z
M 3481 434 
Q 3481 -459 3084 -895 
Q 2688 -1331 1869 -1331 
Q 1566 -1331 1297 -1286 
Q 1028 -1241 775 -1147 
L 775 -588 
Q 1028 -725 1275 -790 
Q 1522 -856 1778 -856 
Q 2344 -856 2625 -561 
Q 2906 -266 2906 331 
L 2906 616 
Q 2728 306 2450 153 
Q 2172 0 1784 0 
Q 1141 0 747 490 
Q 353 981 353 1791 
Q 353 2603 747 3093 
Q 1141 3584 1784 3584 
Q 2172 3584 2450 3431 
Q 2728 3278 2906 2969 
L 2906 3500 
L 3481 3500 
L 3481 434 
z
" transform="scale(0.015625)"/>
      <path id="DejaVuSans-b" d="M 1984 4856 
Q 1566 4138 1362 3434 
Q 1159 2731 1159 2009 
Q 1159 1288 1364 580 
Q 1569 -128 1984 -844 
L 1484 -844 
Q 1016 -109 783 600 
Q 550 1309 550 2009 
Q 550 2706 781 3412 
Q 1013 4119 1484 4856 
L 1984 4856 
z
" transform="scale(0.015625)"/>
      <path id="DejaVuSans-Oblique-58" d="M 428 1388 
L 838 3500 
L 1416 3500 
L 1006 1409 
Q 975 1256 961 1147 
Q 947 1038 947 966 
Q 947 700 1109 554 
Q 1272 409 1569 409 
Q 2031 409 2368 721 
Q 2706 1034 2809 1563 
L 3194 3500 
L 3769 3500 
L 3091 0 
L 2516 0 
L 2631 550 
Q 2388 244 2052 76 
Q 1716 -91 1338 -91 
Q 878 -91 622 161 
Q 366 413 366 863 
Q 366 956 381 1097 
Q 397 1238 428 1388 
z
" transform="scale(0.015625)"/>
      <path id="DejaVuSans-c" d="M 513 4856 
L 1013 4856 
Q 1481 4119 1714 3412 
Q 1947 2706 1947 2009 
Q 1947 1309 1714 600 
Q 1481 -109 1013 -844 
L 513 -844 
Q 928 -128 1133 580 
Q 1338 1288 1338 2009 
Q 1338 2731 1133 3434 
Q 928 4138 513 4856 
z
" transform="scale(0.015625)"/>
     </defs>
     <use xlink:href="#DejaVuSans-47" transform="translate(0 0.015625)"/>
     <use xlink:href="#DejaVuSans-4c" transform="translate(63.476562 0.015625)"/>
     <use xlink:href="#DejaVuSans-44" transform="translate(91.259766 0.015625)"/>
     <use xlink:href="#DejaVuSans-4a" transform="translate(152.539062 0.015625)"/>
     <use xlink:href="#DejaVuSans-b" transform="translate(216.015625 0.015625)"/>
     <use xlink:href="#DejaVuSans-Oblique-58" transform="translate(255.029297 0.015625)"/>
     <use xlink:href="#DejaVuSans-c" transform="translate(318.408203 0.015625)"/>
    </g>
   </g>
   <g id="text_3">
    <!-- row scales -->
    <g style="fill: #607d8b" transform="translate(40.93907 123.9552) scale(0.085 -0.085)">
     <defs>
      <path id="DejaVuSans-55" d="M 2631 2963 
Q 2534 3019 2420 3045 
Q 2306 3072 2169 3072 
Q 1681 3072 1420 2755 
Q 1159 2438 1159 1844 
L 1159 0 
L 581 0 
L 581 3500 
L 1159 3500 
L 1159 2956 
Q 1341 3275 1631 3429 
Q 1922 3584 2338 3584 
Q 2397 3584 2469 3576 
Q 2541 3569 2628 3553 
L 2631 2963 
z
" transform="scale(0.015625)"/>
      <path id="DejaVuSans-52" d="M 1959 3097 
Q 1497 3097 1228 2736 
Q 959 2375 959 1747 
Q 959 1119 1226 758 
Q 1494 397 1959 397 
Q 2419 397 2687 759 
Q 2956 1122 2956 1747 
Q 2956 2369 2687 2733 
Q 2419 3097 1959 3097 
z
M 1959 3584 
Q 2709 3584 3137 3096 
Q 3566 2609 3566 1747 
Q 3566 888 3137 398 
Q 2709 -91 1959 -91 
Q 1206 -91 779 398 
Q 353 888 353 1747 
Q 353 2609 779 3096 
Q 1206 3584 1959 3584 
z
" transform="scale(0.015625)"/>
      <path id="DejaVuSans-5a" d="M 269 3500 
L 844 3500 
L 1563 769 
L 2278 3500 
L 2956 3500 
L 3675 769 
L 4391 3500 
L 4966 3500 
L 4050 0 
L 3372 0 
L 2619 2869 
L 1863 0 
L 1184 0 
L 269 3500 
z
" transform="scale(0.015625)"/>
      <path id="DejaVuSans-3" transform="scale(0.015625)"/>
      <path id="DejaVuSans-56" d="M 2834 3397 
L 2834 2853 
Q 2591 2978 2328 3040 
Q 2066 3103 1784 3103 
Q 1356 3103 1142 2972 
Q 928 2841 928 2578 
Q 928 2378 1081 2264 
Q 1234 2150 1697 2047 
L 1894 2003 
Q 2506 1872 2764 1633 
Q 3022 1394 3022 966 
Q 3022 478 2636 193 
Q 2250 -91 1575 -91 
Q 1294 -91 989 -36 
Q 684 19 347 128 
L 347 722 
Q 666 556 975 473 
Q 1284 391 1588 391 
Q 1994 391 2212 530 
Q 2431 669 2431 922 
Q 2431 1156 2273 1281 
Q 2116 1406 1581 1522 
L 1381 1569 
Q 847 1681 609 1914 
Q 372 2147 372 2553 
Q 372 3047 722 3315 
Q 1072 3584 1716 3584 
Q 2034 3584 2315 3537 
Q 2597 3491 2834 3397 
z
" transform="scale(0.015625)"/>
      <path id="DejaVuSans-46" d="M 3122 3366 
L 3122 2828 
Q 2878 2963 2633 3030 
Q 2388 3097 2138 3097 
Q 1578 3097 1268 2742 
Q 959 2388 959 1747 
Q 959 1106 1268 751 
Q 1578 397 2138 397 
Q 2388 397 2633 464 
Q 2878 531 3122 666 
L 3122 134 
Q 2881 22 2623 -34 
Q 2366 -91 2075 -91 
Q 1284 -91 818 406 
Q 353 903 353 1747 
Q 353 2603 823 3093 
Q 1294 3584 2113 3584 
Q 2378 3584 2631 3529 
Q 2884 3475 3122 3366 
z
" transform="scale(0.015625)"/>
      <path id="DejaVuSans-4f" d="M 603 4863 
L 1178 4863 
L 1178 0 
L 603 0 
L 603 4863 
z
" transform="scale(0.015625)"/>
      <path id="DejaVuSans-48" d="M 3597 1894 
L 3597 1613 
L 953 1613 
Q 991 1019 1311 708 
Q 1631 397 2203 397 
Q 2534 397 2845 478 
Q 3156 559 3463 722 
L 3463 178 
Q 3153 47 2828 -22 
Q 2503 -91 2169 -91 
Q 1331 -91 842 396 
Q 353 884 353 1716 
Q 353 2575 817 3079 
Q 1281 3584 2069 3584 
Q 2775 3584 3186 3129 
Q 3597 2675 3597 1894 
z
M 3022 2063 
Q 3016 2534 2758 2815 
Q 2500 3097 2075 3097 
Q 1594 3097 1305 2825 
Q 1016 2553 972 2059 
L 3022 2063 
z
" transform="scale(0.015625)"/>
     </defs>
     <use xlink:href="#DejaVuSans-55"/>
     <use xlink:href="#DejaVuSans-52" transform="translate(38.90625 0)"/>
     <use xlink:href="#DejaVuSans-5a" transform="translate(100.09375 0)"/>
     <use xlink:href="#DejaVuSans-3" transform="translate(181.875 0)"/>
     <use xlink:href="#DejaVuSans-56" transform="translate(213.65625 0)"/>
     <use xlink:href="#DejaVuSans-46" transform="translate(265.75 0)"/>
     <use xlink:href="#DejaVuSans-44" transform="translate(320.734375 0)"/>
     <use xlink:href="#DejaVuSans-4f" transform="translate(382.015625 0)"/>
     <use xlink:href="#DejaVuSans-48" transform="translate(409.796875 0)"/>
     <use xlink:href="#DejaVuSans-56" transform="translate(471.328125 0)"/>
    </g>
   </g>
   <g id="text_4">
    <!-- $K$ -->
    <g style="fill: #303f9f" transform="translate(165.942 95.6808) scale(0.12 -0.12)">
     <defs>
      <path id="DejaVuSans-Oblique-2e" d="M 1081 4666 
L 1716 4666 
L 1331 2700 
L 3781 4666 
L 4622 4666 
L 1850 2438 
L 3878 0 
L 3109 0 
L 1247 2272 
L 806 0 
L 172 0 
L 1081 4666 
z
" transform="scale(0.015625)"/>
     </defs>
     <use xlink:href="#DejaVuSans-Oblique-2e" transform="translate(0 0.09375)"/>
    </g>
   </g>
   <g id="text_5">
    <!-- $\exp(-C/\varepsilon)$ -->
    <g style="fill: #607d8b" transform="translate(148.567 123.9552) scale(0.085 -0.085)">
     <defs>
      <path id="DejaVuSans-5b" d="M 3513 3500 
L 2247 1797 
L 3578 0 
L 2900 0 
L 1881 1375 
L 863 0 
L 184 0 
L 1544 1831 
L 300 3500 
L 978 3500 
L 1906 2253 
L 2834 3500 
L 3513 3500 
z
" transform="scale(0.015625)"/>
      <path id="DejaVuSans-53" d="M 1159 525 
L 1159 -1331 
L 581 -1331 
L 581 3500 
L 1159 3500 
L 1159 2969 
Q 1341 3281 1617 3432 
Q 1894 3584 2278 3584 
Q 2916 3584 3314 3078 
Q 3713 2572 3713 1747 
Q 3713 922 3314 415 
Q 2916 -91 2278 -91 
Q 1894 -91 1617 61 
Q 1341 213 1159 525 
z
M 3116 1747 
Q 3116 2381 2855 2742 
Q 2594 3103 2138 3103 
Q 1681 3103 1420 2742 
Q 1159 2381 1159 1747 
Q 1159 1113 1420 752 
Q 1681 391 2138 391 
Q 2594 391 2855 752 
Q 3116 1113 3116 1747 
z
" transform="scale(0.015625)"/>
      <path id="DejaVuSans-c9c" d="M 678 2272 
L 4684 2272 
L 4684 1741 
L 678 1741 
L 678 2272 
z
" transform="scale(0.015625)"/>
      <path id="DejaVuSans-Oblique-26" d="M 4447 4306 
L 4319 3641 
Q 4019 3944 3683 4091 
Q 3347 4238 2956 4238 
Q 2422 4238 2017 3981 
Q 1613 3725 1319 3200 
Q 1131 2863 1032 2486 
Q 934 2109 934 1728 
Q 934 1091 1264 756 
Q 1594 422 2222 422 
Q 2656 422 3056 561 
Q 3456 700 3834 978 
L 3688 231 
Q 3316 72 2936 -9 
Q 2556 -91 2175 -91 
Q 1278 -91 773 396 
Q 269 884 269 1753 
Q 269 2309 461 2846 
Q 653 3384 1013 3828 
Q 1394 4300 1883 4525 
Q 2372 4750 3022 4750 
Q 3422 4750 3780 4639 
Q 4138 4528 4447 4306 
z
" transform="scale(0.015625)"/>
      <path id="DejaVuSans-12" d="M 1625 4666 
L 2156 4666 
L 531 -594 
L 0 -594 
L 1625 4666 
z
" transform="scale(0.015625)"/>
      <path id="DejaVuSans-Oblique-349" d="M 1263 1888 
Q 925 1963 778 2166 
Q 669 2309 669 2503 
Q 669 3034 1175 3344 
Q 1575 3588 2188 3588 
Q 2425 3588 2684 3550 
Q 2944 3513 3234 3438 
L 3134 2916 
Q 2847 3006 2606 3047 
Q 2359 3088 2138 3088 
Q 1766 3088 1522 2944 
Q 1228 2772 1228 2522 
Q 1228 2356 1381 2241 
Q 1563 2103 1925 2103 
L 2409 2103 
L 2319 1628 
L 1856 1628 
Q 1425 1628 1172 1469 
Q 828 1253 828 916 
Q 828 703 1013 563 
Q 1244 388 1716 388 
Q 2006 388 2284 444 
Q 2563 503 2806 619 
L 2700 84 
Q 2403 -3 2131 -47 
Q 1859 -91 1609 -91 
Q 866 -91 516 194 
Q 250 413 250 781 
Q 250 1278 600 1584 
Q 859 1813 1263 1888 
z
" transform="scale(0.015625)"/>
     </defs>
     <use xlink:href="#DejaVuSans-48" transform="translate(0 0.125)"/>
     <use xlink:href="#DejaVuSans-5b" transform="translate(59.523438 0.125)"/>
     <use xlink:href="#DejaVuSans-53" transform="translate(118.703125 0.125)"/>
     <use xlink:href="#DejaVuSans-b" transform="translate(182.179688 0.125)"/>
     <use xlink:href="#DejaVuSans-c9c" transform="translate(221.193359 0.125)"/>
     <use xlink:href="#DejaVuSans-Oblique-26" transform="translate(304.982422 0.125)"/>
     <use xlink:href="#DejaVuSans-12" transform="translate(374.806641 0.125)"/>
     <use xlink:href="#DejaVuSans-Oblique-349" transform="translate(408.498047 0.125)"/>
     <use xlink:href="#DejaVuSans-c" transform="translate(462.550781 0.125)"/>
    </g>
   </g>
   <g id="text_6">
    <!-- $\mathrm{diag}(v)$ -->
    <g style="fill: #c62828" transform="translate(255.3795 95.6808) scale(0.12 -0.12)">
     <defs>
      <path id="DejaVuSans-Oblique-59" d="M 459 3500 
L 1069 3500 
L 1581 525 
L 3256 3500 
L 3866 3500 
L 1875 0 
L 1100 0 
L 459 3500 
z
" transform="scale(0.015625)"/>
     </defs>
     <use xlink:href="#DejaVuSans-47" transform="translate(0 0.015625)"/>
     <use xlink:href="#DejaVuSans-4c" transform="translate(63.476562 0.015625)"/>
     <use xlink:href="#DejaVuSans-44" transform="translate(91.259766 0.015625)"/>
     <use xlink:href="#DejaVuSans-4a" transform="translate(152.539062 0.015625)"/>
     <use xlink:href="#DejaVuSans-b" transform="translate(216.015625 0.015625)"/>
     <use xlink:href="#DejaVuSans-Oblique-59" transform="translate(255.029297 0.015625)"/>
     <use xlink:href="#DejaVuSans-c" transform="translate(314.208984 0.015625)"/>
    </g>
   </g>
   <g id="text_7">
    <!-- col scales -->
    <g style="fill: #607d8b" transform="translate(255.98575 123.9552) scale(0.085 -0.085)">
     <use xlink:href="#DejaVuSans-46"/>
     <use xlink:href="#DejaVuSans-52" transform="translate(54.984375 0)"/>
     <use xlink:href="#DejaVuSans-4f" transform="translate(116.171875 0)"/>
     <use xlink:href="#DejaVuSans-3" transform="translate(143.953125 0)"/>
     <use xlink:href="#DejaVuSans-56" transform="translate(175.734375 0)"/>
     <use xlink:href="#DejaVuSans-46" transform="translate(227.828125 0)"/>
     <use xlink:href="#DejaVuSans-44" transform="translate(282.8125 0)"/>
     <use xlink:href="#DejaVuSans-4f" transform="translate(344.09375 0)"/>
     <use xlink:href="#DejaVuSans-48" transform="translate(371.875 0)"/>
     <use xlink:href="#DejaVuSans-56" transform="translate(433.40625 0)"/>
    </g>
   </g>
   <g id="text_8">
    <!-- $\times$ -->
    <g style="fill: #607d8b" transform="translate(103.0545 108.432) scale(0.18 -0.18)">
     <defs>
      <path id="DejaVuSans-99" d="M 4488 3438 
L 3059 2003 
L 4488 575 
L 4116 197 
L 2681 1631 
L 1247 197 
L 878 575 
L 2303 2003 
L 878 3438 
L 1247 3816 
L 2681 2381 
L 4116 3816 
L 4488 3438 
z
" transform="scale(0.015625)"/>
     </defs>
     <use xlink:href="#DejaVuSans-99" transform="translate(0 0.375)"/>
    </g>
   </g>
   <g id="text_9">
    <!-- $\times$ -->
    <g style="fill: #607d8b" transform="translate(216.8865 108.432) scale(0.18 -0.18)">
     <use xlink:href="#DejaVuSans-99" transform="translate(0 0.375)"/>
    </g>
   </g>
   <g id="text_10">
    <!-- = -->
    <g style="fill: #607d8b" transform="translate(318.879281 108.432) scale(0.18 -0.18)">
     <defs>
      <path id="DejaVuSans-20" d="M 678 2906 
L 4684 2906 
L 4684 2381 
L 678 2381 
L 678 2906 
z
M 678 1631 
L 4684 1631 
L 4684 1100 
L 678 1100 
L 678 1631 
z
" transform="scale(0.015625)"/>
     </defs>
     <use xlink:href="#DejaVuSans-20"/>
    </g>
   </g>
   <g id="text_11">
    <!-- $P^{\varepsilon}$ -->
    <g style="fill: #455a64" transform="translate(391.086 95.6808) scale(0.12 -0.12)">
     <defs>
      <path id="DejaVuSans-Oblique-33" d="M 1081 4666 
L 2541 4666 
Q 3178 4666 3512 4369 
Q 3847 4072 3847 3500 
Q 3847 2731 3353 2303 
Q 2859 1875 1966 1875 
L 1172 1875 
L 806 0 
L 172 0 
L 1081 4666 
z
M 1613 4147 
L 1275 2394 
L 2069 2394 
Q 2606 2394 2893 2669 
Q 3181 2944 3181 3456 
Q 3181 3784 2986 3965 
Q 2791 4147 2438 4147 
L 1613 4147 
z
" transform="scale(0.015625)"/>
     </defs>
     <use xlink:href="#DejaVuSans-Oblique-33" transform="translate(0 0.45625)"/>
     <use xlink:href="#DejaVuSans-Oblique-349" transform="translate(67.319505 41.75625) scale(0.7)"/>
    </g>
   </g>
   <g id="text_12">
    <!-- $u_i K_{ij} v_j$ -->
    <g style="fill: #607d8b" transform="translate(385.8785 123.9552) scale(0.085 -0.085)">
     <defs>
      <path id="DejaVuSans-Oblique-4c" d="M 1172 4863 
L 1747 4863 
L 1606 4134 
L 1031 4134 
L 1172 4863 
z
M 909 3500 
L 1484 3500 
L 800 0 
L 225 0 
L 909 3500 
z
" transform="scale(0.015625)"/>
      <path id="DejaVuSans-Oblique-4d" d="M 928 3500 
L 1503 3500 
L 813 -63 
L 809 -78 
Q 694 -675 544 -897 
Q 403 -1106 132 -1218 
Q -138 -1331 -506 -1331 
L -722 -1331 
L -628 -844 
L -481 -844 
Q -144 -844 -1 -703 
Q 141 -563 238 -63 
L 928 3500 
z
M 1197 4863 
L 1772 4863 
L 1631 4134 
L 1056 4134 
L 1197 4863 
z
" transform="scale(0.015625)"/>
     </defs>
     <use xlink:href="#DejaVuSans-Oblique-58" transform="translate(0 0.09375)"/>
     <use xlink:href="#DejaVuSans-Oblique-4c" transform="translate(63.378906 -14.906201) scale(0.7)"/>
     <use xlink:href="#DejaVuSans-Oblique-2e" transform="translate(85.561523 0.09375)"/>
     <use xlink:href="#DejaVuSans-Oblique-4c" transform="translate(151.137695 -14.906201) scale(0.7)"/>
     <use xlink:href="#DejaVuSans-Oblique-4d" transform="translate(170.585938 -14.906201) scale(0.7)"/>
     <use xlink:href="#DejaVuSans-Oblique-59" transform="translate(192.768555 0.09375)"/>
     <use xlink:href="#DejaVuSans-Oblique-4d" transform="translate(251.948242 -14.906201) scale(0.7)"/>
    </g>
   </g>
   <g id="text_13">
    <!-- Alternate:  $u \leftarrow a/(Kv)$   ·   $v \leftarrow b/(K^{\mathsf{T}} u)$   until margins match -->
    <g style="fill: #607d8b" transform="translate(115.065 172.188) scale(0.09 -0.09)">
     <defs>
      <path id="DejaVuSans-24" d="M 2188 4044 
L 1331 1722 
L 3047 1722 
L 2188 4044 
z
M 1831 4666 
L 2547 4666 
L 4325 0 
L 3669 0 
L 3244 1197 
L 1141 1197 
L 716 0 
L 50 0 
L 1831 4666 
z
" transform="scale(0.015625)"/>
      <path id="DejaVuSans-57" d="M 1172 4494 
L 1172 3500 
L 2356 3500 
L 2356 3053 
L 1172 3053 
L 1172 1153 
Q 1172 725 1289 603 
Q 1406 481 1766 481 
L 2356 481 
L 2356 0 
L 1766 0 
Q 1100 0 847 248 
Q 594 497 594 1153 
L 594 3053 
L 172 3053 
L 172 3500 
L 594 3500 
L 594 4494 
L 1172 4494 
z
" transform="scale(0.015625)"/>
      <path id="DejaVuSans-51" d="M 3513 2113 
L 3513 0 
L 2938 0 
L 2938 2094 
Q 2938 2591 2744 2837 
Q 2550 3084 2163 3084 
Q 1697 3084 1428 2787 
Q 1159 2491 1159 1978 
L 1159 0 
L 581 0 
L 581 3500 
L 1159 3500 
L 1159 2956 
Q 1366 3272 1645 3428 
Q 1925 3584 2291 3584 
Q 2894 3584 3203 3211 
Q 3513 2838 3513 2113 
z
" transform="scale(0.015625)"/>
      <path id="DejaVuSans-1d" d="M 750 794 
L 1409 794 
L 1409 0 
L 750 0 
L 750 794 
z
M 750 3309 
L 1409 3309 
L 1409 2516 
L 750 2516 
L 750 3309 
z
" transform="scale(0.015625)"/>
      <path id="DejaVuSans-c1a" d="M 313 1866 
L 313 2147 
L 1541 3375 
L 1916 3000 
L 1188 2272 
L 4997 2272 
L 4997 1741 
L 1188 1741 
L 1916 1013 
L 1541 638 
L 313 1866 
z
" transform="scale(0.015625)"/>
      <path id="DejaVuSans-Oblique-44" d="M 3438 1997 
L 3047 0 
L 2472 0 
L 2578 531 
Q 2325 219 2001 64 
Q 1678 -91 1281 -91 
Q 834 -91 548 182 
Q 263 456 263 884 
Q 263 1497 752 1853 
Q 1241 2209 2100 2209 
L 2900 2209 
L 2931 2363 
Q 2938 2388 2941 2417 
Q 2944 2447 2944 2509 
Q 2944 2788 2717 2942 
Q 2491 3097 2081 3097 
Q 1800 3097 1504 3025 
Q 1209 2953 897 2809 
L 997 3341 
Q 1322 3463 1633 3523 
Q 1944 3584 2234 3584 
Q 2853 3584 3176 3315 
Q 3500 3047 3500 2534 
Q 3500 2431 3484 2292 
Q 3469 2153 3438 1997 
z
M 2816 1759 
L 2241 1759 
Q 1534 1759 1195 1570 
Q 856 1381 856 984 
Q 856 709 1029 553 
Q 1203 397 1509 397 
Q 1978 397 2328 733 
Q 2678 1069 2791 1631 
L 2816 1759 
z
" transform="scale(0.015625)"/>
      <path id="DejaVuSans-79" d="M 684 2619 
L 1344 2619 
L 1344 1825 
L 684 1825 
L 684 2619 
z
" transform="scale(0.015625)"/>
      <path id="DejaVuSans-Oblique-45" d="M 3169 2138 
Q 3169 2591 2961 2847 
Q 2753 3103 2388 3103 
Q 2122 3103 1889 2973 
Q 1656 2844 1484 2597 
Q 1303 2338 1198 1995 
Q 1094 1653 1094 1313 
Q 1094 881 1298 636 
Q 1503 391 1863 391 
Q 2134 391 2365 517 
Q 2597 644 2772 891 
Q 2950 1147 3059 1487 
Q 3169 1828 3169 2138 
z
M 1381 2969 
Q 1594 3256 1914 3420 
Q 2234 3584 2584 3584 
Q 3122 3584 3439 3221 
Q 3756 2859 3756 2241 
Q 3756 1734 3570 1259 
Q 3384 784 3041 416 
Q 2816 172 2522 40 
Q 2228 -91 1906 -91 
Q 1566 -91 1316 65 
Q 1066 222 909 531 
L 806 0 
L 231 0 
L 1178 4863 
L 1753 4863 
L 1381 2969 
z
" transform="scale(0.015625)"/>
      <path id="DejaVuSans-37" d="M -19 4666 
L 3928 4666 
L 3928 4134 
L 2272 4134 
L 2272 0 
L 1638 0 
L 1638 4134 
L -19 4134 
L -19 4666 
z
" transform="scale(0.015625)"/>
      <path id="DejaVuSans-58" d="M 544 1381 
L 544 3500 
L 1119 3500 
L 1119 1403 
Q 1119 906 1312 657 
Q 1506 409 1894 409 
Q 2359 409 2629 706 
Q 2900 1003 2900 1516 
L 2900 3500 
L 3475 3500 
L 3475 0 
L 2900 0 
L 2900 538 
Q 2691 219 2414 64 
Q 2138 -91 1772 -91 
Q 1169 -91 856 284 
Q 544 659 544 1381 
z
M 1991 3584 
L 1991 3584 
z
" transform="scale(0.015625)"/>
      <path id="DejaVuSans-50" d="M 3328 2828 
Q 3544 3216 3844 3400 
Q 4144 3584 4550 3584 
Q 5097 3584 5394 3201 
Q 5691 2819 5691 2113 
L 5691 0 
L 5113 0 
L 5113 2094 
Q 5113 2597 4934 2840 
Q 4756 3084 4391 3084 
Q 3944 3084 3684 2787 
Q 3425 2491 3425 1978 
L 3425 0 
L 2847 0 
L 2847 2094 
Q 2847 2600 2669 2842 
Q 2491 3084 2119 3084 
Q 1678 3084 1418 2786 
Q 1159 2488 1159 1978 
L 1159 0 
L 581 0 
L 581 3500 
L 1159 3500 
L 1159 2956 
Q 1356 3278 1631 3431 
Q 1906 3584 2284 3584 
Q 2666 3584 2933 3390 
Q 3200 3197 3328 2828 
z
" transform="scale(0.015625)"/>
      <path id="DejaVuSans-4b" d="M 3513 2113 
L 3513 0 
L 2938 0 
L 2938 2094 
Q 2938 2591 2744 2837 
Q 2550 3084 2163 3084 
Q 1697 3084 1428 2787 
Q 1159 2491 1159 1978 
L 1159 0 
L 581 0 
L 581 4863 
L 1159 4863 
L 1159 2956 
Q 1366 3272 1645 3428 
Q 1925 3584 2291 3584 
Q 2894 3584 3203 3211 
Q 3513 2838 3513 2113 
z
" transform="scale(0.015625)"/>
     </defs>
     <use xlink:href="#DejaVuSans-24" transform="translate(0 0.665625)"/>
     <use xlink:href="#DejaVuSans-4f" transform="translate(68.408203 0.665625)"/>
     <use xlink:href="#DejaVuSans-57" transform="translate(96.191406 0.665625)"/>
     <use xlink:href="#DejaVuSans-48" transform="translate(135.400391 0.665625)"/>
     <use xlink:href="#DejaVuSans-55" transform="translate(196.923828 0.665625)"/>
     <use xlink:href="#DejaVuSans-51" transform="translate(236.037109 0.665625)"/>
     <use xlink:href="#DejaVuSans-44" transform="translate(299.416016 0.665625)"/>
     <use xlink:href="#DejaVuSans-57" transform="translate(360.695312 0.665625)"/>
     <use xlink:href="#DejaVuSans-48" transform="translate(399.904297 0.665625)"/>
     <use xlink:href="#DejaVuSans-1d" transform="translate(461.427734 0.665625)"/>
     <use xlink:href="#DejaVuSans-3" transform="translate(495.119141 0.665625)"/>
     <use xlink:href="#DejaVuSans-3" transform="translate(526.90625 0.665625)"/>
     <use xlink:href="#DejaVuSans-Oblique-58" transform="translate(558.693359 0.665625)"/>
     <use xlink:href="#DejaVuSans-c1a" transform="translate(641.554688 0.665625)"/>
     <use xlink:href="#DejaVuSans-Oblique-44" transform="translate(744.826172 0.665625)"/>
     <use xlink:href="#DejaVuSans-12" transform="translate(806.105469 0.665625)"/>
     <use xlink:href="#DejaVuSans-b" transform="translate(839.796875 0.665625)"/>
     <use xlink:href="#DejaVuSans-Oblique-2e" transform="translate(878.810547 0.665625)"/>
     <use xlink:href="#DejaVuSans-Oblique-59" transform="translate(944.386719 0.665625)"/>
     <use xlink:href="#DejaVuSans-c" transform="translate(1003.566406 0.665625)"/>
     <use xlink:href="#DejaVuSans-3" transform="translate(1042.580078 0.665625)"/>
     <use xlink:href="#DejaVuSans-3" transform="translate(1074.367188 0.665625)"/>
     <use xlink:href="#DejaVuSans-3" transform="translate(1106.154297 0.665625)"/>
     <use xlink:href="#DejaVuSans-79" transform="translate(1137.941406 0.665625)"/>
     <use xlink:href="#DejaVuSans-3" transform="translate(1169.728516 0.665625)"/>
     <use xlink:href="#DejaVuSans-3" transform="translate(1201.515625 0.665625)"/>
     <use xlink:href="#DejaVuSans-3" transform="translate(1233.302734 0.665625)"/>
     <use xlink:href="#DejaVuSans-Oblique-59" transform="translate(1265.089844 0.665625)"/>
     <use xlink:href="#DejaVuSans-c1a" transform="translate(1343.751953 0.665625)"/>
     <use xlink:href="#DejaVuSans-Oblique-45" transform="translate(1447.023438 0.665625)"/>
     <use xlink:href="#DejaVuSans-12" transform="translate(1510.5 0.665625)"/>
     <use xlink:href="#DejaVuSans-b" transform="translate(1544.191406 0.665625)"/>
     <use xlink:href="#DejaVuSans-Oblique-2e" transform="translate(1583.205078 0.665625)"/>
     <use xlink:href="#DejaVuSans-37" transform="translate(1655.798021 41.965625) scale(0.7)"/>
     <use xlink:href="#DejaVuSans-Oblique-58" transform="translate(1701.291185 0.665625)"/>
     <use xlink:href="#DejaVuSans-c" transform="translate(1764.670091 0.665625)"/>
     <use xlink:href="#DejaVuSans-3" transform="translate(1803.683763 0.665625)"/>
     <use xlink:href="#DejaVuSans-3" transform="translate(1835.470872 0.665625)"/>
     <use xlink:href="#DejaVuSans-3" transform="translate(1867.257982 0.665625)"/>
     <use xlink:href="#DejaVuSans-58" transform="translate(1899.045091 0.665625)"/>
     <use xlink:href="#DejaVuSans-51" transform="translate(1962.423997 0.665625)"/>
     <use xlink:href="#DejaVuSans-57" transform="translate(2025.802904 0.665625)"/>
     <use xlink:href="#DejaVuSans-4c" transform="translate(2065.011888 0.665625)"/>
     <use xlink:href="#DejaVuSans-4f" transform="translate(2092.795091 0.665625)"/>
     <use xlink:href="#DejaVuSans-3" transform="translate(2120.578294 0.665625)"/>
     <use xlink:href="#DejaVuSans-50" transform="translate(2152.365404 0.665625)"/>
     <use xlink:href="#DejaVuSans-44" transform="translate(2249.777513 0.665625)"/>
     <use xlink:href="#DejaVuSans-55" transform="translate(2311.05681 0.665625)"/>
     <use xlink:href="#DejaVuSans-4a" transform="translate(2350.170091 0.665625)"/>
     <use xlink:href="#DejaVuSans-4c" transform="translate(2413.646654 0.665625)"/>
     <use xlink:href="#DejaVuSans-51" transform="translate(2441.429857 0.665625)"/>
     <use xlink:href="#DejaVuSans-56" transform="translate(2504.808763 0.665625)"/>
     <use xlink:href="#DejaVuSans-3" transform="translate(2556.908372 0.665625)"/>
     <use xlink:href="#DejaVuSans-50" transform="translate(2588.695482 0.665625)"/>
     <use xlink:href="#DejaVuSans-44" transform="translate(2686.107591 0.665625)"/>
     <use xlink:href="#DejaVuSans-57" transform="translate(2747.386888 0.665625)"/>
     <use xlink:href="#DejaVuSans-46" transform="translate(2786.595872 0.665625)"/>
     <use xlink:href="#DejaVuSans-4b" transform="translate(2841.576341 0.665625)"/>
    </g>
   </g>
  </g>
 </g>
 <defs>
  <clipPath id="p039820b3d0">
   <rect x="8.64" y="8.64" width="474.3" height="177.408"/>
  </clipPath>
 </defs>
</svg>
